G04*
G04 #@! TF.GenerationSoftware,Altium Limited,Altium Designer,19.1.8 (144)*
G04*
G04 Layer_Physical_Order=1*
G04 Layer_Color=255*
%FSLAX44Y44*%
%MOMM*%
G71*
G01*
G75*
%ADD21R,5.5000X1.7500*%
%ADD22O,2.4000X0.6000*%
%ADD23R,2.4000X0.6000*%
%ADD24C,0.6000*%
%ADD25C,0.3302*%
%ADD26C,1.5000*%
%ADD27R,1.5000X1.5000*%
%ADD28C,2.0000*%
%ADD29C,0.7620*%
G36*
X872160Y2590D02*
X2590D01*
Y635160D01*
X872160D01*
Y2590D01*
D02*
G37*
%LPC*%
G36*
X782170Y628520D02*
X724630D01*
Y608480D01*
X782170D01*
Y628520D01*
D02*
G37*
G36*
X704850Y581196D02*
X702561Y580894D01*
X700427Y580011D01*
X698595Y578605D01*
X697189Y576773D01*
X696306Y574639D01*
X696004Y572350D01*
X696306Y570061D01*
X697189Y567927D01*
X698595Y566095D01*
X700427Y564689D01*
X702561Y563806D01*
X704850Y563504D01*
X707139Y563806D01*
X709273Y564689D01*
X711105Y566095D01*
X712511Y567927D01*
X713394Y570061D01*
X713696Y572350D01*
X713394Y574639D01*
X712511Y576773D01*
X711105Y578605D01*
X709273Y580011D01*
X707139Y580894D01*
X704850Y581196D01*
D02*
G37*
G36*
X753400Y599867D02*
X750458Y599480D01*
X747716Y598344D01*
X745362Y596538D01*
X743556Y594184D01*
X742420Y591442D01*
X742033Y588500D01*
X742420Y585558D01*
X743556Y582816D01*
X745362Y580462D01*
X747716Y578656D01*
X750458Y577520D01*
X752321Y577275D01*
Y575225D01*
X750458Y574980D01*
X747716Y573844D01*
X745362Y572038D01*
X743556Y569684D01*
X742420Y566942D01*
X742033Y564000D01*
X742420Y561058D01*
X743556Y558316D01*
X745362Y555962D01*
X747716Y554156D01*
X750458Y553020D01*
X753400Y552633D01*
X756342Y553020D01*
X759084Y554156D01*
X761438Y555962D01*
X763244Y558316D01*
X764380Y561058D01*
X764767Y564000D01*
X764380Y566942D01*
X763244Y569684D01*
X761438Y572038D01*
X759084Y573844D01*
X756342Y574980D01*
X754479Y575225D01*
Y577275D01*
X756342Y577520D01*
X759084Y578656D01*
X761438Y580462D01*
X763244Y582816D01*
X764380Y585558D01*
X764767Y588500D01*
X764380Y591442D01*
X763244Y594184D01*
X761438Y596538D01*
X759084Y598344D01*
X756342Y599480D01*
X753400Y599867D01*
D02*
G37*
G36*
X704850Y555796D02*
X702561Y555494D01*
X700427Y554611D01*
X698595Y553205D01*
X697189Y551373D01*
X696306Y549239D01*
X696004Y546950D01*
X696306Y544661D01*
X697189Y542527D01*
X698595Y540695D01*
X700427Y539289D01*
X702561Y538406D01*
X704850Y538104D01*
X707139Y538406D01*
X707209Y538434D01*
X707222Y538422D01*
X708634Y537478D01*
X710300Y537146D01*
X720252D01*
X720710Y536490D01*
X721152Y535114D01*
X720181Y533662D01*
X720004Y532770D01*
X748796D01*
X748619Y533662D01*
X747648Y535114D01*
X748090Y536490D01*
X748548Y537146D01*
X758252D01*
X758710Y536490D01*
X759152Y535114D01*
X758181Y533662D01*
X758004Y532770D01*
X786796D01*
X786619Y533662D01*
X785394Y535494D01*
X784575Y536042D01*
X784479Y538413D01*
X784495Y538447D01*
X785422Y539834D01*
X785754Y541500D01*
X785422Y543166D01*
X784479Y544579D01*
X783066Y545522D01*
X781400Y545854D01*
X714657D01*
X713696Y546950D01*
X713394Y549239D01*
X712511Y551373D01*
X711105Y553205D01*
X709273Y554611D01*
X707139Y555494D01*
X704850Y555796D01*
D02*
G37*
G36*
X748796Y530230D02*
X720004D01*
X720181Y529338D01*
X721406Y527506D01*
X722222Y526961D01*
X722372Y526562D01*
X722373Y526558D01*
X721776Y524711D01*
X721530Y524656D01*
X721148Y524604D01*
X720155Y524534D01*
X719600Y524525D01*
X719491Y524478D01*
X719011D01*
X718905Y524525D01*
X718553Y524534D01*
X718264Y524558D01*
X718002Y524596D01*
X717768Y524647D01*
X717561Y524708D01*
X717379Y524778D01*
X717221Y524855D01*
X717083Y524940D01*
X716962Y525031D01*
X716803Y525177D01*
X716775Y525188D01*
X715132Y526285D01*
X713150Y526679D01*
X711168Y526285D01*
X709526Y525188D01*
X709497Y525177D01*
X709338Y525031D01*
X709217Y524940D01*
X709079Y524855D01*
X708921Y524778D01*
X708739Y524708D01*
X708532Y524647D01*
X708298Y524596D01*
X708036Y524558D01*
X707747Y524534D01*
X707394Y524525D01*
X707289Y524478D01*
X425400D01*
X424260Y524252D01*
X423294Y523606D01*
X25688Y126000D01*
X25584Y125961D01*
X24307Y124775D01*
X23796Y124364D01*
X23345Y124048D01*
X23123Y123920D01*
X21955D01*
X21850Y123964D01*
X21744Y123920D01*
X21742D01*
X21632Y123946D01*
X21589Y123920D01*
X10280D01*
Y106380D01*
X27820D01*
Y117689D01*
X27846Y117732D01*
X27820Y117842D01*
Y117844D01*
X27864Y117950D01*
X27820Y118055D01*
Y119223D01*
X27948Y119445D01*
X28254Y119881D01*
X29217Y121017D01*
X29843Y121664D01*
X29887Y121775D01*
X426634Y518522D01*
X707289D01*
X707394Y518475D01*
X707747Y518466D01*
X708036Y518442D01*
X708298Y518404D01*
X708532Y518353D01*
X708739Y518292D01*
X708921Y518222D01*
X709079Y518145D01*
X709217Y518060D01*
X709338Y517969D01*
X709497Y517823D01*
X709525Y517812D01*
X710115Y517418D01*
X710244Y515223D01*
X709569Y514530D01*
X709395Y514525D01*
X709289Y514478D01*
X440800D01*
X439660Y514252D01*
X438694Y513606D01*
X50823Y125735D01*
X50726Y125702D01*
X50342Y125361D01*
X49964Y125098D01*
X49525Y124857D01*
X49019Y124641D01*
X48445Y124453D01*
X47801Y124296D01*
X47106Y124175D01*
X45437Y124035D01*
X44509Y124024D01*
X44439Y123994D01*
X42161Y123694D01*
X40027Y122811D01*
X38195Y121405D01*
X36789Y119573D01*
X35906Y117439D01*
X35604Y115150D01*
X35906Y112861D01*
X36789Y110727D01*
X38195Y108895D01*
X40027Y107489D01*
X42161Y106606D01*
X44450Y106304D01*
X46739Y106606D01*
X48873Y107489D01*
X50705Y108895D01*
X52111Y110727D01*
X52994Y112861D01*
X53294Y115139D01*
X53324Y115209D01*
X53335Y116155D01*
X53385Y117006D01*
X53472Y117788D01*
X53596Y118501D01*
X53753Y119145D01*
X53941Y119719D01*
X54158Y120225D01*
X54398Y120665D01*
X54661Y121042D01*
X55002Y121426D01*
X55035Y121523D01*
X442034Y508522D01*
X709289D01*
X709395Y508475D01*
X709746Y508466D01*
X710036Y508442D01*
X710298Y508404D01*
X710532Y508353D01*
X710739Y508292D01*
X710921Y508222D01*
X711079Y508145D01*
X711217Y508060D01*
X711338Y507969D01*
X711497Y507823D01*
X711525Y507812D01*
X713168Y506715D01*
X715150Y506320D01*
X717132Y506715D01*
X718775Y507812D01*
X718803Y507823D01*
X718962Y507969D01*
X719083Y508060D01*
X719221Y508145D01*
X719379Y508222D01*
X719561Y508292D01*
X719768Y508353D01*
X720002Y508404D01*
X720264Y508442D01*
X720405Y508453D01*
X720658Y508441D01*
X721566Y508338D01*
X721800Y508293D01*
X722376Y506453D01*
X722372Y506438D01*
X722222Y506039D01*
X721406Y505494D01*
X720181Y503662D01*
X720004Y502770D01*
X748796D01*
X748619Y503662D01*
X747394Y505494D01*
X746574Y506042D01*
X746479Y508413D01*
X746496Y508447D01*
X747422Y509834D01*
X747754Y511500D01*
X747422Y513166D01*
X746479Y514579D01*
X745200Y515433D01*
X745075Y516500D01*
X745200Y517567D01*
X746479Y518422D01*
X747422Y519834D01*
X747754Y521500D01*
X747422Y523166D01*
X746496Y524553D01*
X746479Y524587D01*
X746574Y526958D01*
X747394Y527506D01*
X748619Y529338D01*
X748796Y530230D01*
D02*
G37*
G36*
X786796D02*
X758004D01*
X758181Y529338D01*
X759406Y527506D01*
X760226Y526958D01*
X760321Y524587D01*
X760304Y524553D01*
X759378Y523166D01*
X759046Y521500D01*
X759378Y519834D01*
X760322Y518422D01*
X761600Y517567D01*
X761725Y516500D01*
X761600Y515433D01*
X760322Y514579D01*
X759378Y513166D01*
X759046Y511500D01*
X759378Y509834D01*
X760304Y508447D01*
X760321Y508413D01*
X760226Y506042D01*
X759406Y505494D01*
X758181Y503662D01*
X758004Y502770D01*
X786796D01*
X786619Y503662D01*
X785394Y505494D01*
X785304Y505555D01*
X785181Y506364D01*
X785399Y507406D01*
X785482Y507543D01*
X785594Y507707D01*
X785725Y507850D01*
X786147Y507939D01*
X786784Y508010D01*
X786838Y507969D01*
X786997Y507823D01*
X787026Y507812D01*
X788668Y506715D01*
X790650Y506320D01*
X792632Y506715D01*
X794313Y507837D01*
X795435Y509518D01*
X795829Y511500D01*
X795435Y513482D01*
X794313Y515163D01*
X793299Y515840D01*
X793104Y517897D01*
X793185Y518174D01*
X793275Y518231D01*
X793782Y518353D01*
X793989Y518292D01*
X794171Y518222D01*
X794329Y518145D01*
X794467Y518060D01*
X794588Y517969D01*
X794747Y517823D01*
X794775Y517812D01*
X796418Y516715D01*
X798400Y516320D01*
X800382Y516715D01*
X802063Y517837D01*
X803185Y519518D01*
X803579Y521500D01*
X803185Y523482D01*
X802063Y525163D01*
X800382Y526285D01*
X798400Y526679D01*
X796418Y526285D01*
X794775Y525188D01*
X794747Y525177D01*
X794588Y525031D01*
X794467Y524940D01*
X794329Y524855D01*
X794171Y524778D01*
X793989Y524708D01*
X793782Y524647D01*
X793548Y524596D01*
X793286Y524558D01*
X792997Y524534D01*
X792645Y524525D01*
X792539Y524478D01*
X787309D01*
X787200Y524525D01*
X786632Y524534D01*
X786142Y524560D01*
X785234Y524662D01*
X785003Y524706D01*
X784424Y526547D01*
X784428Y526562D01*
X784578Y526961D01*
X785394Y527506D01*
X786619Y529338D01*
X786796Y530230D01*
D02*
G37*
G36*
X748796Y500230D02*
X720004D01*
X720181Y499338D01*
X721406Y497506D01*
X722222Y496961D01*
X722372Y496562D01*
X722373Y496558D01*
X721776Y494711D01*
X721530Y494656D01*
X721148Y494604D01*
X720508Y494559D01*
X720252Y494596D01*
X720018Y494647D01*
X719811Y494708D01*
X719629Y494778D01*
X719471Y494855D01*
X719333Y494940D01*
X719212Y495031D01*
X719053Y495177D01*
X719025Y495188D01*
X717382Y496285D01*
X715400Y496679D01*
X713418Y496285D01*
X711775Y495188D01*
X711747Y495177D01*
X711588Y495031D01*
X711467Y494940D01*
X711329Y494855D01*
X711171Y494778D01*
X710989Y494708D01*
X710782Y494647D01*
X710548Y494596D01*
X710286Y494558D01*
X709996Y494534D01*
X709644Y494525D01*
X709539Y494478D01*
X446200D01*
X445060Y494252D01*
X444094Y493606D01*
X76223Y125735D01*
X76126Y125702D01*
X75742Y125361D01*
X75364Y125098D01*
X74925Y124857D01*
X74419Y124641D01*
X73845Y124453D01*
X73201Y124296D01*
X72506Y124175D01*
X70837Y124035D01*
X69909Y124024D01*
X69839Y123994D01*
X67561Y123694D01*
X65427Y122811D01*
X63595Y121405D01*
X62189Y119573D01*
X61306Y117439D01*
X61004Y115150D01*
X61306Y112861D01*
X62189Y110727D01*
X63595Y108895D01*
X65427Y107489D01*
X67561Y106606D01*
X69850Y106304D01*
X72139Y106606D01*
X74273Y107489D01*
X76105Y108895D01*
X77511Y110727D01*
X78394Y112861D01*
X78694Y115139D01*
X78724Y115209D01*
X78735Y116155D01*
X78785Y117006D01*
X78872Y117788D01*
X78996Y118501D01*
X79153Y119145D01*
X79341Y119719D01*
X79557Y120225D01*
X79798Y120665D01*
X80061Y121042D01*
X80402Y121426D01*
X80435Y121523D01*
X447434Y488522D01*
X709539D01*
X709645Y488475D01*
X709996Y488466D01*
X710286Y488442D01*
X710548Y488404D01*
X710782Y488353D01*
X710989Y488292D01*
X711171Y488222D01*
X711329Y488145D01*
X711467Y488060D01*
X711588Y487969D01*
X711747Y487823D01*
X711775Y487812D01*
X711910Y487722D01*
Y485278D01*
X711775Y485188D01*
X711747Y485177D01*
X711588Y485031D01*
X711467Y484940D01*
X711329Y484855D01*
X711171Y484778D01*
X710989Y484708D01*
X710782Y484647D01*
X710548Y484596D01*
X710286Y484558D01*
X709996Y484534D01*
X709644Y484525D01*
X709539Y484478D01*
X461600D01*
X460460Y484252D01*
X459494Y483606D01*
X101623Y125735D01*
X101526Y125702D01*
X101142Y125361D01*
X100764Y125098D01*
X100325Y124857D01*
X99819Y124641D01*
X99245Y124453D01*
X98601Y124296D01*
X97906Y124175D01*
X96237Y124035D01*
X95309Y124024D01*
X95239Y123994D01*
X92961Y123694D01*
X90827Y122811D01*
X88995Y121405D01*
X87589Y119573D01*
X86706Y117439D01*
X86404Y115150D01*
X86706Y112861D01*
X87589Y110727D01*
X88995Y108895D01*
X90827Y107489D01*
X92961Y106606D01*
X95250Y106304D01*
X97539Y106606D01*
X99673Y107489D01*
X101505Y108895D01*
X102911Y110727D01*
X103794Y112861D01*
X104094Y115139D01*
X104124Y115209D01*
X104135Y116155D01*
X104185Y117006D01*
X104272Y117788D01*
X104396Y118501D01*
X104553Y119145D01*
X104741Y119719D01*
X104958Y120225D01*
X105198Y120665D01*
X105461Y121042D01*
X105802Y121426D01*
X105835Y121523D01*
X462834Y478522D01*
X709539D01*
X709645Y478475D01*
X709996Y478466D01*
X710286Y478442D01*
X710548Y478404D01*
X710782Y478353D01*
X710989Y478292D01*
X711171Y478222D01*
X711329Y478145D01*
X711467Y478060D01*
X711588Y477969D01*
X711747Y477823D01*
X711775Y477812D01*
X713418Y476715D01*
X715400Y476320D01*
X717382Y476715D01*
X719025Y477812D01*
X719053Y477823D01*
X719212Y477969D01*
X719333Y478060D01*
X719471Y478145D01*
X719629Y478222D01*
X719811Y478292D01*
X720018Y478353D01*
X720252Y478404D01*
X720514Y478442D01*
X720559Y478446D01*
X720658Y478441D01*
X721566Y478338D01*
X721800Y478293D01*
X722376Y476453D01*
X722372Y476438D01*
X722222Y476039D01*
X721406Y475494D01*
X720181Y473662D01*
X720004Y472770D01*
X748796D01*
X748619Y473662D01*
X747394Y475494D01*
X746574Y476042D01*
X746479Y478413D01*
X746496Y478447D01*
X747422Y479834D01*
X747754Y481500D01*
X747422Y483166D01*
X746479Y484579D01*
X745200Y485433D01*
X745075Y486500D01*
X745200Y487567D01*
X746479Y488422D01*
X747422Y489834D01*
X747754Y491500D01*
X747422Y493166D01*
X746496Y494553D01*
X746479Y494587D01*
X746574Y496958D01*
X747394Y497506D01*
X748619Y499338D01*
X748796Y500230D01*
D02*
G37*
G36*
X786796D02*
X758004D01*
X758181Y499338D01*
X759406Y497506D01*
X760226Y496958D01*
X760321Y494587D01*
X760304Y494553D01*
X759378Y493166D01*
X759046Y491500D01*
X759378Y489834D01*
X760322Y488422D01*
X761600Y487567D01*
X761725Y486500D01*
X761600Y485433D01*
X760322Y484579D01*
X759378Y483166D01*
X759046Y481500D01*
X759378Y479834D01*
X760304Y478447D01*
X760321Y478413D01*
X760226Y476042D01*
X759406Y475494D01*
X758181Y473662D01*
X758004Y472770D01*
X786796D01*
X786619Y473662D01*
X785394Y475494D01*
X784578Y476039D01*
X784553Y476107D01*
X785358Y477711D01*
X785592Y478032D01*
X786784Y478167D01*
X786829Y478145D01*
X786967Y478060D01*
X787088Y477969D01*
X787247Y477823D01*
X787275Y477812D01*
X788918Y476715D01*
X790900Y476320D01*
X792882Y476715D01*
X794563Y477837D01*
X795685Y479518D01*
X796079Y481500D01*
X795685Y483482D01*
X794563Y485163D01*
X793585Y485816D01*
X793453Y486078D01*
X793357Y487724D01*
X793492Y488135D01*
X793989Y488292D01*
X794171Y488222D01*
X794329Y488145D01*
X794467Y488060D01*
X794588Y487969D01*
X794747Y487823D01*
X794775Y487812D01*
X796418Y486715D01*
X798400Y486320D01*
X800382Y486715D01*
X802063Y487837D01*
X803185Y489518D01*
X803579Y491500D01*
X803185Y493482D01*
X802063Y495163D01*
X800382Y496285D01*
X798400Y496679D01*
X796418Y496285D01*
X794775Y495188D01*
X794747Y495177D01*
X794588Y495031D01*
X794467Y494940D01*
X794329Y494855D01*
X794171Y494778D01*
X793989Y494708D01*
X793782Y494647D01*
X793548Y494596D01*
X793286Y494558D01*
X792997Y494534D01*
X792645Y494525D01*
X792539Y494478D01*
X787309D01*
X787200Y494525D01*
X786632Y494534D01*
X786142Y494559D01*
X785234Y494662D01*
X785003Y494706D01*
X784424Y496547D01*
X784428Y496562D01*
X784578Y496961D01*
X785394Y497506D01*
X786619Y499338D01*
X786796Y500230D01*
D02*
G37*
G36*
X748796Y470230D02*
X720004D01*
X720181Y469338D01*
X721406Y467506D01*
X722222Y466961D01*
X722372Y466562D01*
X722373Y466558D01*
X721776Y464710D01*
X721530Y464656D01*
X721148Y464604D01*
X720155Y464534D01*
X719600Y464525D01*
X719501Y464483D01*
X719406Y464525D01*
X719053Y464534D01*
X718764Y464558D01*
X718502Y464596D01*
X718268Y464647D01*
X718061Y464708D01*
X717879Y464778D01*
X717721Y464855D01*
X717583Y464940D01*
X717462Y465031D01*
X717303Y465177D01*
X717275Y465188D01*
X715632Y466285D01*
X713650Y466679D01*
X711668Y466285D01*
X710025Y465188D01*
X709997Y465177D01*
X709838Y465031D01*
X709717Y464940D01*
X709579Y464855D01*
X709421Y464778D01*
X709239Y464708D01*
X709032Y464647D01*
X708798Y464596D01*
X708536Y464558D01*
X708247Y464534D01*
X707895Y464525D01*
X707789Y464478D01*
X467000D01*
X465860Y464252D01*
X464894Y463606D01*
X127023Y125735D01*
X126926Y125702D01*
X126542Y125361D01*
X126164Y125098D01*
X125725Y124857D01*
X125219Y124641D01*
X124645Y124453D01*
X124001Y124296D01*
X123306Y124175D01*
X121637Y124035D01*
X120709Y124024D01*
X120639Y123994D01*
X118361Y123694D01*
X116227Y122811D01*
X114395Y121405D01*
X112989Y119573D01*
X112106Y117439D01*
X111804Y115150D01*
X112106Y112861D01*
X112989Y110727D01*
X114395Y108895D01*
X116227Y107489D01*
X118361Y106606D01*
X120650Y106304D01*
X122939Y106606D01*
X125073Y107489D01*
X126905Y108895D01*
X128311Y110727D01*
X129194Y112861D01*
X129494Y115139D01*
X129524Y115209D01*
X129535Y116155D01*
X129585Y117006D01*
X129672Y117788D01*
X129796Y118501D01*
X129953Y119145D01*
X130141Y119719D01*
X130358Y120225D01*
X130598Y120665D01*
X130861Y121042D01*
X131202Y121426D01*
X131235Y121523D01*
X468234Y458522D01*
X707789D01*
X707895Y458475D01*
X708247Y458466D01*
X708536Y458442D01*
X708798Y458404D01*
X709032Y458353D01*
X709239Y458292D01*
X709421Y458222D01*
X709579Y458145D01*
X709717Y458060D01*
X709838Y457969D01*
X709997Y457823D01*
X710025Y457812D01*
X710285Y457638D01*
Y455195D01*
X710275Y455188D01*
X710247Y455177D01*
X710088Y455031D01*
X709967Y454940D01*
X709829Y454855D01*
X709671Y454778D01*
X709489Y454708D01*
X709282Y454647D01*
X709048Y454596D01*
X708786Y454558D01*
X708496Y454534D01*
X708145Y454525D01*
X708039Y454478D01*
X482400D01*
X481260Y454252D01*
X480294Y453606D01*
X152423Y125735D01*
X152326Y125702D01*
X151942Y125361D01*
X151564Y125098D01*
X151125Y124857D01*
X150619Y124641D01*
X150045Y124453D01*
X149401Y124296D01*
X148706Y124175D01*
X147037Y124035D01*
X146109Y124024D01*
X146039Y123994D01*
X143761Y123694D01*
X141627Y122811D01*
X139795Y121405D01*
X138389Y119573D01*
X137506Y117439D01*
X137204Y115150D01*
X137506Y112861D01*
X138389Y110727D01*
X139795Y108895D01*
X141627Y107489D01*
X143761Y106606D01*
X146050Y106304D01*
X148339Y106606D01*
X150473Y107489D01*
X152305Y108895D01*
X153711Y110727D01*
X154594Y112861D01*
X154894Y115139D01*
X154924Y115209D01*
X154935Y116155D01*
X154985Y117006D01*
X155072Y117788D01*
X155196Y118501D01*
X155353Y119145D01*
X155541Y119719D01*
X155758Y120225D01*
X155998Y120665D01*
X156261Y121042D01*
X156602Y121426D01*
X156635Y121523D01*
X483634Y448522D01*
X708039D01*
X708145Y448475D01*
X708496Y448466D01*
X708786Y448442D01*
X709048Y448404D01*
X709282Y448353D01*
X709489Y448292D01*
X709671Y448222D01*
X709829Y448145D01*
X709967Y448060D01*
X710088Y447969D01*
X710247Y447823D01*
X710275Y447812D01*
X710723Y447513D01*
X710903Y445613D01*
X710743Y445156D01*
X710573Y445018D01*
X710438Y444928D01*
X710286Y444845D01*
X710113Y444769D01*
X709918Y444700D01*
X709697Y444641D01*
X709452Y444592D01*
X709180Y444556D01*
X708884Y444534D01*
X708529Y444525D01*
X708423Y444478D01*
X497800D01*
X496660Y444252D01*
X495694Y443606D01*
X177823Y125735D01*
X177726Y125702D01*
X177342Y125361D01*
X176964Y125098D01*
X176525Y124857D01*
X176019Y124641D01*
X175445Y124453D01*
X174801Y124296D01*
X174106Y124175D01*
X172437Y124035D01*
X171509Y124024D01*
X171439Y123994D01*
X169161Y123694D01*
X167027Y122811D01*
X165195Y121405D01*
X163789Y119573D01*
X162906Y117439D01*
X162604Y115150D01*
X162906Y112861D01*
X163789Y110727D01*
X165195Y108895D01*
X167027Y107489D01*
X169161Y106606D01*
X171450Y106304D01*
X173739Y106606D01*
X175873Y107489D01*
X177705Y108895D01*
X179111Y110727D01*
X179994Y112861D01*
X180294Y115139D01*
X180324Y115209D01*
X180335Y116155D01*
X180385Y117006D01*
X180472Y117788D01*
X180596Y118501D01*
X180753Y119145D01*
X180941Y119719D01*
X181157Y120225D01*
X181398Y120665D01*
X181661Y121042D01*
X182002Y121426D01*
X182035Y121523D01*
X499034Y438522D01*
X708134D01*
X708221Y438478D01*
X708252Y438489D01*
X708283Y438475D01*
X708633Y438465D01*
X708916Y438440D01*
X709168Y438401D01*
X709391Y438349D01*
X709584Y438288D01*
X709751Y438218D01*
X709893Y438141D01*
X710015Y438059D01*
X710121Y437969D01*
X710267Y437817D01*
X710275Y437813D01*
X710278Y437805D01*
X710368Y437767D01*
X710488Y437588D01*
X710786Y437388D01*
X711000Y436241D01*
X710823Y435018D01*
X710688Y434928D01*
X710536Y434845D01*
X710363Y434768D01*
X710167Y434700D01*
X709947Y434641D01*
X709702Y434592D01*
X709430Y434556D01*
X709134Y434534D01*
X708779Y434525D01*
X708673Y434478D01*
X513200D01*
X512060Y434252D01*
X511094Y433606D01*
X203223Y125735D01*
X203127Y125702D01*
X202742Y125361D01*
X202364Y125098D01*
X201925Y124857D01*
X201419Y124641D01*
X200845Y124453D01*
X200201Y124296D01*
X199506Y124175D01*
X197838Y124035D01*
X196909Y124024D01*
X196839Y123994D01*
X194561Y123694D01*
X192427Y122811D01*
X190595Y121405D01*
X189189Y119573D01*
X188306Y117439D01*
X188004Y115150D01*
X188306Y112861D01*
X189189Y110727D01*
X190595Y108895D01*
X192427Y107489D01*
X194561Y106606D01*
X196850Y106304D01*
X199139Y106606D01*
X201273Y107489D01*
X203105Y108895D01*
X204511Y110727D01*
X205394Y112861D01*
X205694Y115139D01*
X205724Y115209D01*
X205735Y116155D01*
X205785Y117006D01*
X205872Y117788D01*
X205996Y118501D01*
X206153Y119145D01*
X206341Y119719D01*
X206558Y120225D01*
X206798Y120665D01*
X207061Y121042D01*
X207402Y121426D01*
X207435Y121523D01*
X514434Y428522D01*
X708384D01*
X708471Y428478D01*
X708503Y428489D01*
X708533Y428475D01*
X708883Y428465D01*
X709166Y428440D01*
X709418Y428401D01*
X709641Y428349D01*
X709834Y428288D01*
X710001Y428218D01*
X710143Y428141D01*
X710265Y428059D01*
X710371Y427969D01*
X710517Y427817D01*
X710525Y427813D01*
X710528Y427805D01*
X710618Y427767D01*
X710738Y427588D01*
X712418Y426465D01*
X714400Y426071D01*
X716382Y426465D01*
X718063Y427588D01*
X718182Y427767D01*
X718272Y427805D01*
X718275Y427813D01*
X718283Y427817D01*
X718429Y427969D01*
X718535Y428059D01*
X718657Y428141D01*
X718800Y428218D01*
X718966Y428288D01*
X719159Y428349D01*
X719382Y428401D01*
X719634Y428440D01*
X719917Y428465D01*
X720015Y428468D01*
X720168Y428465D01*
X720658Y428441D01*
X721566Y428338D01*
X721800Y428293D01*
X722376Y426453D01*
X722372Y426438D01*
X722222Y426039D01*
X721406Y425494D01*
X720181Y423662D01*
X720004Y422770D01*
X748796D01*
X748619Y423662D01*
X747394Y425494D01*
X746574Y426042D01*
X746479Y428413D01*
X746496Y428447D01*
X747422Y429834D01*
X747754Y431500D01*
X747422Y433166D01*
X746479Y434579D01*
X745200Y435433D01*
X745075Y436500D01*
X745200Y437567D01*
X746479Y438422D01*
X747422Y439834D01*
X747754Y441500D01*
X747422Y443166D01*
X746479Y444579D01*
X745200Y445433D01*
X745075Y446500D01*
X745200Y447567D01*
X746479Y448422D01*
X747422Y449834D01*
X747754Y451500D01*
X747422Y453166D01*
X746479Y454579D01*
X745200Y455433D01*
X745075Y456500D01*
X745200Y457567D01*
X746479Y458422D01*
X747422Y459834D01*
X747754Y461500D01*
X747422Y463166D01*
X746496Y464553D01*
X746479Y464587D01*
X746574Y466958D01*
X747394Y467506D01*
X748619Y469338D01*
X748796Y470230D01*
D02*
G37*
G36*
X786796D02*
X758004D01*
X758181Y469338D01*
X759406Y467506D01*
X760226Y466958D01*
X760321Y464587D01*
X760304Y464553D01*
X759378Y463166D01*
X759046Y461500D01*
X759378Y459834D01*
X760322Y458422D01*
X761600Y457567D01*
X761725Y456500D01*
X761600Y455433D01*
X760322Y454579D01*
X759378Y453166D01*
X759046Y451500D01*
X759378Y449834D01*
X760322Y448422D01*
X761600Y447567D01*
X761725Y446500D01*
X761600Y445433D01*
X760322Y444579D01*
X759378Y443166D01*
X759046Y441500D01*
X759378Y439834D01*
X760322Y438422D01*
X761600Y437567D01*
X761725Y436500D01*
X761600Y435433D01*
X760322Y434579D01*
X759378Y433166D01*
X759046Y431500D01*
X759378Y429834D01*
X760304Y428447D01*
X760321Y428413D01*
X760226Y426042D01*
X759406Y425494D01*
X758181Y423662D01*
X758004Y422770D01*
X786796D01*
X786619Y423662D01*
X785394Y425494D01*
X784578Y426039D01*
X784428Y426438D01*
X784427Y426442D01*
X784873Y427820D01*
X786913Y428225D01*
X786921Y428222D01*
X787079Y428145D01*
X787217Y428060D01*
X787338Y427969D01*
X787497Y427823D01*
X787525Y427812D01*
X789168Y426715D01*
X791150Y426320D01*
X793132Y426715D01*
X794812Y427837D01*
X795935Y429518D01*
X796329Y431500D01*
X795935Y433482D01*
X794812Y435163D01*
X795918Y436715D01*
X797900Y436320D01*
X799882Y436715D01*
X801562Y437837D01*
X802685Y439518D01*
X803080Y441500D01*
X802685Y443482D01*
X801562Y445163D01*
X799882Y446285D01*
X797900Y446679D01*
X795918Y446285D01*
X794275Y445188D01*
X794247Y445177D01*
X794088Y445031D01*
X794033Y444989D01*
X793908Y445005D01*
X793525Y445950D01*
X793508Y447027D01*
X793532Y447089D01*
X793557Y447133D01*
X793650Y447228D01*
X794563Y447837D01*
X795685Y449518D01*
X796079Y451500D01*
X795685Y453482D01*
X794724Y454920D01*
X795410Y456138D01*
X795839Y456631D01*
X797400Y456320D01*
X799382Y456715D01*
X801062Y457837D01*
X802185Y459518D01*
X802579Y461500D01*
X802185Y463482D01*
X801062Y465163D01*
X799382Y466285D01*
X797400Y466679D01*
X795418Y466285D01*
X793775Y465188D01*
X793747Y465177D01*
X793588Y465031D01*
X793467Y464940D01*
X793329Y464855D01*
X793171Y464778D01*
X792989Y464708D01*
X792782Y464647D01*
X792548Y464596D01*
X792286Y464558D01*
X791997Y464534D01*
X791645Y464525D01*
X791539Y464478D01*
X787309D01*
X787200Y464525D01*
X786632Y464534D01*
X786142Y464559D01*
X785234Y464662D01*
X785003Y464706D01*
X784424Y466547D01*
X784428Y466562D01*
X784578Y466961D01*
X785394Y467506D01*
X786619Y469338D01*
X786796Y470230D01*
D02*
G37*
G36*
X748796Y420230D02*
X720004D01*
X720181Y419338D01*
X721406Y417506D01*
X722222Y416961D01*
X722372Y416562D01*
X722373Y416558D01*
X721776Y414710D01*
X721530Y414656D01*
X721148Y414604D01*
X720235Y414540D01*
X720014Y414558D01*
X719752Y414596D01*
X719518Y414647D01*
X719311Y414708D01*
X719129Y414778D01*
X718971Y414855D01*
X718833Y414940D01*
X718712Y415031D01*
X718553Y415177D01*
X718525Y415188D01*
X716882Y416285D01*
X714900Y416679D01*
X712918Y416285D01*
X711275Y415188D01*
X711247Y415177D01*
X711088Y415031D01*
X710967Y414940D01*
X710829Y414855D01*
X710671Y414778D01*
X710489Y414708D01*
X710282Y414647D01*
X710048Y414596D01*
X709786Y414558D01*
X709497Y414534D01*
X709145Y414525D01*
X709039Y414478D01*
X518600D01*
X517460Y414252D01*
X516494Y413606D01*
X228623Y125735D01*
X228526Y125702D01*
X228142Y125361D01*
X227764Y125098D01*
X227325Y124857D01*
X226819Y124641D01*
X226245Y124453D01*
X225601Y124296D01*
X224906Y124175D01*
X223237Y124035D01*
X222309Y124024D01*
X222239Y123994D01*
X219961Y123694D01*
X217827Y122811D01*
X215995Y121405D01*
X214589Y119573D01*
X213706Y117439D01*
X213404Y115150D01*
X213706Y112861D01*
X214589Y110727D01*
X215995Y108895D01*
X217827Y107489D01*
X219961Y106606D01*
X222250Y106304D01*
X224539Y106606D01*
X226673Y107489D01*
X228505Y108895D01*
X229911Y110727D01*
X230794Y112861D01*
X231094Y115139D01*
X231124Y115209D01*
X231135Y116155D01*
X231185Y117006D01*
X231272Y117788D01*
X231396Y118501D01*
X231553Y119145D01*
X231741Y119719D01*
X231957Y120225D01*
X232198Y120665D01*
X232461Y121042D01*
X232802Y121426D01*
X232835Y121523D01*
X519834Y408522D01*
X706996D01*
X707196Y406490D01*
X706168Y406285D01*
X704525Y405188D01*
X704497Y405177D01*
X704338Y405031D01*
X704217Y404940D01*
X704079Y404855D01*
X703921Y404778D01*
X703739Y404708D01*
X703532Y404647D01*
X703298Y404596D01*
X703036Y404558D01*
X702747Y404534D01*
X702394Y404525D01*
X702289Y404478D01*
X534000D01*
X532860Y404252D01*
X531894Y403606D01*
X254023Y125735D01*
X253927Y125702D01*
X253542Y125361D01*
X253164Y125098D01*
X252725Y124857D01*
X252219Y124641D01*
X251645Y124453D01*
X251001Y124296D01*
X250306Y124175D01*
X248638Y124035D01*
X247709Y124024D01*
X247639Y123994D01*
X245361Y123694D01*
X243227Y122811D01*
X241395Y121405D01*
X239989Y119573D01*
X239106Y117439D01*
X238804Y115150D01*
X239106Y112861D01*
X239989Y110727D01*
X241395Y108895D01*
X243227Y107489D01*
X245361Y106606D01*
X247650Y106304D01*
X249939Y106606D01*
X252073Y107489D01*
X253905Y108895D01*
X255311Y110727D01*
X256194Y112861D01*
X256494Y115139D01*
X256524Y115209D01*
X256535Y116155D01*
X256585Y117006D01*
X256672Y117788D01*
X256796Y118501D01*
X256953Y119145D01*
X257141Y119719D01*
X257358Y120225D01*
X257598Y120665D01*
X257861Y121042D01*
X258202Y121426D01*
X258235Y121523D01*
X535234Y398522D01*
X702289D01*
X702395Y398475D01*
X702747Y398466D01*
X703036Y398442D01*
X703298Y398404D01*
X703532Y398353D01*
X703739Y398292D01*
X703921Y398222D01*
X704079Y398145D01*
X704217Y398060D01*
X704338Y397969D01*
X704497Y397823D01*
X704526Y397812D01*
X706168Y396715D01*
X707145Y396520D01*
X707196Y396510D01*
X707129Y395827D01*
X705656Y394478D01*
X549400D01*
X548260Y394252D01*
X547294Y393606D01*
X279423Y125735D01*
X279326Y125702D01*
X278942Y125361D01*
X278564Y125098D01*
X278125Y124857D01*
X277619Y124641D01*
X277045Y124453D01*
X276401Y124296D01*
X275706Y124175D01*
X274037Y124035D01*
X273109Y124024D01*
X273039Y123994D01*
X270761Y123694D01*
X268627Y122811D01*
X266795Y121405D01*
X265389Y119573D01*
X264506Y117439D01*
X264204Y115150D01*
X264506Y112861D01*
X265389Y110727D01*
X266795Y108895D01*
X268627Y107489D01*
X270761Y106606D01*
X273050Y106304D01*
X275339Y106606D01*
X277473Y107489D01*
X279305Y108895D01*
X280711Y110727D01*
X281594Y112861D01*
X281894Y115139D01*
X281924Y115209D01*
X281935Y116155D01*
X281985Y117006D01*
X282072Y117788D01*
X282196Y118501D01*
X282353Y119145D01*
X282541Y119719D01*
X282757Y120225D01*
X282998Y120665D01*
X283261Y121042D01*
X283602Y121426D01*
X283635Y121523D01*
X550634Y388522D01*
X704908D01*
X706379Y387167D01*
Y387167D01*
D01*
X706446Y386490D01*
X706395Y386480D01*
X705418Y386285D01*
X703775Y385188D01*
X703747Y385177D01*
X703588Y385031D01*
X703467Y384940D01*
X703329Y384855D01*
X703171Y384778D01*
X702989Y384708D01*
X702782Y384647D01*
X702548Y384596D01*
X702286Y384558D01*
X701997Y384534D01*
X701645Y384525D01*
X701539Y384478D01*
X564800D01*
X563660Y384252D01*
X562694Y383606D01*
X304823Y125735D01*
X304727Y125702D01*
X304342Y125361D01*
X303964Y125098D01*
X303525Y124857D01*
X303019Y124641D01*
X302445Y124453D01*
X301801Y124296D01*
X301106Y124175D01*
X299438Y124035D01*
X298509Y124024D01*
X298439Y123994D01*
X296161Y123694D01*
X294027Y122811D01*
X292195Y121405D01*
X290789Y119573D01*
X289906Y117439D01*
X289604Y115150D01*
X289906Y112861D01*
X290789Y110727D01*
X292195Y108895D01*
X294027Y107489D01*
X296161Y106606D01*
X298450Y106304D01*
X300739Y106606D01*
X302873Y107489D01*
X304705Y108895D01*
X306111Y110727D01*
X306994Y112861D01*
X307294Y115139D01*
X307324Y115209D01*
X307335Y116155D01*
X307385Y117006D01*
X307472Y117788D01*
X307596Y118501D01*
X307753Y119145D01*
X307941Y119719D01*
X308158Y120225D01*
X308398Y120665D01*
X308661Y121042D01*
X309002Y121426D01*
X309035Y121523D01*
X566034Y378522D01*
X701539D01*
X701645Y378475D01*
X701997Y378466D01*
X702286Y378442D01*
X702548Y378404D01*
X702782Y378353D01*
X702989Y378292D01*
X703171Y378222D01*
X703329Y378145D01*
X703467Y378060D01*
X703588Y377969D01*
X703747Y377823D01*
X703776Y377812D01*
X705418Y376715D01*
X707400Y376320D01*
X709382Y376715D01*
X711024Y377812D01*
X711053Y377822D01*
X711212Y377969D01*
X711333Y378060D01*
X711471Y378145D01*
X711629Y378222D01*
X711811Y378292D01*
X712018Y378353D01*
X712252Y378404D01*
X712514Y378442D01*
X712803Y378466D01*
X713155Y378475D01*
X713261Y378522D01*
X719491D01*
X719600Y378475D01*
X720168Y378465D01*
X720658Y378441D01*
X721566Y378338D01*
X721800Y378293D01*
X722376Y376453D01*
X722372Y376438D01*
X722222Y376039D01*
X721406Y375494D01*
X720181Y373661D01*
X720004Y372770D01*
X748796D01*
X748619Y373661D01*
X747394Y375494D01*
X746574Y376042D01*
X746479Y378413D01*
X746496Y378447D01*
X747422Y379834D01*
X747754Y381500D01*
X747422Y383166D01*
X746479Y384578D01*
X745200Y385433D01*
X745075Y386500D01*
X745200Y387567D01*
X746479Y388422D01*
X747422Y389834D01*
X747754Y391500D01*
X747422Y393166D01*
X746479Y394578D01*
X745200Y395433D01*
X745075Y396500D01*
X745200Y397567D01*
X746479Y398422D01*
X747422Y399834D01*
X747754Y401500D01*
X747422Y403166D01*
X746479Y404578D01*
X745200Y405433D01*
X745075Y406500D01*
X745200Y407567D01*
X746479Y408422D01*
X747422Y409834D01*
X747754Y411500D01*
X747422Y413166D01*
X746496Y414553D01*
X746479Y414587D01*
X746574Y416958D01*
X747394Y417506D01*
X748619Y419338D01*
X748796Y420230D01*
D02*
G37*
G36*
X786796Y370230D02*
X758004D01*
X758181Y369338D01*
X759406Y367506D01*
X760226Y366958D01*
X760321Y364587D01*
X760304Y364553D01*
X759378Y363166D01*
X759046Y361500D01*
X759378Y359834D01*
X760322Y358422D01*
X761600Y357567D01*
X761725Y356500D01*
X761600Y355433D01*
X760322Y354578D01*
X759378Y353166D01*
X759046Y351500D01*
X759378Y349834D01*
X760322Y348422D01*
X761600Y347567D01*
X761725Y346500D01*
X761600Y345433D01*
X760322Y344578D01*
X759378Y343166D01*
X759046Y341500D01*
X759378Y339834D01*
X760322Y338421D01*
X761600Y337567D01*
X761725Y336500D01*
X761600Y335433D01*
X760322Y334578D01*
X759378Y333166D01*
X759046Y331500D01*
X759378Y329834D01*
X760322Y328421D01*
X761124Y327886D01*
X760507Y325854D01*
X746293D01*
X745676Y327886D01*
X746479Y328421D01*
X747422Y329834D01*
X747754Y331500D01*
X747422Y333166D01*
X746479Y334578D01*
X745200Y335433D01*
X745075Y336500D01*
X745200Y337567D01*
X746479Y338421D01*
X747422Y339834D01*
X747754Y341500D01*
X747422Y343166D01*
X746479Y344578D01*
X745200Y345433D01*
X745075Y346500D01*
X745200Y347567D01*
X746479Y348422D01*
X747422Y349834D01*
X747754Y351500D01*
X747422Y353166D01*
X746479Y354578D01*
X745200Y355433D01*
X745075Y356500D01*
X745200Y357567D01*
X746479Y358422D01*
X747422Y359834D01*
X747754Y361500D01*
X747422Y363166D01*
X746496Y364553D01*
X746479Y364587D01*
X746574Y366958D01*
X747394Y367506D01*
X748619Y369338D01*
X748796Y370230D01*
X720004D01*
X720181Y369338D01*
X721406Y367506D01*
X722222Y366961D01*
X722372Y366562D01*
X722373Y366558D01*
X721928Y365179D01*
X719888Y364775D01*
X719879Y364778D01*
X719721Y364855D01*
X719583Y364940D01*
X719462Y365031D01*
X719303Y365177D01*
X719275Y365188D01*
X717632Y366285D01*
X715650Y366679D01*
X713668Y366285D01*
X712025Y365188D01*
X711997Y365177D01*
X711838Y365031D01*
X711717Y364939D01*
X711579Y364855D01*
X711421Y364778D01*
X711239Y364708D01*
X711032Y364646D01*
X710798Y364596D01*
X710536Y364558D01*
X710247Y364534D01*
X709894Y364525D01*
X709789Y364478D01*
X570200D01*
X569060Y364252D01*
X568094Y363606D01*
X330223Y125735D01*
X330126Y125702D01*
X329742Y125361D01*
X329364Y125098D01*
X328925Y124857D01*
X328419Y124641D01*
X327845Y124453D01*
X327201Y124296D01*
X326506Y124175D01*
X324837Y124035D01*
X323909Y124024D01*
X323839Y123994D01*
X321561Y123694D01*
X319427Y122811D01*
X317595Y121405D01*
X316189Y119573D01*
X315306Y117439D01*
X315004Y115150D01*
X315306Y112861D01*
X316189Y110727D01*
X317595Y108895D01*
X319427Y107489D01*
X321561Y106606D01*
X323850Y106304D01*
X326139Y106606D01*
X328273Y107489D01*
X330105Y108895D01*
X331511Y110727D01*
X332394Y112861D01*
X332694Y115139D01*
X332724Y115209D01*
X332735Y116155D01*
X332785Y117006D01*
X332872Y117788D01*
X332996Y118501D01*
X333153Y119145D01*
X333341Y119719D01*
X333558Y120225D01*
X333798Y120665D01*
X334061Y121042D01*
X334402Y121426D01*
X334435Y121523D01*
X571433Y358522D01*
X705909D01*
X707379Y357166D01*
X707401Y356946D01*
D01*
X707446Y356490D01*
X707395Y356480D01*
X706418Y356285D01*
X704775Y355188D01*
X704747Y355177D01*
X704588Y355031D01*
X704467Y354939D01*
X704329Y354855D01*
X704171Y354778D01*
X703989Y354707D01*
X703782Y354646D01*
X703548Y354596D01*
X703286Y354558D01*
X702997Y354534D01*
X702645Y354525D01*
X702539Y354478D01*
X585600D01*
X584460Y354252D01*
X583494Y353606D01*
X355623Y125735D01*
X355527Y125702D01*
X355142Y125361D01*
X354764Y125098D01*
X354325Y124857D01*
X353819Y124641D01*
X353245Y124453D01*
X352601Y124296D01*
X351906Y124175D01*
X350238Y124035D01*
X349309Y124024D01*
X349239Y123994D01*
X346961Y123694D01*
X344827Y122811D01*
X342995Y121405D01*
X341589Y119573D01*
X340706Y117439D01*
X340404Y115150D01*
X340706Y112861D01*
X341589Y110727D01*
X342995Y108895D01*
X344827Y107489D01*
X346961Y106606D01*
X349250Y106304D01*
X351539Y106606D01*
X353673Y107489D01*
X355505Y108895D01*
X356911Y110727D01*
X357794Y112861D01*
X358094Y115139D01*
X358124Y115209D01*
X358135Y116155D01*
X358185Y117006D01*
X358272Y117788D01*
X358396Y118501D01*
X358553Y119145D01*
X358741Y119719D01*
X358957Y120225D01*
X359198Y120665D01*
X359461Y121042D01*
X359802Y121426D01*
X359835Y121523D01*
X586833Y348522D01*
X702539D01*
X702645Y348475D01*
X702997Y348466D01*
X703286Y348442D01*
X703548Y348404D01*
X703782Y348353D01*
X703989Y348292D01*
X704171Y348222D01*
X704329Y348145D01*
X704467Y348060D01*
X704588Y347969D01*
X704747Y347822D01*
X704776Y347812D01*
X706418Y346715D01*
X707447Y346510D01*
X707246Y344478D01*
X601000D01*
X599860Y344252D01*
X598894Y343606D01*
X381023Y125735D01*
X380927Y125702D01*
X380542Y125361D01*
X380164Y125098D01*
X379725Y124857D01*
X379219Y124641D01*
X378645Y124453D01*
X378001Y124296D01*
X377306Y124175D01*
X375638Y124035D01*
X374709Y124024D01*
X374639Y123994D01*
X372361Y123694D01*
X370227Y122811D01*
X368395Y121405D01*
X366989Y119573D01*
X366106Y117439D01*
X365804Y115150D01*
X366106Y112861D01*
X366989Y110727D01*
X368395Y108895D01*
X370227Y107489D01*
X372361Y106606D01*
X374650Y106304D01*
X376939Y106606D01*
X379073Y107489D01*
X380905Y108895D01*
X382311Y110727D01*
X383194Y112861D01*
X383494Y115139D01*
X383524Y115209D01*
X383535Y116155D01*
X383585Y117006D01*
X383672Y117788D01*
X383796Y118501D01*
X383953Y119145D01*
X384141Y119719D01*
X384357Y120225D01*
X384598Y120665D01*
X384861Y121042D01*
X385202Y121426D01*
X385235Y121523D01*
X602234Y338522D01*
X709134D01*
X709221Y338478D01*
X709390Y338270D01*
X708933Y337132D01*
X708452Y336390D01*
X706668Y336035D01*
X705441Y335215D01*
X705243Y335156D01*
X705073Y335018D01*
X704938Y334928D01*
X704786Y334845D01*
X704613Y334768D01*
X704417Y334700D01*
X704197Y334641D01*
X703951Y334592D01*
X703680Y334556D01*
X703384Y334534D01*
X703029Y334525D01*
X702923Y334478D01*
X616400D01*
X615260Y334252D01*
X614294Y333606D01*
X406423Y125735D01*
X406326Y125702D01*
X405942Y125361D01*
X405564Y125098D01*
X405125Y124857D01*
X404619Y124641D01*
X404045Y124453D01*
X403401Y124296D01*
X402706Y124175D01*
X401037Y124035D01*
X400109Y124024D01*
X400039Y123994D01*
X397761Y123694D01*
X395627Y122811D01*
X393795Y121405D01*
X392389Y119573D01*
X391506Y117439D01*
X391204Y115150D01*
X391506Y112861D01*
X392389Y110727D01*
X393795Y108895D01*
X395627Y107489D01*
X397761Y106606D01*
X400050Y106304D01*
X402339Y106606D01*
X404473Y107489D01*
X406305Y108895D01*
X407711Y110727D01*
X408594Y112861D01*
X408894Y115139D01*
X408924Y115209D01*
X408935Y116155D01*
X408985Y117006D01*
X409072Y117788D01*
X409196Y118501D01*
X409353Y119145D01*
X409541Y119719D01*
X409757Y120225D01*
X409998Y120665D01*
X410261Y121042D01*
X410602Y121426D01*
X410635Y121523D01*
X617634Y328522D01*
X650380D01*
X650784Y326490D01*
X649627Y326011D01*
X647795Y324605D01*
X646389Y322773D01*
X645506Y320639D01*
X645204Y318350D01*
X645506Y316061D01*
X646389Y313927D01*
X647795Y312095D01*
X649627Y310689D01*
X651761Y309806D01*
X654050Y309504D01*
X656339Y309806D01*
X658473Y310689D01*
X660305Y312095D01*
X661711Y313927D01*
X662594Y316061D01*
X662896Y318350D01*
X662594Y320639D01*
X661711Y322773D01*
X660305Y324605D01*
X658473Y326011D01*
X657316Y326490D01*
X657720Y328522D01*
X675780D01*
X676184Y326490D01*
X675027Y326011D01*
X673195Y324605D01*
X671789Y322773D01*
X670906Y320639D01*
X670604Y318350D01*
X670906Y316061D01*
X671789Y313927D01*
X673195Y312095D01*
X675027Y310689D01*
X677161Y309806D01*
X679450Y309504D01*
X681739Y309806D01*
X683873Y310689D01*
X685705Y312095D01*
X687111Y313927D01*
X687605Y315122D01*
X687776Y315287D01*
X687957Y315702D01*
X688130Y315981D01*
X688335Y316221D01*
X688581Y316433D01*
X688880Y316623D01*
X689244Y316789D01*
X689680Y316929D01*
X690193Y317034D01*
X690784Y317101D01*
X691496Y317126D01*
X691541Y317146D01*
X706689D01*
X707296Y316764D01*
X707831Y315114D01*
X707328Y314534D01*
X706976Y314525D01*
X706871Y314478D01*
X697650D01*
X696510Y314251D01*
X695544Y313606D01*
X681916Y299978D01*
X607300D01*
X606160Y299751D01*
X605194Y299106D01*
X431823Y125735D01*
X431726Y125702D01*
X431342Y125361D01*
X430964Y125098D01*
X430525Y124857D01*
X430019Y124641D01*
X429445Y124453D01*
X428801Y124296D01*
X428106Y124175D01*
X426437Y124035D01*
X425509Y124024D01*
X425439Y123994D01*
X423161Y123694D01*
X421027Y122811D01*
X419195Y121405D01*
X417789Y119573D01*
X416906Y117439D01*
X416604Y115150D01*
X416906Y112861D01*
X417789Y110727D01*
X419195Y108895D01*
X421027Y107489D01*
X423161Y106606D01*
X425450Y106304D01*
X427739Y106606D01*
X429873Y107489D01*
X431705Y108895D01*
X433111Y110727D01*
X433994Y112861D01*
X434294Y115139D01*
X434324Y115209D01*
X434335Y116155D01*
X434385Y117006D01*
X434472Y117788D01*
X434596Y118501D01*
X434753Y119145D01*
X434941Y119719D01*
X435158Y120225D01*
X435398Y120665D01*
X435661Y121042D01*
X436002Y121426D01*
X436035Y121523D01*
X608534Y294022D01*
X683150D01*
X684290Y294249D01*
X685256Y294894D01*
X698884Y308522D01*
X706871D01*
X706976Y308475D01*
X707328Y308466D01*
X707618Y308442D01*
X707880Y308404D01*
X708114Y308353D01*
X708321Y308292D01*
X708503Y308222D01*
X708661Y308145D01*
X708799Y308060D01*
X708920Y307969D01*
X709079Y307822D01*
X709107Y307812D01*
X710305Y307012D01*
X710581Y305379D01*
X710494Y304694D01*
X710321Y304578D01*
X709875Y304132D01*
X709829Y304115D01*
X709317Y303633D01*
X708835Y303234D01*
X708354Y302889D01*
X707872Y302596D01*
X707392Y302352D01*
X706910Y302157D01*
X706427Y302008D01*
X705939Y301903D01*
X705444Y301842D01*
X704879Y301824D01*
X704804Y301790D01*
X702561Y301494D01*
X700427Y300611D01*
X698595Y299205D01*
X697189Y297373D01*
X696306Y295239D01*
X696004Y292950D01*
X696306Y290661D01*
X697189Y288527D01*
X698595Y286695D01*
X700427Y285289D01*
X702561Y284406D01*
X704850Y284104D01*
X707139Y284406D01*
X709273Y285289D01*
X711105Y286695D01*
X712511Y288527D01*
X713394Y290661D01*
X713690Y292904D01*
X713724Y292979D01*
X713742Y293544D01*
X713803Y294039D01*
X713908Y294527D01*
X714057Y295011D01*
X714252Y295492D01*
X714495Y295973D01*
X714789Y296453D01*
X715134Y296935D01*
X715309Y297146D01*
X781400D01*
X783066Y297478D01*
X784479Y298421D01*
X785422Y299834D01*
X785543Y300441D01*
X787665Y301464D01*
X787675Y301463D01*
X789605Y301079D01*
X789633Y301067D01*
X789849Y301058D01*
X789999Y301037D01*
X790156Y300999D01*
X790323Y300942D01*
X790501Y300863D01*
X790691Y300760D01*
X790892Y300630D01*
X791104Y300471D01*
X791325Y300284D01*
X791581Y300041D01*
X791672Y300006D01*
Y264984D01*
X767916Y241228D01*
X755923D01*
X754418Y242500D01*
X754418Y242500D01*
X754418D01*
X754368Y243260D01*
X754412Y243266D01*
X756342Y243520D01*
X759084Y244656D01*
X761438Y246462D01*
X763244Y248816D01*
X764380Y251558D01*
X764767Y254500D01*
X764380Y257442D01*
X763244Y260184D01*
X761438Y262538D01*
X759084Y264344D01*
X756342Y265480D01*
X754479Y265725D01*
Y267775D01*
X756342Y268020D01*
X759084Y269156D01*
X761438Y270962D01*
X763244Y273316D01*
X764380Y276058D01*
X764767Y279000D01*
X764380Y281942D01*
X763244Y284684D01*
X761438Y287038D01*
X759084Y288844D01*
X756342Y289980D01*
X753400Y290367D01*
X750458Y289980D01*
X747716Y288844D01*
X745362Y287038D01*
X743556Y284684D01*
X742420Y281942D01*
X742033Y279000D01*
X742420Y276058D01*
X743556Y273316D01*
X745362Y270962D01*
X747716Y269156D01*
X750458Y268020D01*
X752321Y267775D01*
Y265725D01*
X750458Y265480D01*
X747716Y264344D01*
X745362Y262538D01*
X743556Y260184D01*
X742420Y257442D01*
X742033Y254500D01*
X742420Y251558D01*
X743556Y248816D01*
X745362Y246462D01*
X747716Y244656D01*
X750458Y243520D01*
X752388Y243266D01*
X752432Y243260D01*
X752382Y242500D01*
X752382D01*
X752382Y242500D01*
X750877Y241228D01*
X573950D01*
X572810Y241001D01*
X571844Y240356D01*
X457223Y125735D01*
X457127Y125702D01*
X456742Y125361D01*
X456364Y125098D01*
X455925Y124857D01*
X455419Y124641D01*
X454845Y124453D01*
X454201Y124296D01*
X453506Y124175D01*
X451838Y124035D01*
X450909Y124024D01*
X450839Y123994D01*
X448561Y123694D01*
X446427Y122811D01*
X444595Y121405D01*
X443189Y119573D01*
X442306Y117439D01*
X442004Y115150D01*
X442306Y112861D01*
X443189Y110727D01*
X444595Y108895D01*
X446427Y107489D01*
X448561Y106606D01*
X450850Y106304D01*
X453139Y106606D01*
X455273Y107489D01*
X457105Y108895D01*
X458511Y110727D01*
X459394Y112861D01*
X459694Y115139D01*
X459724Y115209D01*
X459735Y116155D01*
X459785Y117006D01*
X459872Y117788D01*
X459996Y118501D01*
X460153Y119145D01*
X460341Y119719D01*
X460558Y120225D01*
X460798Y120665D01*
X461061Y121042D01*
X461402Y121426D01*
X461435Y121523D01*
X575184Y235272D01*
X722909D01*
X724630Y234520D01*
X724630Y233240D01*
Y214480D01*
X778263D01*
X779041Y212603D01*
X777416Y210978D01*
X569100D01*
X567960Y210751D01*
X566994Y210106D01*
X482623Y125735D01*
X482527Y125702D01*
X482142Y125361D01*
X481764Y125098D01*
X481325Y124857D01*
X480819Y124641D01*
X480245Y124453D01*
X479601Y124296D01*
X478906Y124175D01*
X477238Y124035D01*
X476309Y124024D01*
X476239Y123994D01*
X473961Y123694D01*
X471827Y122811D01*
X469995Y121405D01*
X468589Y119573D01*
X467706Y117439D01*
X467404Y115150D01*
X467706Y112861D01*
X468589Y110727D01*
X469995Y108895D01*
X471827Y107489D01*
X473961Y106606D01*
X476250Y106304D01*
X478539Y106606D01*
X480673Y107489D01*
X482505Y108895D01*
X483911Y110727D01*
X484794Y112861D01*
X485094Y115139D01*
X485124Y115209D01*
X485135Y116155D01*
X485185Y117006D01*
X485272Y117788D01*
X485396Y118501D01*
X485553Y119145D01*
X485741Y119719D01*
X485957Y120225D01*
X486198Y120665D01*
X486461Y121042D01*
X486802Y121426D01*
X486835Y121523D01*
X570334Y205022D01*
X778650D01*
X779790Y205249D01*
X780756Y205894D01*
X806756Y231894D01*
X807402Y232860D01*
X807628Y234000D01*
Y311750D01*
X807402Y312890D01*
X806756Y313856D01*
X795900Y324711D01*
X795859Y324819D01*
X795617Y325075D01*
X795429Y325296D01*
X795270Y325508D01*
X795141Y325709D01*
X795037Y325899D01*
X794958Y326077D01*
X794901Y326244D01*
X794863Y326401D01*
X794842Y326551D01*
X794833Y326767D01*
X794821Y326795D01*
X794435Y328732D01*
X794139Y329175D01*
X795717Y330471D01*
X811672Y314516D01*
Y226234D01*
X782166Y196728D01*
X580250D01*
X579110Y196502D01*
X578144Y195856D01*
X508023Y125735D01*
X507926Y125702D01*
X507542Y125361D01*
X507164Y125098D01*
X506725Y124857D01*
X506219Y124641D01*
X505645Y124453D01*
X505001Y124296D01*
X504306Y124175D01*
X502637Y124035D01*
X501709Y124024D01*
X501639Y123994D01*
X499361Y123694D01*
X497227Y122811D01*
X495395Y121405D01*
X493989Y119573D01*
X493106Y117439D01*
X492804Y115150D01*
X493106Y112861D01*
X493989Y110727D01*
X495395Y108895D01*
X497227Y107489D01*
X499361Y106606D01*
X501650Y106304D01*
X503939Y106606D01*
X506073Y107489D01*
X507905Y108895D01*
X509311Y110727D01*
X510194Y112861D01*
X510494Y115139D01*
X510524Y115209D01*
X510535Y116155D01*
X510585Y117006D01*
X510672Y117788D01*
X510796Y118501D01*
X510953Y119145D01*
X511141Y119719D01*
X511357Y120225D01*
X511598Y120665D01*
X511861Y121042D01*
X512202Y121426D01*
X512235Y121523D01*
X581484Y190772D01*
X783400D01*
X784540Y190998D01*
X785506Y191644D01*
X816756Y222894D01*
X817402Y223860D01*
X817628Y225000D01*
Y315750D01*
X817402Y316890D01*
X816756Y317856D01*
X798650Y335962D01*
X798609Y336069D01*
X798366Y336325D01*
X798179Y336546D01*
X798020Y336758D01*
X797890Y336959D01*
X797787Y337149D01*
X797708Y337327D01*
X797651Y337494D01*
X797613Y337651D01*
X797592Y337801D01*
X797583Y338017D01*
X797571Y338045D01*
X797185Y339982D01*
X796062Y341662D01*
X794382Y342785D01*
X792400Y343180D01*
X791593Y343019D01*
X791006Y343606D01*
X790040Y344252D01*
X788900Y344478D01*
X787309D01*
X787200Y344525D01*
X786632Y344534D01*
X786142Y344559D01*
X785234Y344662D01*
X784879Y344729D01*
X784556Y344811D01*
X784280Y344902D01*
X784053Y344997D01*
X783873Y345093D01*
X783670Y345231D01*
X783426Y345281D01*
X783200Y345433D01*
X783075Y346500D01*
X783200Y347567D01*
X783426Y347718D01*
X783670Y347769D01*
X783873Y347907D01*
X784053Y348003D01*
X784280Y348098D01*
X784535Y348182D01*
X785270Y348344D01*
X785652Y348396D01*
X786430Y348451D01*
X786536Y348442D01*
X786798Y348404D01*
X787032Y348353D01*
X787239Y348292D01*
X787421Y348222D01*
X787579Y348145D01*
X787717Y348060D01*
X787838Y347969D01*
X787997Y347822D01*
X788026Y347812D01*
X789668Y346715D01*
X791650Y346320D01*
X793632Y346715D01*
X795312Y347837D01*
X797245Y347693D01*
X821672Y323266D01*
Y210734D01*
X794916Y183978D01*
X592900D01*
X591760Y183752D01*
X590794Y183106D01*
X530784Y123096D01*
X529339Y123694D01*
X527050Y123996D01*
X524761Y123694D01*
X522627Y122811D01*
X520795Y121405D01*
X519389Y119573D01*
X518506Y117439D01*
X518204Y115150D01*
X518506Y112861D01*
X519389Y110727D01*
X520795Y108895D01*
X522627Y107489D01*
X524761Y106606D01*
X527050Y106304D01*
X529339Y106606D01*
X531473Y107489D01*
X533305Y108895D01*
X534711Y110727D01*
X535594Y112861D01*
X535896Y115150D01*
X535594Y117439D01*
X534996Y118884D01*
X594134Y178022D01*
X796150D01*
X797290Y178249D01*
X798256Y178894D01*
X826756Y207394D01*
X827402Y208360D01*
X827628Y209500D01*
Y324500D01*
X827402Y325640D01*
X826756Y326606D01*
X799756Y353606D01*
X798790Y354252D01*
X797650Y354478D01*
X797507D01*
X797401Y354525D01*
X797032Y354534D01*
X796726Y354556D01*
X796456Y354590D01*
X796220Y354636D01*
X796020Y354690D01*
X795856Y354749D01*
X795726Y354809D01*
X795626Y354869D01*
X795553Y354925D01*
X795436Y355039D01*
X795380Y355061D01*
X795312Y355163D01*
X795139Y355278D01*
Y357722D01*
X795274Y357812D01*
X795303Y357823D01*
X795462Y357969D01*
X795583Y358060D01*
X795721Y358145D01*
X795879Y358222D01*
X796061Y358292D01*
X796268Y358353D01*
X796502Y358404D01*
X796764Y358442D01*
X797054Y358466D01*
X797405Y358475D01*
X797511Y358522D01*
X804917D01*
X831672Y331766D01*
Y195484D01*
X808666Y172478D01*
X606800D01*
X605660Y172251D01*
X604694Y171606D01*
X558823Y125735D01*
X558727Y125702D01*
X558342Y125361D01*
X557964Y125098D01*
X557525Y124857D01*
X557019Y124641D01*
X556445Y124453D01*
X555801Y124296D01*
X555106Y124175D01*
X553438Y124035D01*
X552509Y124024D01*
X552439Y123994D01*
X550161Y123694D01*
X548027Y122811D01*
X546195Y121405D01*
X544789Y119573D01*
X543906Y117439D01*
X543604Y115150D01*
X543906Y112861D01*
X544789Y110727D01*
X546195Y108895D01*
X548027Y107489D01*
X550161Y106606D01*
X552450Y106304D01*
X554739Y106606D01*
X556873Y107489D01*
X558705Y108895D01*
X560111Y110727D01*
X560994Y112861D01*
X561294Y115139D01*
X561324Y115209D01*
X561335Y116155D01*
X561385Y117006D01*
X561472Y117788D01*
X561596Y118501D01*
X561753Y119145D01*
X561941Y119719D01*
X562158Y120225D01*
X562398Y120665D01*
X562661Y121042D01*
X563002Y121426D01*
X563035Y121523D01*
X608034Y166522D01*
X809900D01*
X811040Y166749D01*
X812006Y167394D01*
X836756Y192144D01*
X837402Y193110D01*
X837628Y194250D01*
Y333000D01*
X837402Y334140D01*
X836756Y335106D01*
X808256Y363606D01*
X807290Y364252D01*
X806150Y364478D01*
X797511D01*
X797405Y364525D01*
X797054Y364534D01*
X796764Y364558D01*
X796502Y364596D01*
X796268Y364646D01*
X796061Y364708D01*
X795879Y364778D01*
X795721Y364855D01*
X795583Y364940D01*
X795462Y365031D01*
X795303Y365177D01*
X795275Y365188D01*
X793632Y366285D01*
X791650Y366679D01*
X789668Y366285D01*
X788025Y365188D01*
X787997Y365177D01*
X787838Y365031D01*
X787717Y364939D01*
X787579Y364855D01*
X787421Y364778D01*
X787239Y364708D01*
X787032Y364646D01*
X786798Y364596D01*
X786536Y364558D01*
X786395Y364547D01*
X786142Y364559D01*
X785234Y364662D01*
X785003Y364706D01*
X784424Y366547D01*
X784428Y366562D01*
X784578Y366961D01*
X785394Y367506D01*
X786619Y369338D01*
X786796Y370230D01*
D02*
G37*
G36*
X704850Y276396D02*
X702561Y276094D01*
X700427Y275211D01*
X698595Y273805D01*
X697189Y271973D01*
X696306Y269839D01*
X696004Y267550D01*
X696306Y265261D01*
X697189Y263127D01*
X698595Y261295D01*
X700427Y259889D01*
X702561Y259006D01*
X704850Y258704D01*
X707139Y259006D01*
X709273Y259889D01*
X711105Y261295D01*
X712511Y263127D01*
X713394Y265261D01*
X713696Y267550D01*
X713394Y269839D01*
X712511Y271973D01*
X711105Y273805D01*
X709273Y275211D01*
X707139Y276094D01*
X704850Y276396D01*
D02*
G37*
G36*
X786796Y420230D02*
X758004D01*
X758181Y419338D01*
X759406Y417506D01*
X760226Y416958D01*
X760321Y414587D01*
X760304Y414553D01*
X759378Y413166D01*
X759046Y411500D01*
X759378Y409834D01*
X760322Y408422D01*
X761600Y407567D01*
X761725Y406500D01*
X761600Y405433D01*
X760322Y404578D01*
X759378Y403166D01*
X759046Y401500D01*
X759378Y399834D01*
X760322Y398422D01*
X761600Y397567D01*
X761725Y396500D01*
X761600Y395433D01*
X760322Y394578D01*
X759378Y393166D01*
X759046Y391500D01*
X759378Y389834D01*
X760322Y388422D01*
X761600Y387567D01*
X761725Y386500D01*
X761600Y385433D01*
X760322Y384578D01*
X759378Y383166D01*
X759046Y381500D01*
X759378Y379834D01*
X760304Y378447D01*
X760321Y378413D01*
X760226Y376042D01*
X759406Y375494D01*
X758181Y373661D01*
X758004Y372770D01*
X786796D01*
X786619Y373661D01*
X785394Y375494D01*
X784578Y376039D01*
X784428Y376438D01*
X784427Y376442D01*
X785024Y378290D01*
X785270Y378344D01*
X785652Y378396D01*
X786292Y378441D01*
X786548Y378404D01*
X786782Y378353D01*
X786989Y378292D01*
X787171Y378222D01*
X787329Y378145D01*
X787467Y378060D01*
X787588Y377969D01*
X787747Y377823D01*
X787776Y377812D01*
X789418Y376715D01*
X791400Y376320D01*
X793382Y376715D01*
X795024Y377812D01*
X795053Y377822D01*
X795212Y377969D01*
X795333Y378060D01*
X795471Y378145D01*
X795629Y378222D01*
X795811Y378292D01*
X796018Y378353D01*
X796252Y378404D01*
X796514Y378442D01*
X796804Y378466D01*
X797155Y378475D01*
X797261Y378522D01*
X804667D01*
X841672Y341516D01*
Y179734D01*
X822166Y160228D01*
X619950D01*
X618810Y160002D01*
X617844Y159356D01*
X581584Y123096D01*
X580139Y123694D01*
X577850Y123996D01*
X575561Y123694D01*
X573427Y122811D01*
X571595Y121405D01*
X570189Y119573D01*
X569306Y117439D01*
X569004Y115150D01*
X569306Y112861D01*
X570189Y110727D01*
X571595Y108895D01*
X573427Y107489D01*
X575561Y106606D01*
X577850Y106304D01*
X580139Y106606D01*
X582273Y107489D01*
X584105Y108895D01*
X585511Y110727D01*
X586394Y112861D01*
X586696Y115150D01*
X586394Y117439D01*
X585796Y118884D01*
X621184Y154272D01*
X823400D01*
X824540Y154499D01*
X825506Y155144D01*
X846756Y176394D01*
X847402Y177360D01*
X847628Y178500D01*
Y342750D01*
X847402Y343890D01*
X846756Y344856D01*
X808006Y383606D01*
X807040Y384252D01*
X805900Y384478D01*
X797531D01*
X797073Y384972D01*
X797180Y387332D01*
X797562Y387588D01*
X797682Y387767D01*
X797772Y387805D01*
X797775Y387813D01*
X797783Y387817D01*
X797929Y387969D01*
X798035Y388059D01*
X798157Y388141D01*
X798299Y388218D01*
X798466Y388288D01*
X798659Y388349D01*
X798882Y388401D01*
X799134Y388440D01*
X799417Y388465D01*
X799767Y388475D01*
X799798Y388489D01*
X799829Y388478D01*
X799916Y388522D01*
X810667D01*
X851672Y347516D01*
Y164484D01*
X834416Y147228D01*
X632350D01*
X631210Y147001D01*
X630244Y146356D01*
X606984Y123096D01*
X605539Y123694D01*
X603250Y123996D01*
X600961Y123694D01*
X598827Y122811D01*
X596995Y121405D01*
X595589Y119573D01*
X594706Y117439D01*
X594404Y115150D01*
X594706Y112861D01*
X595589Y110727D01*
X596995Y108895D01*
X598827Y107489D01*
X600961Y106606D01*
X603250Y106304D01*
X605539Y106606D01*
X607673Y107489D01*
X609505Y108895D01*
X610911Y110727D01*
X611794Y112861D01*
X612096Y115150D01*
X611794Y117439D01*
X611196Y118884D01*
X633584Y141272D01*
X835650D01*
X836790Y141498D01*
X837756Y142144D01*
X856756Y161144D01*
X857402Y162110D01*
X857628Y163250D01*
Y348686D01*
X857769Y348819D01*
X859517Y349671D01*
X861672Y347516D01*
Y148984D01*
X848416Y135728D01*
X646250D01*
X645110Y135501D01*
X644144Y134856D01*
X632384Y123096D01*
X630939Y123694D01*
X628650Y123996D01*
X626361Y123694D01*
X624227Y122811D01*
X622395Y121405D01*
X620989Y119573D01*
X620106Y117439D01*
X619804Y115150D01*
X620106Y112861D01*
X620989Y110727D01*
X622395Y108895D01*
X624227Y107489D01*
X626361Y106606D01*
X628650Y106304D01*
X630939Y106606D01*
X633073Y107489D01*
X634905Y108895D01*
X636311Y110727D01*
X637194Y112861D01*
X637496Y115150D01*
X637194Y117439D01*
X636596Y118884D01*
X647484Y129772D01*
X849650D01*
X850790Y129999D01*
X851756Y130644D01*
X866756Y145644D01*
X867402Y146610D01*
X867628Y147750D01*
Y348750D01*
X867402Y349890D01*
X866756Y350856D01*
X814006Y403606D01*
X813040Y404252D01*
X811900Y404478D01*
X798054D01*
X797854Y406510D01*
X798882Y406715D01*
X800563Y407837D01*
X801685Y409518D01*
X802079Y411500D01*
X801685Y413482D01*
X800563Y415163D01*
X798882Y416285D01*
X796900Y416679D01*
X794918Y416285D01*
X793275Y415188D01*
X793247Y415177D01*
X793088Y415031D01*
X792967Y414940D01*
X792829Y414855D01*
X792671Y414778D01*
X792489Y414708D01*
X792282Y414647D01*
X792048Y414596D01*
X791786Y414558D01*
X791497Y414534D01*
X791144Y414525D01*
X791039Y414478D01*
X787309D01*
X787200Y414525D01*
X786632Y414534D01*
X786142Y414559D01*
X785234Y414662D01*
X785003Y414706D01*
X784424Y416547D01*
X784428Y416562D01*
X784578Y416961D01*
X785394Y417506D01*
X786619Y419338D01*
X786796Y420230D01*
D02*
G37*
G36*
X857250Y123996D02*
X854961Y123694D01*
X852827Y122811D01*
X850995Y121405D01*
X849589Y119573D01*
X848706Y117439D01*
X848404Y115150D01*
X848706Y112861D01*
X849589Y110727D01*
X850995Y108895D01*
X852827Y107489D01*
X854961Y106606D01*
X857250Y106304D01*
X859539Y106606D01*
X861673Y107489D01*
X863505Y108895D01*
X864911Y110727D01*
X865794Y112861D01*
X866096Y115150D01*
X865794Y117439D01*
X864911Y119573D01*
X863505Y121405D01*
X861673Y122811D01*
X859539Y123694D01*
X857250Y123996D01*
D02*
G37*
G36*
X831850D02*
X829561Y123694D01*
X827427Y122811D01*
X825595Y121405D01*
X824189Y119573D01*
X823306Y117439D01*
X823004Y115150D01*
X823306Y112861D01*
X824189Y110727D01*
X825595Y108895D01*
X827427Y107489D01*
X829561Y106606D01*
X831850Y106304D01*
X834139Y106606D01*
X836273Y107489D01*
X838105Y108895D01*
X839511Y110727D01*
X840394Y112861D01*
X840696Y115150D01*
X840394Y117439D01*
X839511Y119573D01*
X838105Y121405D01*
X836273Y122811D01*
X834139Y123694D01*
X831850Y123996D01*
D02*
G37*
G36*
X806450D02*
X804161Y123694D01*
X802027Y122811D01*
X800195Y121405D01*
X798789Y119573D01*
X797906Y117439D01*
X797604Y115150D01*
X797906Y112861D01*
X798789Y110727D01*
X800195Y108895D01*
X802027Y107489D01*
X804161Y106606D01*
X806450Y106304D01*
X808739Y106606D01*
X810873Y107489D01*
X812705Y108895D01*
X814111Y110727D01*
X814994Y112861D01*
X815296Y115150D01*
X814994Y117439D01*
X814111Y119573D01*
X812705Y121405D01*
X810873Y122811D01*
X808739Y123694D01*
X806450Y123996D01*
D02*
G37*
G36*
X781050D02*
X778761Y123694D01*
X776627Y122811D01*
X774795Y121405D01*
X773389Y119573D01*
X772506Y117439D01*
X772204Y115150D01*
X772506Y112861D01*
X773389Y110727D01*
X774795Y108895D01*
X776627Y107489D01*
X778761Y106606D01*
X781050Y106304D01*
X783339Y106606D01*
X785473Y107489D01*
X787305Y108895D01*
X788711Y110727D01*
X789594Y112861D01*
X789896Y115150D01*
X789594Y117439D01*
X788711Y119573D01*
X787305Y121405D01*
X785473Y122811D01*
X783339Y123694D01*
X781050Y123996D01*
D02*
G37*
G36*
X755650D02*
X753361Y123694D01*
X751227Y122811D01*
X749395Y121405D01*
X747989Y119573D01*
X747106Y117439D01*
X746804Y115150D01*
X747106Y112861D01*
X747989Y110727D01*
X749395Y108895D01*
X751227Y107489D01*
X753361Y106606D01*
X755650Y106304D01*
X757939Y106606D01*
X760073Y107489D01*
X761905Y108895D01*
X763311Y110727D01*
X764194Y112861D01*
X764496Y115150D01*
X764194Y117439D01*
X763311Y119573D01*
X761905Y121405D01*
X760073Y122811D01*
X757939Y123694D01*
X755650Y123996D01*
D02*
G37*
G36*
X730250D02*
X727961Y123694D01*
X725827Y122811D01*
X723995Y121405D01*
X722589Y119573D01*
X721706Y117439D01*
X721404Y115150D01*
X721706Y112861D01*
X722589Y110727D01*
X723995Y108895D01*
X725827Y107489D01*
X727961Y106606D01*
X730250Y106304D01*
X732539Y106606D01*
X734673Y107489D01*
X736505Y108895D01*
X737911Y110727D01*
X738794Y112861D01*
X739096Y115150D01*
X738794Y117439D01*
X737911Y119573D01*
X736505Y121405D01*
X734673Y122811D01*
X732539Y123694D01*
X730250Y123996D01*
D02*
G37*
G36*
X704850D02*
X702561Y123694D01*
X700427Y122811D01*
X698595Y121405D01*
X697189Y119573D01*
X696306Y117439D01*
X696004Y115150D01*
X696306Y112861D01*
X697189Y110727D01*
X698595Y108895D01*
X700427Y107489D01*
X702561Y106606D01*
X704850Y106304D01*
X707139Y106606D01*
X709273Y107489D01*
X711105Y108895D01*
X712511Y110727D01*
X713394Y112861D01*
X713696Y115150D01*
X713394Y117439D01*
X712511Y119573D01*
X711105Y121405D01*
X709273Y122811D01*
X707139Y123694D01*
X704850Y123996D01*
D02*
G37*
G36*
X679450D02*
X677161Y123694D01*
X675027Y122811D01*
X673195Y121405D01*
X671789Y119573D01*
X670906Y117439D01*
X670604Y115150D01*
X670906Y112861D01*
X671789Y110727D01*
X673195Y108895D01*
X675027Y107489D01*
X677161Y106606D01*
X679450Y106304D01*
X681739Y106606D01*
X683873Y107489D01*
X685705Y108895D01*
X687111Y110727D01*
X687994Y112861D01*
X688296Y115150D01*
X687994Y117439D01*
X687111Y119573D01*
X685705Y121405D01*
X683873Y122811D01*
X681739Y123694D01*
X679450Y123996D01*
D02*
G37*
G36*
X654050D02*
X651761Y123694D01*
X649627Y122811D01*
X647795Y121405D01*
X646389Y119573D01*
X645506Y117439D01*
X645204Y115150D01*
X645506Y112861D01*
X646389Y110727D01*
X647795Y108895D01*
X649627Y107489D01*
X651761Y106606D01*
X654050Y106304D01*
X656339Y106606D01*
X658473Y107489D01*
X660305Y108895D01*
X661711Y110727D01*
X662594Y112861D01*
X662896Y115150D01*
X662594Y117439D01*
X661711Y119573D01*
X660305Y121405D01*
X658473Y122811D01*
X656339Y123694D01*
X654050Y123996D01*
D02*
G37*
G36*
X858520Y29859D02*
Y21170D01*
X867209D01*
X867032Y22521D01*
X866020Y24963D01*
X864411Y27061D01*
X862313Y28670D01*
X859871Y29682D01*
X858520Y29859D01*
D02*
G37*
G36*
X833120D02*
Y21170D01*
X841809D01*
X841632Y22521D01*
X840620Y24963D01*
X839011Y27061D01*
X836913Y28670D01*
X834471Y29682D01*
X833120Y29859D01*
D02*
G37*
G36*
X807720D02*
Y21170D01*
X816409D01*
X816232Y22521D01*
X815220Y24963D01*
X813611Y27061D01*
X811513Y28670D01*
X809071Y29682D01*
X807720Y29859D01*
D02*
G37*
G36*
X782320D02*
Y21170D01*
X791009D01*
X790832Y22521D01*
X789820Y24963D01*
X788211Y27061D01*
X786113Y28670D01*
X783671Y29682D01*
X782320Y29859D01*
D02*
G37*
G36*
X756920D02*
Y21170D01*
X765609D01*
X765432Y22521D01*
X764420Y24963D01*
X762811Y27061D01*
X760713Y28670D01*
X758271Y29682D01*
X756920Y29859D01*
D02*
G37*
G36*
X731520D02*
Y21170D01*
X740209D01*
X740032Y22521D01*
X739020Y24963D01*
X737411Y27061D01*
X735313Y28670D01*
X732871Y29682D01*
X731520Y29859D01*
D02*
G37*
G36*
X706120D02*
Y21170D01*
X714809D01*
X714632Y22521D01*
X713620Y24963D01*
X712011Y27061D01*
X709913Y28670D01*
X707471Y29682D01*
X706120Y29859D01*
D02*
G37*
G36*
X680720D02*
Y21170D01*
X689409D01*
X689232Y22521D01*
X688220Y24963D01*
X686611Y27061D01*
X684513Y28670D01*
X682071Y29682D01*
X680720Y29859D01*
D02*
G37*
G36*
X655320D02*
Y21170D01*
X664009D01*
X663832Y22521D01*
X662820Y24963D01*
X661211Y27061D01*
X659113Y28670D01*
X656671Y29682D01*
X655320Y29859D01*
D02*
G37*
G36*
X629920D02*
Y21170D01*
X638609D01*
X638432Y22521D01*
X637420Y24963D01*
X635811Y27061D01*
X633713Y28670D01*
X631271Y29682D01*
X629920Y29859D01*
D02*
G37*
G36*
X604520D02*
Y21170D01*
X613209D01*
X613032Y22521D01*
X612020Y24963D01*
X610411Y27061D01*
X608313Y28670D01*
X605871Y29682D01*
X604520Y29859D01*
D02*
G37*
G36*
X579120D02*
Y21170D01*
X587809D01*
X587632Y22521D01*
X586620Y24963D01*
X585011Y27061D01*
X582913Y28670D01*
X580471Y29682D01*
X579120Y29859D01*
D02*
G37*
G36*
X553720D02*
Y21170D01*
X562409D01*
X562232Y22521D01*
X561220Y24963D01*
X559611Y27061D01*
X557513Y28670D01*
X555071Y29682D01*
X553720Y29859D01*
D02*
G37*
G36*
X528320D02*
Y21170D01*
X537009D01*
X536832Y22521D01*
X535820Y24963D01*
X534211Y27061D01*
X532113Y28670D01*
X529671Y29682D01*
X528320Y29859D01*
D02*
G37*
G36*
X502920D02*
Y21170D01*
X511609D01*
X511432Y22521D01*
X510420Y24963D01*
X508811Y27061D01*
X506713Y28670D01*
X504271Y29682D01*
X502920Y29859D01*
D02*
G37*
G36*
X477520D02*
Y21170D01*
X486209D01*
X486032Y22521D01*
X485020Y24963D01*
X483411Y27061D01*
X481313Y28670D01*
X478871Y29682D01*
X477520Y29859D01*
D02*
G37*
G36*
X452120D02*
Y21170D01*
X460809D01*
X460632Y22521D01*
X459620Y24963D01*
X458011Y27061D01*
X455913Y28670D01*
X453471Y29682D01*
X452120Y29859D01*
D02*
G37*
G36*
X426720D02*
Y21170D01*
X435409D01*
X435232Y22521D01*
X434220Y24963D01*
X432611Y27061D01*
X430513Y28670D01*
X428071Y29682D01*
X426720Y29859D01*
D02*
G37*
G36*
X401320D02*
Y21170D01*
X410009D01*
X409832Y22521D01*
X408820Y24963D01*
X407211Y27061D01*
X405113Y28670D01*
X402671Y29682D01*
X401320Y29859D01*
D02*
G37*
G36*
X375920D02*
Y21170D01*
X384609D01*
X384432Y22521D01*
X383420Y24963D01*
X381811Y27061D01*
X379713Y28670D01*
X377271Y29682D01*
X375920Y29859D01*
D02*
G37*
G36*
X350520D02*
Y21170D01*
X359209D01*
X359032Y22521D01*
X358020Y24963D01*
X356411Y27061D01*
X354313Y28670D01*
X351871Y29682D01*
X350520Y29859D01*
D02*
G37*
G36*
X325120D02*
Y21170D01*
X333809D01*
X333632Y22521D01*
X332620Y24963D01*
X331011Y27061D01*
X328913Y28670D01*
X326471Y29682D01*
X325120Y29859D01*
D02*
G37*
G36*
X299720D02*
Y21170D01*
X308409D01*
X308232Y22521D01*
X307220Y24963D01*
X305611Y27061D01*
X303513Y28670D01*
X301071Y29682D01*
X299720Y29859D01*
D02*
G37*
G36*
X274320D02*
Y21170D01*
X283009D01*
X282832Y22521D01*
X281820Y24963D01*
X280211Y27061D01*
X278113Y28670D01*
X275671Y29682D01*
X274320Y29859D01*
D02*
G37*
G36*
X248920D02*
Y21170D01*
X257609D01*
X257432Y22521D01*
X256420Y24963D01*
X254811Y27061D01*
X252713Y28670D01*
X250271Y29682D01*
X248920Y29859D01*
D02*
G37*
G36*
X223520D02*
Y21170D01*
X232209D01*
X232032Y22521D01*
X231020Y24963D01*
X229411Y27061D01*
X227313Y28670D01*
X224871Y29682D01*
X223520Y29859D01*
D02*
G37*
G36*
X198120D02*
Y21170D01*
X206809D01*
X206632Y22521D01*
X205620Y24963D01*
X204011Y27061D01*
X201913Y28670D01*
X199471Y29682D01*
X198120Y29859D01*
D02*
G37*
G36*
X172720D02*
Y21170D01*
X181409D01*
X181232Y22521D01*
X180220Y24963D01*
X178611Y27061D01*
X176513Y28670D01*
X174071Y29682D01*
X172720Y29859D01*
D02*
G37*
G36*
X147320D02*
Y21170D01*
X156009D01*
X155832Y22521D01*
X154820Y24963D01*
X153211Y27061D01*
X151113Y28670D01*
X148671Y29682D01*
X147320Y29859D01*
D02*
G37*
G36*
X121920D02*
Y21170D01*
X130609D01*
X130432Y22521D01*
X129420Y24963D01*
X127811Y27061D01*
X125713Y28670D01*
X123271Y29682D01*
X121920Y29859D01*
D02*
G37*
G36*
X96520D02*
Y21170D01*
X105209D01*
X105032Y22521D01*
X104020Y24963D01*
X102411Y27061D01*
X100313Y28670D01*
X97871Y29682D01*
X96520Y29859D01*
D02*
G37*
G36*
X71120D02*
Y21170D01*
X79809D01*
X79632Y22521D01*
X78620Y24963D01*
X77011Y27061D01*
X74913Y28670D01*
X72471Y29682D01*
X71120Y29859D01*
D02*
G37*
G36*
X45720D02*
Y21170D01*
X54409D01*
X54232Y22521D01*
X53220Y24963D01*
X51611Y27061D01*
X49513Y28670D01*
X47071Y29682D01*
X45720Y29859D01*
D02*
G37*
G36*
X29090Y29940D02*
X20320D01*
Y21170D01*
X29090D01*
Y29940D01*
D02*
G37*
G36*
X855980Y29859D02*
X854629Y29682D01*
X852187Y28670D01*
X850089Y27061D01*
X848480Y24963D01*
X847468Y22521D01*
X847291Y21170D01*
X855980D01*
Y29859D01*
D02*
G37*
G36*
X830580D02*
X829229Y29682D01*
X826787Y28670D01*
X824689Y27061D01*
X823080Y24963D01*
X822068Y22521D01*
X821891Y21170D01*
X830580D01*
Y29859D01*
D02*
G37*
G36*
X805180D02*
X803829Y29682D01*
X801387Y28670D01*
X799289Y27061D01*
X797680Y24963D01*
X796668Y22521D01*
X796491Y21170D01*
X805180D01*
Y29859D01*
D02*
G37*
G36*
X779780D02*
X778429Y29682D01*
X775987Y28670D01*
X773889Y27061D01*
X772280Y24963D01*
X771268Y22521D01*
X771091Y21170D01*
X779780D01*
Y29859D01*
D02*
G37*
G36*
X754380D02*
X753029Y29682D01*
X750587Y28670D01*
X748489Y27061D01*
X746880Y24963D01*
X745868Y22521D01*
X745691Y21170D01*
X754380D01*
Y29859D01*
D02*
G37*
G36*
X728980D02*
X727629Y29682D01*
X725187Y28670D01*
X723089Y27061D01*
X721480Y24963D01*
X720468Y22521D01*
X720291Y21170D01*
X728980D01*
Y29859D01*
D02*
G37*
G36*
X703580D02*
X702229Y29682D01*
X699787Y28670D01*
X697689Y27061D01*
X696080Y24963D01*
X695068Y22521D01*
X694891Y21170D01*
X703580D01*
Y29859D01*
D02*
G37*
G36*
X678180D02*
X676829Y29682D01*
X674387Y28670D01*
X672289Y27061D01*
X670680Y24963D01*
X669668Y22521D01*
X669491Y21170D01*
X678180D01*
Y29859D01*
D02*
G37*
G36*
X652780D02*
X651429Y29682D01*
X648987Y28670D01*
X646889Y27061D01*
X645280Y24963D01*
X644268Y22521D01*
X644091Y21170D01*
X652780D01*
Y29859D01*
D02*
G37*
G36*
X627380D02*
X626029Y29682D01*
X623587Y28670D01*
X621489Y27061D01*
X619880Y24963D01*
X618868Y22521D01*
X618691Y21170D01*
X627380D01*
Y29859D01*
D02*
G37*
G36*
X601980D02*
X600629Y29682D01*
X598187Y28670D01*
X596089Y27061D01*
X594480Y24963D01*
X593468Y22521D01*
X593291Y21170D01*
X601980D01*
Y29859D01*
D02*
G37*
G36*
X576580D02*
X575229Y29682D01*
X572787Y28670D01*
X570689Y27061D01*
X569080Y24963D01*
X568068Y22521D01*
X567891Y21170D01*
X576580D01*
Y29859D01*
D02*
G37*
G36*
X551180D02*
X549829Y29682D01*
X547387Y28670D01*
X545289Y27061D01*
X543680Y24963D01*
X542668Y22521D01*
X542491Y21170D01*
X551180D01*
Y29859D01*
D02*
G37*
G36*
X525780D02*
X524429Y29682D01*
X521987Y28670D01*
X519889Y27061D01*
X518280Y24963D01*
X517268Y22521D01*
X517091Y21170D01*
X525780D01*
Y29859D01*
D02*
G37*
G36*
X500380D02*
X499029Y29682D01*
X496587Y28670D01*
X494489Y27061D01*
X492880Y24963D01*
X491868Y22521D01*
X491691Y21170D01*
X500380D01*
Y29859D01*
D02*
G37*
G36*
X474980D02*
X473629Y29682D01*
X471187Y28670D01*
X469089Y27061D01*
X467480Y24963D01*
X466468Y22521D01*
X466291Y21170D01*
X474980D01*
Y29859D01*
D02*
G37*
G36*
X449580D02*
X448229Y29682D01*
X445787Y28670D01*
X443689Y27061D01*
X442080Y24963D01*
X441068Y22521D01*
X440891Y21170D01*
X449580D01*
Y29859D01*
D02*
G37*
G36*
X424180D02*
X422829Y29682D01*
X420387Y28670D01*
X418289Y27061D01*
X416680Y24963D01*
X415668Y22521D01*
X415491Y21170D01*
X424180D01*
Y29859D01*
D02*
G37*
G36*
X398780D02*
X397429Y29682D01*
X394987Y28670D01*
X392889Y27061D01*
X391280Y24963D01*
X390268Y22521D01*
X390091Y21170D01*
X398780D01*
Y29859D01*
D02*
G37*
G36*
X373380D02*
X372029Y29682D01*
X369587Y28670D01*
X367489Y27061D01*
X365880Y24963D01*
X364868Y22521D01*
X364691Y21170D01*
X373380D01*
Y29859D01*
D02*
G37*
G36*
X347980D02*
X346629Y29682D01*
X344187Y28670D01*
X342089Y27061D01*
X340480Y24963D01*
X339468Y22521D01*
X339291Y21170D01*
X347980D01*
Y29859D01*
D02*
G37*
G36*
X322580D02*
X321229Y29682D01*
X318787Y28670D01*
X316689Y27061D01*
X315080Y24963D01*
X314068Y22521D01*
X313891Y21170D01*
X322580D01*
Y29859D01*
D02*
G37*
G36*
X297180D02*
X295829Y29682D01*
X293387Y28670D01*
X291289Y27061D01*
X289680Y24963D01*
X288668Y22521D01*
X288491Y21170D01*
X297180D01*
Y29859D01*
D02*
G37*
G36*
X271780D02*
X270429Y29682D01*
X267987Y28670D01*
X265889Y27061D01*
X264280Y24963D01*
X263268Y22521D01*
X263091Y21170D01*
X271780D01*
Y29859D01*
D02*
G37*
G36*
X246380D02*
X245029Y29682D01*
X242587Y28670D01*
X240489Y27061D01*
X238880Y24963D01*
X237868Y22521D01*
X237691Y21170D01*
X246380D01*
Y29859D01*
D02*
G37*
G36*
X220980D02*
X219629Y29682D01*
X217187Y28670D01*
X215089Y27061D01*
X213480Y24963D01*
X212468Y22521D01*
X212291Y21170D01*
X220980D01*
Y29859D01*
D02*
G37*
G36*
X195580D02*
X194229Y29682D01*
X191787Y28670D01*
X189689Y27061D01*
X188080Y24963D01*
X187068Y22521D01*
X186891Y21170D01*
X195580D01*
Y29859D01*
D02*
G37*
G36*
X170180D02*
X168829Y29682D01*
X166387Y28670D01*
X164289Y27061D01*
X162680Y24963D01*
X161668Y22521D01*
X161491Y21170D01*
X170180D01*
Y29859D01*
D02*
G37*
G36*
X144780D02*
X143429Y29682D01*
X140987Y28670D01*
X138889Y27061D01*
X137280Y24963D01*
X136268Y22521D01*
X136091Y21170D01*
X144780D01*
Y29859D01*
D02*
G37*
G36*
X119380D02*
X118029Y29682D01*
X115587Y28670D01*
X113489Y27061D01*
X111880Y24963D01*
X110868Y22521D01*
X110691Y21170D01*
X119380D01*
Y29859D01*
D02*
G37*
G36*
X93980D02*
X92629Y29682D01*
X90187Y28670D01*
X88089Y27061D01*
X86480Y24963D01*
X85468Y22521D01*
X85291Y21170D01*
X93980D01*
Y29859D01*
D02*
G37*
G36*
X68580D02*
X67229Y29682D01*
X64787Y28670D01*
X62689Y27061D01*
X61080Y24963D01*
X60068Y22521D01*
X59891Y21170D01*
X68580D01*
Y29859D01*
D02*
G37*
G36*
X43180D02*
X41829Y29682D01*
X39387Y28670D01*
X37289Y27061D01*
X35680Y24963D01*
X34668Y22521D01*
X34491Y21170D01*
X43180D01*
Y29859D01*
D02*
G37*
G36*
X17780Y29940D02*
X9010D01*
Y21170D01*
X17780D01*
Y29940D01*
D02*
G37*
G36*
X867209Y18630D02*
X858520D01*
Y9941D01*
X859871Y10118D01*
X862313Y11130D01*
X864411Y12739D01*
X866020Y14837D01*
X867032Y17279D01*
X867209Y18630D01*
D02*
G37*
G36*
X841809D02*
X833120D01*
Y9941D01*
X834471Y10118D01*
X836913Y11130D01*
X839011Y12739D01*
X840620Y14837D01*
X841632Y17279D01*
X841809Y18630D01*
D02*
G37*
G36*
X816409D02*
X807720D01*
Y9941D01*
X809071Y10118D01*
X811513Y11130D01*
X813611Y12739D01*
X815220Y14837D01*
X816232Y17279D01*
X816409Y18630D01*
D02*
G37*
G36*
X791009D02*
X782320D01*
Y9941D01*
X783671Y10118D01*
X786113Y11130D01*
X788211Y12739D01*
X789820Y14837D01*
X790832Y17279D01*
X791009Y18630D01*
D02*
G37*
G36*
X765609D02*
X756920D01*
Y9941D01*
X758271Y10118D01*
X760713Y11130D01*
X762811Y12739D01*
X764420Y14837D01*
X765432Y17279D01*
X765609Y18630D01*
D02*
G37*
G36*
X740209D02*
X731520D01*
Y9941D01*
X732871Y10118D01*
X735313Y11130D01*
X737411Y12739D01*
X739020Y14837D01*
X740032Y17279D01*
X740209Y18630D01*
D02*
G37*
G36*
X714809D02*
X706120D01*
Y9941D01*
X707471Y10118D01*
X709913Y11130D01*
X712011Y12739D01*
X713620Y14837D01*
X714632Y17279D01*
X714809Y18630D01*
D02*
G37*
G36*
X689409D02*
X680720D01*
Y9941D01*
X682071Y10118D01*
X684513Y11130D01*
X686611Y12739D01*
X688220Y14837D01*
X689232Y17279D01*
X689409Y18630D01*
D02*
G37*
G36*
X664009D02*
X655320D01*
Y9941D01*
X656671Y10118D01*
X659113Y11130D01*
X661211Y12739D01*
X662820Y14837D01*
X663832Y17279D01*
X664009Y18630D01*
D02*
G37*
G36*
X638609D02*
X629920D01*
Y9941D01*
X631271Y10118D01*
X633713Y11130D01*
X635811Y12739D01*
X637420Y14837D01*
X638432Y17279D01*
X638609Y18630D01*
D02*
G37*
G36*
X613209D02*
X604520D01*
Y9941D01*
X605871Y10118D01*
X608313Y11130D01*
X610411Y12739D01*
X612020Y14837D01*
X613032Y17279D01*
X613209Y18630D01*
D02*
G37*
G36*
X587809D02*
X579120D01*
Y9941D01*
X580471Y10118D01*
X582913Y11130D01*
X585011Y12739D01*
X586620Y14837D01*
X587632Y17279D01*
X587809Y18630D01*
D02*
G37*
G36*
X562409D02*
X553720D01*
Y9941D01*
X555071Y10118D01*
X557513Y11130D01*
X559611Y12739D01*
X561220Y14837D01*
X562232Y17279D01*
X562409Y18630D01*
D02*
G37*
G36*
X537009D02*
X528320D01*
Y9941D01*
X529671Y10118D01*
X532113Y11130D01*
X534211Y12739D01*
X535820Y14837D01*
X536832Y17279D01*
X537009Y18630D01*
D02*
G37*
G36*
X486209D02*
X477520D01*
Y9941D01*
X478871Y10118D01*
X481313Y11130D01*
X483411Y12739D01*
X485020Y14837D01*
X486032Y17279D01*
X486209Y18630D01*
D02*
G37*
G36*
X460809D02*
X452120D01*
Y9941D01*
X453471Y10118D01*
X455913Y11130D01*
X458011Y12739D01*
X459620Y14837D01*
X460632Y17279D01*
X460809Y18630D01*
D02*
G37*
G36*
X435409D02*
X426720D01*
Y9941D01*
X428071Y10118D01*
X430513Y11130D01*
X432611Y12739D01*
X434220Y14837D01*
X435232Y17279D01*
X435409Y18630D01*
D02*
G37*
G36*
X410009D02*
X401320D01*
Y9941D01*
X402671Y10118D01*
X405113Y11130D01*
X407211Y12739D01*
X408820Y14837D01*
X409832Y17279D01*
X410009Y18630D01*
D02*
G37*
G36*
X359209D02*
X350520D01*
Y9941D01*
X351871Y10118D01*
X354313Y11130D01*
X356411Y12739D01*
X358020Y14837D01*
X359032Y17279D01*
X359209Y18630D01*
D02*
G37*
G36*
X333809D02*
X325120D01*
Y9941D01*
X326471Y10118D01*
X328913Y11130D01*
X331011Y12739D01*
X332620Y14837D01*
X333632Y17279D01*
X333809Y18630D01*
D02*
G37*
G36*
X308409D02*
X299720D01*
Y9941D01*
X301071Y10118D01*
X303513Y11130D01*
X305611Y12739D01*
X307220Y14837D01*
X308232Y17279D01*
X308409Y18630D01*
D02*
G37*
G36*
X283009D02*
X274320D01*
Y9941D01*
X275671Y10118D01*
X278113Y11130D01*
X280211Y12739D01*
X281820Y14837D01*
X282832Y17279D01*
X283009Y18630D01*
D02*
G37*
G36*
X232209D02*
X223520D01*
Y9941D01*
X224871Y10118D01*
X227313Y11130D01*
X229411Y12739D01*
X231020Y14837D01*
X232032Y17279D01*
X232209Y18630D01*
D02*
G37*
G36*
X206809D02*
X198120D01*
Y9941D01*
X199471Y10118D01*
X201913Y11130D01*
X204011Y12739D01*
X205620Y14837D01*
X206632Y17279D01*
X206809Y18630D01*
D02*
G37*
G36*
X181409D02*
X172720D01*
Y9941D01*
X174071Y10118D01*
X176513Y11130D01*
X178611Y12739D01*
X180220Y14837D01*
X181232Y17279D01*
X181409Y18630D01*
D02*
G37*
G36*
X156009D02*
X147320D01*
Y9941D01*
X148671Y10118D01*
X151113Y11130D01*
X153211Y12739D01*
X154820Y14837D01*
X155832Y17279D01*
X156009Y18630D01*
D02*
G37*
G36*
X105209D02*
X96520D01*
Y9941D01*
X97871Y10118D01*
X100313Y11130D01*
X102411Y12739D01*
X104020Y14837D01*
X105032Y17279D01*
X105209Y18630D01*
D02*
G37*
G36*
X79809D02*
X71120D01*
Y9941D01*
X72471Y10118D01*
X74913Y11130D01*
X77011Y12739D01*
X78620Y14837D01*
X79632Y17279D01*
X79809Y18630D01*
D02*
G37*
G36*
X54409D02*
X45720D01*
Y9941D01*
X47071Y10118D01*
X49513Y11130D01*
X51611Y12739D01*
X53220Y14837D01*
X54232Y17279D01*
X54409Y18630D01*
D02*
G37*
G36*
X511609D02*
X502920D01*
Y9941D01*
X504271Y10118D01*
X506713Y11130D01*
X508811Y12739D01*
X510420Y14837D01*
X511432Y17279D01*
X511609Y18630D01*
D02*
G37*
G36*
X384609D02*
X375920D01*
Y9941D01*
X377271Y10118D01*
X379713Y11130D01*
X381811Y12739D01*
X383420Y14837D01*
X384432Y17279D01*
X384609Y18630D01*
D02*
G37*
G36*
X257609D02*
X248920D01*
Y9941D01*
X250271Y10118D01*
X252713Y11130D01*
X254811Y12739D01*
X256420Y14837D01*
X257432Y17279D01*
X257609Y18630D01*
D02*
G37*
G36*
X130609D02*
X121920D01*
Y9941D01*
X123271Y10118D01*
X125713Y11130D01*
X127811Y12739D01*
X129420Y14837D01*
X130432Y17279D01*
X130609Y18630D01*
D02*
G37*
G36*
X855980D02*
X847291D01*
X847468Y17279D01*
X848480Y14837D01*
X850089Y12739D01*
X852187Y11130D01*
X854629Y10118D01*
X855980Y9941D01*
Y18630D01*
D02*
G37*
G36*
X830580D02*
X821891D01*
X822068Y17279D01*
X823080Y14837D01*
X824689Y12739D01*
X826787Y11130D01*
X829229Y10118D01*
X830580Y9941D01*
Y18630D01*
D02*
G37*
G36*
X805180D02*
X796491D01*
X796668Y17279D01*
X797680Y14837D01*
X799289Y12739D01*
X801387Y11130D01*
X803829Y10118D01*
X805180Y9941D01*
Y18630D01*
D02*
G37*
G36*
X779780D02*
X771091D01*
X771268Y17279D01*
X772280Y14837D01*
X773889Y12739D01*
X775987Y11130D01*
X778429Y10118D01*
X779780Y9941D01*
Y18630D01*
D02*
G37*
G36*
X754380D02*
X745691D01*
X745868Y17279D01*
X746880Y14837D01*
X748489Y12739D01*
X750587Y11130D01*
X753029Y10118D01*
X754380Y9941D01*
Y18630D01*
D02*
G37*
G36*
X728980D02*
X720291D01*
X720468Y17279D01*
X721480Y14837D01*
X723089Y12739D01*
X725187Y11130D01*
X727629Y10118D01*
X728980Y9941D01*
Y18630D01*
D02*
G37*
G36*
X703580D02*
X694891D01*
X695068Y17279D01*
X696080Y14837D01*
X697689Y12739D01*
X699787Y11130D01*
X702229Y10118D01*
X703580Y9941D01*
Y18630D01*
D02*
G37*
G36*
X678180D02*
X669491D01*
X669668Y17279D01*
X670680Y14837D01*
X672289Y12739D01*
X674387Y11130D01*
X676829Y10118D01*
X678180Y9941D01*
Y18630D01*
D02*
G37*
G36*
X652780D02*
X644091D01*
X644268Y17279D01*
X645280Y14837D01*
X646889Y12739D01*
X648987Y11130D01*
X651429Y10118D01*
X652780Y9941D01*
Y18630D01*
D02*
G37*
G36*
X627380D02*
X618691D01*
X618868Y17279D01*
X619880Y14837D01*
X621489Y12739D01*
X623587Y11130D01*
X626029Y10118D01*
X627380Y9941D01*
Y18630D01*
D02*
G37*
G36*
X601980D02*
X593291D01*
X593468Y17279D01*
X594480Y14837D01*
X596089Y12739D01*
X598187Y11130D01*
X600629Y10118D01*
X601980Y9941D01*
Y18630D01*
D02*
G37*
G36*
X576580D02*
X567891D01*
X568068Y17279D01*
X569080Y14837D01*
X570689Y12739D01*
X572787Y11130D01*
X575229Y10118D01*
X576580Y9941D01*
Y18630D01*
D02*
G37*
G36*
X551180D02*
X542491D01*
X542668Y17279D01*
X543680Y14837D01*
X545289Y12739D01*
X547387Y11130D01*
X549829Y10118D01*
X551180Y9941D01*
Y18630D01*
D02*
G37*
G36*
X500380D02*
X491691D01*
X491868Y17279D01*
X492880Y14837D01*
X494489Y12739D01*
X496587Y11130D01*
X499029Y10118D01*
X500380Y9941D01*
Y18630D01*
D02*
G37*
G36*
X474980D02*
X466291D01*
X466468Y17279D01*
X467480Y14837D01*
X469089Y12739D01*
X471187Y11130D01*
X473629Y10118D01*
X474980Y9941D01*
Y18630D01*
D02*
G37*
G36*
X449580D02*
X440891D01*
X441068Y17279D01*
X442080Y14837D01*
X443689Y12739D01*
X445787Y11130D01*
X448229Y10118D01*
X449580Y9941D01*
Y18630D01*
D02*
G37*
G36*
X424180D02*
X415491D01*
X415668Y17279D01*
X416680Y14837D01*
X418289Y12739D01*
X420387Y11130D01*
X422829Y10118D01*
X424180Y9941D01*
Y18630D01*
D02*
G37*
G36*
X373380D02*
X364691D01*
X364868Y17279D01*
X365880Y14837D01*
X367489Y12739D01*
X369587Y11130D01*
X372029Y10118D01*
X373380Y9941D01*
Y18630D01*
D02*
G37*
G36*
X347980D02*
X339291D01*
X339468Y17279D01*
X340480Y14837D01*
X342089Y12739D01*
X344187Y11130D01*
X346629Y10118D01*
X347980Y9941D01*
Y18630D01*
D02*
G37*
G36*
X322580D02*
X313891D01*
X314068Y17279D01*
X315080Y14837D01*
X316689Y12739D01*
X318787Y11130D01*
X321229Y10118D01*
X322580Y9941D01*
Y18630D01*
D02*
G37*
G36*
X297180D02*
X288491D01*
X288668Y17279D01*
X289680Y14837D01*
X291289Y12739D01*
X293387Y11130D01*
X295829Y10118D01*
X297180Y9941D01*
Y18630D01*
D02*
G37*
G36*
X271780D02*
X263091D01*
X263268Y17279D01*
X264280Y14837D01*
X265889Y12739D01*
X267987Y11130D01*
X270429Y10118D01*
X271780Y9941D01*
Y18630D01*
D02*
G37*
G36*
X246380D02*
X237691D01*
X237868Y17279D01*
X238880Y14837D01*
X240489Y12739D01*
X242587Y11130D01*
X245029Y10118D01*
X246380Y9941D01*
Y18630D01*
D02*
G37*
G36*
X220980D02*
X212291D01*
X212468Y17279D01*
X213480Y14837D01*
X215089Y12739D01*
X217187Y11130D01*
X219629Y10118D01*
X220980Y9941D01*
Y18630D01*
D02*
G37*
G36*
X195580D02*
X186891D01*
X187068Y17279D01*
X188080Y14837D01*
X189689Y12739D01*
X191787Y11130D01*
X194229Y10118D01*
X195580Y9941D01*
Y18630D01*
D02*
G37*
G36*
X170180D02*
X161491D01*
X161668Y17279D01*
X162680Y14837D01*
X164289Y12739D01*
X166387Y11130D01*
X168829Y10118D01*
X170180Y9941D01*
Y18630D01*
D02*
G37*
G36*
X144780D02*
X136091D01*
X136268Y17279D01*
X137280Y14837D01*
X138889Y12739D01*
X140987Y11130D01*
X143429Y10118D01*
X144780Y9941D01*
Y18630D01*
D02*
G37*
G36*
X119380D02*
X110691D01*
X110868Y17279D01*
X111880Y14837D01*
X113489Y12739D01*
X115587Y11130D01*
X118029Y10118D01*
X119380Y9941D01*
Y18630D01*
D02*
G37*
G36*
X93980D02*
X85291D01*
X85468Y17279D01*
X86480Y14837D01*
X88089Y12739D01*
X90187Y11130D01*
X92629Y10118D01*
X93980Y9941D01*
Y18630D01*
D02*
G37*
G36*
X68580D02*
X59891D01*
X60068Y17279D01*
X61080Y14837D01*
X62689Y12739D01*
X64787Y11130D01*
X67229Y10118D01*
X68580Y9941D01*
Y18630D01*
D02*
G37*
G36*
X43180D02*
X34491D01*
X34668Y17279D01*
X35680Y14837D01*
X37289Y12739D01*
X39387Y11130D01*
X41829Y10118D01*
X43180Y9941D01*
Y18630D01*
D02*
G37*
G36*
X525780D02*
X517091D01*
X517268Y17279D01*
X518280Y14837D01*
X519889Y12739D01*
X521987Y11130D01*
X524429Y10118D01*
X525780Y9941D01*
Y18630D01*
D02*
G37*
G36*
X398780D02*
X390091D01*
X390268Y17279D01*
X391280Y14837D01*
X392889Y12739D01*
X394987Y11130D01*
X397429Y10118D01*
X398780Y9941D01*
Y18630D01*
D02*
G37*
G36*
X29090D02*
X20320D01*
Y9860D01*
X29090D01*
Y18630D01*
D02*
G37*
G36*
X17780D02*
X9010D01*
Y9860D01*
X17780D01*
Y18630D01*
D02*
G37*
%LPD*%
G36*
X716080Y523974D02*
X716310Y523801D01*
X716559Y523649D01*
X716829Y523517D01*
X717119Y523405D01*
X717429Y523314D01*
X717759Y523242D01*
X718109Y523192D01*
X718479Y523161D01*
X718870Y523151D01*
X718870Y519849D01*
X718479Y519839D01*
X718109Y519808D01*
X717759Y519758D01*
X717429Y519687D01*
X717119Y519595D01*
X716829Y519483D01*
X716559Y519351D01*
X716310Y519199D01*
X716080Y519026D01*
X715871Y518833D01*
X713150Y521500D01*
X710429Y518833D01*
X710220Y519026D01*
X709990Y519199D01*
X709741Y519351D01*
X709471Y519483D01*
X709182Y519595D01*
X708872Y519687D01*
X708541Y519758D01*
X708191Y519808D01*
X707821Y519839D01*
X707430Y519849D01*
X707430Y523151D01*
X707821Y523161D01*
X708191Y523192D01*
X708541Y523242D01*
X708872Y523314D01*
X709182Y523405D01*
X709471Y523517D01*
X709741Y523649D01*
X709990Y523801D01*
X710220Y523974D01*
X710429Y524167D01*
X713150Y521500D01*
X715871Y524167D01*
X716080Y523974D01*
D02*
G37*
G36*
X723902Y518906D02*
X723639Y519085D01*
X723338Y519246D01*
X723001Y519387D01*
X722628Y519510D01*
X722218Y519613D01*
X721772Y519698D01*
X720770Y519811D01*
X720214Y519840D01*
X719622Y519849D01*
Y523151D01*
X720214Y523160D01*
X721289Y523236D01*
X721772Y523302D01*
X722628Y523490D01*
X723001Y523613D01*
X723338Y523755D01*
X723639Y523915D01*
X723902Y524094D01*
Y518906D01*
D02*
G37*
G36*
X718080Y513974D02*
X718309Y513801D01*
X718559Y513649D01*
X718829Y513517D01*
X719118Y513405D01*
X719428Y513314D01*
X719759Y513242D01*
X720109Y513192D01*
X720362Y513171D01*
X721289Y513236D01*
X721772Y513302D01*
X722628Y513490D01*
X723001Y513613D01*
X723338Y513754D01*
X723639Y513915D01*
X723902Y514094D01*
Y508906D01*
X723639Y509085D01*
X723338Y509246D01*
X723001Y509387D01*
X722628Y509510D01*
X722218Y509613D01*
X721772Y509698D01*
X720770Y509811D01*
X720383Y509831D01*
X720109Y509808D01*
X719759Y509758D01*
X719428Y509687D01*
X719118Y509595D01*
X718829Y509483D01*
X718559Y509351D01*
X718309Y509199D01*
X718080Y509026D01*
X717871Y508833D01*
Y514167D01*
X718080Y513974D01*
D02*
G37*
G36*
X712429Y508833D02*
X712220Y509026D01*
X711991Y509199D01*
X711741Y509351D01*
X711471Y509483D01*
X711181Y509595D01*
X710872Y509687D01*
X710541Y509758D01*
X710191Y509808D01*
X709821Y509839D01*
X709430Y509849D01*
Y513151D01*
X709821Y513161D01*
X710191Y513192D01*
X710541Y513242D01*
X710872Y513314D01*
X711181Y513405D01*
X711471Y513517D01*
X711741Y513649D01*
X711991Y513801D01*
X712220Y513974D01*
X712429Y514167D01*
Y508833D01*
D02*
G37*
G36*
X28854Y122619D02*
X28198Y121940D01*
X27164Y120722D01*
X26788Y120184D01*
X26504Y119693D01*
X26314Y119250D01*
X26218Y118854D01*
X26215Y118505D01*
X26305Y118204D01*
X26489Y117950D01*
X21850Y122589D01*
X22104Y122405D01*
X22405Y122315D01*
X22754Y122318D01*
X23150Y122414D01*
X23593Y122604D01*
X24084Y122887D01*
X24622Y123264D01*
X25207Y123734D01*
X26519Y124954D01*
X28854Y122619D01*
D02*
G37*
G36*
X53973Y122338D02*
X53579Y121893D01*
X53228Y121390D01*
X52920Y120827D01*
X52654Y120204D01*
X52430Y119523D01*
X52249Y118782D01*
X52111Y117982D01*
X52014Y117122D01*
X51961Y116203D01*
X51950Y115225D01*
X44525Y122650D01*
X45503Y122661D01*
X47282Y122810D01*
X48082Y122949D01*
X48823Y123130D01*
X49504Y123354D01*
X50127Y123620D01*
X50690Y123928D01*
X51193Y124279D01*
X51638Y124673D01*
X53973Y122338D01*
D02*
G37*
G36*
X783162Y523915D02*
X783462Y523755D01*
X783799Y523613D01*
X784172Y523490D01*
X784582Y523387D01*
X785028Y523302D01*
X786030Y523189D01*
X786586Y523160D01*
X787178Y523151D01*
Y519849D01*
X786586Y519840D01*
X785511Y519764D01*
X785028Y519698D01*
X784172Y519510D01*
X783799Y519387D01*
X783462Y519246D01*
X783162Y519085D01*
X782898Y518906D01*
Y524094D01*
X783162Y523915D01*
D02*
G37*
G36*
X795679Y518833D02*
X795470Y519026D01*
X795240Y519199D01*
X794991Y519351D01*
X794721Y519483D01*
X794432Y519595D01*
X794121Y519687D01*
X793791Y519758D01*
X793441Y519808D01*
X793071Y519839D01*
X792680Y519849D01*
X792680Y523151D01*
X793071Y523161D01*
X793441Y523192D01*
X793792Y523242D01*
X794121Y523314D01*
X794432Y523405D01*
X794721Y523517D01*
X794991Y523649D01*
X795240Y523801D01*
X795470Y523974D01*
X795679Y524167D01*
X795679Y518833D01*
D02*
G37*
G36*
X787929Y508833D02*
X787720Y509026D01*
X787490Y509199D01*
X787241Y509351D01*
X786971Y509483D01*
X786682Y509595D01*
X786372Y509687D01*
X786041Y509758D01*
X785838Y509787D01*
X785511Y509764D01*
X785028Y509698D01*
X784172Y509510D01*
X783799Y509387D01*
X783462Y509246D01*
X783162Y509085D01*
X782898Y508906D01*
Y514094D01*
X783162Y513915D01*
X783462Y513754D01*
X783799Y513613D01*
X784172Y513490D01*
X784582Y513387D01*
X785028Y513302D01*
X785828Y513212D01*
X786041Y513242D01*
X786372Y513314D01*
X786682Y513405D01*
X786971Y513517D01*
X787241Y513649D01*
X787490Y513801D01*
X787720Y513974D01*
X787929Y514167D01*
Y508833D01*
D02*
G37*
G36*
X718330Y493974D02*
X718559Y493801D01*
X718809Y493649D01*
X719079Y493517D01*
X719369Y493405D01*
X719678Y493314D01*
X720009Y493242D01*
X720359Y493192D01*
X720497Y493180D01*
X721289Y493236D01*
X721772Y493302D01*
X722628Y493490D01*
X723001Y493613D01*
X723338Y493754D01*
X723639Y493915D01*
X723902Y494094D01*
Y488906D01*
X723639Y489085D01*
X723338Y489246D01*
X723001Y489387D01*
X722628Y489510D01*
X722218Y489613D01*
X721772Y489698D01*
X720770Y489811D01*
X720538Y489823D01*
X720359Y489808D01*
X720009Y489758D01*
X719678Y489686D01*
X719369Y489595D01*
X719079Y489483D01*
X718809Y489351D01*
X718559Y489199D01*
X718330Y489026D01*
X718121Y488833D01*
Y494167D01*
X718330Y493974D01*
D02*
G37*
G36*
X712679Y488833D02*
X712470Y489026D01*
X712241Y489199D01*
X711991Y489351D01*
X711721Y489483D01*
X711432Y489595D01*
X711122Y489686D01*
X710791Y489758D01*
X710441Y489808D01*
X710071Y489839D01*
X709680Y489849D01*
Y493151D01*
X710071Y493161D01*
X710441Y493192D01*
X710791Y493242D01*
X711122Y493314D01*
X711432Y493405D01*
X711721Y493517D01*
X711991Y493649D01*
X712241Y493801D01*
X712470Y493974D01*
X712679Y494167D01*
Y488833D01*
D02*
G37*
G36*
X718330Y483974D02*
X718559Y483801D01*
X718809Y483649D01*
X719079Y483517D01*
X719369Y483405D01*
X719678Y483314D01*
X720009Y483242D01*
X720359Y483192D01*
X720497Y483180D01*
X721289Y483236D01*
X721772Y483302D01*
X722628Y483490D01*
X723001Y483613D01*
X723338Y483754D01*
X723639Y483915D01*
X723902Y484094D01*
Y478906D01*
X723639Y479085D01*
X723338Y479246D01*
X723001Y479387D01*
X722628Y479510D01*
X722218Y479613D01*
X721772Y479698D01*
X720770Y479811D01*
X720538Y479823D01*
X720359Y479808D01*
X720009Y479758D01*
X719678Y479686D01*
X719369Y479595D01*
X719079Y479483D01*
X718809Y479351D01*
X718559Y479199D01*
X718330Y479026D01*
X718121Y478833D01*
Y484167D01*
X718330Y483974D01*
D02*
G37*
G36*
X712679Y478833D02*
X712470Y479026D01*
X712241Y479199D01*
X711991Y479351D01*
X711721Y479483D01*
X711432Y479595D01*
X711122Y479686D01*
X710791Y479758D01*
X710441Y479808D01*
X710071Y479839D01*
X709680Y479849D01*
Y483151D01*
X710071Y483161D01*
X710441Y483192D01*
X710791Y483242D01*
X711122Y483314D01*
X711432Y483405D01*
X711721Y483517D01*
X711991Y483649D01*
X712241Y483801D01*
X712470Y483974D01*
X712679Y484167D01*
Y478833D01*
D02*
G37*
G36*
X104773Y122338D02*
X104379Y121893D01*
X104028Y121390D01*
X103720Y120827D01*
X103454Y120204D01*
X103230Y119523D01*
X103049Y118782D01*
X102910Y117982D01*
X102814Y117122D01*
X102761Y116203D01*
X102750Y115225D01*
X95325Y122650D01*
X96303Y122661D01*
X98082Y122810D01*
X98882Y122949D01*
X99623Y123130D01*
X100304Y123354D01*
X100927Y123620D01*
X101490Y123928D01*
X101993Y124279D01*
X102438Y124673D01*
X104773Y122338D01*
D02*
G37*
G36*
X79373D02*
X78979Y121893D01*
X78628Y121390D01*
X78320Y120827D01*
X78054Y120204D01*
X77830Y119523D01*
X77649Y118782D01*
X77510Y117982D01*
X77414Y117122D01*
X77361Y116203D01*
X77350Y115225D01*
X69925Y122650D01*
X70903Y122661D01*
X72682Y122810D01*
X73482Y122949D01*
X74223Y123130D01*
X74904Y123354D01*
X75527Y123620D01*
X76090Y123928D01*
X76593Y124279D01*
X77038Y124673D01*
X79373Y122338D01*
D02*
G37*
G36*
X783162Y493915D02*
X783462Y493754D01*
X783799Y493613D01*
X784172Y493490D01*
X784582Y493387D01*
X785028Y493302D01*
X786030Y493189D01*
X786586Y493160D01*
X787178Y493151D01*
Y489849D01*
X786586Y489840D01*
X785511Y489764D01*
X785028Y489698D01*
X784172Y489510D01*
X783799Y489387D01*
X783462Y489246D01*
X783162Y489085D01*
X782898Y488906D01*
Y494094D01*
X783162Y493915D01*
D02*
G37*
G36*
X795679Y488833D02*
X795470Y489026D01*
X795240Y489199D01*
X794991Y489351D01*
X794721Y489483D01*
X794432Y489595D01*
X794121Y489686D01*
X793791Y489758D01*
X793441Y489808D01*
X793071Y489839D01*
X792680Y489849D01*
Y493151D01*
X793071Y493161D01*
X793441Y493192D01*
X793791Y493242D01*
X794121Y493314D01*
X794432Y493405D01*
X794721Y493517D01*
X794991Y493649D01*
X795240Y493801D01*
X795470Y493974D01*
X795679Y494167D01*
Y488833D01*
D02*
G37*
G36*
X788179Y478833D02*
X787970Y479026D01*
X787740Y479199D01*
X787491Y479351D01*
X787221Y479483D01*
X786932Y479595D01*
X786621Y479686D01*
X786291Y479758D01*
X786006Y479799D01*
X785511Y479764D01*
X785028Y479698D01*
X784172Y479510D01*
X783799Y479387D01*
X783462Y479246D01*
X783162Y479085D01*
X782898Y478906D01*
Y484094D01*
X783162Y483915D01*
X783462Y483754D01*
X783799Y483613D01*
X784172Y483490D01*
X784582Y483387D01*
X785028Y483302D01*
X785969Y483196D01*
X786291Y483242D01*
X786621Y483314D01*
X786932Y483405D01*
X787221Y483517D01*
X787491Y483649D01*
X787740Y483801D01*
X787970Y483974D01*
X788179Y484167D01*
Y478833D01*
D02*
G37*
G36*
X723902Y458906D02*
X723639Y459085D01*
X723338Y459246D01*
X723001Y459387D01*
X722628Y459510D01*
X722218Y459613D01*
X721772Y459698D01*
X720770Y459811D01*
X720214Y459840D01*
X719622Y459849D01*
Y463151D01*
X720214Y463160D01*
X721289Y463236D01*
X721772Y463302D01*
X722628Y463490D01*
X723001Y463613D01*
X723338Y463754D01*
X723639Y463915D01*
X723902Y464094D01*
Y458906D01*
D02*
G37*
G36*
X716580Y463974D02*
X716809Y463801D01*
X717059Y463649D01*
X717329Y463517D01*
X717619Y463405D01*
X717928Y463314D01*
X718259Y463242D01*
X718609Y463192D01*
X718979Y463161D01*
X719370Y463151D01*
X719370Y459849D01*
X718979Y459839D01*
X718609Y459808D01*
X718259Y459758D01*
X717928Y459686D01*
X717618Y459595D01*
X717329Y459483D01*
X717059Y459351D01*
X716809Y459199D01*
X716580Y459026D01*
X716371Y458833D01*
X713650Y461500D01*
X716371Y464167D01*
X716580Y463974D01*
D02*
G37*
G36*
X713650Y461500D02*
X710929Y458833D01*
X710720Y459026D01*
X710490Y459199D01*
X710241Y459351D01*
X709971Y459483D01*
X709681Y459595D01*
X709371Y459686D01*
X709042Y459758D01*
X708691Y459808D01*
X708321Y459839D01*
X707930Y459849D01*
X707930Y463151D01*
X708321Y463161D01*
X708691Y463192D01*
X709041Y463242D01*
X709371Y463314D01*
X709681Y463405D01*
X709971Y463517D01*
X710241Y463649D01*
X710490Y463801D01*
X710720Y463974D01*
X710929Y464167D01*
X713650Y461500D01*
D02*
G37*
G36*
X723902Y448906D02*
X723639Y449085D01*
X723338Y449246D01*
X723001Y449387D01*
X722628Y449510D01*
X722218Y449613D01*
X721772Y449698D01*
X720770Y449811D01*
X720214Y449840D01*
X719622Y449849D01*
Y453151D01*
X720214Y453160D01*
X721289Y453236D01*
X721772Y453302D01*
X722628Y453490D01*
X723001Y453613D01*
X723338Y453754D01*
X723639Y453915D01*
X723902Y454094D01*
Y448906D01*
D02*
G37*
G36*
X716830Y453974D02*
X717059Y453801D01*
X717309Y453649D01*
X717579Y453517D01*
X717868Y453405D01*
X718178Y453313D01*
X718509Y453242D01*
X718859Y453192D01*
X719229Y453161D01*
X719620Y453151D01*
X719620Y449849D01*
X719229Y449839D01*
X718859Y449808D01*
X718509Y449757D01*
X718178Y449686D01*
X717868Y449595D01*
X717579Y449483D01*
X717309Y449351D01*
X717059Y449199D01*
X716830Y449026D01*
X716621Y448833D01*
X713900Y451500D01*
X716621Y454167D01*
X716830Y453974D01*
D02*
G37*
G36*
X713900Y451500D02*
X711179Y448833D01*
X710970Y449026D01*
X710741Y449199D01*
X710491Y449351D01*
X710221Y449483D01*
X709931Y449595D01*
X709622Y449686D01*
X709291Y449757D01*
X708941Y449808D01*
X708571Y449839D01*
X708180Y449849D01*
X708180Y453151D01*
X708571Y453161D01*
X708941Y453192D01*
X709291Y453242D01*
X709622Y453313D01*
X709931Y453405D01*
X710221Y453517D01*
X710491Y453649D01*
X710741Y453801D01*
X710970Y453974D01*
X711179Y454167D01*
X713900Y451500D01*
D02*
G37*
G36*
X723902Y438906D02*
X723639Y439085D01*
X723338Y439246D01*
X723001Y439387D01*
X722628Y439510D01*
X722218Y439613D01*
X721772Y439698D01*
X720770Y439811D01*
X720214Y439840D01*
X719849Y439845D01*
X719588Y439838D01*
X719218Y439806D01*
X718870Y439752D01*
X718544Y439676D01*
X718239Y439579D01*
X717956Y439460D01*
X717695Y439319D01*
X717455Y439157D01*
X717237Y438973D01*
X717040Y438767D01*
X714150Y441600D01*
X711260Y438767D01*
X711063Y438973D01*
X710845Y439157D01*
X710605Y439319D01*
X710344Y439460D01*
X710061Y439579D01*
X709756Y439676D01*
X709430Y439752D01*
X709082Y439806D01*
X708712Y439838D01*
X708321Y439849D01*
X708562Y443151D01*
X708952Y443160D01*
X709324Y443189D01*
X709676Y443236D01*
X710009Y443301D01*
X710323Y443386D01*
X710619Y443489D01*
X710895Y443611D01*
X711152Y443752D01*
X711391Y443911D01*
X711610Y444090D01*
X714150Y441600D01*
X716690Y444090D01*
X716909Y443911D01*
X717148Y443752D01*
X717405Y443611D01*
X717682Y443489D01*
X717977Y443386D01*
X718291Y443301D01*
X718624Y443236D01*
X718977Y443189D01*
X719348Y443160D01*
X719692Y443152D01*
X720214Y443160D01*
X721289Y443236D01*
X721772Y443302D01*
X722628Y443490D01*
X723001Y443613D01*
X723338Y443754D01*
X723639Y443915D01*
X723902Y444094D01*
Y438906D01*
D02*
G37*
G36*
Y428906D02*
X723639Y429085D01*
X723338Y429245D01*
X723001Y429387D01*
X722628Y429510D01*
X722218Y429613D01*
X721772Y429698D01*
X720770Y429811D01*
X720214Y429840D01*
X720007Y429843D01*
X719838Y429838D01*
X719468Y429806D01*
X719120Y429752D01*
X718794Y429676D01*
X718489Y429579D01*
X718206Y429460D01*
X717945Y429319D01*
X717705Y429157D01*
X717487Y428973D01*
X717290Y428767D01*
X714400Y431600D01*
X711510Y428767D01*
X711313Y428973D01*
X711095Y429157D01*
X710855Y429319D01*
X710594Y429460D01*
X710311Y429579D01*
X710006Y429676D01*
X709680Y429752D01*
X709332Y429806D01*
X708962Y429838D01*
X708571Y429849D01*
X708812Y433151D01*
X709202Y433160D01*
X709574Y433189D01*
X709926Y433236D01*
X710259Y433301D01*
X710573Y433386D01*
X710869Y433489D01*
X711145Y433611D01*
X711402Y433752D01*
X711640Y433911D01*
X711860Y434090D01*
X714400Y431600D01*
X716940Y434090D01*
X717159Y433911D01*
X717398Y433752D01*
X717655Y433611D01*
X717932Y433489D01*
X718227Y433386D01*
X718541Y433301D01*
X718874Y433236D01*
X719227Y433189D01*
X719598Y433160D01*
X719842Y433154D01*
X720214Y433160D01*
X721289Y433236D01*
X721772Y433302D01*
X722628Y433490D01*
X723001Y433613D01*
X723338Y433754D01*
X723639Y433915D01*
X723902Y434094D01*
Y428906D01*
D02*
G37*
G36*
X206373Y122338D02*
X205979Y121893D01*
X205628Y121390D01*
X205320Y120827D01*
X205054Y120204D01*
X204830Y119523D01*
X204649Y118782D01*
X204510Y117982D01*
X204414Y117122D01*
X204361Y116203D01*
X204350Y115225D01*
X196925Y122650D01*
X197903Y122661D01*
X199682Y122810D01*
X200482Y122949D01*
X201223Y123130D01*
X201905Y123354D01*
X202527Y123620D01*
X203090Y123928D01*
X203593Y124279D01*
X204038Y124673D01*
X206373Y122338D01*
D02*
G37*
G36*
X180973D02*
X180579Y121893D01*
X180228Y121390D01*
X179920Y120827D01*
X179654Y120204D01*
X179430Y119523D01*
X179249Y118782D01*
X179111Y117982D01*
X179014Y117122D01*
X178961Y116203D01*
X178950Y115225D01*
X171525Y122650D01*
X172503Y122661D01*
X174282Y122810D01*
X175082Y122949D01*
X175823Y123130D01*
X176504Y123354D01*
X177127Y123620D01*
X177690Y123928D01*
X178193Y124279D01*
X178638Y124673D01*
X180973Y122338D01*
D02*
G37*
G36*
X155573D02*
X155179Y121893D01*
X154828Y121390D01*
X154520Y120827D01*
X154254Y120204D01*
X154030Y119523D01*
X153849Y118782D01*
X153710Y117982D01*
X153614Y117122D01*
X153561Y116203D01*
X153550Y115225D01*
X146125Y122650D01*
X147103Y122661D01*
X148882Y122810D01*
X149682Y122949D01*
X150423Y123130D01*
X151104Y123354D01*
X151727Y123620D01*
X152290Y123928D01*
X152793Y124279D01*
X153238Y124673D01*
X155573Y122338D01*
D02*
G37*
G36*
X130173D02*
X129779Y121893D01*
X129428Y121390D01*
X129120Y120827D01*
X128854Y120204D01*
X128630Y119523D01*
X128449Y118782D01*
X128310Y117982D01*
X128214Y117122D01*
X128161Y116203D01*
X128150Y115225D01*
X120725Y122650D01*
X121703Y122661D01*
X123482Y122810D01*
X124282Y122949D01*
X125023Y123130D01*
X125704Y123354D01*
X126327Y123620D01*
X126890Y123928D01*
X127393Y124279D01*
X127838Y124673D01*
X130173Y122338D01*
D02*
G37*
G36*
X783162Y463915D02*
X783462Y463754D01*
X783799Y463613D01*
X784172Y463490D01*
X784582Y463387D01*
X785028Y463302D01*
X786030Y463189D01*
X786586Y463160D01*
X787178Y463151D01*
Y459849D01*
X786586Y459840D01*
X785511Y459764D01*
X785028Y459698D01*
X784172Y459510D01*
X783799Y459387D01*
X783462Y459246D01*
X783162Y459085D01*
X782898Y458906D01*
Y464094D01*
X783162Y463915D01*
D02*
G37*
G36*
X794679Y458833D02*
X794470Y459026D01*
X794240Y459199D01*
X793991Y459351D01*
X793721Y459483D01*
X793431Y459595D01*
X793121Y459686D01*
X792792Y459758D01*
X792441Y459808D01*
X792071Y459839D01*
X791680Y459849D01*
X791680Y463151D01*
X792071Y463161D01*
X792441Y463192D01*
X792791Y463242D01*
X793121Y463314D01*
X793431Y463405D01*
X793721Y463517D01*
X793991Y463649D01*
X794240Y463801D01*
X794470Y463974D01*
X794679Y464167D01*
X794679Y458833D01*
D02*
G37*
G36*
X788179Y448833D02*
X787970Y449026D01*
X787740Y449199D01*
X787491Y449351D01*
X787221Y449483D01*
X786932Y449595D01*
X786621Y449686D01*
X786291Y449757D01*
X786006Y449799D01*
X785511Y449764D01*
X785028Y449698D01*
X784172Y449510D01*
X783799Y449387D01*
X783462Y449246D01*
X783162Y449085D01*
X782898Y448906D01*
Y454094D01*
X783162Y453915D01*
X783462Y453754D01*
X783799Y453613D01*
X784172Y453490D01*
X784582Y453387D01*
X785028Y453302D01*
X785969Y453196D01*
X786291Y453242D01*
X786621Y453313D01*
X786931Y453405D01*
X787221Y453517D01*
X787491Y453649D01*
X787740Y453801D01*
X787970Y453974D01*
X788179Y454167D01*
X788179Y448833D01*
D02*
G37*
G36*
X783162Y443915D02*
X783462Y443754D01*
X783799Y443613D01*
X784172Y443490D01*
X784582Y443387D01*
X785028Y443302D01*
X786030Y443189D01*
X786586Y443160D01*
X787178Y443151D01*
Y439849D01*
X786586Y439840D01*
X785511Y439764D01*
X785028Y439698D01*
X784172Y439510D01*
X783799Y439387D01*
X783462Y439246D01*
X783162Y439085D01*
X782898Y438906D01*
Y444094D01*
X783162Y443915D01*
D02*
G37*
G36*
X795179Y438833D02*
X794970Y439026D01*
X794741Y439199D01*
X794491Y439351D01*
X794221Y439483D01*
X793932Y439595D01*
X793622Y439686D01*
X793291Y439757D01*
X792941Y439808D01*
X792571Y439839D01*
X792180Y439849D01*
X792180Y443151D01*
X792571Y443161D01*
X792941Y443192D01*
X793291Y443242D01*
X793622Y443313D01*
X793932Y443405D01*
X794221Y443517D01*
X794491Y443649D01*
X794741Y443801D01*
X794970Y443974D01*
X795179Y444167D01*
X795179Y438833D01*
D02*
G37*
G36*
X788429Y428833D02*
X788220Y429026D01*
X787990Y429199D01*
X787741Y429351D01*
X787471Y429483D01*
X787181Y429595D01*
X786871Y429686D01*
X786542Y429757D01*
X786191Y429808D01*
X786168Y429810D01*
X785511Y429764D01*
X785028Y429698D01*
X784172Y429510D01*
X783799Y429387D01*
X783462Y429245D01*
X783162Y429085D01*
X782898Y428906D01*
Y434094D01*
X783162Y433915D01*
X783462Y433754D01*
X783799Y433613D01*
X784172Y433490D01*
X784582Y433387D01*
X785028Y433302D01*
X786030Y433189D01*
X786108Y433185D01*
X786191Y433192D01*
X786541Y433242D01*
X786871Y433313D01*
X787181Y433405D01*
X787471Y433517D01*
X787741Y433649D01*
X787990Y433801D01*
X788220Y433974D01*
X788429Y434167D01*
X788429Y428833D01*
D02*
G37*
G36*
X717830Y413974D02*
X718059Y413801D01*
X718309Y413649D01*
X718579Y413517D01*
X718868Y413405D01*
X719178Y413313D01*
X719509Y413242D01*
X719859Y413192D01*
X720227Y413161D01*
X721289Y413236D01*
X721772Y413302D01*
X722628Y413490D01*
X723001Y413613D01*
X723338Y413754D01*
X723639Y413915D01*
X723902Y414094D01*
Y408906D01*
X723639Y409085D01*
X723338Y409245D01*
X723001Y409387D01*
X722628Y409510D01*
X722218Y409613D01*
X721772Y409698D01*
X720770Y409811D01*
X720229Y409839D01*
X719859Y409808D01*
X719509Y409757D01*
X719178Y409686D01*
X718868Y409595D01*
X718579Y409483D01*
X718309Y409351D01*
X718059Y409199D01*
X717830Y409026D01*
X717621Y408833D01*
X714900Y411500D01*
X717621Y414167D01*
X717830Y413974D01*
D02*
G37*
G36*
X714900Y411500D02*
X712179Y408833D01*
X711970Y409026D01*
X711740Y409199D01*
X711491Y409351D01*
X711221Y409483D01*
X710931Y409595D01*
X710621Y409686D01*
X710291Y409757D01*
X709941Y409808D01*
X709571Y409839D01*
X709180Y409849D01*
X709180Y413151D01*
X709571Y413161D01*
X709941Y413192D01*
X710291Y413242D01*
X710621Y413313D01*
X710931Y413405D01*
X711221Y413517D01*
X711491Y413649D01*
X711740Y413801D01*
X711970Y413974D01*
X712179Y414167D01*
X714900Y411500D01*
D02*
G37*
G36*
X723902Y398906D02*
X723639Y399085D01*
X723338Y399245D01*
X723001Y399387D01*
X722628Y399510D01*
X722218Y399613D01*
X721772Y399698D01*
X720770Y399811D01*
X720214Y399840D01*
X719622Y399849D01*
Y403151D01*
X720214Y403160D01*
X721289Y403236D01*
X721772Y403302D01*
X722628Y403490D01*
X723001Y403613D01*
X723338Y403754D01*
X723639Y403915D01*
X723902Y404094D01*
Y398906D01*
D02*
G37*
G36*
X711080Y403974D02*
X711310Y403801D01*
X711559Y403649D01*
X711829Y403517D01*
X712119Y403405D01*
X712429Y403313D01*
X712759Y403242D01*
X713109Y403192D01*
X713479Y403161D01*
X713870Y403151D01*
X713870Y399849D01*
X713479Y399839D01*
X713109Y399808D01*
X712758Y399757D01*
X712428Y399686D01*
X712119Y399595D01*
X711829Y399483D01*
X711559Y399351D01*
X711310Y399199D01*
X711080Y399026D01*
X710871Y398833D01*
X708150Y401500D01*
X710871Y404167D01*
X711080Y403974D01*
D02*
G37*
G36*
X708150Y401500D02*
X705429Y398833D01*
X705220Y399026D01*
X704990Y399199D01*
X704741Y399351D01*
X704471Y399483D01*
X704182Y399595D01*
X703872Y399686D01*
X703541Y399757D01*
X703191Y399808D01*
X702821Y399839D01*
X702430Y399849D01*
X702430Y403151D01*
X702821Y403161D01*
X703191Y403192D01*
X703541Y403242D01*
X703872Y403313D01*
X704181Y403405D01*
X704471Y403517D01*
X704741Y403649D01*
X704990Y403801D01*
X705220Y403974D01*
X705429Y404167D01*
X708150Y401500D01*
D02*
G37*
G36*
X718580Y393974D02*
X718810Y393801D01*
X719059Y393649D01*
X719329Y393517D01*
X719619Y393405D01*
X719929Y393313D01*
X720259Y393242D01*
X720609Y393192D01*
X720632Y393190D01*
X721289Y393236D01*
X721772Y393302D01*
X722628Y393490D01*
X723001Y393613D01*
X723338Y393754D01*
X723639Y393915D01*
X723902Y394094D01*
Y388906D01*
X723639Y389085D01*
X723338Y389245D01*
X723001Y389387D01*
X722628Y389510D01*
X722218Y389613D01*
X721772Y389698D01*
X720770Y389811D01*
X720692Y389815D01*
X720609Y389808D01*
X720259Y389757D01*
X719929Y389686D01*
X719619Y389595D01*
X719329Y389483D01*
X719059Y389351D01*
X718810Y389199D01*
X718580Y389026D01*
X718371Y388833D01*
X715650Y391500D01*
X718371Y394167D01*
X718580Y393974D01*
D02*
G37*
G36*
X715650Y391500D02*
X712929Y388833D01*
X712720Y389026D01*
X712490Y389199D01*
X712241Y389351D01*
X711971Y389483D01*
X711682Y389595D01*
X711372Y389686D01*
X711041Y389757D01*
X710691Y389808D01*
X710321Y389839D01*
X709930Y389849D01*
X709930Y393151D01*
X710321Y393161D01*
X710691Y393192D01*
X711041Y393242D01*
X711372Y393313D01*
X711682Y393405D01*
X711971Y393517D01*
X712241Y393649D01*
X712490Y393801D01*
X712720Y393974D01*
X712929Y394167D01*
X715650Y391500D01*
D02*
G37*
G36*
X723902Y378906D02*
X723639Y379085D01*
X723338Y379245D01*
X723001Y379387D01*
X722628Y379510D01*
X722218Y379613D01*
X721772Y379698D01*
X720770Y379811D01*
X720214Y379840D01*
X719622Y379849D01*
Y383151D01*
X720214Y383160D01*
X721289Y383236D01*
X721772Y383302D01*
X722628Y383490D01*
X723001Y383613D01*
X723338Y383754D01*
X723639Y383915D01*
X723902Y384094D01*
Y378906D01*
D02*
G37*
G36*
X710330Y383974D02*
X710560Y383801D01*
X710809Y383649D01*
X711079Y383517D01*
X711369Y383405D01*
X711678Y383313D01*
X712009Y383242D01*
X712359Y383192D01*
X712729Y383161D01*
X713120Y383151D01*
X713120Y379849D01*
X712729Y379839D01*
X712359Y379808D01*
X712009Y379757D01*
X711678Y379686D01*
X711368Y379595D01*
X711079Y379483D01*
X710809Y379351D01*
X710559Y379199D01*
X710330Y379026D01*
X710121Y378833D01*
X707400Y381500D01*
X710121Y384167D01*
X710330Y383974D01*
D02*
G37*
G36*
X707400Y381500D02*
X704679Y378833D01*
X704470Y379026D01*
X704240Y379199D01*
X703991Y379351D01*
X703721Y379483D01*
X703431Y379595D01*
X703122Y379686D01*
X702792Y379757D01*
X702441Y379808D01*
X702071Y379839D01*
X701680Y379849D01*
X701680Y383151D01*
X702071Y383161D01*
X702441Y383192D01*
X702791Y383242D01*
X703121Y383313D01*
X703431Y383405D01*
X703721Y383517D01*
X703991Y383649D01*
X704240Y383801D01*
X704470Y383974D01*
X704679Y384167D01*
X707400Y381500D01*
D02*
G37*
G36*
X307973Y122338D02*
X307579Y121893D01*
X307228Y121390D01*
X306920Y120827D01*
X306654Y120204D01*
X306430Y119523D01*
X306249Y118782D01*
X306110Y117982D01*
X306014Y117122D01*
X305961Y116203D01*
X305950Y115225D01*
X298525Y122650D01*
X299503Y122661D01*
X301282Y122810D01*
X302082Y122949D01*
X302823Y123130D01*
X303505Y123354D01*
X304127Y123620D01*
X304690Y123928D01*
X305193Y124279D01*
X305638Y124673D01*
X307973Y122338D01*
D02*
G37*
G36*
X282573D02*
X282179Y121893D01*
X281828Y121390D01*
X281520Y120827D01*
X281254Y120204D01*
X281030Y119523D01*
X280849Y118782D01*
X280711Y117982D01*
X280614Y117122D01*
X280561Y116203D01*
X280550Y115225D01*
X273125Y122650D01*
X274103Y122661D01*
X275882Y122810D01*
X276682Y122949D01*
X277423Y123130D01*
X278104Y123354D01*
X278727Y123620D01*
X279290Y123928D01*
X279793Y124279D01*
X280238Y124673D01*
X282573Y122338D01*
D02*
G37*
G36*
X257173D02*
X256779Y121893D01*
X256428Y121390D01*
X256120Y120827D01*
X255854Y120204D01*
X255630Y119523D01*
X255449Y118782D01*
X255310Y117982D01*
X255214Y117122D01*
X255161Y116203D01*
X255150Y115225D01*
X247725Y122650D01*
X248703Y122661D01*
X250482Y122810D01*
X251282Y122949D01*
X252023Y123130D01*
X252705Y123354D01*
X253327Y123620D01*
X253890Y123928D01*
X254393Y124279D01*
X254838Y124673D01*
X257173Y122338D01*
D02*
G37*
G36*
X231773D02*
X231379Y121893D01*
X231028Y121390D01*
X230720Y120827D01*
X230454Y120204D01*
X230230Y119523D01*
X230049Y118782D01*
X229911Y117982D01*
X229814Y117122D01*
X229761Y116203D01*
X229750Y115225D01*
X222325Y122650D01*
X223303Y122661D01*
X225082Y122810D01*
X225882Y122949D01*
X226623Y123130D01*
X227304Y123354D01*
X227927Y123620D01*
X228490Y123928D01*
X228993Y124279D01*
X229438Y124673D01*
X231773Y122338D01*
D02*
G37*
G36*
X791650Y361500D02*
X788929Y358833D01*
X788720Y359026D01*
X788491Y359199D01*
X788241Y359351D01*
X787971Y359483D01*
X787682Y359595D01*
X787372Y359686D01*
X787041Y359757D01*
X786691Y359808D01*
X786438Y359829D01*
X785511Y359764D01*
X785028Y359698D01*
X784172Y359510D01*
X783799Y359387D01*
X783462Y359245D01*
X783162Y359085D01*
X782898Y358906D01*
Y364094D01*
X783162Y363915D01*
X783462Y363754D01*
X783799Y363613D01*
X784172Y363490D01*
X784582Y363387D01*
X785028Y363302D01*
X786030Y363189D01*
X786417Y363169D01*
X786691Y363192D01*
X787041Y363242D01*
X787372Y363313D01*
X787681Y363405D01*
X787971Y363517D01*
X788241Y363649D01*
X788490Y363801D01*
X788720Y363974D01*
X788929Y364167D01*
X791650Y361500D01*
D02*
G37*
G36*
X718580Y363974D02*
X718810Y363801D01*
X719059Y363649D01*
X719329Y363517D01*
X719619Y363405D01*
X719929Y363313D01*
X720259Y363242D01*
X720609Y363192D01*
X720632Y363190D01*
X721289Y363236D01*
X721772Y363302D01*
X722628Y363490D01*
X723001Y363613D01*
X723338Y363754D01*
X723639Y363915D01*
X723902Y364094D01*
Y358906D01*
X723639Y359085D01*
X723338Y359245D01*
X723001Y359387D01*
X722628Y359510D01*
X722218Y359613D01*
X721772Y359698D01*
X720770Y359811D01*
X720692Y359815D01*
X720609Y359808D01*
X720258Y359757D01*
X719929Y359686D01*
X719619Y359595D01*
X719329Y359483D01*
X719059Y359351D01*
X718810Y359199D01*
X718580Y359026D01*
X718371Y358833D01*
X715650Y361500D01*
X718371Y364167D01*
X718580Y363974D01*
D02*
G37*
G36*
X794580D02*
X794810Y363801D01*
X795059Y363649D01*
X795329Y363517D01*
X795619Y363405D01*
X795928Y363313D01*
X796259Y363242D01*
X796609Y363192D01*
X796979Y363161D01*
X797370Y363151D01*
X797370Y359849D01*
X796979Y359839D01*
X796609Y359808D01*
X796258Y359757D01*
X795928Y359686D01*
X795619Y359595D01*
X795329Y359483D01*
X795059Y359351D01*
X794809Y359199D01*
X794580Y359026D01*
X794371Y358833D01*
X791650Y361500D01*
X794371Y364167D01*
X794580Y363974D01*
D02*
G37*
G36*
X715650Y361500D02*
X712929Y358833D01*
X712720Y359026D01*
X712490Y359199D01*
X712241Y359351D01*
X711971Y359483D01*
X711682Y359595D01*
X711372Y359686D01*
X711041Y359757D01*
X710691Y359808D01*
X710321Y359839D01*
X709930Y359849D01*
X709930Y363151D01*
X710321Y363161D01*
X710691Y363192D01*
X711041Y363242D01*
X711372Y363313D01*
X711681Y363405D01*
X711971Y363517D01*
X712241Y363649D01*
X712490Y363801D01*
X712720Y363974D01*
X712929Y364167D01*
X715650Y361500D01*
D02*
G37*
G36*
X791762Y351500D02*
X788929Y348833D01*
X788720Y349026D01*
X788491Y349199D01*
X788241Y349351D01*
X787971Y349483D01*
X787682Y349595D01*
X787372Y349686D01*
X787041Y349757D01*
X786691Y349808D01*
X786438Y349829D01*
X785511Y349764D01*
X785028Y349698D01*
X784172Y349510D01*
X783799Y349387D01*
X783462Y349245D01*
X783162Y349085D01*
X782898Y348906D01*
Y354094D01*
X783162Y353915D01*
X783462Y353754D01*
X783799Y353613D01*
X784172Y353490D01*
X784582Y353387D01*
X785028Y353302D01*
X786030Y353189D01*
X786417Y353169D01*
X786691Y353192D01*
X787041Y353242D01*
X787372Y353313D01*
X787681Y353405D01*
X787971Y353517D01*
X788241Y353649D01*
X788490Y353801D01*
X788720Y353974D01*
X788929Y354167D01*
X791762Y351500D01*
D02*
G37*
G36*
X794652Y353883D02*
X794854Y353730D01*
X795080Y353594D01*
X795332Y353476D01*
X795608Y353377D01*
X795910Y353296D01*
X796237Y353232D01*
X796590Y353187D01*
X796967Y353160D01*
X797370Y353151D01*
X797370Y349849D01*
X796967Y349840D01*
X796237Y349768D01*
X795910Y349704D01*
X795608Y349623D01*
X795331Y349524D01*
X795080Y349406D01*
X794854Y349270D01*
X794652Y349117D01*
X794476Y348945D01*
X791762Y351500D01*
X794476Y354055D01*
X794652Y353883D01*
D02*
G37*
G36*
X723902Y348906D02*
X723639Y349085D01*
X723338Y349245D01*
X723001Y349387D01*
X722628Y349510D01*
X722218Y349613D01*
X721772Y349698D01*
X720770Y349811D01*
X720214Y349840D01*
X719622Y349849D01*
Y353151D01*
X720214Y353160D01*
X721289Y353236D01*
X721772Y353302D01*
X722628Y353490D01*
X723001Y353613D01*
X723338Y353754D01*
X723639Y353915D01*
X723902Y354094D01*
Y348906D01*
D02*
G37*
G36*
X711330Y353974D02*
X711560Y353801D01*
X711809Y353649D01*
X712079Y353517D01*
X712369Y353405D01*
X712679Y353313D01*
X713009Y353242D01*
X713359Y353192D01*
X713729Y353161D01*
X714120Y353151D01*
X714120Y349849D01*
X713729Y349839D01*
X713359Y349808D01*
X713008Y349757D01*
X712679Y349686D01*
X712368Y349595D01*
X712079Y349483D01*
X711809Y349351D01*
X711560Y349199D01*
X711330Y349026D01*
X711121Y348833D01*
X708400Y351500D01*
X711121Y354167D01*
X711330Y353974D01*
D02*
G37*
G36*
X708400Y351500D02*
X705679Y348833D01*
X705470Y349026D01*
X705240Y349199D01*
X704991Y349351D01*
X704721Y349483D01*
X704432Y349595D01*
X704122Y349686D01*
X703792Y349757D01*
X703441Y349808D01*
X703071Y349839D01*
X702680Y349849D01*
X702680Y353151D01*
X703071Y353161D01*
X703441Y353192D01*
X703791Y353242D01*
X704121Y353313D01*
X704431Y353405D01*
X704721Y353517D01*
X704991Y353649D01*
X705240Y353801D01*
X705470Y353974D01*
X705679Y354167D01*
X708400Y351500D01*
D02*
G37*
G36*
X723902Y338906D02*
X723639Y339085D01*
X723338Y339245D01*
X723001Y339387D01*
X722628Y339510D01*
X722218Y339613D01*
X721772Y339698D01*
X720770Y339811D01*
X720461Y339827D01*
X720218Y339806D01*
X719870Y339752D01*
X719544Y339676D01*
X719239Y339579D01*
X718956Y339459D01*
X718695Y339319D01*
X718455Y339157D01*
X718237Y338973D01*
X718040Y338767D01*
X715150Y341600D01*
X717690Y344090D01*
X717909Y343911D01*
X718148Y343752D01*
X718405Y343611D01*
X718681Y343489D01*
X718977Y343386D01*
X719291Y343301D01*
X719624Y343235D01*
X719977Y343189D01*
X720283Y343165D01*
X721289Y343236D01*
X721772Y343302D01*
X722628Y343490D01*
X723001Y343613D01*
X723338Y343754D01*
X723639Y343915D01*
X723902Y344094D01*
Y338906D01*
D02*
G37*
G36*
X783162Y343915D02*
X783462Y343754D01*
X783799Y343613D01*
X784172Y343490D01*
X784582Y343387D01*
X785028Y343302D01*
X786030Y343189D01*
X786586Y343160D01*
X787178Y343151D01*
Y339849D01*
X786586Y339840D01*
X785511Y339764D01*
X785028Y339698D01*
X784172Y339510D01*
X783799Y339387D01*
X783462Y339245D01*
X783162Y339085D01*
X782898Y338906D01*
Y344094D01*
X783162Y343915D01*
D02*
G37*
G36*
X715150Y341600D02*
X712260Y338767D01*
X712063Y338973D01*
X711845Y339157D01*
X711605Y339319D01*
X711344Y339459D01*
X711061Y339579D01*
X710756Y339676D01*
X710430Y339752D01*
X710082Y339806D01*
X709712Y339838D01*
X709321Y339849D01*
X709562Y343151D01*
X709952Y343160D01*
X710323Y343189D01*
X710676Y343235D01*
X711009Y343301D01*
X711323Y343386D01*
X711618Y343489D01*
X711895Y343611D01*
X712152Y343752D01*
X712391Y343911D01*
X712610Y344090D01*
X715150Y341600D01*
D02*
G37*
G36*
X796221Y337677D02*
X796261Y337393D01*
X796330Y337109D01*
X796427Y336825D01*
X796553Y336541D01*
X796708Y336257D01*
X796891Y335973D01*
X797103Y335690D01*
X797343Y335406D01*
X797612Y335123D01*
X795277Y332788D01*
X794994Y333057D01*
X794710Y333297D01*
X794427Y333509D01*
X794143Y333692D01*
X793859Y333847D01*
X793575Y333973D01*
X793291Y334070D01*
X793007Y334139D01*
X792723Y334179D01*
X792438Y334190D01*
X796210Y337962D01*
X796221Y337677D01*
D02*
G37*
G36*
X711410Y333911D02*
X711648Y333752D01*
X711905Y333611D01*
X712181Y333489D01*
X712477Y333386D01*
X712791Y333301D01*
X713124Y333235D01*
X713477Y333189D01*
X713848Y333160D01*
X714238Y333151D01*
X714479Y329849D01*
X714088Y329838D01*
X713718Y329806D01*
X713370Y329752D01*
X713044Y329676D01*
X712739Y329579D01*
X712456Y329459D01*
X712195Y329319D01*
X711955Y329157D01*
X711737Y328973D01*
X711540Y328767D01*
X708650Y331600D01*
X705760Y328767D01*
X705563Y328973D01*
X705345Y329157D01*
X705105Y329319D01*
X704844Y329459D01*
X704561Y329579D01*
X704256Y329676D01*
X703930Y329752D01*
X703582Y329806D01*
X703212Y329838D01*
X702821Y329849D01*
X703062Y333151D01*
X703452Y333160D01*
X703823Y333189D01*
X704176Y333235D01*
X704509Y333301D01*
X704823Y333386D01*
X705118Y333489D01*
X705395Y333611D01*
X705652Y333752D01*
X705891Y333911D01*
X706110Y334090D01*
X708650Y331600D01*
X711190Y334090D01*
X711410Y333911D01*
D02*
G37*
G36*
X723902Y328906D02*
X723639Y329085D01*
X723338Y329245D01*
X723001Y329387D01*
X722628Y329510D01*
X722218Y329613D01*
X721772Y329698D01*
X720770Y329811D01*
X720214Y329840D01*
X719622Y329849D01*
Y333151D01*
X720214Y333160D01*
X721289Y333236D01*
X721772Y333302D01*
X722628Y333490D01*
X723001Y333613D01*
X723338Y333754D01*
X723639Y333915D01*
X723902Y334094D01*
Y328906D01*
D02*
G37*
G36*
X787056Y331693D02*
X787340Y331453D01*
X787623Y331241D01*
X787907Y331058D01*
X788191Y330903D01*
X788475Y330777D01*
X788759Y330680D01*
X789043Y330611D01*
X789327Y330571D01*
X789612Y330560D01*
X789650Y326750D01*
X793460Y326712D01*
X793471Y326427D01*
X793511Y326143D01*
X793580Y325859D01*
X793677Y325575D01*
X793803Y325291D01*
X793958Y325007D01*
X794141Y324723D01*
X794353Y324440D01*
X794593Y324156D01*
X794862Y323873D01*
X792527Y321538D01*
X792244Y321807D01*
X791960Y322047D01*
X791677Y322259D01*
X791393Y322442D01*
X791109Y322597D01*
X790825Y322723D01*
X790541Y322820D01*
X790257Y322889D01*
X789973Y322929D01*
X789688Y322940D01*
X789650Y326750D01*
X785840Y326788D01*
X785829Y327073D01*
X785789Y327357D01*
X785720Y327641D01*
X785623Y327925D01*
X785497Y328209D01*
X785342Y328493D01*
X785159Y328777D01*
X784947Y329060D01*
X784707Y329344D01*
X784438Y329627D01*
X786773Y331962D01*
X787056Y331693D01*
D02*
G37*
G36*
X682629Y325175D02*
X683109Y325033D01*
X684176Y324800D01*
X684764Y324708D01*
X686743Y324533D01*
X687475Y324508D01*
X688243Y324500D01*
X691449Y318500D01*
X690682Y318473D01*
X689976Y318393D01*
X689331Y318260D01*
X688747Y318074D01*
X688223Y317834D01*
X687760Y317540D01*
X687358Y317194D01*
X687017Y316794D01*
X686736Y316341D01*
X686516Y315835D01*
X682185Y325334D01*
X682629Y325175D01*
D02*
G37*
G36*
X723902Y308906D02*
X723639Y309085D01*
X723338Y309245D01*
X723001Y309387D01*
X722628Y309510D01*
X722218Y309613D01*
X721772Y309698D01*
X720770Y309811D01*
X720214Y309839D01*
X719622Y309849D01*
Y313151D01*
X720214Y313160D01*
X721289Y313236D01*
X721772Y313302D01*
X722628Y313490D01*
X723001Y313613D01*
X723338Y313754D01*
X723639Y313915D01*
X723902Y314094D01*
Y308906D01*
D02*
G37*
G36*
X715662Y313974D02*
X715891Y313801D01*
X716141Y313649D01*
X716411Y313517D01*
X716700Y313405D01*
X717010Y313314D01*
X717340Y313242D01*
X717691Y313192D01*
X718061Y313161D01*
X718452Y313151D01*
Y309849D01*
X718061Y309839D01*
X717691Y309808D01*
X717340Y309757D01*
X717010Y309686D01*
X716700Y309595D01*
X716411Y309483D01*
X716141Y309351D01*
X715891Y309199D01*
X715662Y309026D01*
X715453Y308833D01*
Y314167D01*
X715662Y313974D01*
D02*
G37*
G36*
X710011Y308833D02*
X709802Y309026D01*
X709572Y309199D01*
X709323Y309351D01*
X709053Y309483D01*
X708763Y309595D01*
X708453Y309686D01*
X708123Y309757D01*
X707773Y309808D01*
X707403Y309839D01*
X707012Y309849D01*
Y313151D01*
X707403Y313161D01*
X707773Y313192D01*
X708123Y313242D01*
X708453Y313314D01*
X708763Y313405D01*
X709053Y313517D01*
X709323Y313649D01*
X709572Y313801D01*
X709802Y313974D01*
X710011Y314167D01*
Y308833D01*
D02*
G37*
G36*
X787056Y311193D02*
X787340Y310953D01*
X787623Y310741D01*
X787907Y310558D01*
X788191Y310403D01*
X788475Y310277D01*
X788759Y310180D01*
X789043Y310111D01*
X789327Y310071D01*
X789612Y310060D01*
X785840Y306288D01*
X785829Y306573D01*
X785789Y306857D01*
X785720Y307141D01*
X785623Y307425D01*
X785497Y307709D01*
X785342Y307993D01*
X785159Y308277D01*
X784947Y308560D01*
X784707Y308844D01*
X784438Y309127D01*
X786773Y311462D01*
X787056Y311193D01*
D02*
G37*
G36*
X793471Y305928D02*
X793511Y305643D01*
X793580Y305359D01*
X793677Y305075D01*
X793803Y304791D01*
X793958Y304507D01*
X794141Y304223D01*
X794353Y303940D01*
X794593Y303656D01*
X794862Y303373D01*
X792527Y301038D01*
X792244Y301307D01*
X791960Y301547D01*
X791677Y301759D01*
X791393Y301942D01*
X791109Y302097D01*
X790825Y302223D01*
X790541Y302320D01*
X790257Y302389D01*
X789973Y302429D01*
X789688Y302440D01*
X793460Y306212D01*
X793471Y305928D01*
D02*
G37*
G36*
X715014Y298871D02*
X714502Y298328D01*
X714045Y297775D01*
X713642Y297213D01*
X713294Y296642D01*
X713000Y296062D01*
X712761Y295473D01*
X712576Y294874D01*
X712446Y294267D01*
X712371Y293651D01*
X712350Y293025D01*
X704925Y300450D01*
X705551Y300471D01*
X706167Y300546D01*
X706774Y300676D01*
X707373Y300861D01*
X707962Y301100D01*
X708542Y301394D01*
X709113Y301742D01*
X709675Y302145D01*
X710228Y302602D01*
X710771Y303114D01*
X715014Y298871D01*
D02*
G37*
G36*
X561973Y122338D02*
X561579Y121893D01*
X561228Y121390D01*
X560920Y120827D01*
X560654Y120204D01*
X560430Y119523D01*
X560249Y118782D01*
X560111Y117982D01*
X560014Y117122D01*
X559961Y116203D01*
X559950Y115225D01*
X552525Y122650D01*
X553503Y122661D01*
X555282Y122810D01*
X556082Y122949D01*
X556823Y123130D01*
X557505Y123354D01*
X558127Y123620D01*
X558690Y123928D01*
X559193Y124279D01*
X559638Y124673D01*
X561973Y122338D01*
D02*
G37*
G36*
X511173D02*
X510779Y121893D01*
X510428Y121390D01*
X510120Y120827D01*
X509854Y120204D01*
X509630Y119523D01*
X509449Y118782D01*
X509310Y117982D01*
X509214Y117122D01*
X509161Y116203D01*
X509150Y115225D01*
X501725Y122650D01*
X502703Y122661D01*
X504482Y122810D01*
X505282Y122949D01*
X506023Y123130D01*
X506704Y123354D01*
X507327Y123620D01*
X507890Y123928D01*
X508393Y124279D01*
X508838Y124673D01*
X511173Y122338D01*
D02*
G37*
G36*
X485773D02*
X485379Y121893D01*
X485028Y121390D01*
X484720Y120827D01*
X484454Y120204D01*
X484230Y119523D01*
X484049Y118782D01*
X483910Y117982D01*
X483814Y117122D01*
X483761Y116203D01*
X483750Y115225D01*
X476325Y122650D01*
X477303Y122661D01*
X479082Y122810D01*
X479882Y122949D01*
X480623Y123130D01*
X481305Y123354D01*
X481927Y123620D01*
X482490Y123928D01*
X482993Y124279D01*
X483438Y124673D01*
X485773Y122338D01*
D02*
G37*
G36*
X460373D02*
X459979Y121893D01*
X459628Y121390D01*
X459320Y120827D01*
X459054Y120204D01*
X458830Y119523D01*
X458649Y118782D01*
X458511Y117982D01*
X458414Y117122D01*
X458361Y116203D01*
X458350Y115225D01*
X450925Y122650D01*
X451903Y122661D01*
X453682Y122810D01*
X454482Y122949D01*
X455223Y123130D01*
X455905Y123354D01*
X456527Y123620D01*
X457090Y123928D01*
X457593Y124279D01*
X458038Y124673D01*
X460373Y122338D01*
D02*
G37*
G36*
X434973D02*
X434579Y121893D01*
X434228Y121390D01*
X433920Y120827D01*
X433654Y120204D01*
X433430Y119523D01*
X433249Y118782D01*
X433111Y117982D01*
X433014Y117122D01*
X432961Y116203D01*
X432950Y115225D01*
X425525Y122650D01*
X426503Y122661D01*
X428282Y122810D01*
X429082Y122949D01*
X429823Y123130D01*
X430504Y123354D01*
X431127Y123620D01*
X431690Y123928D01*
X432193Y124279D01*
X432638Y124673D01*
X434973Y122338D01*
D02*
G37*
G36*
X409573D02*
X409179Y121893D01*
X408828Y121390D01*
X408520Y120827D01*
X408254Y120204D01*
X408030Y119523D01*
X407849Y118782D01*
X407710Y117982D01*
X407614Y117122D01*
X407561Y116203D01*
X407550Y115225D01*
X400125Y122650D01*
X401103Y122661D01*
X402882Y122810D01*
X403682Y122949D01*
X404423Y123130D01*
X405104Y123354D01*
X405727Y123620D01*
X406290Y123928D01*
X406793Y124279D01*
X407238Y124673D01*
X409573Y122338D01*
D02*
G37*
G36*
X384173D02*
X383779Y121893D01*
X383428Y121390D01*
X383120Y120827D01*
X382854Y120204D01*
X382630Y119523D01*
X382449Y118782D01*
X382310Y117982D01*
X382214Y117122D01*
X382161Y116203D01*
X382150Y115225D01*
X374725Y122650D01*
X375703Y122661D01*
X377482Y122810D01*
X378282Y122949D01*
X379023Y123130D01*
X379705Y123354D01*
X380327Y123620D01*
X380890Y123928D01*
X381393Y124279D01*
X381838Y124673D01*
X384173Y122338D01*
D02*
G37*
G36*
X358773D02*
X358379Y121893D01*
X358028Y121390D01*
X357720Y120827D01*
X357454Y120204D01*
X357230Y119523D01*
X357049Y118782D01*
X356911Y117982D01*
X356814Y117122D01*
X356761Y116203D01*
X356750Y115225D01*
X349325Y122650D01*
X350303Y122661D01*
X352082Y122810D01*
X352882Y122949D01*
X353623Y123130D01*
X354305Y123354D01*
X354927Y123620D01*
X355490Y123928D01*
X355993Y124279D01*
X356438Y124673D01*
X358773Y122338D01*
D02*
G37*
G36*
X333373D02*
X332979Y121893D01*
X332628Y121390D01*
X332320Y120827D01*
X332054Y120204D01*
X331830Y119523D01*
X331649Y118782D01*
X331511Y117982D01*
X331414Y117122D01*
X331361Y116203D01*
X331350Y115225D01*
X323925Y122650D01*
X324903Y122661D01*
X326682Y122810D01*
X327482Y122949D01*
X328223Y123130D01*
X328904Y123354D01*
X329527Y123620D01*
X330090Y123928D01*
X330593Y124279D01*
X331038Y124673D01*
X333373Y122338D01*
D02*
G37*
G36*
X783162Y413915D02*
X783462Y413754D01*
X783799Y413613D01*
X784172Y413490D01*
X784582Y413387D01*
X785028Y413302D01*
X786030Y413189D01*
X786586Y413160D01*
X787178Y413151D01*
Y409849D01*
X786586Y409840D01*
X785511Y409764D01*
X785028Y409698D01*
X784172Y409510D01*
X783799Y409387D01*
X783462Y409245D01*
X783162Y409085D01*
X782898Y408906D01*
Y414094D01*
X783162Y413915D01*
D02*
G37*
G36*
X794179Y408833D02*
X793970Y409026D01*
X793740Y409199D01*
X793491Y409351D01*
X793221Y409483D01*
X792932Y409595D01*
X792622Y409686D01*
X792291Y409757D01*
X791941Y409808D01*
X791571Y409839D01*
X791180Y409849D01*
X791180Y413151D01*
X791571Y413161D01*
X791941Y413192D01*
X792291Y413242D01*
X792622Y413313D01*
X792932Y413405D01*
X793221Y413517D01*
X793491Y413649D01*
X793740Y413801D01*
X793970Y413974D01*
X794179Y414167D01*
X794179Y408833D01*
D02*
G37*
G36*
X790400Y401500D02*
X787679Y398833D01*
X787470Y399026D01*
X787241Y399199D01*
X786991Y399351D01*
X786721Y399483D01*
X786432Y399595D01*
X786122Y399686D01*
X785791Y399757D01*
X785669Y399775D01*
X785511Y399764D01*
X785028Y399698D01*
X784172Y399510D01*
X783799Y399387D01*
X783462Y399245D01*
X783162Y399085D01*
X782898Y398906D01*
Y404094D01*
X783162Y403915D01*
X783462Y403754D01*
X783799Y403613D01*
X784172Y403490D01*
X784582Y403387D01*
X785028Y403302D01*
X785688Y403227D01*
X785791Y403242D01*
X786122Y403313D01*
X786431Y403405D01*
X786721Y403517D01*
X786991Y403649D01*
X787240Y403801D01*
X787470Y403974D01*
X787679Y404167D01*
X790400Y401500D01*
D02*
G37*
G36*
X793330Y403974D02*
X793560Y403801D01*
X793809Y403649D01*
X794079Y403517D01*
X794369Y403405D01*
X794678Y403313D01*
X795009Y403242D01*
X795359Y403192D01*
X795729Y403161D01*
X796120Y403151D01*
X796120Y399849D01*
X795729Y399839D01*
X795359Y399808D01*
X795008Y399757D01*
X794678Y399686D01*
X794369Y399595D01*
X794079Y399483D01*
X793809Y399351D01*
X793559Y399199D01*
X793330Y399026D01*
X793121Y398833D01*
X790400Y401500D01*
X793121Y404167D01*
X793330Y403974D01*
D02*
G37*
G36*
X783162Y393915D02*
X783462Y393754D01*
X783799Y393613D01*
X784172Y393490D01*
X784582Y393387D01*
X785028Y393302D01*
X786030Y393189D01*
X786586Y393160D01*
X787178Y393151D01*
Y389849D01*
X786586Y389840D01*
X785511Y389764D01*
X785028Y389698D01*
X784172Y389510D01*
X783799Y389387D01*
X783462Y389245D01*
X783162Y389085D01*
X782898Y388906D01*
Y394094D01*
X783162Y393915D01*
D02*
G37*
G36*
X796659Y393911D02*
X796898Y393752D01*
X797155Y393611D01*
X797431Y393489D01*
X797727Y393386D01*
X798041Y393301D01*
X798374Y393235D01*
X798727Y393189D01*
X799098Y393160D01*
X799488Y393151D01*
X799729Y389849D01*
X799338Y389838D01*
X798968Y389806D01*
X798620Y389752D01*
X798294Y389676D01*
X797989Y389579D01*
X797706Y389459D01*
X797445Y389319D01*
X797205Y389157D01*
X796987Y388973D01*
X796790Y388767D01*
X793900Y391600D01*
X796440Y394090D01*
X796659Y393911D01*
D02*
G37*
G36*
X793900Y391600D02*
X791010Y388767D01*
X790813Y388973D01*
X790595Y389157D01*
X790355Y389319D01*
X790094Y389459D01*
X789811Y389579D01*
X789506Y389676D01*
X789180Y389752D01*
X788832Y389806D01*
X788462Y389838D01*
X788071Y389849D01*
X788312Y393151D01*
X788702Y393160D01*
X789073Y393189D01*
X789426Y393235D01*
X789759Y393301D01*
X790073Y393386D01*
X790368Y393489D01*
X790645Y393611D01*
X790902Y393752D01*
X791141Y393911D01*
X791360Y394090D01*
X793900Y391600D01*
D02*
G37*
G36*
X791400Y381500D02*
X788679Y378833D01*
X788470Y379026D01*
X788241Y379199D01*
X787991Y379351D01*
X787721Y379483D01*
X787431Y379595D01*
X787122Y379686D01*
X786791Y379757D01*
X786441Y379808D01*
X786303Y379820D01*
X785511Y379764D01*
X785028Y379698D01*
X784172Y379510D01*
X783799Y379387D01*
X783462Y379245D01*
X783162Y379085D01*
X782898Y378906D01*
Y384094D01*
X783162Y383915D01*
X783462Y383754D01*
X783799Y383613D01*
X784172Y383490D01*
X784582Y383387D01*
X785028Y383302D01*
X786030Y383189D01*
X786262Y383177D01*
X786441Y383192D01*
X786791Y383242D01*
X787122Y383313D01*
X787431Y383405D01*
X787721Y383517D01*
X787991Y383649D01*
X788240Y383801D01*
X788470Y383974D01*
X788679Y384167D01*
X791400Y381500D01*
D02*
G37*
G36*
X794330Y383974D02*
X794559Y383801D01*
X794809Y383649D01*
X795079Y383517D01*
X795368Y383405D01*
X795678Y383313D01*
X796009Y383242D01*
X796359Y383192D01*
X796729Y383161D01*
X797120Y383151D01*
X797120Y379849D01*
X796729Y379839D01*
X796359Y379808D01*
X796009Y379757D01*
X795678Y379686D01*
X795368Y379595D01*
X795079Y379483D01*
X794809Y379351D01*
X794559Y379199D01*
X794330Y379026D01*
X794121Y378833D01*
X791400Y381500D01*
X794121Y384167D01*
X794330Y383974D01*
D02*
G37*
D21*
X753400Y224500D02*
D03*
Y618500D02*
D03*
D22*
X772400Y301500D02*
D03*
Y311500D02*
D03*
Y321500D02*
D03*
Y331500D02*
D03*
Y341500D02*
D03*
Y351500D02*
D03*
Y361500D02*
D03*
Y371500D02*
D03*
Y381500D02*
D03*
Y391500D02*
D03*
Y401500D02*
D03*
Y411500D02*
D03*
Y421500D02*
D03*
Y431500D02*
D03*
Y441500D02*
D03*
Y451500D02*
D03*
Y461500D02*
D03*
Y471500D02*
D03*
Y481500D02*
D03*
Y491500D02*
D03*
Y501500D02*
D03*
Y511500D02*
D03*
Y521500D02*
D03*
Y531500D02*
D03*
Y541500D02*
D03*
X734400Y301500D02*
D03*
Y311500D02*
D03*
Y321500D02*
D03*
Y331500D02*
D03*
Y341500D02*
D03*
Y351500D02*
D03*
Y361500D02*
D03*
Y371500D02*
D03*
Y381500D02*
D03*
Y391500D02*
D03*
Y401500D02*
D03*
Y411500D02*
D03*
Y421500D02*
D03*
Y431500D02*
D03*
Y441500D02*
D03*
Y451500D02*
D03*
Y461500D02*
D03*
Y471500D02*
D03*
Y481500D02*
D03*
Y491500D02*
D03*
Y501500D02*
D03*
Y511500D02*
D03*
Y521500D02*
D03*
Y531500D02*
D03*
D23*
Y541500D02*
D03*
D24*
Y501500D02*
X772400D01*
X709900D02*
X734400D01*
X772400Y371500D02*
X792650D01*
X714900D02*
X734400D01*
X679450Y318350D02*
X682600Y321500D01*
X734400D01*
X713400Y301500D02*
X734400D01*
X704850Y292950D02*
X713400Y301500D01*
X704850Y546950D02*
X710300Y541500D01*
X734400D01*
X772400D01*
X734400Y321500D02*
X772400D01*
X713900Y531500D02*
X734400D01*
X772400D01*
X793150D01*
X772400Y501500D02*
X794400D01*
X713650Y471500D02*
X734400D01*
X772400D01*
X791650D01*
X714400Y421500D02*
X734400D01*
X772400D01*
X790400D01*
X734400Y371500D02*
X772400D01*
X734400Y301500D02*
X772400D01*
D25*
Y401500D02*
X811900D01*
X849650Y132750D02*
X864650Y147750D01*
X646250Y132750D02*
X849650D01*
X628650Y115150D02*
X646250Y132750D01*
X772400Y391500D02*
X811900D01*
X835650Y144250D02*
X854650Y163250D01*
X632350Y144250D02*
X835650D01*
X603250Y115150D02*
X632350Y144250D01*
X772400Y381500D02*
X805900D01*
X823400Y157250D02*
X844650Y178500D01*
X619950Y157250D02*
X823400D01*
X577850Y115150D02*
X619950Y157250D01*
X772400Y351500D02*
X797650D01*
X796150Y181000D02*
X824650Y209500D01*
X592900Y181000D02*
X796150D01*
X527050Y115150D02*
X592900Y181000D01*
X864650Y147750D02*
Y348750D01*
X844650Y178500D02*
Y342750D01*
X854650Y163250D02*
Y348750D01*
X772400Y361500D02*
X806150D01*
X834650Y194250D02*
Y333000D01*
X809900Y169500D02*
X834650Y194250D01*
X606800Y169500D02*
X809900D01*
X824650Y209500D02*
Y324500D01*
X788900Y341500D02*
X814650Y315750D01*
Y225000D02*
Y315750D01*
X783400Y193750D02*
X814650Y225000D01*
X580250Y193750D02*
X783400D01*
X482400Y451500D02*
X734400D01*
X497800Y441500D02*
X734400D01*
X601000Y341500D02*
X734400D01*
X467000Y461500D02*
X734400D01*
X616400Y331500D02*
X734400D01*
X518600Y411500D02*
X734400D01*
X784900Y331500D02*
X804650Y311750D01*
X585600Y351500D02*
X734400D01*
X549400Y391500D02*
X734400D01*
X564800Y381500D02*
X734400D01*
X570200Y361500D02*
X734400D01*
X425400Y521500D02*
X734400D01*
X513200Y431500D02*
X734400D01*
X534000Y401500D02*
X734400D01*
X683150Y297000D02*
X697650Y311500D01*
X607300Y297000D02*
X683150D01*
X425450Y115150D02*
X607300Y297000D01*
X697650Y311500D02*
X712732D01*
X734400D01*
X772400Y521500D02*
X798400D01*
X811900Y401500D02*
X864650Y348750D01*
X811900Y391500D02*
X854650Y348750D01*
X805900Y381500D02*
X844650Y342750D01*
X804650Y234000D02*
Y311750D01*
X778650Y208000D02*
X804650Y234000D01*
X789650Y306250D02*
X794650Y301250D01*
Y263750D02*
Y301250D01*
X769150Y238250D02*
X794650Y263750D01*
X797650Y351500D02*
X824650Y324500D01*
X806150Y361500D02*
X834650Y333000D01*
X552450Y115150D02*
X606800Y169500D01*
X569100Y208000D02*
X778650D01*
X772400Y511500D02*
X790650D01*
X772400Y491500D02*
X798400D01*
X772400Y481500D02*
X790900D01*
X772400Y461500D02*
X797400D01*
X772400Y451500D02*
X790900D01*
X772400Y441500D02*
X797900D01*
X772400Y431500D02*
X791150D01*
X772400Y411500D02*
X796900D01*
X784400Y311500D02*
X789650Y306250D01*
X715400Y481500D02*
X734400D01*
X461600D02*
X715400D01*
Y491500D02*
X734400D01*
X446200D02*
X715400D01*
X715150Y511500D02*
X734400D01*
X440800D02*
X715150D01*
X772400Y341500D02*
X788900D01*
X501650Y115150D02*
X580250Y193750D01*
X476250Y115150D02*
X569100Y208000D01*
X772400Y331500D02*
X784900D01*
X450850Y115150D02*
X573950Y238250D01*
X769150D01*
X772400Y311500D02*
X784400D01*
X400050Y115150D02*
X616400Y331500D01*
X374650Y115150D02*
X601000Y341500D01*
X349250Y115150D02*
X585600Y351500D01*
X323850Y115150D02*
X570200Y361500D01*
X298450Y115150D02*
X564800Y381500D01*
X273050Y115150D02*
X549400Y391500D01*
X247650Y115150D02*
X534000Y401500D01*
X222250Y115150D02*
X518600Y411500D01*
X196850Y115150D02*
X513200Y431500D01*
X171450Y115150D02*
X497800Y441500D01*
X146050Y115150D02*
X482400Y451500D01*
X120650Y115150D02*
X467000Y461500D01*
X95250Y115150D02*
X461600Y481500D01*
X69850Y115150D02*
X446200Y491500D01*
X44450Y115150D02*
X440800Y511500D01*
X19050Y115150D02*
X425400Y521500D01*
D26*
X704850Y267550D02*
D03*
Y292950D02*
D03*
X654050Y318350D02*
D03*
X679450D02*
D03*
X704850Y572350D02*
D03*
Y546950D02*
D03*
X857250Y19900D02*
D03*
X831850D02*
D03*
X806450D02*
D03*
X781050D02*
D03*
X755650D02*
D03*
X730250D02*
D03*
X704850D02*
D03*
X679450D02*
D03*
X654050D02*
D03*
X628650D02*
D03*
X603250D02*
D03*
X577850D02*
D03*
X552450D02*
D03*
X527050D02*
D03*
X501650D02*
D03*
X476250D02*
D03*
X450850D02*
D03*
X425450D02*
D03*
X400050D02*
D03*
X374650D02*
D03*
X349250D02*
D03*
X323850D02*
D03*
X298450D02*
D03*
X273050D02*
D03*
X247650D02*
D03*
X222250D02*
D03*
X196850D02*
D03*
X171450D02*
D03*
X146050D02*
D03*
X120650D02*
D03*
X95250D02*
D03*
X69850D02*
D03*
X44450D02*
D03*
X857250Y115150D02*
D03*
X831850D02*
D03*
X806450D02*
D03*
X781050D02*
D03*
X755650D02*
D03*
X730250D02*
D03*
X704850D02*
D03*
X679450D02*
D03*
X654050D02*
D03*
X628650D02*
D03*
X603250D02*
D03*
X577850D02*
D03*
X552450D02*
D03*
X527050D02*
D03*
X501650D02*
D03*
X476250D02*
D03*
X450850D02*
D03*
X425450D02*
D03*
X400050D02*
D03*
X374650D02*
D03*
X349250D02*
D03*
X323850D02*
D03*
X298450D02*
D03*
X273050D02*
D03*
X247650D02*
D03*
X222250D02*
D03*
X196850D02*
D03*
X171450D02*
D03*
X146050D02*
D03*
X120650D02*
D03*
X95250D02*
D03*
X69850D02*
D03*
X44450D02*
D03*
D27*
X19050Y19900D02*
D03*
Y115150D02*
D03*
D28*
X753400Y279000D02*
D03*
Y564000D02*
D03*
Y588500D02*
D03*
Y254500D02*
D03*
D29*
X654050Y470750D02*
D03*
X603250Y267550D02*
D03*
X69850Y216750D02*
D03*
X552450Y64350D02*
D03*
X95250Y369150D02*
D03*
X654050Y267550D02*
D03*
X95250Y64350D02*
D03*
X501650D02*
D03*
X755650D02*
D03*
X146050Y470750D02*
D03*
X44450Y369150D02*
D03*
X196850Y64350D02*
D03*
X273050Y419950D02*
D03*
X603250Y470750D02*
D03*
X552450D02*
D03*
X806450Y572350D02*
D03*
X857250Y64350D02*
D03*
X69850Y419950D02*
D03*
X654050Y64350D02*
D03*
X349250Y572350D02*
D03*
X501650Y470750D02*
D03*
X247650Y64350D02*
D03*
X450850D02*
D03*
X196850Y470750D02*
D03*
X171450Y521550D02*
D03*
X69850D02*
D03*
X247650Y369150D02*
D03*
X120650Y521550D02*
D03*
X501650Y572350D02*
D03*
X349250Y470750D02*
D03*
X298450D02*
D03*
X222250Y521550D02*
D03*
X298450Y64350D02*
D03*
X69850Y318350D02*
D03*
X95250Y470750D02*
D03*
Y267550D02*
D03*
X19050Y318350D02*
D03*
X44450Y64350D02*
D03*
X120650Y318350D02*
D03*
X44450Y572350D02*
D03*
X654050D02*
D03*
X298450D02*
D03*
X171450Y318350D02*
D03*
X19050Y521550D02*
D03*
X44450Y267550D02*
D03*
X400050Y572350D02*
D03*
Y64350D02*
D03*
X349250D02*
D03*
X146050Y267550D02*
D03*
X196850Y572350D02*
D03*
X146050D02*
D03*
X628650Y318350D02*
D03*
X603250Y572350D02*
D03*
X120650Y419950D02*
D03*
X374650Y521550D02*
D03*
X44450Y470750D02*
D03*
Y165950D02*
D03*
X196850Y369150D02*
D03*
X552450Y572350D02*
D03*
X704850Y64350D02*
D03*
X857250Y572350D02*
D03*
X19050Y419950D02*
D03*
X146050Y64350D02*
D03*
X171450Y419950D02*
D03*
X247650Y470750D02*
D03*
X806450Y64350D02*
D03*
X95250Y572350D02*
D03*
X450850D02*
D03*
X273050Y521550D02*
D03*
X247650Y572350D02*
D03*
X19050Y216750D02*
D03*
X146050Y369150D02*
D03*
X222250Y419950D02*
D03*
X603250Y64350D02*
D03*
X323850Y521550D02*
D03*
X342900Y426300D02*
D03*
X355600Y413600D02*
D03*
X368300Y400900D02*
D03*
X381000Y388200D02*
D03*
X393700Y375500D02*
D03*
X406400Y362800D02*
D03*
X419100Y350100D02*
D03*
X431800Y337400D02*
D03*
X444500Y324700D02*
D03*
X457200Y312000D02*
D03*
X469900Y299300D02*
D03*
X482600Y286600D02*
D03*
X495300Y273900D02*
D03*
X508000Y261200D02*
D03*
X520700Y248500D02*
D03*
X533400Y235800D02*
D03*
X546100Y223100D02*
D03*
X654050Y369150D02*
D03*
X603250D02*
D03*
X654050Y419950D02*
D03*
X603250D02*
D03*
X552450D02*
D03*
X654050Y502500D02*
D03*
X603250D02*
D03*
X552450D02*
D03*
X501650D02*
D03*
X406400Y521550D02*
D03*
X419100Y502500D02*
D03*
X431800Y489800D02*
D03*
X444500Y477100D02*
D03*
X457200Y464400D02*
D03*
X469900Y451700D02*
D03*
X482600Y439000D02*
D03*
X495300Y426300D02*
D03*
X508000Y413600D02*
D03*
X520700Y400900D02*
D03*
X533400Y388200D02*
D03*
X546100Y375500D02*
D03*
X558800Y362800D02*
D03*
X596900Y324700D02*
D03*
X584200Y337400D02*
D03*
X571500Y350100D02*
D03*
X603250Y305650D02*
D03*
X565150Y242150D02*
D03*
X704850Y223100D02*
D03*
X666750D02*
D03*
X628650D02*
D03*
X584200D02*
D03*
X558800Y210400D02*
D03*
X571500Y197700D02*
D03*
X584200Y185000D02*
D03*
X596900Y172300D02*
D03*
X609600Y159600D02*
D03*
X622300Y146900D02*
D03*
X50800Y134200D02*
D03*
X76200D02*
D03*
X101600D02*
D03*
X127000D02*
D03*
X152400D02*
D03*
X177800D02*
D03*
X203200D02*
D03*
X228600D02*
D03*
X254000D02*
D03*
X279400D02*
D03*
X304800D02*
D03*
X330200D02*
D03*
X355600D02*
D03*
X381000D02*
D03*
X406400D02*
D03*
X431800D02*
D03*
X457200D02*
D03*
X635000D02*
D03*
X609600D02*
D03*
X584200D02*
D03*
X558800D02*
D03*
X533400D02*
D03*
X508000D02*
D03*
X482600D02*
D03*
X831150Y152500D02*
D03*
X819150Y166000D02*
D03*
X805650Y178250D02*
D03*
X791900Y190000D02*
D03*
X849400Y146250D02*
D03*
X841650Y163000D02*
D03*
X834150Y181750D02*
D03*
X817400Y214750D02*
D03*
X826150Y198250D02*
D03*
X777650Y200750D02*
D03*
X751400Y201000D02*
D03*
X847650Y461750D02*
D03*
X753872Y531500D02*
D03*
X753618Y501500D02*
D03*
Y471500D02*
D03*
X753364Y421474D02*
D03*
X754126Y371500D02*
D03*
X714900Y371500D02*
D03*
X792650D02*
D03*
X712732Y311500D02*
D03*
X790400Y421500D02*
D03*
X714400D02*
D03*
X791650Y471500D02*
D03*
X713650D02*
D03*
X794400Y501500D02*
D03*
X709900D02*
D03*
X713900Y531500D02*
D03*
X793150D02*
D03*
X798400Y521500D02*
D03*
X790650Y511500D02*
D03*
X798400Y491500D02*
D03*
X790900Y481500D02*
D03*
X797400Y461500D02*
D03*
X790900Y451500D02*
D03*
X797900Y441500D02*
D03*
X791150Y431500D02*
D03*
X796900Y411500D02*
D03*
X790400Y401500D02*
D03*
X793900Y391250D02*
D03*
X791400Y381500D02*
D03*
X791650Y361500D02*
D03*
Y351500D02*
D03*
X792400Y338000D02*
D03*
X789650Y326750D02*
D03*
Y306250D02*
D03*
X708650Y331250D02*
D03*
X715150Y341250D02*
D03*
X708400Y351500D02*
D03*
X715650Y361500D02*
D03*
X707400Y381500D02*
D03*
X715650Y391500D02*
D03*
X708150Y401500D02*
D03*
X714900Y411500D02*
D03*
X714400Y431250D02*
D03*
X714150Y441250D02*
D03*
X713900Y451500D02*
D03*
X713650Y461500D02*
D03*
X715400Y481500D02*
D03*
Y491500D02*
D03*
X715150Y511500D02*
D03*
X713150Y521500D02*
D03*
M02*
