G04*
G04 #@! TF.GenerationSoftware,Altium Limited,Altium Designer,19.1.8 (144)*
G04*
G04 Layer_Color=8388736*
%FSLAX44Y44*%
%MOMM*%
G71*
G01*
G75*
%ADD15R,5.5508X1.8008*%
%ADD16O,2.4508X0.6508*%
%ADD17R,2.4508X0.6508*%
%ADD18C,1.5508*%
%ADD19R,1.5508X1.5508*%
%ADD20C,2.0508*%
D15*
X753400Y224500D02*
D03*
Y618500D02*
D03*
D16*
X772400Y301500D02*
D03*
Y311500D02*
D03*
Y321500D02*
D03*
Y331500D02*
D03*
Y341500D02*
D03*
Y351500D02*
D03*
Y361500D02*
D03*
Y371500D02*
D03*
Y381500D02*
D03*
Y391500D02*
D03*
Y401500D02*
D03*
Y411500D02*
D03*
Y421500D02*
D03*
Y431500D02*
D03*
Y441500D02*
D03*
Y451500D02*
D03*
Y461500D02*
D03*
Y471500D02*
D03*
Y481500D02*
D03*
Y491500D02*
D03*
Y501500D02*
D03*
Y511500D02*
D03*
Y521500D02*
D03*
Y531500D02*
D03*
Y541500D02*
D03*
X734400Y301500D02*
D03*
Y311500D02*
D03*
Y321500D02*
D03*
Y331500D02*
D03*
Y341500D02*
D03*
Y351500D02*
D03*
Y361500D02*
D03*
Y371500D02*
D03*
Y381500D02*
D03*
Y391500D02*
D03*
Y401500D02*
D03*
Y411500D02*
D03*
Y421500D02*
D03*
Y431500D02*
D03*
Y441500D02*
D03*
Y451500D02*
D03*
Y461500D02*
D03*
Y471500D02*
D03*
Y481500D02*
D03*
Y491500D02*
D03*
Y501500D02*
D03*
Y511500D02*
D03*
Y521500D02*
D03*
Y531500D02*
D03*
D17*
Y541500D02*
D03*
D18*
X704850Y267550D02*
D03*
Y292950D02*
D03*
X654050Y318350D02*
D03*
X679450D02*
D03*
X704850Y572350D02*
D03*
Y546950D02*
D03*
X857250Y19900D02*
D03*
X831850D02*
D03*
X806450D02*
D03*
X781050D02*
D03*
X755650D02*
D03*
X730250D02*
D03*
X704850D02*
D03*
X679450D02*
D03*
X654050D02*
D03*
X628650D02*
D03*
X603250D02*
D03*
X577850D02*
D03*
X552450D02*
D03*
X527050D02*
D03*
X501650D02*
D03*
X476250D02*
D03*
X450850D02*
D03*
X425450D02*
D03*
X400050D02*
D03*
X374650D02*
D03*
X349250D02*
D03*
X323850D02*
D03*
X298450D02*
D03*
X273050D02*
D03*
X247650D02*
D03*
X222250D02*
D03*
X196850D02*
D03*
X171450D02*
D03*
X146050D02*
D03*
X120650D02*
D03*
X95250D02*
D03*
X69850D02*
D03*
X44450D02*
D03*
X857250Y115150D02*
D03*
X831850D02*
D03*
X806450D02*
D03*
X781050D02*
D03*
X755650D02*
D03*
X730250D02*
D03*
X704850D02*
D03*
X679450D02*
D03*
X654050D02*
D03*
X628650D02*
D03*
X603250D02*
D03*
X577850D02*
D03*
X552450D02*
D03*
X527050D02*
D03*
X501650D02*
D03*
X476250D02*
D03*
X450850D02*
D03*
X425450D02*
D03*
X400050D02*
D03*
X374650D02*
D03*
X349250D02*
D03*
X323850D02*
D03*
X298450D02*
D03*
X273050D02*
D03*
X247650D02*
D03*
X222250D02*
D03*
X196850D02*
D03*
X171450D02*
D03*
X146050D02*
D03*
X120650D02*
D03*
X95250D02*
D03*
X69850D02*
D03*
X44450D02*
D03*
D19*
X19050Y19900D02*
D03*
Y115150D02*
D03*
D20*
X753400Y279000D02*
D03*
Y564000D02*
D03*
Y588500D02*
D03*
Y254500D02*
D03*
M02*
