G04*
G04 #@! TF.GenerationSoftware,Altium Limited,Altium Designer,19.1.8 (144)*
G04*
G04 Layer_Color=128*
%FSLAX44Y44*%
%MOMM*%
G71*
G01*
G75*
%ADD34R,1.9016X0.7016*%
%ADD35O,1.9016X0.7016*%
D34*
X732400Y541500D02*
D03*
D35*
Y531500D02*
D03*
Y521500D02*
D03*
Y511500D02*
D03*
Y501500D02*
D03*
Y491500D02*
D03*
Y481500D02*
D03*
Y471500D02*
D03*
Y461500D02*
D03*
Y451500D02*
D03*
Y441500D02*
D03*
Y431500D02*
D03*
Y421500D02*
D03*
Y411500D02*
D03*
Y401500D02*
D03*
Y391500D02*
D03*
Y381500D02*
D03*
Y371500D02*
D03*
Y361500D02*
D03*
Y351500D02*
D03*
Y341500D02*
D03*
Y331500D02*
D03*
Y321500D02*
D03*
Y311500D02*
D03*
Y301500D02*
D03*
X774400Y541500D02*
D03*
Y531500D02*
D03*
Y521500D02*
D03*
Y511500D02*
D03*
Y501500D02*
D03*
Y491500D02*
D03*
Y481500D02*
D03*
Y471500D02*
D03*
Y461500D02*
D03*
Y451500D02*
D03*
Y441500D02*
D03*
Y431500D02*
D03*
Y421500D02*
D03*
Y411500D02*
D03*
Y401500D02*
D03*
Y391500D02*
D03*
Y381500D02*
D03*
Y371500D02*
D03*
Y361500D02*
D03*
Y351500D02*
D03*
Y341500D02*
D03*
Y331500D02*
D03*
Y321500D02*
D03*
Y311500D02*
D03*
Y301500D02*
D03*
M02*
