G04*
G04 #@! TF.GenerationSoftware,Altium Limited,Altium Designer,19.1.8 (144)*
G04*
G04 Layer_Color=65535*
%FSLAX44Y44*%
%MOMM*%
G71*
G01*
G75*
%ADD10C,0.2540*%
%ADD11C,0.1524*%
G36*
X125213Y515065D02*
X124768Y514324D01*
X124028Y512991D01*
X123287Y511361D01*
X122102Y509436D01*
X121065Y507214D01*
X119732Y504844D01*
X118547Y502473D01*
X117214Y500103D01*
X115880Y497733D01*
X114844Y495511D01*
X113807Y493586D01*
X112918Y491956D01*
X112177Y490771D01*
X111733Y489882D01*
X111585Y489734D01*
Y489586D01*
X110400Y487216D01*
X109214Y484994D01*
X107141Y481142D01*
X105215Y477587D01*
X103734Y474624D01*
X102400Y472254D01*
X101215Y470181D01*
X100327Y468403D01*
X99734Y467070D01*
X99142Y466033D01*
X98697Y465144D01*
X98401Y464551D01*
X98105Y464255D01*
Y463959D01*
X97956Y463811D01*
X96179Y463663D01*
X94253Y463515D01*
X93364Y463366D01*
X92772D01*
X92327Y463218D01*
X92179D01*
X90698Y463070D01*
X86995D01*
X84921Y462922D01*
X77514D01*
X75144Y463070D01*
X72922D01*
X71144Y463218D01*
X69663D01*
X68478Y463366D01*
X67589D01*
X65812Y463515D01*
X64627Y463663D01*
X63738D01*
X62997Y463811D01*
X62405D01*
Y463959D01*
X62256Y464107D01*
X61812Y464848D01*
X61071Y466181D01*
X60331Y467810D01*
X59146Y469736D01*
X58109Y471958D01*
X56775Y474180D01*
X55591Y476698D01*
X54257Y479068D01*
X52924Y481291D01*
X51887Y483512D01*
X50850Y485438D01*
X49961Y487068D01*
X49221Y488401D01*
X48776Y489142D01*
X48628Y489438D01*
X47443Y491808D01*
X46258Y494030D01*
X44184Y498030D01*
X42259Y501437D01*
X40777Y504399D01*
X39444Y506917D01*
X38259Y508991D01*
X37370Y510769D01*
X36778Y512102D01*
X36185Y513139D01*
X35741Y514028D01*
X35444Y514620D01*
X35148Y514917D01*
Y515213D01*
X35000Y515361D01*
X38555Y515065D01*
X41962Y514768D01*
X44925Y514472D01*
X47739Y514176D01*
X50258Y514028D01*
X52480Y513731D01*
X54553Y513583D01*
X56331Y513435D01*
X57812Y513287D01*
X59146D01*
X60331Y513139D01*
X61220D01*
X61812Y512991D01*
X62701D01*
X65663Y512843D01*
X68626Y512695D01*
X71589Y512547D01*
X74403Y512398D01*
X77662D01*
X78551Y512250D01*
X84180D01*
X88032Y512398D01*
X91439D01*
X94401Y512547D01*
X95586D01*
X96771Y512695D01*
X98549D01*
X99290Y512843D01*
X100178D01*
X101956Y512991D01*
X103734Y513139D01*
X107733Y513435D01*
X112029Y513880D01*
X116029Y514324D01*
X117954Y514472D01*
X119732Y514768D01*
X121213Y514917D01*
X122695Y515065D01*
X123732Y515213D01*
X124620D01*
X125213Y515361D01*
X125361D01*
X125213Y515065D01*
D02*
G37*
G36*
X96179Y460107D02*
X96031Y459811D01*
X95883Y459515D01*
X95735Y458922D01*
X95290Y458182D01*
X94846Y457293D01*
X94401Y456108D01*
X93661Y454627D01*
X92920Y452997D01*
X92031Y450923D01*
X90994Y448553D01*
X89809Y445887D01*
X88328Y442776D01*
X88180Y442628D01*
X88032Y442035D01*
X87587Y441147D01*
X86995Y439961D01*
X86402Y438628D01*
X85810Y437147D01*
X84328Y433888D01*
X82699Y430629D01*
X82106Y429148D01*
X81514Y427814D01*
X80921Y426629D01*
X80477Y425741D01*
X80329Y425148D01*
X80181Y425000D01*
X80032Y425296D01*
X79884Y425592D01*
X79736Y425889D01*
X79588Y426481D01*
X79144Y427222D01*
X78699Y428111D01*
X78255Y429296D01*
X77514Y430777D01*
X76774Y432555D01*
X75885Y434481D01*
X74848Y436851D01*
X73663Y439665D01*
X72181Y442776D01*
X72033Y442924D01*
X71885Y443517D01*
X71441Y444405D01*
X70848Y445590D01*
X70256Y446924D01*
X69663Y448405D01*
X68182Y451664D01*
X66552Y454775D01*
X65960Y456256D01*
X65367Y457589D01*
X64775Y458774D01*
X64330Y459663D01*
X64182Y460256D01*
X64034Y460404D01*
X65071D01*
X66108Y460256D01*
X67589Y460107D01*
X69071D01*
X70848Y459959D01*
X72478Y459811D01*
X76181D01*
X78107Y459663D01*
X84180D01*
X85365Y459811D01*
X88476D01*
X89661Y459959D01*
X90994D01*
X92624Y460107D01*
X94401Y460256D01*
X96327Y460404D01*
X96179Y460107D01*
D02*
G37*
G36*
X84115Y628695D02*
X85689Y628603D01*
X87541Y628418D01*
X89578Y628140D01*
X91800Y627770D01*
X94022Y627307D01*
X94114D01*
X94299Y627214D01*
X94577Y627122D01*
X95040Y627029D01*
X95596Y626844D01*
X96151Y626659D01*
X97632Y626196D01*
X99391Y625640D01*
X101243Y624807D01*
X103187Y623974D01*
X105224Y622955D01*
X105317D01*
X105502Y622863D01*
X105780Y622678D01*
X106150Y622492D01*
X107169Y621844D01*
X108465Y621104D01*
X109946Y620178D01*
X111613Y618974D01*
X113279Y617771D01*
X115038Y616382D01*
X115131D01*
X115223Y616197D01*
X115779Y615641D01*
X116612Y614901D01*
X117723Y613790D01*
X119019Y612401D01*
X120315Y610920D01*
X121704Y609253D01*
X123000Y607401D01*
Y607309D01*
X123185Y607216D01*
X123371Y606939D01*
X123556Y606476D01*
X123926Y606013D01*
X124204Y605457D01*
X125037Y604161D01*
X125963Y602495D01*
X126981Y600643D01*
X127907Y598699D01*
X128216Y597989D01*
X128370Y597680D01*
X128555Y597217D01*
X128740Y596847D01*
X128833Y596662D01*
Y596569D01*
X128216Y597989D01*
X128092Y598236D01*
X127722Y598884D01*
X126889Y600365D01*
X125870Y602124D01*
X124574Y604068D01*
X123093Y606105D01*
X121519Y608050D01*
X121426Y608142D01*
X121334Y608235D01*
X121056Y608512D01*
X120778Y608883D01*
X119852Y609901D01*
X118649Y611105D01*
X117167Y612401D01*
X115408Y613882D01*
X113557Y615364D01*
X111520Y616845D01*
X111427D01*
X111242Y617030D01*
X110964Y617215D01*
X110594Y617400D01*
X110038Y617771D01*
X109390Y618049D01*
X107909Y618882D01*
X106058Y619808D01*
X104021Y620733D01*
X101706Y621659D01*
X99299Y622492D01*
X99206D01*
X99021Y622585D01*
X98651Y622678D01*
X98188Y622770D01*
X97540Y622955D01*
X96892Y623140D01*
X96059Y623326D01*
X95133Y623511D01*
X93096Y623789D01*
X90781Y624159D01*
X88281Y624344D01*
X85689Y624437D01*
X84578D01*
X84023Y624344D01*
X83375D01*
X81708Y624252D01*
X79857Y624066D01*
X77727Y623696D01*
X75505Y623326D01*
X73283Y622770D01*
X73190D01*
X73005Y622678D01*
X72728Y622585D01*
X72265Y622492D01*
X71709Y622307D01*
X71061Y622122D01*
X69580Y621567D01*
X67821Y620919D01*
X65969Y620085D01*
X64025Y619160D01*
X62080Y618141D01*
X61988D01*
X61803Y618049D01*
X61525Y617863D01*
X61155Y617586D01*
X60229Y616937D01*
X58933Y616104D01*
X57451Y615086D01*
X55785Y613882D01*
X54118Y612494D01*
X52452Y610920D01*
X52267Y610734D01*
X51711Y610179D01*
X50971Y609346D01*
X49952Y608142D01*
X48841Y606753D01*
X47638Y605179D01*
X46434Y603513D01*
X45230Y601661D01*
Y601569D01*
X45138Y601476D01*
X44953Y601198D01*
X44767Y600736D01*
X44490Y600272D01*
X44212Y599717D01*
X43471Y598421D01*
X42731Y596754D01*
X41990Y594903D01*
X41157Y592866D01*
X40509Y590737D01*
Y590644D01*
X40416Y590459D01*
X40324Y590181D01*
X40231Y589718D01*
X40138Y589163D01*
X39953Y588515D01*
X39676Y586941D01*
X39398Y585089D01*
X39120Y583052D01*
X38935Y580737D01*
X38842Y578423D01*
Y578330D01*
Y578145D01*
Y577775D01*
Y577312D01*
X38935Y576757D01*
Y576108D01*
X39027Y574534D01*
X39213Y572683D01*
X39583Y570646D01*
X39953Y568424D01*
X40509Y566202D01*
Y566109D01*
X40601Y565924D01*
X40694Y565647D01*
X40786Y565184D01*
X40972Y564721D01*
X41157Y564073D01*
X41712Y562591D01*
X42360Y560925D01*
X43194Y559073D01*
X44119Y557129D01*
X45230Y555185D01*
Y555092D01*
X45416Y554999D01*
X45508Y554722D01*
X45786Y554351D01*
X46434Y553425D01*
X47267Y552129D01*
X48378Y550741D01*
X49582Y549167D01*
X50971Y547593D01*
X52452Y546019D01*
X52544D01*
X52637Y545834D01*
X53193Y545278D01*
X54118Y544538D01*
X55322Y543519D01*
X56711Y542408D01*
X58377Y541205D01*
X60136Y540001D01*
X62080Y538797D01*
X62173D01*
X62358Y538705D01*
X62636Y538520D01*
X63006Y538335D01*
X63469Y538057D01*
X64025Y537779D01*
X65413Y537131D01*
X67080Y536390D01*
X68932Y535650D01*
X71061Y534909D01*
X73283Y534261D01*
X73376D01*
X73561Y534168D01*
X73839Y534076D01*
X74302Y533983D01*
X74857Y533890D01*
X75505Y533705D01*
X77079Y533428D01*
X78931Y533150D01*
X81060Y532872D01*
X83282Y532687D01*
X85689Y532594D01*
X86893D01*
X87541Y532687D01*
X88281D01*
X89022Y532780D01*
X89948Y532872D01*
X92077Y533057D01*
X94299Y533428D01*
X96707Y533890D01*
X99206Y534539D01*
X99299D01*
X99484Y534631D01*
X99854Y534724D01*
X100317Y534909D01*
X100965Y535094D01*
X101614Y535279D01*
X103187Y535927D01*
X105132Y536668D01*
X107169Y537594D01*
X109205Y538705D01*
X111335Y540001D01*
X111427D01*
X111613Y540186D01*
X111890Y540371D01*
X112261Y540649D01*
X113371Y541390D01*
X114668Y542408D01*
X116242Y543704D01*
X117908Y545186D01*
X119667Y546852D01*
X121334Y548704D01*
X121426Y548796D01*
X121519Y548889D01*
X121797Y549167D01*
X122074Y549630D01*
X122445Y550093D01*
X122908Y550648D01*
X123926Y551944D01*
X125130Y553611D01*
X126333Y555462D01*
X127537Y557592D01*
X128648Y559814D01*
Y559721D01*
X128555Y559536D01*
X128370Y559166D01*
X128185Y558610D01*
X127815Y557962D01*
X127537Y557221D01*
X127074Y556388D01*
X126704Y555555D01*
X125592Y553518D01*
X124296Y551296D01*
X122722Y549074D01*
X121056Y546852D01*
X120963Y546760D01*
X120871Y546574D01*
X120593Y546297D01*
X120223Y545834D01*
X119760Y545371D01*
X119204Y544723D01*
X117816Y543427D01*
X116242Y541853D01*
X114390Y540094D01*
X112353Y538427D01*
X110131Y536853D01*
X110038D01*
X109853Y536668D01*
X109483Y536483D01*
X109113Y536205D01*
X108465Y535835D01*
X107816Y535372D01*
X107076Y535001D01*
X106150Y534446D01*
X104206Y533428D01*
X101891Y532409D01*
X99484Y531298D01*
X96799Y530372D01*
X96707D01*
X96521Y530280D01*
X96059Y530187D01*
X95596Y530002D01*
X94855Y529817D01*
X94114Y529632D01*
X93188Y529446D01*
X92263Y529261D01*
X89948Y528891D01*
X87448Y528521D01*
X84763Y528243D01*
X81893Y528150D01*
X80690D01*
X80134Y528243D01*
X79394D01*
X78560Y528335D01*
X77635D01*
X75598Y528613D01*
X73283Y528891D01*
X70876Y529354D01*
X68469Y529910D01*
X68376D01*
X68191Y530002D01*
X67821Y530095D01*
X67358Y530280D01*
X66802Y530465D01*
X66062Y530650D01*
X64488Y531206D01*
X62636Y531946D01*
X60599Y532780D01*
X58562Y533798D01*
X56433Y534909D01*
X56340D01*
X56155Y535094D01*
X55877Y535279D01*
X55507Y535464D01*
X54489Y536205D01*
X53100Y537131D01*
X51526Y538335D01*
X49860Y539723D01*
X48101Y541205D01*
X46341Y542871D01*
X46249Y542964D01*
X46156Y543056D01*
X45879Y543334D01*
X45601Y543704D01*
X44675Y544630D01*
X43657Y545834D01*
X42360Y547315D01*
X41064Y549074D01*
X39768Y550926D01*
X38472Y552870D01*
Y552963D01*
X38287Y553148D01*
X38194Y553425D01*
X37916Y553889D01*
X37639Y554351D01*
X37361Y554999D01*
X36620Y556481D01*
X35787Y558332D01*
X34954Y560369D01*
X34121Y562684D01*
X33380Y565091D01*
Y565184D01*
X33287Y565369D01*
X33195Y565739D01*
X33102Y566202D01*
X32917Y566758D01*
X32824Y567498D01*
X32639Y568331D01*
X32454Y569165D01*
X32084Y571202D01*
X31806Y573424D01*
X31621Y575831D01*
X31528Y578330D01*
Y578423D01*
Y578608D01*
Y578978D01*
Y579534D01*
X31621Y580182D01*
Y580830D01*
X31713Y581663D01*
X31806Y582589D01*
X31991Y584626D01*
X32269Y586941D01*
X32732Y589348D01*
X33380Y591755D01*
Y591847D01*
X33472Y592033D01*
X33565Y592403D01*
X33750Y592866D01*
X33935Y593421D01*
X34121Y594162D01*
X34676Y595736D01*
X35417Y597588D01*
X36342Y599624D01*
X37361Y601754D01*
X38472Y603791D01*
Y603883D01*
X38657Y604068D01*
X38842Y604346D01*
X39027Y604716D01*
X39768Y605827D01*
X40694Y607124D01*
X41805Y608698D01*
X43194Y610457D01*
X44675Y612216D01*
X46341Y613975D01*
X46434Y614067D01*
X46527Y614160D01*
X46804Y614438D01*
X47175Y614715D01*
X48101Y615641D01*
X49304Y616660D01*
X50878Y617956D01*
X52544Y619252D01*
X54396Y620548D01*
X56433Y621844D01*
X56526D01*
X56711Y622029D01*
X56989Y622122D01*
X57359Y622400D01*
X57914Y622678D01*
X58470Y622955D01*
X59951Y623696D01*
X61803Y624529D01*
X63840Y625363D01*
X66062Y626196D01*
X68469Y626936D01*
X68561D01*
X68747Y627029D01*
X69117Y627122D01*
X69580Y627214D01*
X70228Y627399D01*
X70876Y627492D01*
X71709Y627677D01*
X72542Y627862D01*
X74579Y628233D01*
X76894Y628510D01*
X79301Y628695D01*
X81893Y628788D01*
X83467D01*
X84115Y628695D01*
D02*
G37*
G36*
X60784Y588144D02*
Y588052D01*
Y587866D01*
Y587774D01*
Y587681D01*
X60692Y587589D01*
X60414Y587218D01*
X60044Y586755D01*
X59581Y586200D01*
X59488Y586015D01*
X59211Y585644D01*
X58840Y585182D01*
X58562Y584811D01*
X58470Y584719D01*
X58377Y584348D01*
X58099Y583885D01*
X57822Y583330D01*
X57729Y583145D01*
X57544Y582774D01*
X57359Y582311D01*
X57081Y581941D01*
X56989Y581848D01*
Y581756D01*
X56896Y581478D01*
X56803Y581386D01*
X56618Y581200D01*
X59118D01*
X59211Y581108D01*
X59303Y581015D01*
X59396Y580923D01*
Y580737D01*
Y580645D01*
X59303Y580552D01*
X59211Y580460D01*
X58933Y580367D01*
X55877D01*
Y580275D01*
X55785Y580182D01*
X55415Y579627D01*
X55322Y579534D01*
X55229Y579349D01*
X55044Y579164D01*
X54859Y578978D01*
X54767Y578886D01*
X54489Y578516D01*
X54118Y578053D01*
X53748Y577590D01*
X53656Y577497D01*
X53563Y577312D01*
X53285Y577034D01*
X53007Y576664D01*
X52637Y576201D01*
X52082Y575553D01*
X51434Y574720D01*
X51526D01*
X51711Y574812D01*
X51804D01*
X52174Y574905D01*
X52637Y575090D01*
X53285Y575182D01*
X53378D01*
X53748Y575275D01*
X54211Y575368D01*
X54674Y575460D01*
X57729D01*
X57914Y575368D01*
X58470Y575275D01*
X58562D01*
X58840Y575182D01*
X59118Y575090D01*
X59488D01*
X60044Y574905D01*
X60599Y574812D01*
X60692Y574720D01*
X60784Y574349D01*
Y574257D01*
X60692Y574164D01*
X60599Y574072D01*
X60414Y573886D01*
X60229Y573701D01*
X60044Y573516D01*
X59859Y573331D01*
X59581Y573053D01*
X59118Y572498D01*
X59025D01*
X58840Y572405D01*
X58748D01*
X58562Y572498D01*
X58192Y572683D01*
X57544Y572961D01*
X56711Y573238D01*
X52359D01*
X52082Y573146D01*
X51711Y573053D01*
X51434Y572961D01*
X51341D01*
X50971Y572868D01*
X50600Y572775D01*
X50230Y572683D01*
X49674Y572590D01*
X49026Y572405D01*
X48934D01*
X48841Y572498D01*
X48749Y572683D01*
X48656Y572961D01*
Y573053D01*
X48841Y573424D01*
X48934Y573516D01*
X49026Y573609D01*
X49212Y573794D01*
X49304Y573886D01*
X49489Y574164D01*
X49674Y574534D01*
X49952Y574997D01*
X50045Y575090D01*
X50230Y575460D01*
X50508Y575738D01*
X50785Y576108D01*
X50878Y576201D01*
X50971Y576479D01*
X51156Y576849D01*
X51434Y577497D01*
X51526Y577682D01*
X51711Y577960D01*
X51989Y578423D01*
X52174Y578886D01*
Y578978D01*
X52267Y579071D01*
X52637Y579534D01*
X52730Y579627D01*
X52822Y579812D01*
X53193Y580275D01*
X53100D01*
X52915Y580367D01*
X50878D01*
X50785Y580460D01*
X50693Y580645D01*
Y580737D01*
Y580830D01*
X50878Y581015D01*
X50971Y581108D01*
X51063Y581200D01*
X53841D01*
X53933Y581293D01*
X54026Y581478D01*
X54118Y581663D01*
X54211Y581756D01*
X54396Y582034D01*
X54489Y582126D01*
X54767Y582497D01*
X55137Y582867D01*
X55507Y583330D01*
X55600Y583422D01*
X55692Y583608D01*
X55970Y583885D01*
X56248Y584256D01*
X56711Y584719D01*
X57266Y585367D01*
X57770Y586015D01*
X57544D01*
X57174Y585922D01*
X56618Y585830D01*
X56063Y585644D01*
X55970D01*
X55600Y585552D01*
X55137Y585459D01*
X54674Y585274D01*
X51619D01*
X51434Y585367D01*
X51156Y585459D01*
X50878Y585552D01*
X50785D01*
X50508Y585644D01*
X50230Y585737D01*
X49860Y585830D01*
X49397Y585922D01*
X48841Y586015D01*
X48749Y586107D01*
X48656Y586385D01*
Y586478D01*
Y586570D01*
X48749Y586755D01*
X48841Y586848D01*
X49026Y587126D01*
X49119D01*
X49212Y587218D01*
X49489Y587496D01*
X49582Y587681D01*
X49860Y587866D01*
X50230Y588237D01*
X50322Y588329D01*
X50600D01*
X50878Y588237D01*
X51248Y588144D01*
X51619Y587959D01*
X51711D01*
X51989Y587866D01*
X52544Y587681D01*
X56896D01*
X57174Y587774D01*
X57914Y587866D01*
X58007D01*
X58099Y587959D01*
X58377D01*
X58655Y588052D01*
X59118Y588144D01*
X59673Y588237D01*
X60321Y588329D01*
X60507D01*
X60784Y588144D01*
D02*
G37*
G36*
X75505Y588237D02*
X75598D01*
X75690Y588052D01*
X76061Y587774D01*
X76153Y587681D01*
X76246Y587496D01*
X76616Y587218D01*
X77172Y586663D01*
Y586570D01*
Y586478D01*
Y586385D01*
Y586292D01*
X77079Y586200D01*
X76894Y586015D01*
X76801D01*
X76709Y585922D01*
X76153Y585644D01*
X76061D01*
X75875Y585552D01*
X75413Y585274D01*
X75135D01*
X74950Y585367D01*
X74672Y585552D01*
X74487Y585644D01*
X74116Y585830D01*
X73561Y586015D01*
X73468Y586107D01*
X73376Y586385D01*
Y586478D01*
Y586570D01*
X73468Y586755D01*
X73561Y586848D01*
X73653Y586941D01*
X74024Y587311D01*
X74116D01*
X74302Y587496D01*
X74579Y587774D01*
X75042Y588237D01*
X75135Y588329D01*
X75320D01*
X75505Y588237D01*
D02*
G37*
G36*
X120408Y583330D02*
X120593Y583237D01*
X120778Y582960D01*
X121241Y582497D01*
X121334D01*
X121426Y582404D01*
X121889Y582219D01*
X121982D01*
X122074Y582126D01*
X122537Y581941D01*
X123185D01*
X123371Y581848D01*
X123463Y581756D01*
Y581663D01*
Y581386D01*
Y581293D01*
X123371Y581108D01*
X123278D01*
X123185Y581015D01*
X123093D01*
X122908Y580923D01*
X122815Y580830D01*
X122537Y580737D01*
X122352Y580645D01*
X122074Y580552D01*
Y580367D01*
Y579812D01*
Y578978D01*
Y577867D01*
Y577775D01*
Y577590D01*
Y577312D01*
Y576942D01*
Y576016D01*
Y575182D01*
X122167Y575090D01*
X122260Y574997D01*
X122352D01*
X122445Y574905D01*
X122630Y574812D01*
X123185D01*
X123463Y574627D01*
X123556Y574534D01*
Y574349D01*
Y574257D01*
X123463Y574164D01*
X123371Y574072D01*
X123278Y573886D01*
X123093Y573701D01*
X122908Y573516D01*
X122722Y573331D01*
X122445Y573053D01*
X121889Y572498D01*
X121797D01*
X121519Y572405D01*
X121426Y572498D01*
X121241Y572775D01*
X121149Y572868D01*
X121056Y572961D01*
X120963Y573053D01*
X120778Y573146D01*
X120315Y573516D01*
Y573609D01*
X120130Y573701D01*
X119852Y574164D01*
Y574257D01*
X119760Y574349D01*
Y574442D01*
Y574534D01*
Y574812D01*
Y575090D01*
Y575553D01*
Y576108D01*
Y576664D01*
Y577405D01*
Y577497D01*
Y577775D01*
Y578053D01*
Y578516D01*
Y579534D01*
Y580552D01*
X119667Y580645D01*
X119204Y580737D01*
X119019Y580830D01*
X118741Y581015D01*
X118093D01*
X117908Y580923D01*
X117260Y580737D01*
X117167D01*
X116982Y580645D01*
X116427Y580460D01*
Y580275D01*
Y579719D01*
Y578978D01*
Y577867D01*
Y577775D01*
Y577590D01*
Y577312D01*
Y576942D01*
Y576108D01*
Y575368D01*
X116519D01*
X116612Y575275D01*
X116797Y575182D01*
X116982Y575090D01*
X117260Y574997D01*
X117630Y574720D01*
X117723D01*
X117816Y574627D01*
X117908Y574534D01*
Y574257D01*
X117723D01*
Y574164D01*
Y574072D01*
X117538Y573979D01*
X117260Y573609D01*
X117075Y573424D01*
X116705Y573053D01*
X116149Y572498D01*
X116056D01*
X115779Y572405D01*
Y572498D01*
X115686D01*
X115594Y572590D01*
X115316Y572961D01*
X115223Y573053D01*
X115038Y573238D01*
X114945D01*
X114853Y573331D01*
X114668Y573424D01*
X114575D01*
X114390Y573516D01*
X114112Y573701D01*
X113742Y573886D01*
X113649D01*
X113464Y573794D01*
X113094D01*
X112909Y573886D01*
X112816Y573979D01*
X112723Y574164D01*
Y574257D01*
X112631Y574349D01*
Y574442D01*
Y574534D01*
X112723Y574720D01*
X112909Y574812D01*
X113001D01*
X113094Y574905D01*
X113557Y575090D01*
X113649D01*
X113742Y575182D01*
X114020Y575368D01*
Y575553D01*
Y576016D01*
Y576849D01*
Y577960D01*
Y578053D01*
Y578238D01*
Y578516D01*
Y578886D01*
Y579719D01*
Y580552D01*
Y580645D01*
X113927Y580737D01*
X113834Y580830D01*
X113649Y581015D01*
X112909D01*
X112723Y581200D01*
Y581293D01*
X112631Y581386D01*
Y581478D01*
Y581571D01*
X112723Y581756D01*
X112816Y581848D01*
X112909Y581941D01*
X113371Y582311D01*
X113557Y582497D01*
X113834Y582867D01*
X114297Y583330D01*
X114390Y583422D01*
X114575D01*
X114853Y583330D01*
X114945Y583237D01*
X115038Y583145D01*
X115316Y582774D01*
X115408D01*
X115501Y582589D01*
X115871Y582311D01*
X116427Y581756D01*
Y581663D01*
Y581386D01*
X116519D01*
X116705Y581478D01*
X117260Y581756D01*
X117353D01*
X117538Y581848D01*
X118001Y581941D01*
X118093D01*
X118186Y582034D01*
X118649Y582219D01*
X118741D01*
X118834Y582311D01*
X119204Y582589D01*
X119297D01*
X119389Y582682D01*
X119667Y582867D01*
Y582960D01*
X119760Y583052D01*
X119852Y583237D01*
X119945Y583330D01*
X120130D01*
X120223Y583422D01*
X120315D01*
X120408Y583330D01*
D02*
G37*
G36*
X94762D02*
Y583237D01*
X94948Y583145D01*
X95133Y582867D01*
X95410Y582589D01*
X95503Y582497D01*
X95596Y582404D01*
X95966Y582034D01*
X96059Y582126D01*
X96244Y582219D01*
X96892Y582404D01*
X96984D01*
X97262Y582589D01*
X97725Y582867D01*
X98188Y583052D01*
X98651Y583330D01*
X98836D01*
X99021Y583145D01*
X99206Y582960D01*
X99299Y582867D01*
X99484Y582774D01*
X99577Y582682D01*
X99762Y582497D01*
X99854D01*
X99947Y582404D01*
X100410Y582219D01*
X100503D01*
X100595Y582126D01*
X100965Y581941D01*
X101706D01*
X101891Y581848D01*
X101984Y581756D01*
X102076Y581571D01*
Y581386D01*
Y581293D01*
X101984Y581200D01*
X101891Y581108D01*
Y581015D01*
X101799D01*
X101706Y580923D01*
X101428Y580830D01*
X101058Y580737D01*
X100965D01*
X100780Y580552D01*
X100317Y580367D01*
X98558D01*
X98466Y580460D01*
X98373Y580552D01*
X97818Y581015D01*
X97725Y581108D01*
X97632Y581200D01*
X97262Y581663D01*
X97170Y581571D01*
X96892Y581386D01*
X96799D01*
X96707Y581293D01*
X96336Y581200D01*
Y581015D01*
Y580737D01*
Y580460D01*
Y579534D01*
Y578238D01*
Y578145D01*
Y577960D01*
Y577590D01*
Y577219D01*
Y576293D01*
Y575368D01*
X96521Y575275D01*
X96707Y575182D01*
X96984Y575090D01*
X97077D01*
X97170Y574997D01*
X97447Y574812D01*
X98188D01*
X98373Y574720D01*
X98466Y574627D01*
X98558Y574534D01*
Y574349D01*
Y574257D01*
X98466Y574164D01*
Y574072D01*
X98373Y573979D01*
Y573886D01*
X98280D01*
X98188Y573794D01*
X97632Y573609D01*
X97540D01*
X97355Y573516D01*
X97170Y573424D01*
X96984Y573238D01*
X96892Y573146D01*
X96614Y573053D01*
X96521Y572961D01*
X96429Y572775D01*
X96151Y572498D01*
X96059D01*
X95873Y572405D01*
X95781Y572498D01*
X95688D01*
X95596Y572590D01*
X95318Y572961D01*
X95133Y573053D01*
X94855Y573238D01*
X94762Y573331D01*
X94485Y573424D01*
X94392Y573516D01*
X94114Y573701D01*
X93744Y573886D01*
X93651D01*
X93374Y573794D01*
X93096D01*
X92911Y573886D01*
X92818Y573979D01*
X92725Y574164D01*
Y574257D01*
X92633Y574349D01*
Y574442D01*
Y574534D01*
X92725Y574720D01*
X92911Y574812D01*
X93003D01*
X93096Y574905D01*
X93466Y575090D01*
X93559D01*
X93651Y575182D01*
X94114Y575368D01*
Y575553D01*
Y576016D01*
Y576849D01*
Y577960D01*
Y578053D01*
Y578238D01*
Y578516D01*
Y578886D01*
Y579719D01*
Y580552D01*
X94022Y580645D01*
X93929Y580737D01*
X93744Y580830D01*
X93559Y581015D01*
X92911D01*
X92725Y581200D01*
Y581293D01*
X92633Y581386D01*
Y581478D01*
Y581571D01*
X92725Y581756D01*
X92818Y581848D01*
X92911Y581941D01*
X93281Y582311D01*
X93466Y582497D01*
X93836Y582867D01*
X94299Y583330D01*
Y583422D01*
X94577D01*
X94762Y583330D01*
D02*
G37*
G36*
X109020Y583237D02*
X109205Y583052D01*
X109298Y582960D01*
X109390Y582774D01*
X109761Y582219D01*
X109853Y582126D01*
X110038Y581848D01*
X110224Y581571D01*
X110501Y581200D01*
X110872Y580830D01*
X111242Y580275D01*
X111335D01*
Y580182D01*
Y579997D01*
Y579904D01*
X111242Y579719D01*
X111150D01*
X111057Y579627D01*
X110964D01*
X110872Y579534D01*
X110316Y579256D01*
X110224D01*
X110038Y579164D01*
X109761Y579071D01*
X109483Y578886D01*
X109390Y578793D01*
X109113Y578608D01*
X108557Y578238D01*
X107909Y577867D01*
X107724Y577775D01*
X107354Y577590D01*
X106798Y577219D01*
X106335Y576942D01*
Y576849D01*
Y576757D01*
Y576201D01*
Y576108D01*
Y575923D01*
Y575368D01*
X106520Y575275D01*
X106891Y575090D01*
X106983D01*
X107076Y574997D01*
X107446Y574812D01*
X108187D01*
X108372Y574627D01*
X108465Y574534D01*
Y574349D01*
Y574257D01*
X108372Y574164D01*
Y574072D01*
X108279Y573979D01*
Y573886D01*
X108094Y573794D01*
X107631Y573609D01*
X107539D01*
X107354Y573516D01*
X107076Y573424D01*
X106891Y573238D01*
X106798Y573146D01*
X106613Y573053D01*
X106520Y572961D01*
X106428Y572775D01*
X106150Y572498D01*
X106058D01*
X105872Y572405D01*
X105780D01*
X105687Y572498D01*
X105595D01*
X105502Y572590D01*
X105224Y572961D01*
X105132Y573053D01*
X104946Y573238D01*
X104761Y573331D01*
X104576Y573424D01*
X104391Y573516D01*
X104113Y573701D01*
X103650Y573886D01*
X103558D01*
X103373Y573794D01*
X103095D01*
X102910Y573886D01*
X102817Y573979D01*
X102632Y574164D01*
Y574257D01*
X102539Y574349D01*
Y574442D01*
X102632Y574534D01*
X102725Y574720D01*
X102910Y574812D01*
X103002D01*
X103095Y574905D01*
X103465Y575090D01*
X103558D01*
X103650Y575182D01*
X103928Y575368D01*
Y575460D01*
Y575553D01*
Y576016D01*
Y576664D01*
Y577312D01*
Y577497D01*
Y577775D01*
Y578145D01*
Y578701D01*
Y579441D01*
Y580460D01*
Y581663D01*
X104021Y581756D01*
X104298Y581848D01*
Y581941D01*
X104484D01*
X104669Y582034D01*
X104946D01*
X105224Y582126D01*
X105317D01*
X105595Y582219D01*
X105872Y582311D01*
X106243Y582404D01*
X106613Y582497D01*
X107169Y582589D01*
X107261Y582682D01*
X107539Y582774D01*
X108002Y583052D01*
X108650Y583422D01*
X108835D01*
X109020Y583237D01*
D02*
G37*
G36*
X75690Y583330D02*
X75783Y583145D01*
X75968Y582867D01*
X76061D01*
X76153Y582774D01*
X76338Y582497D01*
X76431D01*
X76523Y582404D01*
X76709Y582311D01*
X76894Y582219D01*
X77264Y582126D01*
X77727Y581848D01*
X77820D01*
X77912Y581663D01*
Y581571D01*
Y581478D01*
Y581293D01*
Y581200D01*
X77820Y581108D01*
X77727Y581015D01*
X77635Y580923D01*
X77172Y580737D01*
X77079D01*
X76894Y580645D01*
X76709D01*
X76523Y580552D01*
Y580367D01*
Y579812D01*
Y578978D01*
Y577867D01*
Y577775D01*
Y577590D01*
Y577312D01*
Y576942D01*
Y576016D01*
Y575182D01*
X76616Y575090D01*
X76709Y574997D01*
X76801Y574905D01*
X76894Y574812D01*
X77635D01*
X77820Y574627D01*
X77912Y574534D01*
Y574257D01*
Y574164D01*
Y574072D01*
X77727Y573979D01*
X77449Y573609D01*
X77264Y573424D01*
X76894Y573053D01*
X76338Y572498D01*
X76246D01*
X76061Y572405D01*
X75968Y572498D01*
X75875D01*
X75690Y572683D01*
X75320Y573053D01*
X74857Y573516D01*
X74302Y574164D01*
Y574257D01*
X74209Y574349D01*
Y574442D01*
Y574534D01*
Y574812D01*
Y575090D01*
Y575553D01*
Y576108D01*
Y576664D01*
Y577405D01*
Y577497D01*
Y577775D01*
Y578053D01*
Y578516D01*
Y579534D01*
Y580552D01*
X74024Y580645D01*
X73746Y580737D01*
X73653Y580830D01*
X73376Y580923D01*
X73005Y581108D01*
X72913D01*
X72820Y581293D01*
Y581386D01*
Y581478D01*
Y581663D01*
X72913Y581756D01*
Y581848D01*
X73005D01*
Y581941D01*
X73098D01*
X73190Y582034D01*
X73653Y582219D01*
X73746D01*
X73931Y582311D01*
X74209Y582404D01*
X74394Y582497D01*
X74487Y582589D01*
X74672Y582774D01*
X74764Y582867D01*
X74857Y583052D01*
X75135Y583330D01*
X75227Y583422D01*
X75413D01*
X75690Y583330D01*
D02*
G37*
G36*
X69117Y583237D02*
X69209Y583052D01*
X69302Y582960D01*
X69487Y582774D01*
X69950Y582219D01*
X70043Y582126D01*
X70228Y581848D01*
X70413Y581571D01*
X70691Y581200D01*
X71061Y580830D01*
X71431Y580275D01*
Y580182D01*
Y579997D01*
Y579904D01*
X71339Y579719D01*
X71246Y579627D01*
X71154D01*
X70968Y579534D01*
X70413Y579256D01*
X70320D01*
X70135Y579164D01*
X69672Y578886D01*
X69580Y578793D01*
X69209Y578608D01*
X68747Y578238D01*
X68098Y577867D01*
X67913Y577775D01*
X67543Y577590D01*
X66987Y577219D01*
X66432Y576942D01*
Y576849D01*
Y576757D01*
Y576201D01*
Y576108D01*
Y575923D01*
Y575368D01*
X66525D01*
X66617Y575275D01*
X66987Y575090D01*
X67080D01*
X67173Y574997D01*
X67543Y574812D01*
X68284D01*
X68469Y574720D01*
X68561Y574627D01*
Y574534D01*
Y574349D01*
Y574257D01*
Y574164D01*
Y574072D01*
X68469Y573979D01*
Y573886D01*
X68376D01*
X68284Y573794D01*
X68006Y573701D01*
X67635Y573609D01*
X67543D01*
X67450Y573516D01*
X66987Y573238D01*
X66895Y573146D01*
X66802Y573053D01*
X66710Y572961D01*
X66525Y572775D01*
X66247Y572498D01*
X66154D01*
X65876Y572405D01*
Y572498D01*
X65784D01*
X65691Y572590D01*
X65413Y572961D01*
X65321Y573053D01*
X64951Y573238D01*
X64858Y573331D01*
X64580Y573424D01*
X64488Y573516D01*
X64210Y573701D01*
X63747Y573886D01*
X63654D01*
X63469Y573794D01*
X63191D01*
X63006Y573886D01*
X62914Y573979D01*
X62821Y574164D01*
Y574257D01*
X62729Y574349D01*
Y574442D01*
Y574534D01*
X62821Y574720D01*
X63006Y574812D01*
X63099D01*
X63191Y574905D01*
X63654Y575090D01*
X63747D01*
X63840Y575182D01*
X64117Y575368D01*
Y575460D01*
Y575553D01*
Y576016D01*
Y576664D01*
Y577312D01*
Y577497D01*
Y577775D01*
Y578145D01*
Y578701D01*
Y579441D01*
Y580460D01*
Y581663D01*
X64210Y581756D01*
X64303Y581848D01*
X64395Y581941D01*
X64580D01*
X64766Y582034D01*
X65413Y582126D01*
X65506D01*
X65784Y582219D01*
X66062Y582311D01*
X66432Y582404D01*
X66802Y582497D01*
X67358Y582589D01*
X67450Y582682D01*
X67728Y582774D01*
X68191Y583052D01*
X68839Y583422D01*
X68932D01*
X69117Y583237D01*
D02*
G37*
G36*
X86893Y583330D02*
X86985Y583145D01*
X87263Y582867D01*
X87356D01*
X87448Y582774D01*
X87726Y582497D01*
X87819D01*
X87911Y582404D01*
X88281Y582219D01*
X88374D01*
X88467Y582126D01*
X88837Y581941D01*
X90318D01*
X90411Y581848D01*
X90596Y581663D01*
Y581571D01*
Y581478D01*
X90689D01*
X90781Y581386D01*
Y581293D01*
X90689D01*
X90504Y581200D01*
X90411Y581108D01*
X90318Y581015D01*
X90041Y580923D01*
X89948Y580830D01*
X89670Y580737D01*
X89485Y580645D01*
X89300Y580552D01*
Y580460D01*
Y580275D01*
Y579997D01*
Y579627D01*
Y578793D01*
Y577867D01*
Y577775D01*
Y577682D01*
Y577312D01*
Y576757D01*
Y576016D01*
Y574997D01*
Y573701D01*
Y572127D01*
Y572035D01*
X89207Y571942D01*
Y571757D01*
X89022Y571479D01*
X88930Y571109D01*
X88744Y570553D01*
X88467Y569813D01*
X88374Y569720D01*
X88281Y569535D01*
X87726Y568979D01*
X87633Y568887D01*
X87448Y568794D01*
X87170Y568517D01*
X86893Y568331D01*
X86708Y568239D01*
X86430Y567961D01*
X86245Y567868D01*
X85967Y567776D01*
X85412Y567498D01*
X85226D01*
X85041Y567591D01*
X84949Y567683D01*
X84578Y567961D01*
Y568054D01*
X84486Y568146D01*
X84208Y568331D01*
X84115Y568424D01*
X83652Y568609D01*
X83560D01*
X83467Y568702D01*
X83004Y568887D01*
X81523D01*
X81430Y568979D01*
X81338Y569072D01*
X81245Y569257D01*
Y569350D01*
Y569535D01*
X81338Y569720D01*
X81430Y569813D01*
X81523D01*
X81708Y569905D01*
X82264Y570183D01*
X82356D01*
X82541Y570276D01*
X83004Y570553D01*
X84671D01*
X84763Y570461D01*
X85134Y570276D01*
X85226D01*
X85319Y570183D01*
X85689Y570090D01*
X86245Y569813D01*
X86337Y569720D01*
X86708Y569257D01*
Y569350D01*
X86800Y569442D01*
X87170Y569813D01*
X87263Y569905D01*
X87356Y569998D01*
X87726Y570276D01*
Y570368D01*
Y570646D01*
Y570831D01*
Y571016D01*
Y571479D01*
X87633Y571572D01*
X87448Y572035D01*
X87263Y572683D01*
X86893Y573609D01*
Y573701D01*
Y573886D01*
Y573979D01*
Y574164D01*
Y574442D01*
X86800D01*
X86430Y574349D01*
X85874Y574164D01*
X85412Y573886D01*
X85319D01*
X85226Y573794D01*
X84763Y573516D01*
X84671D01*
X84486Y573424D01*
X84023Y573238D01*
X83930Y573146D01*
X83838Y573053D01*
X83745Y572961D01*
X83652Y572775D01*
X83375Y572498D01*
X83282D01*
X83004Y572405D01*
X82912Y572498D01*
X82819D01*
X82727Y572590D01*
X82449Y572961D01*
X82356Y573053D01*
X82171Y573238D01*
X81986Y573331D01*
X81801Y573424D01*
X81708D01*
X81616Y573516D01*
X81338Y573701D01*
X80875Y573886D01*
X80782D01*
X80597Y573794D01*
X80227D01*
X80134Y573886D01*
X79949Y573979D01*
X79857Y574164D01*
Y574257D01*
X79764Y574349D01*
Y574442D01*
Y574534D01*
X79857Y574720D01*
X80042Y574812D01*
X80134D01*
X80227Y574905D01*
X80690Y575090D01*
X80782D01*
X80875Y575182D01*
X81245Y575368D01*
Y575460D01*
Y575553D01*
Y576016D01*
Y576664D01*
Y577312D01*
Y577497D01*
Y577775D01*
Y578145D01*
Y578701D01*
Y579441D01*
Y580460D01*
Y581663D01*
X81338Y581756D01*
X81430Y581848D01*
Y581941D01*
X83097D01*
X83282Y582034D01*
X83745Y582126D01*
X83838D01*
X84023Y582219D01*
X84486Y582404D01*
X85134Y582589D01*
X85226Y582682D01*
X85504Y582774D01*
X85967Y583052D01*
X86615Y583422D01*
X86708D01*
X86893Y583330D01*
D02*
G37*
G36*
X116843Y410554D02*
X115103D01*
Y412128D01*
X116843D01*
Y410554D01*
D02*
G37*
G36*
X56794Y409277D02*
X56924Y409258D01*
X57072Y409221D01*
X57424Y409147D01*
X57812Y408999D01*
X58016Y408888D01*
X58220Y408777D01*
X58405Y408629D01*
X58609Y408462D01*
X58794Y408277D01*
X58960Y408055D01*
X58979Y408036D01*
X58998Y407999D01*
X59035Y407925D01*
X59109Y407832D01*
X59164Y407703D01*
X59238Y407555D01*
X59331Y407370D01*
X59405Y407184D01*
X59497Y406944D01*
X59571Y406703D01*
X59646Y406425D01*
X59720Y406129D01*
X59775Y405814D01*
X59812Y405481D01*
X59831Y405111D01*
X59849Y404740D01*
Y404722D01*
Y404648D01*
Y404518D01*
X59831Y404370D01*
X59812Y404185D01*
X59794Y403963D01*
X59757Y403703D01*
X59720Y403444D01*
X59590Y402870D01*
X59497Y402574D01*
X59386Y402277D01*
X59257Y401981D01*
X59127Y401685D01*
X58942Y401407D01*
X58757Y401148D01*
X58738Y401129D01*
X58701Y401092D01*
X58646Y401018D01*
X58553Y400944D01*
X58460Y400833D01*
X58331Y400722D01*
X58183Y400611D01*
X57998Y400481D01*
X57812Y400352D01*
X57609Y400241D01*
X57146Y400019D01*
X56887Y399944D01*
X56609Y399870D01*
X56313Y399833D01*
X56016Y399815D01*
X55776D01*
X55609Y399833D01*
X55424Y399852D01*
X55220Y399870D01*
X54813Y399963D01*
X54794D01*
X54720Y400000D01*
X54628Y400037D01*
X54479Y400074D01*
X54331Y400148D01*
X54146Y400222D01*
X53757Y400444D01*
Y396667D01*
X52239D01*
Y409036D01*
X53757D01*
Y408092D01*
X53776Y408110D01*
X53850Y408184D01*
X53961Y408277D01*
X54128Y408388D01*
X54313Y408518D01*
X54517Y408666D01*
X54757Y408814D01*
X54998Y408943D01*
X55035Y408962D01*
X55128Y408999D01*
X55257Y409055D01*
X55461Y409129D01*
X55683Y409184D01*
X55942Y409240D01*
X56238Y409277D01*
X56535Y409295D01*
X56683D01*
X56794Y409277D01*
D02*
G37*
G36*
X123435D02*
X123546D01*
X123676Y409258D01*
X123972Y409184D01*
X124306Y409073D01*
X124657Y408925D01*
X124991Y408703D01*
X125157Y408555D01*
X125306Y408406D01*
Y408388D01*
X125343Y408369D01*
X125379Y408314D01*
X125417Y408240D01*
X125491Y408147D01*
X125546Y408036D01*
X125620Y407907D01*
X125694Y407758D01*
X125750Y407592D01*
X125824Y407407D01*
X125898Y407203D01*
X125954Y406962D01*
X125991Y406721D01*
X126028Y406462D01*
X126065Y406166D01*
Y405870D01*
Y400000D01*
X124546D01*
Y405148D01*
Y405185D01*
Y405259D01*
Y405370D01*
Y405518D01*
X124528Y405703D01*
X124509Y405888D01*
X124472Y406296D01*
Y406314D01*
X124454Y406388D01*
Y406481D01*
X124417Y406610D01*
X124361Y406907D01*
X124306Y407036D01*
X124250Y407166D01*
Y407184D01*
X124213Y407221D01*
X124176Y407295D01*
X124120Y407370D01*
X123954Y407536D01*
X123732Y407684D01*
X123713D01*
X123676Y407703D01*
X123602Y407740D01*
X123491Y407777D01*
X123361Y407795D01*
X123213Y407832D01*
X123028Y407851D01*
X122732D01*
X122602Y407832D01*
X122454Y407814D01*
X122287Y407777D01*
X122084Y407721D01*
X121861Y407647D01*
X121639Y407536D01*
X121621Y407518D01*
X121547Y407481D01*
X121417Y407425D01*
X121269Y407333D01*
X121102Y407221D01*
X120899Y407073D01*
X120695Y406925D01*
X120473Y406740D01*
Y400000D01*
X118954D01*
Y409036D01*
X120473D01*
Y408036D01*
X120510Y408055D01*
X120584Y408129D01*
X120713Y408240D01*
X120899Y408388D01*
X121084Y408536D01*
X121324Y408684D01*
X121565Y408832D01*
X121806Y408962D01*
X121843Y408980D01*
X121917Y409018D01*
X122065Y409073D01*
X122232Y409129D01*
X122435Y409184D01*
X122676Y409240D01*
X122935Y409277D01*
X123213Y409295D01*
X123343D01*
X123435Y409277D01*
D02*
G37*
G36*
X110714D02*
X110881Y409258D01*
X111066Y409221D01*
X111418Y409110D01*
X111437D01*
X111492Y409073D01*
X111585Y409036D01*
X111696Y408962D01*
X111825Y408888D01*
X111973Y408777D01*
X112122Y408666D01*
X112251Y408518D01*
X112270Y408499D01*
X112307Y408444D01*
X112381Y408351D01*
X112455Y408240D01*
X112548Y408092D01*
X112659Y407907D01*
X112751Y407703D01*
X112825Y407481D01*
X112844Y407462D01*
X112862Y407370D01*
X112899Y407240D01*
X112936Y407055D01*
X112973Y406833D01*
X112992Y406573D01*
X113029Y406277D01*
Y405944D01*
Y400000D01*
X111511D01*
Y405222D01*
Y405259D01*
Y405333D01*
Y405444D01*
Y405611D01*
X111492Y405777D01*
Y405981D01*
X111455Y406370D01*
Y406388D01*
X111437Y406462D01*
Y406555D01*
X111418Y406684D01*
X111344Y406944D01*
X111307Y407092D01*
X111251Y407203D01*
Y407221D01*
X111214Y407258D01*
X111177Y407314D01*
X111140Y407388D01*
X110992Y407555D01*
X110788Y407684D01*
X110770D01*
X110733Y407703D01*
X110659Y407740D01*
X110585Y407777D01*
X110455Y407795D01*
X110325Y407832D01*
X110159Y407851D01*
X109900D01*
X109807Y407832D01*
X109677Y407814D01*
X109529Y407777D01*
X109363Y407721D01*
X109178Y407647D01*
X108974Y407555D01*
X108955Y407536D01*
X108881Y407499D01*
X108770Y407425D01*
X108640Y407333D01*
X108474Y407221D01*
X108270Y407073D01*
X108085Y406907D01*
X107863Y406721D01*
Y406703D01*
Y406629D01*
Y406518D01*
X107881Y406388D01*
Y406351D01*
X107900Y406259D01*
Y406129D01*
Y405944D01*
Y400000D01*
X106382D01*
Y405222D01*
Y405259D01*
Y405333D01*
Y405444D01*
Y405611D01*
X106363Y405777D01*
Y405981D01*
X106326Y406370D01*
Y406388D01*
X106307Y406462D01*
Y406555D01*
X106289Y406684D01*
X106215Y406944D01*
X106178Y407092D01*
X106122Y407203D01*
Y407221D01*
X106085Y407258D01*
X106048Y407314D01*
X106011Y407388D01*
X105863Y407555D01*
X105659Y407684D01*
X105641D01*
X105604Y407703D01*
X105530Y407740D01*
X105456Y407777D01*
X105326Y407795D01*
X105196Y407832D01*
X105030Y407851D01*
X104771D01*
X104660Y407832D01*
X104530Y407814D01*
X104382Y407777D01*
X104197Y407721D01*
X104011Y407647D01*
X103808Y407536D01*
X103789Y407518D01*
X103715Y407481D01*
X103604Y407407D01*
X103474Y407314D01*
X103326Y407203D01*
X103141Y407073D01*
X102956Y406907D01*
X102771Y406740D01*
Y400000D01*
X101252D01*
Y409036D01*
X102771D01*
Y408036D01*
X102789Y408055D01*
X102882Y408129D01*
X102993Y408240D01*
X103141Y408369D01*
X103308Y408518D01*
X103511Y408684D01*
X103715Y408832D01*
X103937Y408962D01*
X103956Y408980D01*
X104048Y409018D01*
X104159Y409073D01*
X104326Y409129D01*
X104511Y409184D01*
X104733Y409240D01*
X104974Y409277D01*
X105233Y409295D01*
X105363D01*
X105511Y409277D01*
X105715Y409258D01*
X105919Y409203D01*
X106159Y409147D01*
X106400Y409055D01*
X106641Y408925D01*
X106678Y408907D01*
X106752Y408851D01*
X106863Y408758D01*
X106993Y408629D01*
X107159Y408462D01*
X107307Y408258D01*
X107474Y408018D01*
X107604Y407721D01*
X107641Y407758D01*
X107715Y407851D01*
X107863Y407981D01*
X108029Y408166D01*
X108233Y408351D01*
X108455Y408536D01*
X108696Y408721D01*
X108937Y408888D01*
X108974Y408907D01*
X109048Y408943D01*
X109196Y409018D01*
X109363Y409092D01*
X109585Y409166D01*
X109826Y409240D01*
X110085Y409277D01*
X110363Y409295D01*
X110566D01*
X110714Y409277D01*
D02*
G37*
G36*
X82366Y409018D02*
X82384D01*
X82458Y408999D01*
X82532D01*
X82643Y408980D01*
Y407388D01*
X82514D01*
X82439Y407407D01*
X82328Y407425D01*
X82180Y407444D01*
X82143D01*
X82051Y407462D01*
X81625D01*
X81514Y407444D01*
X81347Y407425D01*
X81162Y407388D01*
X80940Y407351D01*
X80717Y407277D01*
X80495Y407184D01*
X80477Y407166D01*
X80384Y407129D01*
X80273Y407073D01*
X80125Y406981D01*
X79940Y406870D01*
X79755Y406740D01*
X79551Y406573D01*
X79347Y406388D01*
Y400000D01*
X77829D01*
Y409036D01*
X79347D01*
Y407684D01*
X79366D01*
X79384Y407721D01*
X79495Y407814D01*
X79644Y407944D01*
X79847Y408092D01*
X80069Y408258D01*
X80310Y408444D01*
X80551Y408592D01*
X80792Y408721D01*
X80829Y408740D01*
X80903Y408777D01*
X81014Y408814D01*
X81180Y408888D01*
X81366Y408943D01*
X81569Y408980D01*
X81791Y409018D01*
X82014Y409036D01*
X82273D01*
X82366Y409018D01*
D02*
G37*
G36*
X28686Y406666D02*
X33963Y400000D01*
X31871D01*
X27482Y405592D01*
X26797Y404814D01*
Y400000D01*
X25186D01*
Y412054D01*
X26797D01*
Y406481D01*
X31741Y412054D01*
X33667D01*
X28686Y406666D01*
D02*
G37*
G36*
X116714Y400000D02*
X115195D01*
Y409036D01*
X116714D01*
Y400000D01*
D02*
G37*
G36*
X95938Y409240D02*
X96197Y409221D01*
X96457Y409203D01*
X96716Y409166D01*
X96957Y409110D01*
X96994D01*
X97068Y409073D01*
X97197Y409036D01*
X97345Y408980D01*
X97531Y408907D01*
X97716Y408814D01*
X97919Y408703D01*
X98123Y408573D01*
X98142Y408555D01*
X98197Y408499D01*
X98290Y408425D01*
X98401Y408314D01*
X98512Y408184D01*
X98623Y408018D01*
X98753Y407814D01*
X98845Y407610D01*
X98864Y407592D01*
X98882Y407499D01*
X98919Y407370D01*
X98975Y407203D01*
X99030Y406999D01*
X99067Y406758D01*
X99086Y406481D01*
X99104Y406166D01*
Y400000D01*
X97586D01*
Y400944D01*
X97549Y400926D01*
X97438Y400852D01*
X97290Y400722D01*
X97068Y400555D01*
X97049Y400537D01*
X97012Y400518D01*
X96957Y400463D01*
X96882Y400426D01*
X96697Y400296D01*
X96475Y400167D01*
X96457D01*
X96401Y400130D01*
X96327Y400111D01*
X96216Y400056D01*
X95975Y399963D01*
X95679Y399870D01*
X95660D01*
X95605Y399852D01*
X95531Y399833D01*
X95420Y399815D01*
X95272Y399778D01*
X95086Y399759D01*
X94883Y399741D01*
X94549D01*
X94438Y399759D01*
X94309D01*
X94142Y399796D01*
X93957Y399833D01*
X93772Y399870D01*
X93568Y399944D01*
X93549Y399963D01*
X93494Y399981D01*
X93383Y400037D01*
X93272Y400093D01*
X92994Y400278D01*
X92698Y400537D01*
X92679Y400555D01*
X92642Y400611D01*
X92568Y400685D01*
X92494Y400796D01*
X92383Y400926D01*
X92290Y401074D01*
X92198Y401259D01*
X92105Y401444D01*
Y401463D01*
X92068Y401537D01*
X92050Y401648D01*
X92013Y401796D01*
X91976Y401981D01*
X91939Y402166D01*
X91920Y402389D01*
X91902Y402611D01*
Y402629D01*
Y402648D01*
Y402759D01*
X91920Y402944D01*
X91957Y403166D01*
X91994Y403407D01*
X92068Y403666D01*
X92161Y403944D01*
X92290Y404203D01*
X92309Y404240D01*
X92364Y404314D01*
X92457Y404444D01*
X92587Y404592D01*
X92772Y404759D01*
X92994Y404925D01*
X93253Y405111D01*
X93549Y405259D01*
X93587Y405277D01*
X93679Y405314D01*
X93846Y405370D01*
X94068Y405444D01*
X94327Y405536D01*
X94623Y405611D01*
X94975Y405685D01*
X95346Y405740D01*
X95401D01*
X95457Y405759D01*
X95531D01*
X95623Y405777D01*
X95735D01*
X96012Y405814D01*
X96346Y405851D01*
X96734Y405888D01*
X97142Y405907D01*
X97586Y405944D01*
Y406222D01*
Y406240D01*
Y406314D01*
Y406407D01*
X97568Y406536D01*
X97512Y406814D01*
X97475Y406962D01*
X97420Y407092D01*
Y407110D01*
X97382Y407147D01*
X97345Y407203D01*
X97308Y407277D01*
X97160Y407444D01*
X96957Y407610D01*
X96938D01*
X96901Y407647D01*
X96846Y407666D01*
X96771Y407703D01*
X96660Y407758D01*
X96549Y407795D01*
X96253Y407851D01*
X96234D01*
X96179Y407869D01*
X96086D01*
X95994Y407888D01*
X95846Y407907D01*
X95716D01*
X95383Y407925D01*
X95179D01*
X95031Y407907D01*
X94846Y407888D01*
X94642Y407851D01*
X94401Y407814D01*
X94142Y407758D01*
X94105D01*
X94012Y407721D01*
X93883Y407684D01*
X93698Y407647D01*
X93494Y407573D01*
X93253Y407499D01*
X92716Y407295D01*
X92642D01*
Y408832D01*
X92661D01*
X92716Y408851D01*
X92809Y408888D01*
X92938Y408925D01*
X93105Y408962D01*
X93309Y408999D01*
X93549Y409055D01*
X93827Y409110D01*
X93864D01*
X93957Y409129D01*
X94123Y409166D01*
X94327Y409184D01*
X94568Y409221D01*
X94827Y409240D01*
X95401Y409258D01*
X95735D01*
X95938Y409240D01*
D02*
G37*
G36*
X70033Y412036D02*
X70422Y412017D01*
X70848Y411999D01*
X71293Y411943D01*
X71718Y411888D01*
X72107Y411795D01*
X72126D01*
X72144Y411777D01*
X72200D01*
X72274Y411740D01*
X72441Y411684D01*
X72681Y411610D01*
X72941Y411517D01*
X73218Y411388D01*
X73496Y411258D01*
X73755Y411091D01*
X73774D01*
X73811Y411054D01*
X73866Y411017D01*
X73940Y410943D01*
X74163Y410777D01*
X74422Y410536D01*
X74700Y410240D01*
X75014Y409888D01*
X75292Y409499D01*
X75551Y409036D01*
Y409018D01*
X75588Y408980D01*
X75607Y408907D01*
X75662Y408814D01*
X75700Y408684D01*
X75755Y408536D01*
X75811Y408369D01*
X75885Y408184D01*
X75940Y407981D01*
X75996Y407740D01*
X76051Y407499D01*
X76107Y407221D01*
X76181Y406647D01*
X76199Y405999D01*
Y405981D01*
Y405925D01*
Y405833D01*
X76181Y405722D01*
Y405574D01*
X76162Y405407D01*
X76144Y405222D01*
X76125Y405018D01*
X76033Y404555D01*
X75922Y404055D01*
X75755Y403537D01*
X75533Y403018D01*
Y403000D01*
X75496Y402963D01*
X75459Y402889D01*
X75403Y402796D01*
X75348Y402685D01*
X75255Y402555D01*
X75051Y402277D01*
X74811Y401944D01*
X74496Y401592D01*
X74144Y401259D01*
X73737Y400963D01*
X73718D01*
X73700Y400944D01*
X73644Y400907D01*
X73589Y400870D01*
X73403Y400759D01*
X73163Y400648D01*
X72885Y400518D01*
X72570Y400389D01*
X72237Y400278D01*
X71885Y400185D01*
X71848D01*
X71792Y400167D01*
X71718Y400148D01*
X71626D01*
X71515Y400130D01*
X71237Y400093D01*
X70885Y400056D01*
X70478Y400037D01*
X69996Y400000D01*
X66719D01*
Y412054D01*
X69867D01*
X70033Y412036D01*
D02*
G37*
G36*
X87661Y409277D02*
X87865Y409258D01*
X88087Y409240D01*
X88346Y409184D01*
X88606Y409129D01*
X88846Y409036D01*
X88883Y409018D01*
X88957Y408999D01*
X89068Y408925D01*
X89235Y408851D01*
X89402Y408740D01*
X89606Y408610D01*
X89791Y408462D01*
X89976Y408277D01*
X89994Y408258D01*
X90050Y408184D01*
X90142Y408073D01*
X90253Y407925D01*
X90383Y407740D01*
X90513Y407536D01*
X90624Y407277D01*
X90735Y407018D01*
X90753Y406981D01*
X90772Y406888D01*
X90809Y406721D01*
X90865Y406518D01*
X90920Y406240D01*
X90957Y405925D01*
X90976Y405574D01*
X90994Y405185D01*
Y404370D01*
X84717D01*
Y404351D01*
Y404296D01*
Y404222D01*
X84736Y404111D01*
Y403981D01*
X84754Y403814D01*
X84810Y403463D01*
X84902Y403074D01*
X85050Y402666D01*
X85236Y402296D01*
X85495Y401944D01*
X85513D01*
X85532Y401907D01*
X85643Y401815D01*
X85828Y401685D01*
X86069Y401537D01*
X86384Y401389D01*
X86754Y401259D01*
X87198Y401166D01*
X87439Y401148D01*
X87698Y401129D01*
X87883D01*
X88013Y401148D01*
X88161D01*
X88328Y401185D01*
X88680Y401241D01*
X88698D01*
X88772Y401259D01*
X88865Y401278D01*
X88976Y401315D01*
X89272Y401407D01*
X89568Y401518D01*
X89587D01*
X89642Y401555D01*
X89717Y401592D01*
X89809Y401629D01*
X90031Y401740D01*
X90253Y401870D01*
X90272D01*
X90309Y401907D01*
X90420Y401981D01*
X90587Y402092D01*
X90735Y402222D01*
X90828D01*
Y400555D01*
X90809D01*
X90772Y400537D01*
X90716Y400518D01*
X90642Y400481D01*
X90531Y400444D01*
X90420Y400389D01*
X90142Y400278D01*
X90124D01*
X90068Y400259D01*
X89994Y400222D01*
X89902Y400185D01*
X89679Y400111D01*
X89439Y400037D01*
X89420D01*
X89365Y400019D01*
X89272Y400000D01*
X89180Y399981D01*
X88902Y399926D01*
X88624Y399870D01*
X88606D01*
X88568Y399852D01*
X88476D01*
X88383Y399833D01*
X88254Y399815D01*
X88087D01*
X87920Y399796D01*
X87513D01*
X87365Y399815D01*
X87180Y399833D01*
X86976Y399852D01*
X86735Y399889D01*
X86495Y399944D01*
X85958Y400093D01*
X85680Y400185D01*
X85402Y400296D01*
X85124Y400444D01*
X84847Y400611D01*
X84606Y400796D01*
X84365Y401000D01*
X84347Y401018D01*
X84310Y401055D01*
X84254Y401129D01*
X84180Y401222D01*
X84087Y401352D01*
X83995Y401500D01*
X83884Y401685D01*
X83773Y401889D01*
X83662Y402129D01*
X83551Y402389D01*
X83458Y402666D01*
X83365Y402981D01*
X83291Y403315D01*
X83236Y403666D01*
X83199Y404055D01*
X83180Y404463D01*
Y404481D01*
Y404555D01*
Y404666D01*
X83199Y404833D01*
X83217Y405018D01*
X83236Y405222D01*
X83273Y405462D01*
X83328Y405722D01*
X83458Y406296D01*
X83551Y406592D01*
X83662Y406870D01*
X83791Y407166D01*
X83958Y407444D01*
X84124Y407721D01*
X84328Y407981D01*
X84347Y407999D01*
X84384Y408036D01*
X84458Y408110D01*
X84532Y408184D01*
X84662Y408277D01*
X84791Y408388D01*
X84958Y408518D01*
X85143Y408647D01*
X85347Y408758D01*
X85587Y408888D01*
X85828Y408999D01*
X86106Y409092D01*
X86384Y409166D01*
X86698Y409240D01*
X87032Y409277D01*
X87365Y409295D01*
X87513D01*
X87661Y409277D01*
D02*
G37*
G36*
X47369D02*
X47573Y409258D01*
X47795Y409240D01*
X48054Y409184D01*
X48313Y409129D01*
X48554Y409036D01*
X48591Y409018D01*
X48665Y408999D01*
X48776Y408925D01*
X48943Y408851D01*
X49110Y408740D01*
X49313Y408610D01*
X49499Y408462D01*
X49684Y408277D01*
X49702Y408258D01*
X49758Y408184D01*
X49850Y408073D01*
X49961Y407925D01*
X50091Y407740D01*
X50221Y407536D01*
X50332Y407277D01*
X50443Y407018D01*
X50461Y406981D01*
X50480Y406888D01*
X50517Y406721D01*
X50573Y406518D01*
X50628Y406240D01*
X50665Y405925D01*
X50684Y405574D01*
X50702Y405185D01*
Y404370D01*
X44425D01*
Y404351D01*
Y404296D01*
Y404222D01*
X44443Y404111D01*
Y403981D01*
X44462Y403814D01*
X44517Y403463D01*
X44610Y403074D01*
X44758Y402666D01*
X44943Y402296D01*
X45203Y401944D01*
X45221D01*
X45240Y401907D01*
X45351Y401815D01*
X45536Y401685D01*
X45777Y401537D01*
X46091Y401389D01*
X46462Y401259D01*
X46906Y401166D01*
X47147Y401148D01*
X47406Y401129D01*
X47591D01*
X47721Y401148D01*
X47869D01*
X48036Y401185D01*
X48387Y401241D01*
X48406D01*
X48480Y401259D01*
X48573Y401278D01*
X48684Y401315D01*
X48980Y401407D01*
X49276Y401518D01*
X49295D01*
X49350Y401555D01*
X49424Y401592D01*
X49517Y401629D01*
X49739Y401740D01*
X49961Y401870D01*
X49980D01*
X50017Y401907D01*
X50128Y401981D01*
X50295Y402092D01*
X50443Y402222D01*
X50535D01*
Y400555D01*
X50517D01*
X50480Y400537D01*
X50424Y400518D01*
X50350Y400481D01*
X50239Y400444D01*
X50128Y400389D01*
X49850Y400278D01*
X49832D01*
X49776Y400259D01*
X49702Y400222D01*
X49610Y400185D01*
X49387Y400111D01*
X49147Y400037D01*
X49128D01*
X49073Y400019D01*
X48980Y400000D01*
X48888Y399981D01*
X48610Y399926D01*
X48332Y399870D01*
X48313D01*
X48276Y399852D01*
X48184D01*
X48091Y399833D01*
X47962Y399815D01*
X47795D01*
X47628Y399796D01*
X47221D01*
X47073Y399815D01*
X46888Y399833D01*
X46684Y399852D01*
X46443Y399889D01*
X46203Y399944D01*
X45666Y400093D01*
X45388Y400185D01*
X45110Y400296D01*
X44832Y400444D01*
X44555Y400611D01*
X44314Y400796D01*
X44073Y401000D01*
X44055Y401018D01*
X44018Y401055D01*
X43962Y401129D01*
X43888Y401222D01*
X43795Y401352D01*
X43703Y401500D01*
X43592Y401685D01*
X43481Y401889D01*
X43369Y402129D01*
X43258Y402389D01*
X43166Y402666D01*
X43073Y402981D01*
X42999Y403315D01*
X42944Y403666D01*
X42907Y404055D01*
X42888Y404463D01*
Y404481D01*
Y404555D01*
Y404666D01*
X42907Y404833D01*
X42925Y405018D01*
X42944Y405222D01*
X42981Y405462D01*
X43036Y405722D01*
X43166Y406296D01*
X43258Y406592D01*
X43369Y406870D01*
X43499Y407166D01*
X43666Y407444D01*
X43832Y407721D01*
X44036Y407981D01*
X44055Y407999D01*
X44092Y408036D01*
X44166Y408110D01*
X44240Y408184D01*
X44369Y408277D01*
X44499Y408388D01*
X44666Y408518D01*
X44851Y408647D01*
X45054Y408758D01*
X45295Y408888D01*
X45536Y408999D01*
X45814Y409092D01*
X46091Y409166D01*
X46406Y409240D01*
X46740Y409277D01*
X47073Y409295D01*
X47221D01*
X47369Y409277D01*
D02*
G37*
G36*
X38648D02*
X38851Y409258D01*
X39074Y409240D01*
X39333Y409184D01*
X39592Y409129D01*
X39833Y409036D01*
X39870Y409018D01*
X39944Y408999D01*
X40055Y408925D01*
X40222Y408851D01*
X40388Y408740D01*
X40592Y408610D01*
X40777Y408462D01*
X40962Y408277D01*
X40981Y408258D01*
X41036Y408184D01*
X41129Y408073D01*
X41240Y407925D01*
X41370Y407740D01*
X41499Y407536D01*
X41610Y407277D01*
X41722Y407018D01*
X41740Y406981D01*
X41759Y406888D01*
X41796Y406721D01*
X41851Y406518D01*
X41907Y406240D01*
X41944Y405925D01*
X41962Y405574D01*
X41981Y405185D01*
Y404370D01*
X35704D01*
Y404351D01*
Y404296D01*
Y404222D01*
X35722Y404111D01*
Y403981D01*
X35741Y403814D01*
X35796Y403463D01*
X35889Y403074D01*
X36037Y402666D01*
X36222Y402296D01*
X36481Y401944D01*
X36500D01*
X36518Y401907D01*
X36630Y401815D01*
X36815Y401685D01*
X37055Y401537D01*
X37370Y401389D01*
X37740Y401259D01*
X38185Y401166D01*
X38426Y401148D01*
X38685Y401129D01*
X38870D01*
X39000Y401148D01*
X39148D01*
X39314Y401185D01*
X39666Y401241D01*
X39685D01*
X39759Y401259D01*
X39851Y401278D01*
X39962Y401315D01*
X40259Y401407D01*
X40555Y401518D01*
X40574D01*
X40629Y401555D01*
X40703Y401592D01*
X40796Y401629D01*
X41018Y401740D01*
X41240Y401870D01*
X41259D01*
X41296Y401907D01*
X41407Y401981D01*
X41573Y402092D01*
X41722Y402222D01*
X41814D01*
Y400555D01*
X41796D01*
X41759Y400537D01*
X41703Y400518D01*
X41629Y400481D01*
X41518Y400444D01*
X41407Y400389D01*
X41129Y400278D01*
X41111D01*
X41055Y400259D01*
X40981Y400222D01*
X40888Y400185D01*
X40666Y400111D01*
X40425Y400037D01*
X40407D01*
X40351Y400019D01*
X40259Y400000D01*
X40166Y399981D01*
X39888Y399926D01*
X39611Y399870D01*
X39592D01*
X39555Y399852D01*
X39462D01*
X39370Y399833D01*
X39240Y399815D01*
X39074D01*
X38907Y399796D01*
X38500D01*
X38352Y399815D01*
X38166Y399833D01*
X37963Y399852D01*
X37722Y399889D01*
X37481Y399944D01*
X36944Y400093D01*
X36667Y400185D01*
X36389Y400296D01*
X36111Y400444D01*
X35833Y400611D01*
X35593Y400796D01*
X35352Y401000D01*
X35333Y401018D01*
X35296Y401055D01*
X35241Y401129D01*
X35167Y401222D01*
X35074Y401352D01*
X34982Y401500D01*
X34870Y401685D01*
X34759Y401889D01*
X34648Y402129D01*
X34537Y402389D01*
X34444Y402666D01*
X34352Y402981D01*
X34278Y403315D01*
X34222Y403666D01*
X34185Y404055D01*
X34167Y404463D01*
Y404481D01*
Y404555D01*
Y404666D01*
X34185Y404833D01*
X34204Y405018D01*
X34222Y405222D01*
X34259Y405462D01*
X34315Y405722D01*
X34444Y406296D01*
X34537Y406592D01*
X34648Y406870D01*
X34778Y407166D01*
X34945Y407444D01*
X35111Y407721D01*
X35315Y407981D01*
X35333Y407999D01*
X35370Y408036D01*
X35444Y408110D01*
X35519Y408184D01*
X35648Y408277D01*
X35778Y408388D01*
X35944Y408518D01*
X36130Y408647D01*
X36333Y408758D01*
X36574Y408888D01*
X36815Y408999D01*
X37092Y409092D01*
X37370Y409166D01*
X37685Y409240D01*
X38018Y409277D01*
X38352Y409295D01*
X38500D01*
X38648Y409277D01*
D02*
G37*
G36*
X131805D02*
X131990Y409258D01*
X132194Y409221D01*
X132397Y409184D01*
X132601Y409129D01*
X132619D01*
X132694Y409092D01*
X132786Y409055D01*
X132934Y408999D01*
X133082Y408943D01*
X133268Y408851D01*
X133657Y408647D01*
X133730Y409036D01*
X135175D01*
Y401018D01*
Y401000D01*
Y400926D01*
Y400796D01*
X135156Y400648D01*
X135138Y400463D01*
X135119Y400241D01*
X135082Y400000D01*
X135045Y399741D01*
X134934Y399204D01*
X134749Y398648D01*
X134638Y398371D01*
X134490Y398111D01*
X134342Y397889D01*
X134156Y397667D01*
X134138Y397648D01*
X134101Y397611D01*
X134045Y397574D01*
X133971Y397500D01*
X133860Y397408D01*
X133730Y397315D01*
X133582Y397223D01*
X133397Y397130D01*
X133194Y397019D01*
X132971Y396926D01*
X132712Y396834D01*
X132434Y396741D01*
X132138Y396667D01*
X131805Y396630D01*
X131453Y396593D01*
X131083Y396574D01*
X130842D01*
X130657Y396593D01*
X130453D01*
X130231Y396630D01*
X129712Y396685D01*
X129675D01*
X129601Y396704D01*
X129472Y396722D01*
X129305Y396760D01*
X129101Y396815D01*
X128879Y396852D01*
X128435Y396982D01*
Y398556D01*
X128509D01*
X128546Y398537D01*
X128620Y398519D01*
X128768Y398463D01*
X128953Y398389D01*
X128972D01*
X129009Y398371D01*
X129064Y398352D01*
X129157Y398315D01*
X129379Y398259D01*
X129638Y398185D01*
X129657D01*
X129712Y398167D01*
X129787Y398148D01*
X129898Y398130D01*
X130138Y398074D01*
X130416Y398019D01*
X130435D01*
X130490Y398000D01*
X130564D01*
X130657Y397982D01*
X130768Y397963D01*
X130916D01*
X131212Y397945D01*
X131323D01*
X131453Y397963D01*
X131620D01*
X131805Y398000D01*
X132008Y398037D01*
X132212Y398074D01*
X132397Y398148D01*
X132416D01*
X132471Y398185D01*
X132564Y398222D01*
X132675Y398278D01*
X132934Y398445D01*
X133064Y398537D01*
X133175Y398648D01*
X133194Y398667D01*
X133212Y398704D01*
X133268Y398778D01*
X133323Y398871D01*
X133379Y398982D01*
X133434Y399111D01*
X133545Y399426D01*
Y399445D01*
X133564Y399500D01*
X133582Y399593D01*
X133601Y399704D01*
X133619Y399852D01*
X133638Y400019D01*
X133657Y400389D01*
Y401185D01*
X133638Y401166D01*
X133545Y401092D01*
X133434Y401000D01*
X133268Y400889D01*
X133082Y400759D01*
X132879Y400630D01*
X132657Y400500D01*
X132434Y400389D01*
X132416Y400370D01*
X132323Y400352D01*
X132194Y400315D01*
X132027Y400278D01*
X131805Y400222D01*
X131564Y400185D01*
X131268Y400167D01*
X130953Y400148D01*
X130805D01*
X130694Y400167D01*
X130564Y400185D01*
X130416Y400204D01*
X130064Y400296D01*
X129657Y400426D01*
X129453Y400518D01*
X129249Y400630D01*
X129046Y400759D01*
X128842Y400926D01*
X128657Y401092D01*
X128472Y401296D01*
X128453Y401315D01*
X128435Y401352D01*
X128398Y401426D01*
X128324Y401518D01*
X128268Y401629D01*
X128194Y401778D01*
X128102Y401944D01*
X128027Y402148D01*
X127935Y402352D01*
X127861Y402611D01*
X127768Y402870D01*
X127713Y403166D01*
X127657Y403500D01*
X127601Y403833D01*
X127583Y404203D01*
X127564Y404592D01*
Y404611D01*
Y404648D01*
Y404703D01*
Y404777D01*
X127583Y405000D01*
X127601Y405259D01*
X127639Y405574D01*
X127694Y405907D01*
X127768Y406259D01*
X127879Y406592D01*
Y406610D01*
X127898Y406629D01*
X127935Y406740D01*
X128009Y406907D01*
X128102Y407110D01*
X128231Y407333D01*
X128379Y407592D01*
X128546Y407832D01*
X128731Y408073D01*
X128750Y408092D01*
X128824Y408166D01*
X128935Y408277D01*
X129064Y408406D01*
X129249Y408536D01*
X129453Y408684D01*
X129675Y408832D01*
X129935Y408962D01*
X129972Y408980D01*
X130064Y409018D01*
X130194Y409073D01*
X130379Y409129D01*
X130601Y409184D01*
X130842Y409240D01*
X131101Y409277D01*
X131379Y409295D01*
X131638D01*
X131805Y409277D01*
D02*
G37*
%LPC*%
G36*
X57914Y586200D02*
X57770Y586015D01*
X57822D01*
X57914Y586200D01*
D02*
G37*
G36*
X107169Y581663D02*
X107076Y581571D01*
X106798Y581386D01*
X106706Y581293D01*
X106428Y581200D01*
Y581108D01*
Y580830D01*
Y580275D01*
Y579627D01*
Y579441D01*
Y579071D01*
Y578608D01*
Y578053D01*
X106520D01*
X106798Y578238D01*
X107169Y578423D01*
X107631Y578793D01*
X107724Y578886D01*
X108094Y579071D01*
X108465Y579256D01*
X108927Y579441D01*
X108835Y579534D01*
X108650Y579719D01*
X108465Y580089D01*
X108094Y580552D01*
X108002Y580645D01*
X107816Y580923D01*
X107169Y581663D01*
D02*
G37*
G36*
X67358D02*
X67265Y581571D01*
X66987Y581386D01*
X66895Y581293D01*
X66617Y581200D01*
Y581108D01*
Y580830D01*
Y580275D01*
Y579627D01*
Y579441D01*
Y579071D01*
Y578608D01*
Y578053D01*
X66710D01*
X66895Y578238D01*
X67265Y578423D01*
X67728Y578793D01*
X67913Y578886D01*
X68191Y579071D01*
X68654Y579256D01*
X69024Y579441D01*
X68932Y579534D01*
X68747Y579719D01*
X68561Y580089D01*
X68191Y580552D01*
X68098Y580645D01*
X67913Y580923D01*
X67635Y581293D01*
X67358Y581663D01*
D02*
G37*
G36*
X85226D02*
X85134D01*
X85041Y581571D01*
X84763Y581478D01*
X84393Y581386D01*
X84300D01*
X84115Y581293D01*
X83652Y581108D01*
Y581015D01*
Y580923D01*
Y580645D01*
Y580367D01*
Y579441D01*
Y578238D01*
Y578145D01*
Y577960D01*
Y577590D01*
Y577219D01*
Y576293D01*
Y575368D01*
X83838Y575275D01*
X84208Y575090D01*
X84300D01*
X84393Y574997D01*
X84763Y574812D01*
X85319D01*
X85504Y574905D01*
X86060Y575090D01*
X86152D01*
X86430Y575182D01*
X86708Y575275D01*
X86985Y575368D01*
Y575460D01*
Y575553D01*
Y576108D01*
Y576849D01*
Y577960D01*
Y578053D01*
Y578238D01*
Y578516D01*
Y578886D01*
Y579719D01*
Y580552D01*
X86893Y580645D01*
X86430Y580737D01*
X86337D01*
X86152Y580830D01*
X85967Y580923D01*
X85782Y581015D01*
X85689Y581108D01*
X85504Y581293D01*
X85412Y581386D01*
X85226Y581663D01*
D02*
G37*
G36*
X56368Y407851D02*
X56053D01*
X55924Y407832D01*
X55757Y407814D01*
X55553Y407777D01*
X55350Y407721D01*
X55109Y407647D01*
X54887Y407555D01*
X54868Y407536D01*
X54794Y407499D01*
X54665Y407444D01*
X54517Y407351D01*
X54350Y407240D01*
X54165Y407110D01*
X53757Y406814D01*
Y401685D01*
X53776Y401666D01*
X53850Y401629D01*
X53961Y401592D01*
X54109Y401518D01*
X54276Y401463D01*
X54442Y401389D01*
X54776Y401278D01*
X54794D01*
X54850Y401259D01*
X54942Y401241D01*
X55054D01*
X55202Y401222D01*
X55368Y401204D01*
X55553Y401185D01*
X55868D01*
X55961Y401204D01*
X56164Y401222D01*
X56442Y401296D01*
X56739Y401389D01*
X57035Y401537D01*
X57331Y401759D01*
X57479Y401889D01*
X57609Y402037D01*
Y402055D01*
X57646Y402074D01*
X57664Y402129D01*
X57720Y402203D01*
X57757Y402296D01*
X57812Y402407D01*
X57887Y402537D01*
X57942Y402685D01*
X57998Y402851D01*
X58072Y403037D01*
X58127Y403240D01*
X58164Y403481D01*
X58220Y403722D01*
X58238Y403981D01*
X58275Y404277D01*
Y404574D01*
Y404592D01*
Y404648D01*
Y404722D01*
Y404833D01*
X58257Y404962D01*
Y405111D01*
X58220Y405462D01*
X58146Y405851D01*
X58072Y406240D01*
X57942Y406629D01*
X57775Y406981D01*
Y406999D01*
X57757Y407018D01*
X57683Y407110D01*
X57553Y407258D01*
X57387Y407425D01*
X57164Y407573D01*
X56887Y407721D01*
X56553Y407814D01*
X56368Y407851D01*
D02*
G37*
G36*
X97586Y404722D02*
X97568D01*
X97493Y404703D01*
X97364D01*
X97197Y404685D01*
X97012Y404666D01*
X96771Y404629D01*
X96494Y404611D01*
X96197Y404574D01*
X96160D01*
X96068Y404555D01*
X95920Y404537D01*
X95735Y404518D01*
X95512Y404481D01*
X95290Y404444D01*
X95068Y404388D01*
X94864Y404333D01*
X94846D01*
X94772Y404296D01*
X94642Y404259D01*
X94512Y404185D01*
X94346Y404111D01*
X94179Y404018D01*
X94012Y403889D01*
X93864Y403759D01*
X93846Y403740D01*
X93809Y403685D01*
X93735Y403611D01*
X93679Y403481D01*
X93605Y403333D01*
X93531Y403166D01*
X93494Y402944D01*
X93475Y402703D01*
Y402666D01*
Y402574D01*
X93494Y402444D01*
X93531Y402259D01*
X93587Y402074D01*
X93661Y401889D01*
X93753Y401703D01*
X93901Y401537D01*
X93920Y401518D01*
X93975Y401481D01*
X94087Y401407D01*
X94235Y401352D01*
X94401Y401278D01*
X94623Y401204D01*
X94883Y401166D01*
X95179Y401148D01*
X95309D01*
X95438Y401166D01*
X95605Y401185D01*
X95808Y401222D01*
X96031Y401278D01*
X96253Y401352D01*
X96475Y401444D01*
X96494Y401463D01*
X96568Y401500D01*
X96697Y401574D01*
X96846Y401666D01*
X97012Y401778D01*
X97197Y401907D01*
X97586Y402203D01*
Y404722D01*
D02*
G37*
G36*
X69922Y410666D02*
X68330D01*
Y401389D01*
X69719D01*
X69922Y401407D01*
X70163D01*
X70459Y401426D01*
X70774Y401463D01*
X71089Y401500D01*
X71404Y401555D01*
X71441D01*
X71533Y401592D01*
X71681Y401629D01*
X71885Y401703D01*
X72107Y401778D01*
X72348Y401889D01*
X72607Y402018D01*
X72848Y402185D01*
X72867D01*
X72885Y402203D01*
X72978Y402296D01*
X73126Y402407D01*
X73311Y402574D01*
X73514Y402796D01*
X73737Y403055D01*
X73940Y403352D01*
X74107Y403685D01*
Y403703D01*
X74126Y403722D01*
X74144Y403777D01*
X74181Y403851D01*
X74200Y403944D01*
X74237Y404055D01*
X74329Y404333D01*
X74403Y404666D01*
X74459Y405074D01*
X74514Y405536D01*
X74533Y406036D01*
Y406055D01*
Y406092D01*
Y406166D01*
Y406277D01*
X74514Y406388D01*
Y406536D01*
X74477Y406851D01*
X74422Y407221D01*
X74329Y407629D01*
X74218Y408018D01*
X74070Y408406D01*
Y408425D01*
X74051Y408444D01*
X74015Y408499D01*
X73977Y408573D01*
X73885Y408740D01*
X73718Y408962D01*
X73533Y409203D01*
X73292Y409462D01*
X73015Y409703D01*
X72700Y409925D01*
X72663Y409943D01*
X72589Y409980D01*
X72459Y410055D01*
X72292Y410147D01*
X72089Y410240D01*
X71867Y410332D01*
X71607Y410406D01*
X71348Y410480D01*
X71311D01*
X71219Y410517D01*
X71070Y410536D01*
X70848Y410573D01*
X70589Y410610D01*
X70274Y410629D01*
X69922Y410666D01*
D02*
G37*
G36*
X87495Y408036D02*
X87050D01*
X86921Y408018D01*
X86754Y407999D01*
X86569Y407962D01*
X86235Y407851D01*
X86217D01*
X86161Y407814D01*
X86087Y407777D01*
X85976Y407721D01*
X85736Y407555D01*
X85458Y407314D01*
X85439Y407295D01*
X85402Y407258D01*
X85328Y407184D01*
X85254Y407092D01*
X85180Y406962D01*
X85087Y406833D01*
X84921Y406518D01*
Y406499D01*
X84902Y406444D01*
X84865Y406351D01*
X84828Y406240D01*
X84791Y406092D01*
X84773Y405925D01*
X84736Y405740D01*
X84717Y405536D01*
X89513D01*
Y405555D01*
Y405648D01*
X89494Y405759D01*
Y405907D01*
X89476Y406055D01*
X89439Y406240D01*
X89365Y406592D01*
Y406610D01*
X89346Y406666D01*
X89309Y406740D01*
X89272Y406851D01*
X89143Y407092D01*
X88976Y407333D01*
X88957Y407351D01*
X88920Y407388D01*
X88865Y407444D01*
X88791Y407518D01*
X88698Y407610D01*
X88587Y407684D01*
X88291Y407851D01*
X88272D01*
X88217Y407888D01*
X88124Y407907D01*
X88013Y407944D01*
X87865Y407981D01*
X87698Y407999D01*
X87495Y408036D01*
D02*
G37*
G36*
X47202D02*
X46758D01*
X46628Y408018D01*
X46462Y407999D01*
X46277Y407962D01*
X45943Y407851D01*
X45925D01*
X45869Y407814D01*
X45795Y407777D01*
X45684Y407721D01*
X45443Y407555D01*
X45166Y407314D01*
X45147Y407295D01*
X45110Y407258D01*
X45036Y407184D01*
X44962Y407092D01*
X44888Y406962D01*
X44795Y406833D01*
X44629Y406518D01*
Y406499D01*
X44610Y406444D01*
X44573Y406351D01*
X44536Y406240D01*
X44499Y406092D01*
X44481Y405925D01*
X44443Y405740D01*
X44425Y405536D01*
X49221D01*
Y405555D01*
Y405648D01*
X49202Y405759D01*
Y405907D01*
X49184Y406055D01*
X49147Y406240D01*
X49073Y406592D01*
Y406610D01*
X49054Y406666D01*
X49017Y406740D01*
X48980Y406851D01*
X48850Y407092D01*
X48684Y407333D01*
X48665Y407351D01*
X48628Y407388D01*
X48573Y407444D01*
X48499Y407518D01*
X48406Y407610D01*
X48295Y407684D01*
X47999Y407851D01*
X47980D01*
X47925Y407888D01*
X47832Y407907D01*
X47721Y407944D01*
X47573Y407981D01*
X47406Y407999D01*
X47202Y408036D01*
D02*
G37*
G36*
X38481D02*
X38037D01*
X37907Y408018D01*
X37740Y407999D01*
X37555Y407962D01*
X37222Y407851D01*
X37204D01*
X37148Y407814D01*
X37074Y407777D01*
X36963Y407721D01*
X36722Y407555D01*
X36444Y407314D01*
X36426Y407295D01*
X36389Y407258D01*
X36315Y407184D01*
X36241Y407092D01*
X36167Y406962D01*
X36074Y406833D01*
X35907Y406518D01*
Y406499D01*
X35889Y406444D01*
X35852Y406351D01*
X35815Y406240D01*
X35778Y406092D01*
X35759Y405925D01*
X35722Y405740D01*
X35704Y405536D01*
X40499D01*
Y405555D01*
Y405648D01*
X40481Y405759D01*
Y405907D01*
X40462Y406055D01*
X40425Y406240D01*
X40351Y406592D01*
Y406610D01*
X40333Y406666D01*
X40296Y406740D01*
X40259Y406851D01*
X40129Y407092D01*
X39962Y407333D01*
X39944Y407351D01*
X39907Y407388D01*
X39851Y407444D01*
X39777Y407518D01*
X39685Y407610D01*
X39574Y407684D01*
X39277Y407851D01*
X39259D01*
X39203Y407888D01*
X39111Y407907D01*
X39000Y407944D01*
X38851Y407981D01*
X38685Y407999D01*
X38481Y408036D01*
D02*
G37*
G36*
X131620Y407925D02*
X131509D01*
X131434Y407907D01*
X131231Y407888D01*
X130971Y407814D01*
X130675Y407721D01*
X130379Y407573D01*
X130083Y407351D01*
X129935Y407221D01*
X129805Y407073D01*
Y407055D01*
X129768Y407036D01*
X129749Y406981D01*
X129694Y406925D01*
X129657Y406833D01*
X129601Y406721D01*
X129527Y406592D01*
X129472Y406444D01*
X129416Y406277D01*
X129342Y406110D01*
X129249Y405685D01*
X129175Y405185D01*
X129138Y404629D01*
Y404611D01*
Y404555D01*
Y404481D01*
Y404388D01*
X129157Y404259D01*
Y404111D01*
X129194Y403777D01*
X129268Y403407D01*
X129342Y403018D01*
X129472Y402648D01*
X129638Y402333D01*
X129657Y402296D01*
X129731Y402203D01*
X129860Y402092D01*
X130027Y401944D01*
X130268Y401796D01*
X130546Y401685D01*
X130879Y401592D01*
X131286Y401555D01*
X131397D01*
X131509Y401574D01*
X131657Y401592D01*
X131842Y401611D01*
X132045Y401648D01*
X132268Y401703D01*
X132508Y401778D01*
X132545Y401796D01*
X132619Y401815D01*
X132731Y401870D01*
X132897Y401944D01*
X133064Y402055D01*
X133268Y402166D01*
X133453Y402296D01*
X133657Y402444D01*
Y407407D01*
X133638Y407425D01*
X133564Y407444D01*
X133453Y407499D01*
X133305Y407555D01*
X133138Y407629D01*
X132953Y407684D01*
X132583Y407795D01*
X132564D01*
X132508Y407814D01*
X132397Y407832D01*
X132286Y407869D01*
X132138Y407888D01*
X131971Y407907D01*
X131620Y407925D01*
D02*
G37*
%LPD*%
D10*
X582267Y48272D02*
X580363Y50176D01*
X576554D01*
X574650Y48272D01*
Y40654D01*
X576554Y38750D01*
X580363D01*
X582267Y40654D01*
Y44463D01*
X578459D01*
X586076Y38750D02*
Y50176D01*
X593694Y38750D01*
Y50176D01*
X597503D02*
Y38750D01*
X603216D01*
X605120Y40654D01*
Y48272D01*
X603216Y50176D01*
X597503D01*
X322267Y48272D02*
X320363Y50176D01*
X316554D01*
X314650Y48272D01*
Y40654D01*
X316554Y38750D01*
X320363D01*
X322267Y40654D01*
Y44463D01*
X318459D01*
X326076Y38750D02*
Y50176D01*
X333694Y38750D01*
Y50176D01*
X337503D02*
Y38750D01*
X343216D01*
X345120Y40654D01*
Y48272D01*
X343216Y50176D01*
X337503D01*
X660908Y556348D02*
X664717D01*
X662812D01*
Y567774D01*
X660908Y565870D01*
X678047Y556348D02*
X670430D01*
X678047Y563965D01*
Y565870D01*
X676143Y567774D01*
X672334D01*
X670430Y565870D01*
X681856Y563965D02*
X685665Y556348D01*
X689474Y563965D01*
X665223Y346794D02*
X657606D01*
Y341081D01*
X661415Y342985D01*
X663319D01*
X665223Y341081D01*
Y337272D01*
X663319Y335368D01*
X659510D01*
X657606Y337272D01*
X669032Y342985D02*
X672841Y335368D01*
X676650Y342985D01*
X652780Y285708D02*
X654684Y287612D01*
X658493D01*
X660397Y285708D01*
Y283804D01*
X658493Y281899D01*
X656589D01*
X658493D01*
X660397Y279995D01*
Y278090D01*
X658493Y276186D01*
X654684D01*
X652780Y278090D01*
X664206Y276186D02*
Y278090D01*
X666111D01*
Y276186D01*
X664206D01*
X673728Y285708D02*
X675633Y287612D01*
X679441D01*
X681346Y285708D01*
Y283804D01*
X679441Y281899D01*
X677537D01*
X679441D01*
X681346Y279995D01*
Y278090D01*
X679441Y276186D01*
X675633D01*
X673728Y278090D01*
X685155Y283804D02*
X688963Y276186D01*
X692772Y283804D01*
X854078Y42765D02*
X852174Y40861D01*
Y37052D01*
X854078Y35147D01*
X861696D01*
X863600Y37052D01*
Y40861D01*
X861696Y42765D01*
X852174Y46574D02*
X863600D01*
Y52287D01*
X861696Y54191D01*
X854078D01*
X852174Y52287D01*
Y46574D01*
X865504Y58000D02*
Y65617D01*
X854078Y77044D02*
X852174Y75139D01*
Y71331D01*
X854078Y69426D01*
X861696D01*
X863600Y71331D01*
Y75139D01*
X861696Y77044D01*
X852174Y80853D02*
X863600D01*
Y88470D01*
X852174Y92279D02*
X863600D01*
X859791D01*
X852174Y99896D01*
X857887Y94183D01*
X863600Y99896D01*
X826774Y58000D02*
X838200D01*
Y65617D01*
Y69426D02*
X826774D01*
Y75139D01*
X828678Y77044D01*
X832487D01*
X834391Y75139D01*
Y69426D01*
Y73235D02*
X838200Y77044D01*
X828678Y88470D02*
X826774Y86566D01*
Y82757D01*
X828678Y80853D01*
X836296D01*
X838200Y82757D01*
Y86566D01*
X836296Y88470D01*
X826774Y92279D02*
X838200D01*
X834391D01*
X826774Y99896D01*
X832487Y94183D01*
X838200Y99896D01*
X803278Y67522D02*
X801374Y65617D01*
Y61809D01*
X803278Y59904D01*
X810896D01*
X812800Y61809D01*
Y65617D01*
X810896Y67522D01*
X803278Y78948D02*
X801374Y77044D01*
Y73235D01*
X803278Y71331D01*
X805182D01*
X807087Y73235D01*
Y77044D01*
X808991Y78948D01*
X810896D01*
X812800Y77044D01*
Y73235D01*
X810896Y71331D01*
X812800Y82757D02*
Y86566D01*
Y84661D01*
X801374D01*
X803278Y82757D01*
X812800Y92279D02*
X805182D01*
Y97992D01*
X807087Y99896D01*
X812800D01*
X787400Y80853D02*
X779782D01*
X775974Y84661D01*
X779782Y88470D01*
X787400D01*
X781687D01*
Y80853D01*
X787400Y99896D02*
Y92279D01*
X779782Y99896D01*
X777878D01*
X775974Y97992D01*
Y94183D01*
X777878Y92279D01*
X762000Y84661D02*
X754382D01*
X750574Y88470D01*
X754382Y92279D01*
X762000D01*
X756287D01*
Y84661D01*
X762000Y96088D02*
Y99896D01*
Y97992D01*
X750574D01*
X752478Y96088D01*
X725174Y48478D02*
Y52287D01*
Y50382D01*
X736600D01*
Y48478D01*
Y52287D01*
Y58000D02*
X725174D01*
X736600Y65617D01*
X725174D01*
Y69426D02*
Y77044D01*
Y73235D01*
X736600D01*
Y80853D02*
X725174D01*
Y86566D01*
X727078Y88470D01*
X730887D01*
X732791Y86566D01*
Y80853D01*
Y84661D02*
X736600Y88470D01*
X734696Y99896D02*
X727078D01*
X725174Y97992D01*
Y94183D01*
X727078Y92279D01*
X734696D01*
X736600Y94183D01*
Y97992D01*
X732791Y96088D02*
X736600Y99896D01*
Y97992D02*
X734696Y99896D01*
X699774Y48478D02*
Y52287D01*
Y50382D01*
X711200D01*
Y48478D01*
Y52287D01*
X699774Y63713D02*
Y59904D01*
X701678Y58000D01*
X709296D01*
X711200Y59904D01*
Y63713D01*
X709296Y65617D01*
X701678D01*
X699774Y63713D01*
X711200Y69426D02*
X699774D01*
Y75139D01*
X701678Y77044D01*
X705487D01*
X707391Y75139D01*
Y69426D01*
Y73235D02*
X711200Y77044D01*
X699774Y80853D02*
X711200D01*
Y86566D01*
X709296Y88470D01*
X701678D01*
X699774Y86566D01*
Y80853D01*
Y92279D02*
X701678D01*
X705487Y96088D01*
X701678Y99896D01*
X699774D01*
X705487Y96088D02*
X711200D01*
X674374Y69426D02*
X685800D01*
X681991Y73235D01*
X685800Y77044D01*
X674374D01*
X685800Y80853D02*
X674374D01*
Y86566D01*
X676278Y88470D01*
X680087D01*
X681991Y86566D01*
Y80853D01*
Y84661D02*
X685800Y88470D01*
Y92279D02*
X678183D01*
Y97992D01*
X680087Y99896D01*
X685800D01*
X648974Y71331D02*
X660400D01*
Y77044D01*
X658496Y78948D01*
X650878D01*
X648974Y77044D01*
Y71331D01*
X660400Y82757D02*
Y86566D01*
Y84661D01*
X648974D01*
X650878Y82757D01*
X648974Y99896D02*
Y92279D01*
X654687D01*
X652783Y96088D01*
Y97992D01*
X654687Y99896D01*
X658496D01*
X660400Y97992D01*
Y94183D01*
X658496Y92279D01*
X623574Y80853D02*
X635000D01*
Y86566D01*
X633096Y88470D01*
X625478D01*
X623574Y86566D01*
Y80853D01*
X625478Y92279D02*
X623574Y94183D01*
Y97992D01*
X625478Y99896D01*
X633096D01*
X635000Y97992D01*
Y94183D01*
X633096Y92279D01*
X625478D01*
X598174Y71331D02*
X609600D01*
Y77044D01*
X607696Y78948D01*
X600078D01*
X598174Y77044D01*
Y71331D01*
X609600Y82757D02*
Y86566D01*
Y84661D01*
X598174D01*
X600078Y82757D01*
Y92279D02*
X598174Y94183D01*
Y97992D01*
X600078Y99896D01*
X601982D01*
X603887Y97992D01*
Y96088D01*
Y97992D01*
X605791Y99896D01*
X607696D01*
X609600Y97992D01*
Y94183D01*
X607696Y92279D01*
X572774Y80853D02*
X584200D01*
Y86566D01*
X582296Y88470D01*
X574678D01*
X572774Y86566D01*
Y80853D01*
X584200Y99896D02*
Y92279D01*
X576582Y99896D01*
X574678D01*
X572774Y97992D01*
Y94183D01*
X574678Y92279D01*
X547374Y75139D02*
X558800D01*
Y80853D01*
X556896Y82757D01*
X549278D01*
X547374Y80853D01*
Y75139D01*
X558800Y86566D02*
Y90375D01*
Y88470D01*
X547374D01*
X549278Y86566D01*
X558800Y96088D02*
Y99896D01*
Y97992D01*
X547374D01*
X549278Y96088D01*
X521974Y80853D02*
X533400D01*
Y86566D01*
X531496Y88470D01*
X523878D01*
X521974Y86566D01*
Y80853D01*
X533400Y97992D02*
X521974D01*
X527687Y92279D01*
Y99896D01*
X496574Y80853D02*
X508000D01*
Y86566D01*
X506096Y88470D01*
X498478D01*
X496574Y86566D01*
Y80853D01*
X506096Y92279D02*
X508000Y94183D01*
Y97992D01*
X506096Y99896D01*
X498478D01*
X496574Y97992D01*
Y94183D01*
X498478Y92279D01*
X500382D01*
X502287Y94183D01*
Y99896D01*
X471174Y80853D02*
X482600D01*
Y86566D01*
X480696Y88470D01*
X473078D01*
X471174Y86566D01*
Y80853D01*
Y99896D02*
X473078Y96088D01*
X476887Y92279D01*
X480696D01*
X482600Y94183D01*
Y97992D01*
X480696Y99896D01*
X478791D01*
X476887Y97992D01*
Y92279D01*
X445774Y58000D02*
X457200D01*
Y63713D01*
X455296Y65617D01*
X447678D01*
X445774Y63713D01*
Y58000D01*
Y75139D02*
Y71331D01*
X447678Y69426D01*
X455296D01*
X457200Y71331D01*
Y75139D01*
X455296Y77044D01*
X447678D01*
X445774Y75139D01*
Y86566D02*
Y82757D01*
X447678Y80853D01*
X455296D01*
X457200Y82757D01*
Y86566D01*
X455296Y88470D01*
X447678D01*
X445774Y86566D01*
X457200Y92279D02*
X445774D01*
Y97992D01*
X447678Y99896D01*
X451487D01*
X453391Y97992D01*
Y92279D01*
Y96088D02*
X457200Y99896D01*
X422278Y54191D02*
X420374Y52287D01*
Y48478D01*
X422278Y46574D01*
X429896D01*
X431800Y48478D01*
Y52287D01*
X429896Y54191D01*
X426087D01*
Y50382D01*
X433704Y58000D02*
Y65617D01*
X431800Y69426D02*
X420374D01*
Y75139D01*
X422278Y77044D01*
X426087D01*
X427991Y75139D01*
Y69426D01*
Y73235D02*
X431800Y77044D01*
X422278Y88470D02*
X420374Y86566D01*
Y82757D01*
X422278Y80853D01*
X424183D01*
X426087Y82757D01*
Y86566D01*
X427991Y88470D01*
X429896D01*
X431800Y86566D01*
Y82757D01*
X429896Y80853D01*
X420374Y92279D02*
Y99896D01*
Y96088D01*
X431800D01*
X394974Y80853D02*
X406400D01*
Y86566D01*
X404496Y88470D01*
X396878D01*
X394974Y86566D01*
Y80853D01*
Y92279D02*
Y99896D01*
X396878D01*
X404496Y92279D01*
X406400D01*
X369574Y80853D02*
X381000D01*
Y86566D01*
X379096Y88470D01*
X371478D01*
X369574Y86566D01*
Y80853D01*
X371478Y92279D02*
X369574Y94183D01*
Y97992D01*
X371478Y99896D01*
X373382D01*
X375287Y97992D01*
X377191Y99896D01*
X379096D01*
X381000Y97992D01*
Y94183D01*
X379096Y92279D01*
X377191D01*
X375287Y94183D01*
X373382Y92279D01*
X371478D01*
X375287Y94183D02*
Y97992D01*
X344174Y80853D02*
X355600D01*
Y86566D01*
X353696Y88470D01*
X346078D01*
X344174Y86566D01*
Y80853D01*
Y99896D02*
Y92279D01*
X349887D01*
X347982Y96088D01*
Y97992D01*
X349887Y99896D01*
X353696D01*
X355600Y97992D01*
Y94183D01*
X353696Y92279D01*
X318774Y71331D02*
X330200D01*
Y77044D01*
X328296Y78948D01*
X320678D01*
X318774Y77044D01*
Y71331D01*
X330200Y82757D02*
Y86566D01*
Y84661D01*
X318774D01*
X320678Y82757D01*
Y92279D02*
X318774Y94183D01*
Y97992D01*
X320678Y99896D01*
X328296D01*
X330200Y97992D01*
Y94183D01*
X328296Y92279D01*
X320678D01*
X293374Y80853D02*
X304800D01*
Y86566D01*
X302896Y88470D01*
X295278D01*
X293374Y86566D01*
Y80853D01*
X295278Y92279D02*
X293374Y94183D01*
Y97992D01*
X295278Y99896D01*
X297183D01*
X299087Y97992D01*
Y96088D01*
Y97992D01*
X300991Y99896D01*
X302896D01*
X304800Y97992D01*
Y94183D01*
X302896Y92279D01*
X267974Y71331D02*
X279400D01*
Y77044D01*
X277496Y78948D01*
X269878D01*
X267974Y77044D01*
Y71331D01*
X279400Y82757D02*
Y86566D01*
Y84661D01*
X267974D01*
X269878Y82757D01*
X279400Y99896D02*
Y92279D01*
X271782Y99896D01*
X269878D01*
X267974Y97992D01*
Y94183D01*
X269878Y92279D01*
X242574Y84661D02*
X254000D01*
Y90374D01*
X252096Y92279D01*
X244478D01*
X242574Y90374D01*
Y84661D01*
X254000Y96088D02*
Y99896D01*
Y97992D01*
X242574D01*
X244478Y96088D01*
X217174Y71331D02*
X228600D01*
Y77044D01*
X226696Y78948D01*
X219078D01*
X217174Y77044D01*
Y71331D01*
X228600Y82757D02*
Y86566D01*
Y84661D01*
X217174D01*
X219078Y82757D01*
X228600Y97992D02*
X217174D01*
X222887Y92279D01*
Y99896D01*
X191774Y46574D02*
X203200D01*
Y52287D01*
X201296Y54191D01*
X193678D01*
X191774Y52287D01*
Y46574D01*
X203200Y58000D02*
X191774D01*
X195583Y61809D01*
X191774Y65617D01*
X203200D01*
Y69426D02*
X195583D01*
X191774Y73235D01*
X195583Y77044D01*
X203200D01*
X197487D01*
Y69426D01*
X203200Y80853D02*
X191774D01*
Y86566D01*
X193678Y88470D01*
X197487D01*
X199391Y86566D01*
Y80853D01*
Y84661D02*
X203200Y88470D01*
X201296Y99896D02*
X193678D01*
X191774Y97992D01*
Y94183D01*
X193678Y92279D01*
X201296D01*
X203200Y94183D01*
Y97992D01*
X199391Y96088D02*
X203200Y99896D01*
Y97992D02*
X201296Y99896D01*
X177800Y69426D02*
X166374D01*
Y75139D01*
X168278Y77044D01*
X172087D01*
X173991Y75139D01*
Y69426D01*
Y73235D02*
X177800Y77044D01*
X166374Y80853D02*
X177800D01*
Y86566D01*
X175896Y88470D01*
X168278D01*
X166374Y86566D01*
Y80853D01*
X177800Y92279D02*
X170182D01*
Y97992D01*
X172087Y99896D01*
X177800D01*
X140974Y35147D02*
X152400D01*
Y40861D01*
X150496Y42765D01*
X142878D01*
X140974Y40861D01*
Y35147D01*
X152400Y46574D02*
X140974D01*
X144782Y50382D01*
X140974Y54191D01*
X152400D01*
Y58000D02*
X144782D01*
X140974Y61809D01*
X144782Y65617D01*
X152400D01*
X146687D01*
Y58000D01*
X142878Y77044D02*
X140974Y75139D01*
Y71331D01*
X142878Y69426D01*
X150496D01*
X152400Y71331D01*
Y75139D01*
X150496Y77044D01*
X140974Y80853D02*
X152400D01*
X148591D01*
X140974Y88470D01*
X146687Y82757D01*
X152400Y88470D01*
Y92279D02*
X144782D01*
Y97992D01*
X146687Y99896D01*
X152400D01*
X115574Y65617D02*
Y58000D01*
X127000D01*
Y65617D01*
X121287Y58000D02*
Y61809D01*
X127000Y69426D02*
X115574D01*
X119382Y73235D01*
X115574Y77044D01*
X127000D01*
Y80853D02*
X115574D01*
Y86566D01*
X117478Y88470D01*
X121287D01*
X123191Y86566D01*
Y80853D01*
X115574Y92279D02*
X127000D01*
X121287D01*
Y99896D01*
X115574D01*
X127000D01*
X101600Y80853D02*
X93982D01*
X90174Y84661D01*
X93982Y88470D01*
X101600D01*
X95887D01*
Y80853D01*
X92078Y92279D02*
X90174Y94183D01*
Y97992D01*
X92078Y99896D01*
X99696D01*
X101600Y97992D01*
Y94183D01*
X99696Y92279D01*
X92078D01*
X66678Y65617D02*
X64774Y63713D01*
Y59904D01*
X66678Y58000D01*
X74296D01*
X76200Y59904D01*
Y63713D01*
X74296Y65617D01*
X66678Y77044D02*
X64774Y75139D01*
Y71331D01*
X66678Y69426D01*
X68583D01*
X70487Y71331D01*
Y75139D01*
X72391Y77044D01*
X74296D01*
X76200Y75139D01*
Y71331D01*
X74296Y69426D01*
X66678Y80853D02*
X64774Y82757D01*
Y86566D01*
X66678Y88470D01*
X74296D01*
X76200Y86566D01*
Y82757D01*
X74296Y80853D01*
X66678D01*
X76200Y92279D02*
X68583D01*
Y97992D01*
X70487Y99896D01*
X76200D01*
X41278Y77044D02*
X39374Y75139D01*
Y71331D01*
X41278Y69426D01*
X43183D01*
X45087Y71331D01*
Y75139D01*
X46991Y77044D01*
X48896D01*
X50800Y75139D01*
Y71331D01*
X48896Y69426D01*
X41278Y88470D02*
X39374Y86566D01*
Y82757D01*
X41278Y80853D01*
X48896D01*
X50800Y82757D01*
Y86566D01*
X48896Y88470D01*
X39374Y92279D02*
X50800D01*
X46991D01*
X39374Y99896D01*
X45087Y94183D01*
X50800Y99896D01*
X15878Y65617D02*
X13974Y63713D01*
Y59904D01*
X15878Y58000D01*
X17782D01*
X19687Y59904D01*
Y63713D01*
X21591Y65617D01*
X23496D01*
X25400Y63713D01*
Y59904D01*
X23496Y58000D01*
X13974Y69426D02*
X25400D01*
Y75139D01*
X23496Y77044D01*
X15878D01*
X13974Y75139D01*
Y69426D01*
X25400Y80853D02*
X17782D01*
X13974Y84661D01*
X17782Y88470D01*
X25400D01*
X19687D01*
Y80853D01*
X13974Y92279D02*
Y99896D01*
Y96088D01*
X25400D01*
X160883Y591609D02*
X160158Y593060D01*
X158707Y594511D01*
X157256Y595237D01*
X154353D01*
X152902Y594511D01*
X151451Y593060D01*
X150726Y591609D01*
X150000Y589432D01*
Y585804D01*
X150726Y583628D01*
X151451Y582177D01*
X152902Y580726D01*
X154353Y580000D01*
X157256D01*
X158707Y580726D01*
X160158Y582177D01*
X160883Y583628D01*
Y585804D01*
X157256D02*
X160883D01*
X164366Y595237D02*
Y580000D01*
Y595237D02*
X169445D01*
X171622Y594511D01*
X173073Y593060D01*
X173798Y591609D01*
X174524Y589432D01*
Y585804D01*
X173798Y583628D01*
X173073Y582177D01*
X171622Y580726D01*
X169445Y580000D01*
X164366D01*
X177934Y595237D02*
Y580000D01*
Y595237D02*
X184464D01*
X186641Y594511D01*
X187366Y593786D01*
X188092Y592335D01*
Y590883D01*
X187366Y589432D01*
X186641Y588707D01*
X184464Y587981D01*
X177934D01*
X183013D02*
X188092Y580000D01*
X195855Y595237D02*
X194404Y594511D01*
X192953Y593060D01*
X192227Y591609D01*
X191502Y589432D01*
Y585804D01*
X192227Y583628D01*
X192953Y582177D01*
X194404Y580726D01*
X195855Y580000D01*
X198757D01*
X200209Y580726D01*
X201660Y582177D01*
X202385Y583628D01*
X203111Y585804D01*
Y589432D01*
X202385Y591609D01*
X201660Y593060D01*
X200209Y594511D01*
X198757Y595237D01*
X195855D01*
X206666D02*
Y580000D01*
Y595237D02*
X212471Y580000D01*
X218275Y595237D02*
X212471Y580000D01*
X218275Y595237D02*
Y580000D01*
X234600Y595237D02*
Y580000D01*
Y595237D02*
X241130D01*
X243307Y594511D01*
X244032Y593786D01*
X244758Y592335D01*
Y590883D01*
X244032Y589432D01*
X243307Y588707D01*
X241130Y587981D01*
X234600D02*
X241130D01*
X243307Y587256D01*
X244032Y586530D01*
X244758Y585079D01*
Y582902D01*
X244032Y581451D01*
X243307Y580726D01*
X241130Y580000D01*
X234600D01*
X248168Y590158D02*
Y580000D01*
Y585804D02*
X248894Y587981D01*
X250345Y589432D01*
X251796Y590158D01*
X253973D01*
X255351Y585804D02*
X264058D01*
Y587256D01*
X263332Y588707D01*
X262607Y589432D01*
X261156Y590158D01*
X258979D01*
X257528Y589432D01*
X256077Y587981D01*
X255351Y585804D01*
Y584353D01*
X256077Y582177D01*
X257528Y580726D01*
X258979Y580000D01*
X261156D01*
X262607Y580726D01*
X264058Y582177D01*
X276030Y590158D02*
Y580000D01*
Y587981D02*
X274578Y589432D01*
X273127Y590158D01*
X270951D01*
X269500Y589432D01*
X268048Y587981D01*
X267323Y585804D01*
Y584353D01*
X268048Y582177D01*
X269500Y580726D01*
X270951Y580000D01*
X273127D01*
X274578Y580726D01*
X276030Y582177D01*
X280093Y595237D02*
Y580000D01*
X287348Y590158D02*
X280093Y582902D01*
X282995Y585804D02*
X288074Y580000D01*
X294096Y590158D02*
X292645Y589432D01*
X291194Y587981D01*
X290468Y585804D01*
Y584353D01*
X291194Y582177D01*
X292645Y580726D01*
X294096Y580000D01*
X296273D01*
X297724Y580726D01*
X299175Y582177D01*
X299900Y584353D01*
Y585804D01*
X299175Y587981D01*
X297724Y589432D01*
X296273Y590158D01*
X294096D01*
X303238D02*
Y582902D01*
X303964Y580726D01*
X305415Y580000D01*
X307591D01*
X309042Y580726D01*
X311219Y582902D01*
Y590158D02*
Y580000D01*
X317386Y595237D02*
Y582902D01*
X318112Y580726D01*
X319563Y580000D01*
X321014D01*
X315210Y590158D02*
X320289D01*
X335163Y595237D02*
Y580000D01*
Y595237D02*
X341693D01*
X343869Y594511D01*
X344595Y593786D01*
X345320Y592335D01*
Y590883D01*
X344595Y589432D01*
X343869Y588707D01*
X341693Y587981D01*
X335163D02*
X341693D01*
X343869Y587256D01*
X344595Y586530D01*
X345320Y585079D01*
Y582902D01*
X344595Y581451D01*
X343869Y580726D01*
X341693Y580000D01*
X335163D01*
X352358Y590158D02*
X350907Y589432D01*
X349456Y587981D01*
X348731Y585804D01*
Y584353D01*
X349456Y582177D01*
X350907Y580726D01*
X352358Y580000D01*
X354535D01*
X355986Y580726D01*
X357437Y582177D01*
X358163Y584353D01*
Y585804D01*
X357437Y587981D01*
X355986Y589432D01*
X354535Y590158D01*
X352358D01*
X370207D02*
Y580000D01*
Y587981D02*
X368756Y589432D01*
X367305Y590158D01*
X365128D01*
X363677Y589432D01*
X362226Y587981D01*
X361500Y585804D01*
Y584353D01*
X362226Y582177D01*
X363677Y580726D01*
X365128Y580000D01*
X367305D01*
X368756Y580726D01*
X370207Y582177D01*
X374270Y590158D02*
Y580000D01*
Y585804D02*
X374996Y587981D01*
X376447Y589432D01*
X377898Y590158D01*
X380075D01*
X390160Y595237D02*
Y580000D01*
Y587981D02*
X388709Y589432D01*
X387258Y590158D01*
X385081D01*
X383630Y589432D01*
X382179Y587981D01*
X381453Y585804D01*
Y584353D01*
X382179Y582177D01*
X383630Y580726D01*
X385081Y580000D01*
X387258D01*
X388709Y580726D01*
X390160Y582177D01*
X406195Y590158D02*
X410548Y580000D01*
X414902Y590158D02*
X410548Y580000D01*
X418094Y591609D02*
Y592335D01*
X418820Y593786D01*
X419545Y594511D01*
X420996Y595237D01*
X423899D01*
X425350Y594511D01*
X426075Y593786D01*
X426801Y592335D01*
Y590883D01*
X426075Y589432D01*
X424624Y587256D01*
X417368Y580000D01*
X427526D01*
D11*
X693825Y607887D02*
X690862D01*
X692344D01*
Y600481D01*
X690862Y599000D01*
X689381D01*
X687900Y600481D01*
X702712Y599000D02*
X696787D01*
X702712Y604925D01*
Y606406D01*
X701231Y607887D01*
X698268D01*
X696787Y606406D01*
M02*
