G04*
G04 #@! TF.GenerationSoftware,Altium Limited,Altium Designer,19.1.8 (144)*
G04*
G04 Layer_Physical_Order=2*
G04 Layer_Color=16711680*
%FSLAX44Y44*%
%MOMM*%
G71*
G01*
G75*
%ADD24C,0.6000*%
%ADD25C,0.3302*%
%ADD26C,1.5000*%
%ADD27R,1.5000X1.5000*%
%ADD28C,2.0000*%
%ADD29C,0.7620*%
%ADD30R,1.8000X0.6000*%
%ADD31O,1.8000X0.6000*%
G36*
X872160Y2590D02*
X2590D01*
Y635160D01*
X872160D01*
Y2590D01*
D02*
G37*
%LPC*%
G36*
X753400Y599867D02*
X750458Y599480D01*
X747716Y598344D01*
X745362Y596538D01*
X743556Y594184D01*
X742420Y591442D01*
X742033Y588500D01*
X742420Y585558D01*
X743556Y582816D01*
X745362Y580462D01*
X747716Y578656D01*
X750458Y577520D01*
X752321Y577275D01*
Y575225D01*
X750458Y574980D01*
X747716Y573844D01*
X745362Y572038D01*
X743556Y569684D01*
X742420Y566942D01*
X742033Y564000D01*
X742420Y561058D01*
X743556Y558316D01*
X745362Y555962D01*
X747716Y554156D01*
X750458Y553020D01*
X753400Y552633D01*
X756342Y553020D01*
X759084Y554156D01*
X761438Y555962D01*
X763244Y558316D01*
X764380Y561058D01*
X764767Y564000D01*
X764380Y566942D01*
X763244Y569684D01*
X761438Y572038D01*
X759084Y573844D01*
X756342Y574980D01*
X754479Y575225D01*
Y577275D01*
X756342Y577520D01*
X759084Y578656D01*
X761438Y580462D01*
X763244Y582816D01*
X764380Y585558D01*
X764767Y588500D01*
X764380Y591442D01*
X763244Y594184D01*
X761438Y596538D01*
X759084Y598344D01*
X756342Y599480D01*
X753400Y599867D01*
D02*
G37*
G36*
X704850Y555796D02*
X702561Y555494D01*
X700427Y554611D01*
X698595Y553205D01*
X697189Y551373D01*
X696306Y549239D01*
X696004Y546950D01*
X696306Y544661D01*
X697189Y542527D01*
X698595Y540695D01*
X700427Y539289D01*
X702561Y538406D01*
X704850Y538104D01*
X707139Y538406D01*
X709273Y539289D01*
X711105Y540695D01*
X712511Y542527D01*
X713394Y544661D01*
X713696Y546950D01*
X713394Y549239D01*
X712511Y551373D01*
X711105Y553205D01*
X709273Y554611D01*
X707139Y555494D01*
X704850Y555796D01*
D02*
G37*
G36*
Y581196D02*
X702561Y580894D01*
X700427Y580011D01*
X698595Y578605D01*
X697189Y576773D01*
X696306Y574639D01*
X696004Y572350D01*
X696306Y570061D01*
X697189Y567927D01*
X698595Y566095D01*
X700427Y564689D01*
X702561Y563806D01*
X704804Y563510D01*
X704879Y563476D01*
X705444Y563458D01*
X705939Y563397D01*
X706427Y563292D01*
X706910Y563143D01*
X707392Y562948D01*
X707873Y562705D01*
X708354Y562411D01*
X708835Y562066D01*
X709317Y561667D01*
X709829Y561185D01*
X709875Y561168D01*
X723396Y547647D01*
X722618Y545770D01*
X722130D01*
Y537230D01*
X722130Y537230D01*
X722208Y535198D01*
X721181Y533662D01*
X721004Y532770D01*
X743796D01*
X743618Y533662D01*
X742648Y535114D01*
X743090Y536490D01*
X743548Y537146D01*
X763252D01*
X763710Y536490D01*
X764152Y535114D01*
X763181Y533662D01*
X763004Y532770D01*
X785796D01*
X785619Y533662D01*
X784394Y535494D01*
X783575Y536042D01*
X783479Y538413D01*
X783495Y538447D01*
X784422Y539834D01*
X784754Y541500D01*
X784422Y543166D01*
X783478Y544579D01*
X782066Y545522D01*
X780400Y545854D01*
X736544D01*
X736422Y546466D01*
X735479Y547878D01*
X716032Y567325D01*
X716015Y567371D01*
X715533Y567883D01*
X715134Y568365D01*
X714789Y568847D01*
X714495Y569328D01*
X714252Y569808D01*
X714057Y570289D01*
X713908Y570773D01*
X713803Y571261D01*
X713742Y571756D01*
X713724Y572321D01*
X713690Y572396D01*
X713394Y574639D01*
X712511Y576773D01*
X711105Y578605D01*
X709273Y580011D01*
X707139Y580894D01*
X704850Y581196D01*
D02*
G37*
G36*
X743796Y530230D02*
X721004D01*
X721181Y529338D01*
X722406Y527506D01*
X723222Y526961D01*
X723372Y526562D01*
X723373Y526558D01*
X722776Y524710D01*
X722530Y524656D01*
X722148Y524604D01*
X721155Y524534D01*
X720600Y524525D01*
X720491Y524478D01*
X719011D01*
X718905Y524525D01*
X718553Y524534D01*
X718264Y524558D01*
X718002Y524596D01*
X717768Y524647D01*
X717561Y524708D01*
X717379Y524778D01*
X717221Y524855D01*
X717083Y524940D01*
X716962Y525031D01*
X716803Y525177D01*
X716775Y525188D01*
X715132Y526285D01*
X713150Y526679D01*
X711168Y526285D01*
X709488Y525163D01*
X708365Y523482D01*
X707971Y521500D01*
X708365Y519518D01*
X709488Y517837D01*
X710660Y517054D01*
X711159Y515915D01*
X711144Y514648D01*
X710365Y513482D01*
X709970Y511500D01*
X710365Y509518D01*
X711488Y507837D01*
X713168Y506715D01*
X715150Y506320D01*
X717132Y506715D01*
X718774Y507812D01*
X718803Y507823D01*
X718962Y507969D01*
X719083Y508060D01*
X719221Y508145D01*
X719379Y508222D01*
X719561Y508292D01*
X719768Y508353D01*
X720002Y508404D01*
X720264Y508442D01*
X720554Y508466D01*
X720783Y508472D01*
X721168Y508465D01*
X721658Y508441D01*
X722566Y508338D01*
X722800Y508293D01*
X723376Y506453D01*
X723372Y506438D01*
X723222Y506039D01*
X722406Y505494D01*
X721181Y503662D01*
X721004Y502770D01*
X743796D01*
X743618Y503662D01*
X742394Y505494D01*
X741574Y506042D01*
X741479Y508413D01*
X741495Y508447D01*
X742422Y509834D01*
X742754Y511500D01*
X742422Y513166D01*
X741479Y514578D01*
X740200Y515433D01*
X740075Y516500D01*
X740200Y517567D01*
X741479Y518422D01*
X742422Y519834D01*
X742754Y521500D01*
X742422Y523166D01*
X741495Y524553D01*
X741479Y524587D01*
X741574Y526958D01*
X742394Y527506D01*
X743618Y529338D01*
X743796Y530230D01*
D02*
G37*
G36*
Y500230D02*
X721004D01*
X721181Y499338D01*
X722406Y497506D01*
X723222Y496961D01*
X723372Y496562D01*
X723373Y496558D01*
X722776Y494710D01*
X722530Y494656D01*
X722148Y494604D01*
X721155Y494534D01*
X720938Y494531D01*
X720804Y494534D01*
X720514Y494558D01*
X720252Y494596D01*
X720018Y494647D01*
X719811Y494708D01*
X719630Y494778D01*
X719471Y494855D01*
X719333Y494940D01*
X719212Y495031D01*
X719053Y495177D01*
X719025Y495188D01*
X717382Y496285D01*
X715400Y496679D01*
X713418Y496285D01*
X711738Y495163D01*
X710615Y493482D01*
X710220Y491500D01*
X710615Y489518D01*
X711738Y487837D01*
X711910Y487722D01*
Y485278D01*
X711738Y485163D01*
X710615Y483482D01*
X710220Y481500D01*
X710615Y479518D01*
X711738Y477837D01*
X713418Y476715D01*
X715400Y476320D01*
X717382Y476715D01*
X719024Y477812D01*
X719053Y477822D01*
X719212Y477969D01*
X719333Y478060D01*
X719471Y478145D01*
X719629Y478222D01*
X719811Y478292D01*
X720018Y478353D01*
X720252Y478404D01*
X720514Y478442D01*
X720804Y478466D01*
X720938Y478469D01*
X721168Y478465D01*
X721658Y478441D01*
X722566Y478338D01*
X722800Y478293D01*
X723376Y476453D01*
X723372Y476438D01*
X723222Y476039D01*
X722406Y475494D01*
X721181Y473661D01*
X721004Y472770D01*
X743796D01*
X743618Y473661D01*
X742394Y475494D01*
X741574Y476042D01*
X741479Y478413D01*
X741495Y478447D01*
X742422Y479834D01*
X742754Y481500D01*
X742422Y483166D01*
X741479Y484578D01*
X740200Y485433D01*
X740075Y486500D01*
X740200Y487567D01*
X741479Y488422D01*
X742422Y489834D01*
X742754Y491500D01*
X742422Y493166D01*
X741495Y494553D01*
X741479Y494587D01*
X741574Y496958D01*
X742394Y497506D01*
X743618Y499338D01*
X743796Y500230D01*
D02*
G37*
G36*
Y470230D02*
X721004D01*
X721181Y469338D01*
X722406Y467506D01*
X723222Y466961D01*
X723372Y466562D01*
X723373Y466558D01*
X722776Y464710D01*
X722530Y464656D01*
X722148Y464604D01*
X721155Y464534D01*
X720600Y464525D01*
X720491Y464478D01*
X719511D01*
X719406Y464525D01*
X719053Y464534D01*
X718764Y464558D01*
X718502Y464596D01*
X718268Y464646D01*
X718061Y464708D01*
X717879Y464778D01*
X717721Y464855D01*
X717583Y464940D01*
X717462Y465031D01*
X717303Y465177D01*
X717275Y465188D01*
X715632Y466285D01*
X713650Y466679D01*
X711668Y466285D01*
X709987Y465163D01*
X708865Y463482D01*
X708471Y461500D01*
X708865Y459518D01*
X709987Y457837D01*
X710285Y457638D01*
Y455195D01*
X710238Y455163D01*
X709115Y453482D01*
X708720Y451500D01*
X709115Y449518D01*
X710238Y447837D01*
X710723Y447513D01*
Y445070D01*
X710488Y444912D01*
X709365Y443232D01*
X708970Y441250D01*
X709365Y439268D01*
X710488Y437588D01*
X710786Y437388D01*
Y434944D01*
X710738Y434912D01*
X709615Y433232D01*
X709221Y431250D01*
X709615Y429268D01*
X710738Y427588D01*
X712418Y426465D01*
X714400Y426071D01*
X716382Y426465D01*
X718063Y427588D01*
X718188Y427775D01*
X718283Y427817D01*
X718429Y427969D01*
X718535Y428059D01*
X718657Y428141D01*
X718800Y428218D01*
X718966Y428288D01*
X719159Y428349D01*
X719382Y428401D01*
X719634Y428440D01*
X719917Y428465D01*
X720267Y428475D01*
X720297Y428488D01*
X720329Y428478D01*
X720416Y428522D01*
X720491D01*
X720600Y428475D01*
X721168Y428465D01*
X721658Y428441D01*
X722566Y428338D01*
X722800Y428293D01*
X723376Y426453D01*
X723372Y426438D01*
X723222Y426039D01*
X722406Y425494D01*
X721181Y423661D01*
X721004Y422770D01*
X743796D01*
X743618Y423661D01*
X742394Y425494D01*
X741574Y426042D01*
X741479Y428413D01*
X741495Y428447D01*
X742422Y429834D01*
X742754Y431500D01*
X742422Y433166D01*
X741479Y434578D01*
X740200Y435433D01*
X740075Y436500D01*
X740200Y437567D01*
X741479Y438421D01*
X742422Y439834D01*
X742754Y441500D01*
X742422Y443166D01*
X741479Y444578D01*
X740200Y445433D01*
X740075Y446500D01*
X740200Y447567D01*
X741479Y448422D01*
X742422Y449834D01*
X742754Y451500D01*
X742422Y453166D01*
X741479Y454578D01*
X740200Y455433D01*
X740075Y456500D01*
X740200Y457567D01*
X741479Y458422D01*
X742422Y459834D01*
X742754Y461500D01*
X742422Y463166D01*
X741495Y464553D01*
X741479Y464587D01*
X741574Y466958D01*
X742394Y467506D01*
X743618Y469338D01*
X743796Y470230D01*
D02*
G37*
G36*
X785796Y530230D02*
X763004D01*
X763181Y529338D01*
X764406Y527506D01*
X765226Y526958D01*
X765321Y524587D01*
X765304Y524553D01*
X764378Y523166D01*
X764046Y521500D01*
X764378Y519834D01*
X765322Y518422D01*
X766600Y517567D01*
X766725Y516500D01*
X766600Y515433D01*
X765322Y514578D01*
X764378Y513166D01*
X764046Y511500D01*
X764378Y509834D01*
X765304Y508447D01*
X765321Y508413D01*
X765226Y506042D01*
X764406Y505494D01*
X763181Y503662D01*
X763004Y502770D01*
X785796D01*
X785619Y503662D01*
X784394Y505494D01*
X783578Y506039D01*
X783428Y506438D01*
X783427Y506442D01*
X784024Y508290D01*
X784270Y508344D01*
X784652Y508396D01*
X785430Y508451D01*
X785536Y508442D01*
X785798Y508404D01*
X786032Y508353D01*
X786239Y508292D01*
X786421Y508222D01*
X786579Y508145D01*
X786717Y508060D01*
X786838Y507969D01*
X786997Y507823D01*
X787026Y507812D01*
X788668Y506715D01*
X790650Y506320D01*
X792632Y506715D01*
X794275Y507812D01*
X794303Y507823D01*
X794462Y507969D01*
X794583Y508060D01*
X794721Y508145D01*
X794879Y508222D01*
X795061Y508292D01*
X795268Y508353D01*
X795502Y508404D01*
X795764Y508442D01*
X796053Y508466D01*
X796405Y508475D01*
X796511Y508522D01*
X808166D01*
X854172Y462516D01*
Y450620D01*
X854146Y450609D01*
X852140Y450281D01*
X851756Y450856D01*
X809006Y493606D01*
X808040Y494252D01*
X806900Y494478D01*
X804261D01*
X804155Y494525D01*
X803803Y494534D01*
X803514Y494558D01*
X803252Y494596D01*
X803018Y494647D01*
X802811Y494708D01*
X802629Y494778D01*
X802471Y494855D01*
X802333Y494940D01*
X802212Y495031D01*
X802053Y495177D01*
X802025Y495188D01*
X800382Y496285D01*
X798400Y496679D01*
X796418Y496285D01*
X794775Y495188D01*
X794747Y495177D01*
X794588Y495031D01*
X794467Y494940D01*
X794329Y494855D01*
X794171Y494778D01*
X793989Y494708D01*
X793782Y494647D01*
X793548Y494596D01*
X793286Y494558D01*
X792997Y494534D01*
X792645Y494525D01*
X792539Y494478D01*
X786309D01*
X786200Y494525D01*
X785632Y494534D01*
X785142Y494559D01*
X784234Y494662D01*
X784003Y494706D01*
X783424Y496547D01*
X783428Y496562D01*
X783578Y496961D01*
X784394Y497506D01*
X785619Y499338D01*
X785796Y500230D01*
X763004D01*
X763181Y499338D01*
X764406Y497506D01*
X765226Y496958D01*
X765321Y494587D01*
X765304Y494553D01*
X764378Y493166D01*
X764046Y491500D01*
X764378Y489834D01*
X765322Y488422D01*
X766600Y487567D01*
X766725Y486500D01*
X766600Y485433D01*
X765322Y484578D01*
X764378Y483166D01*
X764046Y481500D01*
X764378Y479834D01*
X765304Y478447D01*
X765321Y478413D01*
X765226Y476042D01*
X764406Y475494D01*
X763181Y473661D01*
X763004Y472770D01*
X785796D01*
X785619Y473661D01*
X784394Y475494D01*
X783578Y476039D01*
X783428Y476438D01*
X783427Y476442D01*
X784024Y478290D01*
X784270Y478344D01*
X784652Y478396D01*
X785565Y478460D01*
X785786Y478442D01*
X786048Y478404D01*
X786282Y478353D01*
X786489Y478292D01*
X786671Y478222D01*
X786829Y478145D01*
X786967Y478060D01*
X787088Y477969D01*
X787247Y477823D01*
X787276Y477812D01*
X788918Y476715D01*
X790900Y476320D01*
X792882Y476715D01*
X794525Y477812D01*
X794553Y477823D01*
X794712Y477969D01*
X794833Y478060D01*
X794971Y478145D01*
X795129Y478222D01*
X795311Y478292D01*
X795518Y478353D01*
X795752Y478404D01*
X796014Y478442D01*
X796303Y478466D01*
X796656Y478475D01*
X796761Y478522D01*
X800666D01*
X839172Y440016D01*
Y435620D01*
X839146Y435609D01*
X837140Y435281D01*
X836756Y435856D01*
X809006Y463606D01*
X808040Y464252D01*
X806900Y464478D01*
X803261D01*
X803155Y464525D01*
X802803Y464534D01*
X802514Y464558D01*
X802252Y464596D01*
X802018Y464647D01*
X801811Y464708D01*
X801629Y464778D01*
X801471Y464855D01*
X801333Y464940D01*
X801212Y465031D01*
X801053Y465177D01*
X801025Y465188D01*
X799382Y466285D01*
X797400Y466679D01*
X795418Y466285D01*
X793775Y465188D01*
X793747Y465177D01*
X793588Y465031D01*
X793467Y464939D01*
X793329Y464855D01*
X793171Y464778D01*
X792989Y464708D01*
X792782Y464646D01*
X792548Y464596D01*
X792286Y464558D01*
X791997Y464534D01*
X791645Y464525D01*
X791539Y464478D01*
X786309D01*
X786200Y464525D01*
X785632Y464534D01*
X785142Y464559D01*
X784234Y464662D01*
X784003Y464706D01*
X783424Y466547D01*
X783428Y466562D01*
X783578Y466961D01*
X784394Y467506D01*
X785619Y469338D01*
X785796Y470230D01*
X763004D01*
X763181Y469338D01*
X764406Y467506D01*
X765226Y466958D01*
X765321Y464587D01*
X765304Y464553D01*
X764378Y463166D01*
X764046Y461500D01*
X764378Y459834D01*
X765322Y458422D01*
X766600Y457567D01*
X766725Y456500D01*
X766600Y455433D01*
X765322Y454578D01*
X764378Y453166D01*
X764046Y451500D01*
X764378Y449834D01*
X765322Y448422D01*
X766600Y447567D01*
X766725Y446500D01*
X766600Y445433D01*
X765322Y444578D01*
X764378Y443166D01*
X764046Y441500D01*
X764378Y439834D01*
X765322Y438421D01*
X766600Y437567D01*
X766725Y436500D01*
X766600Y435433D01*
X765322Y434578D01*
X764378Y433166D01*
X764046Y431500D01*
X764378Y429834D01*
X765304Y428447D01*
X765321Y428413D01*
X765226Y426042D01*
X764406Y425494D01*
X763181Y423661D01*
X763004Y422770D01*
X785796D01*
X785619Y423661D01*
X784394Y425494D01*
X783578Y426039D01*
X783428Y426438D01*
X783427Y426442D01*
X784024Y428290D01*
X784270Y428344D01*
X784652Y428396D01*
X785645Y428466D01*
X785707Y428467D01*
X785747Y428466D01*
X786036Y428442D01*
X786298Y428404D01*
X786532Y428353D01*
X786739Y428292D01*
X786921Y428222D01*
X787079Y428145D01*
X787217Y428060D01*
X787338Y427969D01*
X787497Y427822D01*
X787526Y427812D01*
X789168Y426715D01*
X791105Y426329D01*
X791133Y426317D01*
X791349Y426308D01*
X791499Y426287D01*
X791656Y426249D01*
X791823Y426192D01*
X792001Y426113D01*
X792191Y426009D01*
X792392Y425880D01*
X792604Y425721D01*
X792825Y425534D01*
X793081Y425291D01*
X793188Y425250D01*
X801374Y417064D01*
X800079Y415486D01*
X798882Y416285D01*
X796900Y416679D01*
X794918Y416285D01*
X793275Y415188D01*
X793247Y415177D01*
X793088Y415031D01*
X792967Y414940D01*
X792829Y414855D01*
X792670Y414778D01*
X792489Y414707D01*
X792282Y414646D01*
X792048Y414596D01*
X791786Y414558D01*
X791497Y414534D01*
X791144Y414525D01*
X791039Y414478D01*
X786309D01*
X786200Y414525D01*
X785632Y414534D01*
X785142Y414559D01*
X784234Y414662D01*
X784003Y414706D01*
X783424Y416547D01*
X783428Y416562D01*
X783578Y416961D01*
X784394Y417506D01*
X785619Y419338D01*
X785796Y420230D01*
X763004D01*
X763181Y419338D01*
X764406Y417506D01*
X765226Y416958D01*
X765321Y414587D01*
X765304Y414553D01*
X764378Y413166D01*
X764046Y411500D01*
X764378Y409834D01*
X765322Y408421D01*
X766600Y407567D01*
X766725Y406500D01*
X766600Y405433D01*
X765322Y404578D01*
X764378Y403166D01*
X764046Y401500D01*
X764378Y399834D01*
X765322Y398421D01*
X766600Y397567D01*
X766725Y396500D01*
X766600Y395433D01*
X765322Y394578D01*
X764378Y393166D01*
X764046Y391500D01*
X764378Y389834D01*
X765322Y388421D01*
X766600Y387567D01*
X766725Y386500D01*
X766600Y385433D01*
X765322Y384578D01*
X764378Y383166D01*
X764046Y381500D01*
X764378Y379834D01*
X765304Y378447D01*
X765321Y378413D01*
X765226Y376042D01*
X764406Y375494D01*
X763181Y373661D01*
X763004Y372770D01*
X785796D01*
X785619Y373661D01*
X784394Y375494D01*
X783578Y376039D01*
X783428Y376438D01*
X783427Y376442D01*
X784024Y378290D01*
X784270Y378344D01*
X784652Y378396D01*
X785645Y378466D01*
X785862Y378469D01*
X785996Y378466D01*
X786286Y378442D01*
X786548Y378404D01*
X786782Y378353D01*
X786989Y378292D01*
X787171Y378222D01*
X787329Y378145D01*
X787467Y378060D01*
X787588Y377969D01*
X787747Y377823D01*
X787776Y377812D01*
X789418Y376715D01*
X791400Y376320D01*
X793382Y376715D01*
X795062Y377837D01*
X796185Y379518D01*
X796580Y381500D01*
X796185Y383482D01*
X795612Y384339D01*
X795845Y386172D01*
X796275Y386727D01*
X797562Y387588D01*
X798685Y389268D01*
X799080Y391250D01*
X798685Y393232D01*
X797562Y394912D01*
X795882Y396035D01*
X795206Y396170D01*
X794899Y396618D01*
X794435Y398395D01*
X795185Y399518D01*
X795580Y401500D01*
X795185Y403482D01*
X794224Y404920D01*
X794910Y406138D01*
X795339Y406631D01*
X796855Y406329D01*
X796883Y406317D01*
X797099Y406308D01*
X797249Y406287D01*
X797406Y406249D01*
X797573Y406192D01*
X797751Y406113D01*
X797941Y406009D01*
X798142Y405880D01*
X798354Y405721D01*
X798575Y405534D01*
X798831Y405291D01*
X798938Y405250D01*
X801672Y402516D01*
Y269984D01*
X658331Y126642D01*
X658232Y126608D01*
X657911Y126320D01*
X657576Y126075D01*
X656566Y125488D01*
X655998Y125217D01*
X652629Y123983D01*
X651611Y123683D01*
X651483Y123579D01*
X649627Y122811D01*
X647795Y121405D01*
X646389Y119573D01*
X645506Y117439D01*
X645204Y115150D01*
X645506Y112861D01*
X646389Y110727D01*
X647795Y108895D01*
X649627Y107489D01*
X651761Y106606D01*
X654050Y106304D01*
X656339Y106606D01*
X658473Y107489D01*
X660305Y108895D01*
X661711Y110727D01*
X662594Y112861D01*
X662896Y115150D01*
X662594Y117439D01*
X662534Y117585D01*
X662549Y117702D01*
X662334Y118498D01*
X662198Y119197D01*
X662128Y119840D01*
X662119Y120426D01*
X662166Y120956D01*
X662265Y121435D01*
X662414Y121869D01*
X662611Y122267D01*
X662860Y122636D01*
X663223Y123048D01*
X663256Y123144D01*
X806756Y266644D01*
X807140Y267218D01*
X809146Y266891D01*
X809172Y266880D01*
Y249084D01*
X683184Y123096D01*
X681739Y123694D01*
X679450Y123996D01*
X677161Y123694D01*
X675027Y122811D01*
X673195Y121405D01*
X671789Y119573D01*
X670906Y117439D01*
X670604Y115150D01*
X670906Y112861D01*
X671789Y110727D01*
X673195Y108895D01*
X675027Y107489D01*
X677161Y106606D01*
X679450Y106304D01*
X681739Y106606D01*
X683873Y107489D01*
X685705Y108895D01*
X687111Y110727D01*
X687994Y112861D01*
X688296Y115150D01*
X687994Y117439D01*
X687396Y118884D01*
X814256Y245744D01*
X814640Y246319D01*
X816645Y245991D01*
X816672Y245980D01*
Y231184D01*
X708584Y123096D01*
X707139Y123694D01*
X704850Y123996D01*
X702561Y123694D01*
X700427Y122811D01*
X698595Y121405D01*
X697189Y119573D01*
X696306Y117439D01*
X696004Y115150D01*
X696306Y112861D01*
X697189Y110727D01*
X698595Y108895D01*
X700427Y107489D01*
X702561Y106606D01*
X704850Y106304D01*
X707139Y106606D01*
X709273Y107489D01*
X711105Y108895D01*
X712511Y110727D01*
X713394Y112861D01*
X713696Y115150D01*
X713394Y117439D01*
X712796Y118884D01*
X821756Y227844D01*
X822140Y228419D01*
X824146Y228091D01*
X824172Y228081D01*
Y213284D01*
X733984Y123096D01*
X732539Y123694D01*
X730250Y123996D01*
X727961Y123694D01*
X725827Y122811D01*
X723995Y121405D01*
X722589Y119573D01*
X721706Y117439D01*
X721404Y115150D01*
X721706Y112861D01*
X722589Y110727D01*
X723995Y108895D01*
X725827Y107489D01*
X727961Y106606D01*
X730250Y106304D01*
X732539Y106606D01*
X734673Y107489D01*
X736505Y108895D01*
X737911Y110727D01*
X738794Y112861D01*
X739096Y115150D01*
X738794Y117439D01*
X738196Y118884D01*
X829256Y209944D01*
X829640Y210518D01*
X831646Y210191D01*
X831672Y210180D01*
Y195384D01*
X759384Y123096D01*
X757939Y123694D01*
X755650Y123996D01*
X753361Y123694D01*
X751227Y122811D01*
X749395Y121405D01*
X747989Y119573D01*
X747106Y117439D01*
X746804Y115150D01*
X747106Y112861D01*
X747989Y110727D01*
X749395Y108895D01*
X751227Y107489D01*
X753361Y106606D01*
X755650Y106304D01*
X757939Y106606D01*
X760073Y107489D01*
X761905Y108895D01*
X763311Y110727D01*
X764194Y112861D01*
X764496Y115150D01*
X764194Y117439D01*
X763596Y118884D01*
X836756Y192044D01*
X837140Y192619D01*
X839145Y192291D01*
X839172Y192281D01*
Y177484D01*
X784784Y123096D01*
X783339Y123694D01*
X781050Y123996D01*
X778761Y123694D01*
X776627Y122811D01*
X774795Y121405D01*
X773389Y119573D01*
X772506Y117439D01*
X772204Y115150D01*
X772506Y112861D01*
X773389Y110727D01*
X774795Y108895D01*
X776627Y107489D01*
X778761Y106606D01*
X781050Y106304D01*
X783339Y106606D01*
X785473Y107489D01*
X787305Y108895D01*
X788711Y110727D01*
X789594Y112861D01*
X789896Y115150D01*
X789594Y117439D01*
X788996Y118884D01*
X844256Y174144D01*
X844640Y174718D01*
X846646Y174391D01*
X846672Y174380D01*
Y159584D01*
X810184Y123096D01*
X808739Y123694D01*
X806450Y123996D01*
X804161Y123694D01*
X802027Y122811D01*
X800195Y121405D01*
X798789Y119573D01*
X797906Y117439D01*
X797604Y115150D01*
X797906Y112861D01*
X798789Y110727D01*
X800195Y108895D01*
X802027Y107489D01*
X804161Y106606D01*
X806450Y106304D01*
X808739Y106606D01*
X810873Y107489D01*
X812705Y108895D01*
X814111Y110727D01*
X814994Y112861D01*
X815296Y115150D01*
X814994Y117439D01*
X814396Y118884D01*
X851756Y156244D01*
X852140Y156819D01*
X854145Y156491D01*
X854172Y156481D01*
Y141684D01*
X835584Y123096D01*
X834139Y123694D01*
X831850Y123996D01*
X829561Y123694D01*
X827427Y122811D01*
X825595Y121405D01*
X824189Y119573D01*
X823306Y117439D01*
X823004Y115150D01*
X823306Y112861D01*
X824189Y110727D01*
X825595Y108895D01*
X827427Y107489D01*
X829561Y106606D01*
X831850Y106304D01*
X834139Y106606D01*
X836273Y107489D01*
X838105Y108895D01*
X839511Y110727D01*
X840394Y112861D01*
X840696Y115150D01*
X840394Y117439D01*
X839796Y118884D01*
X859256Y138344D01*
X859640Y138919D01*
X861646Y138591D01*
X861672Y138581D01*
Y124953D01*
X861029Y124369D01*
X859839Y123636D01*
X859723Y123618D01*
X859539Y123694D01*
X857250Y123996D01*
X854961Y123694D01*
X852827Y122811D01*
X850995Y121405D01*
X849589Y119573D01*
X848706Y117439D01*
X848404Y115150D01*
X848706Y112861D01*
X849589Y110727D01*
X850995Y108895D01*
X852827Y107489D01*
X854961Y106606D01*
X857250Y106304D01*
X859539Y106606D01*
X861673Y107489D01*
X863505Y108895D01*
X864911Y110727D01*
X865794Y112861D01*
X866096Y115150D01*
X865794Y117439D01*
X865718Y117623D01*
X865736Y117739D01*
X865661Y118041D01*
X865638Y118250D01*
X865643Y118459D01*
X865678Y118678D01*
X865746Y118914D01*
X865855Y119171D01*
X866010Y119451D01*
X866215Y119753D01*
X866475Y120074D01*
X866821Y120443D01*
X866905Y120668D01*
X867402Y121410D01*
X867628Y122550D01*
Y478750D01*
X867402Y479890D01*
X866756Y480856D01*
X824006Y523606D01*
X823040Y524252D01*
X821900Y524478D01*
X804261D01*
X804155Y524525D01*
X803803Y524534D01*
X803514Y524558D01*
X803252Y524596D01*
X803018Y524647D01*
X802811Y524708D01*
X802629Y524778D01*
X802471Y524855D01*
X802333Y524940D01*
X802212Y525031D01*
X802053Y525177D01*
X802025Y525188D01*
X800382Y526285D01*
X798400Y526679D01*
X796418Y526285D01*
X794775Y525188D01*
X794747Y525177D01*
X794588Y525031D01*
X794467Y524940D01*
X794329Y524855D01*
X794171Y524778D01*
X793989Y524708D01*
X793782Y524647D01*
X793548Y524596D01*
X793286Y524558D01*
X792997Y524534D01*
X792645Y524525D01*
X792539Y524478D01*
X786309D01*
X786200Y524525D01*
X785632Y524534D01*
X785142Y524559D01*
X784234Y524662D01*
X784003Y524706D01*
X783424Y526547D01*
X783428Y526562D01*
X783578Y526961D01*
X784394Y527506D01*
X785619Y529338D01*
X785796Y530230D01*
D02*
G37*
G36*
X743796Y420230D02*
X721004D01*
X721181Y419338D01*
X722406Y417506D01*
X723222Y416961D01*
X723372Y416562D01*
X723373Y416558D01*
X722776Y414710D01*
X722530Y414656D01*
X722148Y414604D01*
X721155Y414534D01*
X720628Y414526D01*
X720303Y414534D01*
X720014Y414558D01*
X719752Y414596D01*
X719518Y414646D01*
X719311Y414707D01*
X719129Y414778D01*
X718971Y414855D01*
X718833Y414940D01*
X718712Y415031D01*
X718553Y415177D01*
X718525Y415188D01*
X716882Y416285D01*
X714900Y416679D01*
X712918Y416285D01*
X711237Y415163D01*
X710115Y413482D01*
X709721Y411500D01*
X710115Y409518D01*
X711237Y407838D01*
X710132Y406285D01*
X708150Y406679D01*
X706168Y406285D01*
X704488Y405163D01*
X703365Y403482D01*
X702971Y401500D01*
X703365Y399518D01*
X704488Y397837D01*
X706168Y396715D01*
X708150Y396320D01*
X710132Y396715D01*
X711774Y397812D01*
X711803Y397823D01*
X711962Y397969D01*
X712083Y398060D01*
X712221Y398145D01*
X712379Y398222D01*
X712561Y398292D01*
X713057Y398135D01*
X713195Y397718D01*
X713097Y396078D01*
X712965Y395816D01*
X711988Y395163D01*
X710865Y393482D01*
X710471Y391500D01*
X710865Y389518D01*
X711988Y387837D01*
X713069Y387115D01*
X713442Y385211D01*
X713369Y384729D01*
X713135Y384526D01*
X712804Y384534D01*
X712514Y384558D01*
X712252Y384596D01*
X712018Y384646D01*
X711811Y384707D01*
X711629Y384778D01*
X711471Y384855D01*
X711333Y384939D01*
X711212Y385031D01*
X711053Y385177D01*
X711025Y385188D01*
X709382Y386285D01*
X707400Y386679D01*
X705418Y386285D01*
X703737Y385163D01*
X702615Y383482D01*
X702221Y381500D01*
X702615Y379518D01*
X703737Y377837D01*
X705418Y376715D01*
X707400Y376320D01*
X709382Y376715D01*
X711024Y377812D01*
X711053Y377823D01*
X711212Y377969D01*
X711333Y378060D01*
X711471Y378145D01*
X711629Y378222D01*
X711811Y378292D01*
X712018Y378353D01*
X712252Y378404D01*
X712514Y378442D01*
X712803Y378465D01*
X713155Y378475D01*
X713261Y378522D01*
X720491D01*
X720600Y378474D01*
X721168Y378465D01*
X721658Y378440D01*
X722566Y378338D01*
X722800Y378293D01*
X723376Y376453D01*
X723372Y376438D01*
X723222Y376039D01*
X722406Y375494D01*
X721181Y373661D01*
X721004Y372770D01*
X743796D01*
X743618Y373661D01*
X742394Y375494D01*
X741574Y376042D01*
X741479Y378413D01*
X741495Y378447D01*
X742422Y379834D01*
X742754Y381500D01*
X742422Y383166D01*
X741479Y384578D01*
X740200Y385433D01*
X740075Y386500D01*
X740200Y387567D01*
X741479Y388421D01*
X742422Y389834D01*
X742754Y391500D01*
X742422Y393166D01*
X741479Y394578D01*
X740200Y395433D01*
X740075Y396500D01*
X740200Y397567D01*
X741479Y398421D01*
X742422Y399834D01*
X742754Y401500D01*
X742422Y403166D01*
X741479Y404578D01*
X740200Y405433D01*
X740075Y406500D01*
X740200Y407567D01*
X741479Y408421D01*
X742422Y409834D01*
X742754Y411500D01*
X742422Y413166D01*
X741495Y414553D01*
X741479Y414587D01*
X741574Y416958D01*
X742394Y417506D01*
X743618Y419338D01*
X743796Y420230D01*
D02*
G37*
G36*
X785796Y370230D02*
X763004D01*
X763181Y369338D01*
X764406Y367506D01*
X765226Y366958D01*
X765321Y364587D01*
X765304Y364553D01*
X764378Y363166D01*
X764046Y361500D01*
X764378Y359834D01*
X765322Y358421D01*
X766600Y357567D01*
X766725Y356500D01*
X766600Y355433D01*
X765322Y354578D01*
X764378Y353166D01*
X764046Y351500D01*
X764378Y349834D01*
X765322Y348421D01*
X766600Y347567D01*
X766725Y346500D01*
X766600Y345433D01*
X765322Y344578D01*
X764378Y343166D01*
X764046Y341500D01*
X764378Y339834D01*
X765322Y338421D01*
X766600Y337567D01*
X766725Y336500D01*
X766600Y335433D01*
X765322Y334578D01*
X764378Y333166D01*
X764046Y331500D01*
X764378Y329834D01*
X765322Y328421D01*
X766124Y327886D01*
X765507Y325854D01*
X741293D01*
X740676Y327886D01*
X741479Y328421D01*
X742422Y329834D01*
X742754Y331500D01*
X742422Y333166D01*
X741479Y334578D01*
X740200Y335433D01*
X740075Y336500D01*
X740200Y337567D01*
X741479Y338421D01*
X742422Y339834D01*
X742754Y341500D01*
X742422Y343166D01*
X741479Y344578D01*
X740200Y345433D01*
X740075Y346500D01*
X740200Y347567D01*
X741479Y348421D01*
X742422Y349834D01*
X742754Y351500D01*
X742422Y353166D01*
X741479Y354578D01*
X740200Y355433D01*
X740075Y356500D01*
X740200Y357567D01*
X741479Y358421D01*
X742422Y359834D01*
X742754Y361500D01*
X742422Y363166D01*
X741495Y364553D01*
X741479Y364587D01*
X741574Y366958D01*
X742394Y367506D01*
X743618Y369338D01*
X743796Y370230D01*
X721004D01*
X721181Y369338D01*
X722406Y367506D01*
X723222Y366961D01*
X723372Y366562D01*
X723373Y366558D01*
X722776Y364710D01*
X722530Y364656D01*
X722148Y364604D01*
X721155Y364534D01*
X721093Y364533D01*
X721053Y364534D01*
X720764Y364558D01*
X720502Y364596D01*
X720268Y364646D01*
X720061Y364707D01*
X719879Y364778D01*
X719721Y364855D01*
X719583Y364939D01*
X719462Y365031D01*
X719303Y365177D01*
X719275Y365188D01*
X717632Y366285D01*
X715650Y366679D01*
X713668Y366285D01*
X711988Y365163D01*
X710865Y363482D01*
X710471Y361500D01*
X710865Y359518D01*
X711988Y357837D01*
X712933Y357206D01*
X713081Y357001D01*
X713108Y356948D01*
X713114Y356927D01*
X713010Y355010D01*
X712975Y354920D01*
X712629Y354778D01*
X712471Y354855D01*
X712333Y354939D01*
X712212Y355031D01*
X712053Y355177D01*
X712025Y355188D01*
X710382Y356285D01*
X708400Y356679D01*
X706418Y356285D01*
X704737Y355163D01*
X703615Y353482D01*
X703221Y351500D01*
X703615Y349518D01*
X704737Y347837D01*
X706418Y346715D01*
X708400Y346320D01*
X710382Y346715D01*
X712024Y347812D01*
X712053Y347822D01*
X712212Y347969D01*
X712333Y348060D01*
X712471Y348145D01*
X712629Y348222D01*
X712811Y348292D01*
X713018Y348353D01*
X713252Y348404D01*
X713514Y348442D01*
X713803Y348465D01*
X714155Y348475D01*
X714261Y348522D01*
X720491D01*
X720600Y348474D01*
X721168Y348465D01*
X721658Y348441D01*
X722566Y348338D01*
X722921Y348270D01*
X723244Y348189D01*
X723520Y348098D01*
X723747Y348003D01*
X723927Y347907D01*
X724130Y347769D01*
X724374Y347718D01*
X724600Y347567D01*
X724725Y346500D01*
X724600Y345433D01*
X724374Y345281D01*
X724130Y345231D01*
X723927Y345093D01*
X723747Y344997D01*
X723520Y344902D01*
X723265Y344818D01*
X722530Y344656D01*
X722148Y344604D01*
X721155Y344534D01*
X720697Y344527D01*
X720416Y344534D01*
X720119Y344556D01*
X719849Y344592D01*
X719603Y344641D01*
X719383Y344700D01*
X719187Y344768D01*
X719014Y344845D01*
X718862Y344928D01*
X718727Y345018D01*
X718557Y345156D01*
X718359Y345215D01*
X717132Y346035D01*
X715150Y346429D01*
X713168Y346035D01*
X711488Y344912D01*
X710365Y343232D01*
X709970Y341250D01*
X710365Y339268D01*
X711326Y337830D01*
X710640Y336613D01*
X710211Y336119D01*
X708650Y336429D01*
X706668Y336035D01*
X704987Y334912D01*
X703865Y333232D01*
X703471Y331250D01*
X703865Y329268D01*
X704987Y327588D01*
X705263Y327404D01*
X705336Y327159D01*
X705124Y325053D01*
X704413Y324578D01*
X689839Y310004D01*
X686317D01*
X685627Y312036D01*
X685705Y312095D01*
X687111Y313927D01*
X687994Y316061D01*
X688296Y318350D01*
X687994Y320639D01*
X687111Y322773D01*
X685705Y324605D01*
X683873Y326011D01*
X681739Y326894D01*
X679450Y327196D01*
X677161Y326894D01*
X675027Y326011D01*
X673195Y324605D01*
X671789Y322773D01*
X670906Y320639D01*
X670604Y318350D01*
X670906Y316061D01*
X671789Y313927D01*
X673195Y312095D01*
X673273Y312036D01*
X672583Y310004D01*
X668553D01*
X665232Y313325D01*
X665215Y313371D01*
X664733Y313883D01*
X664334Y314365D01*
X663989Y314846D01*
X663696Y315327D01*
X663452Y315808D01*
X663257Y316290D01*
X663108Y316773D01*
X663003Y317261D01*
X662942Y317756D01*
X662924Y318321D01*
X662890Y318396D01*
X662594Y320639D01*
X661711Y322773D01*
X660305Y324605D01*
X658473Y326011D01*
X656339Y326894D01*
X654050Y327196D01*
X651761Y326894D01*
X649627Y326011D01*
X647795Y324605D01*
X646389Y322773D01*
X645506Y320639D01*
X645204Y318350D01*
X645506Y316061D01*
X646389Y313927D01*
X647795Y312095D01*
X649627Y310689D01*
X651761Y309806D01*
X654004Y309510D01*
X654079Y309477D01*
X654644Y309458D01*
X655139Y309397D01*
X655627Y309292D01*
X656111Y309143D01*
X656592Y308948D01*
X657073Y308704D01*
X657553Y308411D01*
X658035Y308066D01*
X658517Y307667D01*
X659029Y307185D01*
X659075Y307168D01*
X663671Y302572D01*
X665084Y301628D01*
X666750Y301296D01*
X691642D01*
X693308Y301628D01*
X694721Y302572D01*
X705935Y313786D01*
X707808Y312785D01*
X707552Y311500D01*
X707947Y309518D01*
X709069Y307837D01*
X710750Y306715D01*
X712732Y306320D01*
X714714Y306715D01*
X716356Y307812D01*
X716385Y307822D01*
X716544Y307969D01*
X716665Y308060D01*
X716803Y308145D01*
X716961Y308222D01*
X717143Y308292D01*
X717350Y308353D01*
X717584Y308404D01*
X717846Y308442D01*
X718135Y308465D01*
X718487Y308475D01*
X718593Y308522D01*
X720491D01*
X720600Y308474D01*
X721168Y308465D01*
X721658Y308440D01*
X722566Y308338D01*
X722921Y308270D01*
X723244Y308188D01*
X723520Y308098D01*
X723747Y308003D01*
X723927Y307907D01*
X724130Y307768D01*
X724374Y307718D01*
X724600Y307567D01*
X724725Y306500D01*
X724600Y305432D01*
X723322Y304578D01*
X722378Y303166D01*
X722046Y301500D01*
X722378Y299834D01*
X723322Y298421D01*
X724734Y297478D01*
X725579Y297309D01*
X726310Y295380D01*
X726299Y295156D01*
X709875Y278732D01*
X709829Y278715D01*
X709317Y278233D01*
X708835Y277834D01*
X708354Y277489D01*
X707872Y277195D01*
X707392Y276952D01*
X706910Y276757D01*
X706427Y276608D01*
X705939Y276503D01*
X705444Y276442D01*
X704879Y276423D01*
X704804Y276390D01*
X702561Y276094D01*
X700427Y275211D01*
X698595Y273805D01*
X697189Y271973D01*
X696306Y269839D01*
X696004Y267550D01*
X696306Y265261D01*
X697189Y263127D01*
X698595Y261295D01*
X700427Y259889D01*
X702561Y259006D01*
X704850Y258704D01*
X707139Y259006D01*
X709273Y259889D01*
X711105Y261295D01*
X712511Y263127D01*
X713394Y265261D01*
X713690Y267504D01*
X713724Y267579D01*
X713742Y268144D01*
X713803Y268639D01*
X713908Y269127D01*
X714057Y269611D01*
X714252Y270092D01*
X714495Y270573D01*
X714789Y271054D01*
X715134Y271535D01*
X715533Y272017D01*
X716015Y272529D01*
X716032Y272575D01*
X735479Y292022D01*
X736422Y293434D01*
X736726Y294961D01*
X736774Y295071D01*
X736810Y296784D01*
X736838Y297146D01*
X780400D01*
X782066Y297478D01*
X783478Y298421D01*
X784422Y299834D01*
X784685Y301157D01*
X785867Y301847D01*
X786704Y302109D01*
X787668Y301465D01*
X789650Y301070D01*
X791632Y301465D01*
X793313Y302588D01*
X794435Y304268D01*
X794829Y306250D01*
X794435Y308232D01*
X793313Y309912D01*
X791632Y311035D01*
X789695Y311421D01*
X789667Y311433D01*
X789451Y311442D01*
X789301Y311463D01*
X789144Y311501D01*
X788977Y311558D01*
X788799Y311637D01*
X788609Y311740D01*
X788408Y311870D01*
X788196Y312029D01*
X787975Y312216D01*
X787719Y312459D01*
X787612Y312500D01*
X786506Y313606D01*
X785540Y314251D01*
X784400Y314478D01*
X783545D01*
X783478Y314578D01*
X782200Y315432D01*
X782075Y316500D01*
X782200Y317567D01*
X783478Y318421D01*
X784422Y319834D01*
X784754Y321500D01*
X784738Y321579D01*
X786590Y322685D01*
X787668Y321965D01*
X789650Y321571D01*
X791632Y321965D01*
X793313Y323088D01*
X794435Y324768D01*
X794829Y326750D01*
X794435Y328732D01*
X793313Y330412D01*
X792647Y330857D01*
X793145Y332969D01*
X794382Y333215D01*
X796062Y334338D01*
X797185Y336018D01*
X797579Y338000D01*
X797185Y339982D01*
X796062Y341662D01*
X794382Y342785D01*
X792400Y343180D01*
X791593Y343019D01*
X791006Y343606D01*
X790040Y344251D01*
X788900Y344478D01*
X786309D01*
X786200Y344525D01*
X785632Y344534D01*
X785142Y344559D01*
X784234Y344662D01*
X783879Y344729D01*
X783556Y344811D01*
X783280Y344902D01*
X783053Y344997D01*
X782873Y345093D01*
X782670Y345231D01*
X782426Y345281D01*
X782200Y345433D01*
X782075Y346500D01*
X782200Y347567D01*
X782426Y347718D01*
X782670Y347769D01*
X782873Y347907D01*
X783053Y348003D01*
X783280Y348098D01*
X783535Y348182D01*
X784270Y348344D01*
X784652Y348396D01*
X785645Y348466D01*
X786017Y348471D01*
X786247Y348465D01*
X786536Y348442D01*
X786798Y348404D01*
X787032Y348353D01*
X787239Y348292D01*
X787421Y348222D01*
X787579Y348145D01*
X787717Y348060D01*
X787838Y347969D01*
X787997Y347822D01*
X788026Y347812D01*
X789668Y346715D01*
X791650Y346320D01*
X793632Y346715D01*
X795312Y347837D01*
X796435Y349518D01*
X796830Y351500D01*
X796435Y353482D01*
X795312Y355163D01*
X795139Y355278D01*
Y357722D01*
X795312Y357837D01*
X796435Y359518D01*
X796830Y361500D01*
X796435Y363482D01*
X795312Y365163D01*
X793632Y366285D01*
X791650Y366679D01*
X789668Y366285D01*
X788025Y365188D01*
X787997Y365177D01*
X787838Y365031D01*
X787717Y364939D01*
X787579Y364855D01*
X787421Y364778D01*
X787239Y364707D01*
X787032Y364646D01*
X786798Y364596D01*
X786536Y364558D01*
X786246Y364534D01*
X786017Y364528D01*
X785632Y364534D01*
X785142Y364559D01*
X784234Y364662D01*
X784003Y364706D01*
X783424Y366547D01*
X783428Y366562D01*
X783578Y366961D01*
X784394Y367506D01*
X785619Y369338D01*
X785796Y370230D01*
D02*
G37*
G36*
X704850Y301796D02*
X702561Y301494D01*
X700427Y300611D01*
X698595Y299205D01*
X697189Y297373D01*
X696306Y295239D01*
X696004Y292950D01*
X696306Y290661D01*
X697189Y288527D01*
X698595Y286695D01*
X700427Y285289D01*
X702561Y284406D01*
X704850Y284104D01*
X707139Y284406D01*
X709273Y285289D01*
X711105Y286695D01*
X712511Y288527D01*
X713394Y290661D01*
X713696Y292950D01*
X713394Y295239D01*
X712511Y297373D01*
X711105Y299205D01*
X709273Y300611D01*
X707139Y301494D01*
X704850Y301796D01*
D02*
G37*
G36*
X753400Y290367D02*
X750458Y289980D01*
X747716Y288844D01*
X745362Y287038D01*
X743556Y284684D01*
X742420Y281942D01*
X742033Y279000D01*
X742420Y276058D01*
X743556Y273316D01*
X745362Y270962D01*
X747716Y269156D01*
X750458Y268020D01*
X752321Y267775D01*
Y265725D01*
X750458Y265480D01*
X747716Y264344D01*
X745362Y262538D01*
X743556Y260184D01*
X742420Y257442D01*
X742033Y254500D01*
X742420Y251558D01*
X743556Y248816D01*
X745362Y246462D01*
X747716Y244656D01*
X750458Y243520D01*
X753400Y243133D01*
X756342Y243520D01*
X759084Y244656D01*
X761438Y246462D01*
X763244Y248816D01*
X764380Y251558D01*
X764767Y254500D01*
X764380Y257442D01*
X763244Y260184D01*
X761438Y262538D01*
X759084Y264344D01*
X756342Y265480D01*
X754479Y265725D01*
Y267775D01*
X756342Y268020D01*
X759084Y269156D01*
X761438Y270962D01*
X763244Y273316D01*
X764380Y276058D01*
X764767Y279000D01*
X764380Y281942D01*
X763244Y284684D01*
X761438Y287038D01*
X759084Y288844D01*
X756342Y289980D01*
X753400Y290367D01*
D02*
G37*
G36*
X27820Y123920D02*
X10280D01*
Y106380D01*
X27820D01*
Y123920D01*
D02*
G37*
G36*
X628650Y123996D02*
X626361Y123694D01*
X624227Y122811D01*
X622395Y121405D01*
X620989Y119573D01*
X620106Y117439D01*
X619804Y115150D01*
X620106Y112861D01*
X620989Y110727D01*
X622395Y108895D01*
X624227Y107489D01*
X626361Y106606D01*
X628650Y106304D01*
X630939Y106606D01*
X633073Y107489D01*
X634905Y108895D01*
X636311Y110727D01*
X637194Y112861D01*
X637496Y115150D01*
X637194Y117439D01*
X636311Y119573D01*
X634905Y121405D01*
X633073Y122811D01*
X630939Y123694D01*
X628650Y123996D01*
D02*
G37*
G36*
X603250D02*
X600961Y123694D01*
X598827Y122811D01*
X596995Y121405D01*
X595589Y119573D01*
X594706Y117439D01*
X594404Y115150D01*
X594706Y112861D01*
X595589Y110727D01*
X596995Y108895D01*
X598827Y107489D01*
X600961Y106606D01*
X603250Y106304D01*
X605539Y106606D01*
X607673Y107489D01*
X609505Y108895D01*
X610911Y110727D01*
X611794Y112861D01*
X612096Y115150D01*
X611794Y117439D01*
X610911Y119573D01*
X609505Y121405D01*
X607673Y122811D01*
X605539Y123694D01*
X603250Y123996D01*
D02*
G37*
G36*
X577850D02*
X575561Y123694D01*
X573427Y122811D01*
X571595Y121405D01*
X570189Y119573D01*
X569306Y117439D01*
X569004Y115150D01*
X569306Y112861D01*
X570189Y110727D01*
X571595Y108895D01*
X573427Y107489D01*
X575561Y106606D01*
X577850Y106304D01*
X580139Y106606D01*
X582273Y107489D01*
X584105Y108895D01*
X585511Y110727D01*
X586394Y112861D01*
X586696Y115150D01*
X586394Y117439D01*
X585511Y119573D01*
X584105Y121405D01*
X582273Y122811D01*
X580139Y123694D01*
X577850Y123996D01*
D02*
G37*
G36*
X552450D02*
X550161Y123694D01*
X548027Y122811D01*
X546195Y121405D01*
X544789Y119573D01*
X543906Y117439D01*
X543604Y115150D01*
X543906Y112861D01*
X544789Y110727D01*
X546195Y108895D01*
X548027Y107489D01*
X550161Y106606D01*
X552450Y106304D01*
X554739Y106606D01*
X556873Y107489D01*
X558705Y108895D01*
X560111Y110727D01*
X560994Y112861D01*
X561296Y115150D01*
X560994Y117439D01*
X560111Y119573D01*
X558705Y121405D01*
X556873Y122811D01*
X554739Y123694D01*
X552450Y123996D01*
D02*
G37*
G36*
X527050D02*
X524761Y123694D01*
X522627Y122811D01*
X520795Y121405D01*
X519389Y119573D01*
X518506Y117439D01*
X518204Y115150D01*
X518506Y112861D01*
X519389Y110727D01*
X520795Y108895D01*
X522627Y107489D01*
X524761Y106606D01*
X527050Y106304D01*
X529339Y106606D01*
X531473Y107489D01*
X533305Y108895D01*
X534711Y110727D01*
X535594Y112861D01*
X535896Y115150D01*
X535594Y117439D01*
X534711Y119573D01*
X533305Y121405D01*
X531473Y122811D01*
X529339Y123694D01*
X527050Y123996D01*
D02*
G37*
G36*
X501650D02*
X499361Y123694D01*
X497227Y122811D01*
X495395Y121405D01*
X493989Y119573D01*
X493106Y117439D01*
X492804Y115150D01*
X493106Y112861D01*
X493989Y110727D01*
X495395Y108895D01*
X497227Y107489D01*
X499361Y106606D01*
X501650Y106304D01*
X503939Y106606D01*
X506073Y107489D01*
X507905Y108895D01*
X509311Y110727D01*
X510194Y112861D01*
X510496Y115150D01*
X510194Y117439D01*
X509311Y119573D01*
X507905Y121405D01*
X506073Y122811D01*
X503939Y123694D01*
X501650Y123996D01*
D02*
G37*
G36*
X476250D02*
X473961Y123694D01*
X471827Y122811D01*
X469995Y121405D01*
X468589Y119573D01*
X467706Y117439D01*
X467404Y115150D01*
X467706Y112861D01*
X468589Y110727D01*
X469995Y108895D01*
X471827Y107489D01*
X473961Y106606D01*
X476250Y106304D01*
X478539Y106606D01*
X480673Y107489D01*
X482505Y108895D01*
X483911Y110727D01*
X484794Y112861D01*
X485096Y115150D01*
X484794Y117439D01*
X483911Y119573D01*
X482505Y121405D01*
X480673Y122811D01*
X478539Y123694D01*
X476250Y123996D01*
D02*
G37*
G36*
X450850D02*
X448561Y123694D01*
X446427Y122811D01*
X444595Y121405D01*
X443189Y119573D01*
X442306Y117439D01*
X442004Y115150D01*
X442306Y112861D01*
X443189Y110727D01*
X444595Y108895D01*
X446427Y107489D01*
X448561Y106606D01*
X450850Y106304D01*
X453139Y106606D01*
X455273Y107489D01*
X457105Y108895D01*
X458511Y110727D01*
X459394Y112861D01*
X459696Y115150D01*
X459394Y117439D01*
X458511Y119573D01*
X457105Y121405D01*
X455273Y122811D01*
X453139Y123694D01*
X450850Y123996D01*
D02*
G37*
G36*
X425450D02*
X423161Y123694D01*
X421027Y122811D01*
X419195Y121405D01*
X417789Y119573D01*
X416906Y117439D01*
X416604Y115150D01*
X416906Y112861D01*
X417789Y110727D01*
X419195Y108895D01*
X421027Y107489D01*
X423161Y106606D01*
X425450Y106304D01*
X427739Y106606D01*
X429873Y107489D01*
X431705Y108895D01*
X433111Y110727D01*
X433994Y112861D01*
X434296Y115150D01*
X433994Y117439D01*
X433111Y119573D01*
X431705Y121405D01*
X429873Y122811D01*
X427739Y123694D01*
X425450Y123996D01*
D02*
G37*
G36*
X400050D02*
X397761Y123694D01*
X395627Y122811D01*
X393795Y121405D01*
X392389Y119573D01*
X391506Y117439D01*
X391204Y115150D01*
X391506Y112861D01*
X392389Y110727D01*
X393795Y108895D01*
X395627Y107489D01*
X397761Y106606D01*
X400050Y106304D01*
X402339Y106606D01*
X404473Y107489D01*
X406305Y108895D01*
X407711Y110727D01*
X408594Y112861D01*
X408896Y115150D01*
X408594Y117439D01*
X407711Y119573D01*
X406305Y121405D01*
X404473Y122811D01*
X402339Y123694D01*
X400050Y123996D01*
D02*
G37*
G36*
X374650D02*
X372361Y123694D01*
X370227Y122811D01*
X368395Y121405D01*
X366989Y119573D01*
X366106Y117439D01*
X365804Y115150D01*
X366106Y112861D01*
X366989Y110727D01*
X368395Y108895D01*
X370227Y107489D01*
X372361Y106606D01*
X374650Y106304D01*
X376939Y106606D01*
X379073Y107489D01*
X380905Y108895D01*
X382311Y110727D01*
X383194Y112861D01*
X383496Y115150D01*
X383194Y117439D01*
X382311Y119573D01*
X380905Y121405D01*
X379073Y122811D01*
X376939Y123694D01*
X374650Y123996D01*
D02*
G37*
G36*
X349250D02*
X346961Y123694D01*
X344827Y122811D01*
X342995Y121405D01*
X341589Y119573D01*
X340706Y117439D01*
X340404Y115150D01*
X340706Y112861D01*
X341589Y110727D01*
X342995Y108895D01*
X344827Y107489D01*
X346961Y106606D01*
X349250Y106304D01*
X351539Y106606D01*
X353673Y107489D01*
X355505Y108895D01*
X356911Y110727D01*
X357794Y112861D01*
X358096Y115150D01*
X357794Y117439D01*
X356911Y119573D01*
X355505Y121405D01*
X353673Y122811D01*
X351539Y123694D01*
X349250Y123996D01*
D02*
G37*
G36*
X323850D02*
X321561Y123694D01*
X319427Y122811D01*
X317595Y121405D01*
X316189Y119573D01*
X315306Y117439D01*
X315004Y115150D01*
X315306Y112861D01*
X316189Y110727D01*
X317595Y108895D01*
X319427Y107489D01*
X321561Y106606D01*
X323850Y106304D01*
X326139Y106606D01*
X328273Y107489D01*
X330105Y108895D01*
X331511Y110727D01*
X332394Y112861D01*
X332696Y115150D01*
X332394Y117439D01*
X331511Y119573D01*
X330105Y121405D01*
X328273Y122811D01*
X326139Y123694D01*
X323850Y123996D01*
D02*
G37*
G36*
X298450D02*
X296161Y123694D01*
X294027Y122811D01*
X292195Y121405D01*
X290789Y119573D01*
X289906Y117439D01*
X289604Y115150D01*
X289906Y112861D01*
X290789Y110727D01*
X292195Y108895D01*
X294027Y107489D01*
X296161Y106606D01*
X298450Y106304D01*
X300739Y106606D01*
X302873Y107489D01*
X304705Y108895D01*
X306111Y110727D01*
X306994Y112861D01*
X307296Y115150D01*
X306994Y117439D01*
X306111Y119573D01*
X304705Y121405D01*
X302873Y122811D01*
X300739Y123694D01*
X298450Y123996D01*
D02*
G37*
G36*
X273050D02*
X270761Y123694D01*
X268627Y122811D01*
X266795Y121405D01*
X265389Y119573D01*
X264506Y117439D01*
X264204Y115150D01*
X264506Y112861D01*
X265389Y110727D01*
X266795Y108895D01*
X268627Y107489D01*
X270761Y106606D01*
X273050Y106304D01*
X275339Y106606D01*
X277473Y107489D01*
X279305Y108895D01*
X280711Y110727D01*
X281594Y112861D01*
X281896Y115150D01*
X281594Y117439D01*
X280711Y119573D01*
X279305Y121405D01*
X277473Y122811D01*
X275339Y123694D01*
X273050Y123996D01*
D02*
G37*
G36*
X247650D02*
X245361Y123694D01*
X243227Y122811D01*
X241395Y121405D01*
X239989Y119573D01*
X239106Y117439D01*
X238804Y115150D01*
X239106Y112861D01*
X239989Y110727D01*
X241395Y108895D01*
X243227Y107489D01*
X245361Y106606D01*
X247650Y106304D01*
X249939Y106606D01*
X252073Y107489D01*
X253905Y108895D01*
X255311Y110727D01*
X256194Y112861D01*
X256496Y115150D01*
X256194Y117439D01*
X255311Y119573D01*
X253905Y121405D01*
X252073Y122811D01*
X249939Y123694D01*
X247650Y123996D01*
D02*
G37*
G36*
X222250D02*
X219961Y123694D01*
X217827Y122811D01*
X215995Y121405D01*
X214589Y119573D01*
X213706Y117439D01*
X213404Y115150D01*
X213706Y112861D01*
X214589Y110727D01*
X215995Y108895D01*
X217827Y107489D01*
X219961Y106606D01*
X222250Y106304D01*
X224539Y106606D01*
X226673Y107489D01*
X228505Y108895D01*
X229911Y110727D01*
X230794Y112861D01*
X231096Y115150D01*
X230794Y117439D01*
X229911Y119573D01*
X228505Y121405D01*
X226673Y122811D01*
X224539Y123694D01*
X222250Y123996D01*
D02*
G37*
G36*
X196850D02*
X194561Y123694D01*
X192427Y122811D01*
X190595Y121405D01*
X189189Y119573D01*
X188306Y117439D01*
X188004Y115150D01*
X188306Y112861D01*
X189189Y110727D01*
X190595Y108895D01*
X192427Y107489D01*
X194561Y106606D01*
X196850Y106304D01*
X199139Y106606D01*
X201273Y107489D01*
X203105Y108895D01*
X204511Y110727D01*
X205394Y112861D01*
X205696Y115150D01*
X205394Y117439D01*
X204511Y119573D01*
X203105Y121405D01*
X201273Y122811D01*
X199139Y123694D01*
X196850Y123996D01*
D02*
G37*
G36*
X171450D02*
X169161Y123694D01*
X167027Y122811D01*
X165195Y121405D01*
X163789Y119573D01*
X162906Y117439D01*
X162604Y115150D01*
X162906Y112861D01*
X163789Y110727D01*
X165195Y108895D01*
X167027Y107489D01*
X169161Y106606D01*
X171450Y106304D01*
X173739Y106606D01*
X175873Y107489D01*
X177705Y108895D01*
X179111Y110727D01*
X179994Y112861D01*
X180296Y115150D01*
X179994Y117439D01*
X179111Y119573D01*
X177705Y121405D01*
X175873Y122811D01*
X173739Y123694D01*
X171450Y123996D01*
D02*
G37*
G36*
X146050D02*
X143761Y123694D01*
X141627Y122811D01*
X139795Y121405D01*
X138389Y119573D01*
X137506Y117439D01*
X137204Y115150D01*
X137506Y112861D01*
X138389Y110727D01*
X139795Y108895D01*
X141627Y107489D01*
X143761Y106606D01*
X146050Y106304D01*
X148339Y106606D01*
X150473Y107489D01*
X152305Y108895D01*
X153711Y110727D01*
X154594Y112861D01*
X154896Y115150D01*
X154594Y117439D01*
X153711Y119573D01*
X152305Y121405D01*
X150473Y122811D01*
X148339Y123694D01*
X146050Y123996D01*
D02*
G37*
G36*
X120650D02*
X118361Y123694D01*
X116227Y122811D01*
X114395Y121405D01*
X112989Y119573D01*
X112106Y117439D01*
X111804Y115150D01*
X112106Y112861D01*
X112989Y110727D01*
X114395Y108895D01*
X116227Y107489D01*
X118361Y106606D01*
X120650Y106304D01*
X122939Y106606D01*
X125073Y107489D01*
X126905Y108895D01*
X128311Y110727D01*
X129194Y112861D01*
X129496Y115150D01*
X129194Y117439D01*
X128311Y119573D01*
X126905Y121405D01*
X125073Y122811D01*
X122939Y123694D01*
X120650Y123996D01*
D02*
G37*
G36*
X95250D02*
X92961Y123694D01*
X90827Y122811D01*
X88995Y121405D01*
X87589Y119573D01*
X86706Y117439D01*
X86404Y115150D01*
X86706Y112861D01*
X87589Y110727D01*
X88995Y108895D01*
X90827Y107489D01*
X92961Y106606D01*
X95250Y106304D01*
X97539Y106606D01*
X99673Y107489D01*
X101505Y108895D01*
X102911Y110727D01*
X103794Y112861D01*
X104096Y115150D01*
X103794Y117439D01*
X102911Y119573D01*
X101505Y121405D01*
X99673Y122811D01*
X97539Y123694D01*
X95250Y123996D01*
D02*
G37*
G36*
X69850D02*
X67561Y123694D01*
X65427Y122811D01*
X63595Y121405D01*
X62189Y119573D01*
X61306Y117439D01*
X61004Y115150D01*
X61306Y112861D01*
X62189Y110727D01*
X63595Y108895D01*
X65427Y107489D01*
X67561Y106606D01*
X69850Y106304D01*
X72139Y106606D01*
X74273Y107489D01*
X76105Y108895D01*
X77511Y110727D01*
X78394Y112861D01*
X78696Y115150D01*
X78394Y117439D01*
X77511Y119573D01*
X76105Y121405D01*
X74273Y122811D01*
X72139Y123694D01*
X69850Y123996D01*
D02*
G37*
G36*
X44450D02*
X42161Y123694D01*
X40027Y122811D01*
X38195Y121405D01*
X36789Y119573D01*
X35906Y117439D01*
X35604Y115150D01*
X35906Y112861D01*
X36789Y110727D01*
X38195Y108895D01*
X40027Y107489D01*
X42161Y106606D01*
X44450Y106304D01*
X46739Y106606D01*
X48873Y107489D01*
X50705Y108895D01*
X52111Y110727D01*
X52994Y112861D01*
X53296Y115150D01*
X52994Y117439D01*
X52111Y119573D01*
X50705Y121405D01*
X48873Y122811D01*
X46739Y123694D01*
X44450Y123996D01*
D02*
G37*
G36*
X858520Y29859D02*
Y21170D01*
X867209D01*
X867032Y22521D01*
X866020Y24963D01*
X864411Y27061D01*
X862313Y28670D01*
X859871Y29682D01*
X858520Y29859D01*
D02*
G37*
G36*
X833120D02*
Y21170D01*
X841809D01*
X841632Y22521D01*
X840620Y24963D01*
X839011Y27061D01*
X836913Y28670D01*
X834471Y29682D01*
X833120Y29859D01*
D02*
G37*
G36*
X807720D02*
Y21170D01*
X816409D01*
X816232Y22521D01*
X815220Y24963D01*
X813611Y27061D01*
X811513Y28670D01*
X809071Y29682D01*
X807720Y29859D01*
D02*
G37*
G36*
X782320D02*
Y21170D01*
X791009D01*
X790832Y22521D01*
X789820Y24963D01*
X788211Y27061D01*
X786113Y28670D01*
X783671Y29682D01*
X782320Y29859D01*
D02*
G37*
G36*
X756920D02*
Y21170D01*
X765609D01*
X765432Y22521D01*
X764420Y24963D01*
X762811Y27061D01*
X760713Y28670D01*
X758271Y29682D01*
X756920Y29859D01*
D02*
G37*
G36*
X731520D02*
Y21170D01*
X740209D01*
X740032Y22521D01*
X739020Y24963D01*
X737411Y27061D01*
X735313Y28670D01*
X732871Y29682D01*
X731520Y29859D01*
D02*
G37*
G36*
X706120D02*
Y21170D01*
X714809D01*
X714632Y22521D01*
X713620Y24963D01*
X712011Y27061D01*
X709913Y28670D01*
X707471Y29682D01*
X706120Y29859D01*
D02*
G37*
G36*
X680720D02*
Y21170D01*
X689409D01*
X689232Y22521D01*
X688220Y24963D01*
X686611Y27061D01*
X684513Y28670D01*
X682071Y29682D01*
X680720Y29859D01*
D02*
G37*
G36*
X655320D02*
Y21170D01*
X664009D01*
X663832Y22521D01*
X662820Y24963D01*
X661211Y27061D01*
X659113Y28670D01*
X656671Y29682D01*
X655320Y29859D01*
D02*
G37*
G36*
X629920D02*
Y21170D01*
X638609D01*
X638432Y22521D01*
X637420Y24963D01*
X635811Y27061D01*
X633713Y28670D01*
X631271Y29682D01*
X629920Y29859D01*
D02*
G37*
G36*
X604520D02*
Y21170D01*
X613209D01*
X613032Y22521D01*
X612020Y24963D01*
X610411Y27061D01*
X608313Y28670D01*
X605871Y29682D01*
X604520Y29859D01*
D02*
G37*
G36*
X579120D02*
Y21170D01*
X587809D01*
X587632Y22521D01*
X586620Y24963D01*
X585011Y27061D01*
X582913Y28670D01*
X580471Y29682D01*
X579120Y29859D01*
D02*
G37*
G36*
X553720D02*
Y21170D01*
X562409D01*
X562232Y22521D01*
X561220Y24963D01*
X559611Y27061D01*
X557513Y28670D01*
X555071Y29682D01*
X553720Y29859D01*
D02*
G37*
G36*
X528320D02*
Y21170D01*
X537009D01*
X536832Y22521D01*
X535820Y24963D01*
X534211Y27061D01*
X532113Y28670D01*
X529671Y29682D01*
X528320Y29859D01*
D02*
G37*
G36*
X502920D02*
Y21170D01*
X511609D01*
X511432Y22521D01*
X510420Y24963D01*
X508811Y27061D01*
X506713Y28670D01*
X504271Y29682D01*
X502920Y29859D01*
D02*
G37*
G36*
X477520D02*
Y21170D01*
X486209D01*
X486032Y22521D01*
X485020Y24963D01*
X483411Y27061D01*
X481313Y28670D01*
X478871Y29682D01*
X477520Y29859D01*
D02*
G37*
G36*
X452120D02*
Y21170D01*
X460809D01*
X460632Y22521D01*
X459620Y24963D01*
X458011Y27061D01*
X455913Y28670D01*
X453471Y29682D01*
X452120Y29859D01*
D02*
G37*
G36*
X426720D02*
Y21170D01*
X435409D01*
X435232Y22521D01*
X434220Y24963D01*
X432611Y27061D01*
X430513Y28670D01*
X428071Y29682D01*
X426720Y29859D01*
D02*
G37*
G36*
X401320D02*
Y21170D01*
X410009D01*
X409832Y22521D01*
X408820Y24963D01*
X407211Y27061D01*
X405113Y28670D01*
X402671Y29682D01*
X401320Y29859D01*
D02*
G37*
G36*
X375920D02*
Y21170D01*
X384609D01*
X384432Y22521D01*
X383420Y24963D01*
X381811Y27061D01*
X379713Y28670D01*
X377271Y29682D01*
X375920Y29859D01*
D02*
G37*
G36*
X350520D02*
Y21170D01*
X359209D01*
X359032Y22521D01*
X358020Y24963D01*
X356411Y27061D01*
X354313Y28670D01*
X351871Y29682D01*
X350520Y29859D01*
D02*
G37*
G36*
X325120D02*
Y21170D01*
X333809D01*
X333632Y22521D01*
X332620Y24963D01*
X331011Y27061D01*
X328913Y28670D01*
X326471Y29682D01*
X325120Y29859D01*
D02*
G37*
G36*
X299720D02*
Y21170D01*
X308409D01*
X308232Y22521D01*
X307220Y24963D01*
X305611Y27061D01*
X303513Y28670D01*
X301071Y29682D01*
X299720Y29859D01*
D02*
G37*
G36*
X274320D02*
Y21170D01*
X283009D01*
X282832Y22521D01*
X281820Y24963D01*
X280211Y27061D01*
X278113Y28670D01*
X275671Y29682D01*
X274320Y29859D01*
D02*
G37*
G36*
X248920D02*
Y21170D01*
X257609D01*
X257432Y22521D01*
X256420Y24963D01*
X254811Y27061D01*
X252713Y28670D01*
X250271Y29682D01*
X248920Y29859D01*
D02*
G37*
G36*
X223520D02*
Y21170D01*
X232209D01*
X232032Y22521D01*
X231020Y24963D01*
X229411Y27061D01*
X227313Y28670D01*
X224871Y29682D01*
X223520Y29859D01*
D02*
G37*
G36*
X198120D02*
Y21170D01*
X206809D01*
X206632Y22521D01*
X205620Y24963D01*
X204011Y27061D01*
X201913Y28670D01*
X199471Y29682D01*
X198120Y29859D01*
D02*
G37*
G36*
X172720D02*
Y21170D01*
X181409D01*
X181232Y22521D01*
X180220Y24963D01*
X178611Y27061D01*
X176513Y28670D01*
X174071Y29682D01*
X172720Y29859D01*
D02*
G37*
G36*
X147320D02*
Y21170D01*
X156009D01*
X155832Y22521D01*
X154820Y24963D01*
X153211Y27061D01*
X151113Y28670D01*
X148671Y29682D01*
X147320Y29859D01*
D02*
G37*
G36*
X121920D02*
Y21170D01*
X130609D01*
X130432Y22521D01*
X129420Y24963D01*
X127811Y27061D01*
X125713Y28670D01*
X123271Y29682D01*
X121920Y29859D01*
D02*
G37*
G36*
X96520D02*
Y21170D01*
X105209D01*
X105032Y22521D01*
X104020Y24963D01*
X102411Y27061D01*
X100313Y28670D01*
X97871Y29682D01*
X96520Y29859D01*
D02*
G37*
G36*
X71120D02*
Y21170D01*
X79809D01*
X79632Y22521D01*
X78620Y24963D01*
X77011Y27061D01*
X74913Y28670D01*
X72471Y29682D01*
X71120Y29859D01*
D02*
G37*
G36*
X45720D02*
Y21170D01*
X54409D01*
X54232Y22521D01*
X53220Y24963D01*
X51611Y27061D01*
X49513Y28670D01*
X47071Y29682D01*
X45720Y29859D01*
D02*
G37*
G36*
X29090Y29940D02*
X20320D01*
Y21170D01*
X29090D01*
Y29940D01*
D02*
G37*
G36*
X855980Y29859D02*
X854629Y29682D01*
X852187Y28670D01*
X850089Y27061D01*
X848480Y24963D01*
X847468Y22521D01*
X847291Y21170D01*
X855980D01*
Y29859D01*
D02*
G37*
G36*
X830580D02*
X829229Y29682D01*
X826787Y28670D01*
X824689Y27061D01*
X823080Y24963D01*
X822068Y22521D01*
X821891Y21170D01*
X830580D01*
Y29859D01*
D02*
G37*
G36*
X805180D02*
X803829Y29682D01*
X801387Y28670D01*
X799289Y27061D01*
X797680Y24963D01*
X796668Y22521D01*
X796491Y21170D01*
X805180D01*
Y29859D01*
D02*
G37*
G36*
X779780D02*
X778429Y29682D01*
X775987Y28670D01*
X773889Y27061D01*
X772280Y24963D01*
X771268Y22521D01*
X771091Y21170D01*
X779780D01*
Y29859D01*
D02*
G37*
G36*
X754380D02*
X753029Y29682D01*
X750587Y28670D01*
X748489Y27061D01*
X746880Y24963D01*
X745868Y22521D01*
X745691Y21170D01*
X754380D01*
Y29859D01*
D02*
G37*
G36*
X728980D02*
X727629Y29682D01*
X725187Y28670D01*
X723089Y27061D01*
X721480Y24963D01*
X720468Y22521D01*
X720291Y21170D01*
X728980D01*
Y29859D01*
D02*
G37*
G36*
X703580D02*
X702229Y29682D01*
X699787Y28670D01*
X697689Y27061D01*
X696080Y24963D01*
X695068Y22521D01*
X694891Y21170D01*
X703580D01*
Y29859D01*
D02*
G37*
G36*
X678180D02*
X676829Y29682D01*
X674387Y28670D01*
X672289Y27061D01*
X670680Y24963D01*
X669668Y22521D01*
X669491Y21170D01*
X678180D01*
Y29859D01*
D02*
G37*
G36*
X652780D02*
X651429Y29682D01*
X648987Y28670D01*
X646889Y27061D01*
X645280Y24963D01*
X644268Y22521D01*
X644091Y21170D01*
X652780D01*
Y29859D01*
D02*
G37*
G36*
X627380D02*
X626029Y29682D01*
X623587Y28670D01*
X621489Y27061D01*
X619880Y24963D01*
X618868Y22521D01*
X618691Y21170D01*
X627380D01*
Y29859D01*
D02*
G37*
G36*
X601980D02*
X600629Y29682D01*
X598187Y28670D01*
X596089Y27061D01*
X594480Y24963D01*
X593468Y22521D01*
X593291Y21170D01*
X601980D01*
Y29859D01*
D02*
G37*
G36*
X576580D02*
X575229Y29682D01*
X572787Y28670D01*
X570689Y27061D01*
X569080Y24963D01*
X568068Y22521D01*
X567891Y21170D01*
X576580D01*
Y29859D01*
D02*
G37*
G36*
X551180D02*
X549829Y29682D01*
X547387Y28670D01*
X545289Y27061D01*
X543680Y24963D01*
X542668Y22521D01*
X542491Y21170D01*
X551180D01*
Y29859D01*
D02*
G37*
G36*
X525780D02*
X524429Y29682D01*
X521987Y28670D01*
X519889Y27061D01*
X518280Y24963D01*
X517268Y22521D01*
X517091Y21170D01*
X525780D01*
Y29859D01*
D02*
G37*
G36*
X500380D02*
X499029Y29682D01*
X496587Y28670D01*
X494489Y27061D01*
X492880Y24963D01*
X491868Y22521D01*
X491691Y21170D01*
X500380D01*
Y29859D01*
D02*
G37*
G36*
X474980D02*
X473629Y29682D01*
X471187Y28670D01*
X469089Y27061D01*
X467480Y24963D01*
X466468Y22521D01*
X466291Y21170D01*
X474980D01*
Y29859D01*
D02*
G37*
G36*
X449580D02*
X448229Y29682D01*
X445787Y28670D01*
X443689Y27061D01*
X442080Y24963D01*
X441068Y22521D01*
X440891Y21170D01*
X449580D01*
Y29859D01*
D02*
G37*
G36*
X424180D02*
X422829Y29682D01*
X420387Y28670D01*
X418289Y27061D01*
X416680Y24963D01*
X415668Y22521D01*
X415491Y21170D01*
X424180D01*
Y29859D01*
D02*
G37*
G36*
X398780D02*
X397429Y29682D01*
X394987Y28670D01*
X392889Y27061D01*
X391280Y24963D01*
X390268Y22521D01*
X390091Y21170D01*
X398780D01*
Y29859D01*
D02*
G37*
G36*
X373380D02*
X372029Y29682D01*
X369587Y28670D01*
X367489Y27061D01*
X365880Y24963D01*
X364868Y22521D01*
X364691Y21170D01*
X373380D01*
Y29859D01*
D02*
G37*
G36*
X347980D02*
X346629Y29682D01*
X344187Y28670D01*
X342089Y27061D01*
X340480Y24963D01*
X339468Y22521D01*
X339291Y21170D01*
X347980D01*
Y29859D01*
D02*
G37*
G36*
X322580D02*
X321229Y29682D01*
X318787Y28670D01*
X316689Y27061D01*
X315080Y24963D01*
X314068Y22521D01*
X313891Y21170D01*
X322580D01*
Y29859D01*
D02*
G37*
G36*
X297180D02*
X295829Y29682D01*
X293387Y28670D01*
X291289Y27061D01*
X289680Y24963D01*
X288668Y22521D01*
X288491Y21170D01*
X297180D01*
Y29859D01*
D02*
G37*
G36*
X271780D02*
X270429Y29682D01*
X267987Y28670D01*
X265889Y27061D01*
X264280Y24963D01*
X263268Y22521D01*
X263091Y21170D01*
X271780D01*
Y29859D01*
D02*
G37*
G36*
X246380D02*
X245029Y29682D01*
X242587Y28670D01*
X240489Y27061D01*
X238880Y24963D01*
X237868Y22521D01*
X237691Y21170D01*
X246380D01*
Y29859D01*
D02*
G37*
G36*
X220980D02*
X219629Y29682D01*
X217187Y28670D01*
X215089Y27061D01*
X213480Y24963D01*
X212468Y22521D01*
X212291Y21170D01*
X220980D01*
Y29859D01*
D02*
G37*
G36*
X195580D02*
X194229Y29682D01*
X191787Y28670D01*
X189689Y27061D01*
X188080Y24963D01*
X187068Y22521D01*
X186891Y21170D01*
X195580D01*
Y29859D01*
D02*
G37*
G36*
X170180D02*
X168829Y29682D01*
X166387Y28670D01*
X164289Y27061D01*
X162680Y24963D01*
X161668Y22521D01*
X161491Y21170D01*
X170180D01*
Y29859D01*
D02*
G37*
G36*
X144780D02*
X143429Y29682D01*
X140987Y28670D01*
X138889Y27061D01*
X137280Y24963D01*
X136268Y22521D01*
X136091Y21170D01*
X144780D01*
Y29859D01*
D02*
G37*
G36*
X119380D02*
X118029Y29682D01*
X115587Y28670D01*
X113489Y27061D01*
X111880Y24963D01*
X110868Y22521D01*
X110691Y21170D01*
X119380D01*
Y29859D01*
D02*
G37*
G36*
X93980D02*
X92629Y29682D01*
X90187Y28670D01*
X88089Y27061D01*
X86480Y24963D01*
X85468Y22521D01*
X85291Y21170D01*
X93980D01*
Y29859D01*
D02*
G37*
G36*
X68580D02*
X67229Y29682D01*
X64787Y28670D01*
X62689Y27061D01*
X61080Y24963D01*
X60068Y22521D01*
X59891Y21170D01*
X68580D01*
Y29859D01*
D02*
G37*
G36*
X43180D02*
X41829Y29682D01*
X39387Y28670D01*
X37289Y27061D01*
X35680Y24963D01*
X34668Y22521D01*
X34491Y21170D01*
X43180D01*
Y29859D01*
D02*
G37*
G36*
X17780Y29940D02*
X9010D01*
Y21170D01*
X17780D01*
Y29940D01*
D02*
G37*
G36*
X867209Y18630D02*
X858520D01*
Y9941D01*
X859871Y10118D01*
X862313Y11130D01*
X864411Y12739D01*
X866020Y14837D01*
X867032Y17279D01*
X867209Y18630D01*
D02*
G37*
G36*
X841809D02*
X833120D01*
Y9941D01*
X834471Y10118D01*
X836913Y11130D01*
X839011Y12739D01*
X840620Y14837D01*
X841632Y17279D01*
X841809Y18630D01*
D02*
G37*
G36*
X816409D02*
X807720D01*
Y9941D01*
X809071Y10118D01*
X811513Y11130D01*
X813611Y12739D01*
X815220Y14837D01*
X816232Y17279D01*
X816409Y18630D01*
D02*
G37*
G36*
X791009D02*
X782320D01*
Y9941D01*
X783671Y10118D01*
X786113Y11130D01*
X788211Y12739D01*
X789820Y14837D01*
X790832Y17279D01*
X791009Y18630D01*
D02*
G37*
G36*
X765609D02*
X756920D01*
Y9941D01*
X758271Y10118D01*
X760713Y11130D01*
X762811Y12739D01*
X764420Y14837D01*
X765432Y17279D01*
X765609Y18630D01*
D02*
G37*
G36*
X740209D02*
X731520D01*
Y9941D01*
X732871Y10118D01*
X735313Y11130D01*
X737411Y12739D01*
X739020Y14837D01*
X740032Y17279D01*
X740209Y18630D01*
D02*
G37*
G36*
X714809D02*
X706120D01*
Y9941D01*
X707471Y10118D01*
X709913Y11130D01*
X712011Y12739D01*
X713620Y14837D01*
X714632Y17279D01*
X714809Y18630D01*
D02*
G37*
G36*
X689409D02*
X680720D01*
Y9941D01*
X682071Y10118D01*
X684513Y11130D01*
X686611Y12739D01*
X688220Y14837D01*
X689232Y17279D01*
X689409Y18630D01*
D02*
G37*
G36*
X664009D02*
X655320D01*
Y9941D01*
X656671Y10118D01*
X659113Y11130D01*
X661211Y12739D01*
X662820Y14837D01*
X663832Y17279D01*
X664009Y18630D01*
D02*
G37*
G36*
X638609D02*
X629920D01*
Y9941D01*
X631271Y10118D01*
X633713Y11130D01*
X635811Y12739D01*
X637420Y14837D01*
X638432Y17279D01*
X638609Y18630D01*
D02*
G37*
G36*
X613209D02*
X604520D01*
Y9941D01*
X605871Y10118D01*
X608313Y11130D01*
X610411Y12739D01*
X612020Y14837D01*
X613032Y17279D01*
X613209Y18630D01*
D02*
G37*
G36*
X587809D02*
X579120D01*
Y9941D01*
X580471Y10118D01*
X582913Y11130D01*
X585011Y12739D01*
X586620Y14837D01*
X587632Y17279D01*
X587809Y18630D01*
D02*
G37*
G36*
X562409D02*
X553720D01*
Y9941D01*
X555071Y10118D01*
X557513Y11130D01*
X559611Y12739D01*
X561220Y14837D01*
X562232Y17279D01*
X562409Y18630D01*
D02*
G37*
G36*
X537009D02*
X528320D01*
Y9941D01*
X529671Y10118D01*
X532113Y11130D01*
X534211Y12739D01*
X535820Y14837D01*
X536832Y17279D01*
X537009Y18630D01*
D02*
G37*
G36*
X486209D02*
X477520D01*
Y9941D01*
X478871Y10118D01*
X481313Y11130D01*
X483411Y12739D01*
X485020Y14837D01*
X486032Y17279D01*
X486209Y18630D01*
D02*
G37*
G36*
X460809D02*
X452120D01*
Y9941D01*
X453471Y10118D01*
X455913Y11130D01*
X458011Y12739D01*
X459620Y14837D01*
X460632Y17279D01*
X460809Y18630D01*
D02*
G37*
G36*
X435409D02*
X426720D01*
Y9941D01*
X428071Y10118D01*
X430513Y11130D01*
X432611Y12739D01*
X434220Y14837D01*
X435232Y17279D01*
X435409Y18630D01*
D02*
G37*
G36*
X410009D02*
X401320D01*
Y9941D01*
X402671Y10118D01*
X405113Y11130D01*
X407211Y12739D01*
X408820Y14837D01*
X409832Y17279D01*
X410009Y18630D01*
D02*
G37*
G36*
X359209D02*
X350520D01*
Y9941D01*
X351871Y10118D01*
X354313Y11130D01*
X356411Y12739D01*
X358020Y14837D01*
X359032Y17279D01*
X359209Y18630D01*
D02*
G37*
G36*
X333809D02*
X325120D01*
Y9941D01*
X326471Y10118D01*
X328913Y11130D01*
X331011Y12739D01*
X332620Y14837D01*
X333632Y17279D01*
X333809Y18630D01*
D02*
G37*
G36*
X308409D02*
X299720D01*
Y9941D01*
X301071Y10118D01*
X303513Y11130D01*
X305611Y12739D01*
X307220Y14837D01*
X308232Y17279D01*
X308409Y18630D01*
D02*
G37*
G36*
X283009D02*
X274320D01*
Y9941D01*
X275671Y10118D01*
X278113Y11130D01*
X280211Y12739D01*
X281820Y14837D01*
X282832Y17279D01*
X283009Y18630D01*
D02*
G37*
G36*
X232209D02*
X223520D01*
Y9941D01*
X224871Y10118D01*
X227313Y11130D01*
X229411Y12739D01*
X231020Y14837D01*
X232032Y17279D01*
X232209Y18630D01*
D02*
G37*
G36*
X206809D02*
X198120D01*
Y9941D01*
X199471Y10118D01*
X201913Y11130D01*
X204011Y12739D01*
X205620Y14837D01*
X206632Y17279D01*
X206809Y18630D01*
D02*
G37*
G36*
X181409D02*
X172720D01*
Y9941D01*
X174071Y10118D01*
X176513Y11130D01*
X178611Y12739D01*
X180220Y14837D01*
X181232Y17279D01*
X181409Y18630D01*
D02*
G37*
G36*
X156009D02*
X147320D01*
Y9941D01*
X148671Y10118D01*
X151113Y11130D01*
X153211Y12739D01*
X154820Y14837D01*
X155832Y17279D01*
X156009Y18630D01*
D02*
G37*
G36*
X105209D02*
X96520D01*
Y9941D01*
X97871Y10118D01*
X100313Y11130D01*
X102411Y12739D01*
X104020Y14837D01*
X105032Y17279D01*
X105209Y18630D01*
D02*
G37*
G36*
X79809D02*
X71120D01*
Y9941D01*
X72471Y10118D01*
X74913Y11130D01*
X77011Y12739D01*
X78620Y14837D01*
X79632Y17279D01*
X79809Y18630D01*
D02*
G37*
G36*
X54409D02*
X45720D01*
Y9941D01*
X47071Y10118D01*
X49513Y11130D01*
X51611Y12739D01*
X53220Y14837D01*
X54232Y17279D01*
X54409Y18630D01*
D02*
G37*
G36*
X511609D02*
X502920D01*
Y9941D01*
X504271Y10118D01*
X506713Y11130D01*
X508811Y12739D01*
X510420Y14837D01*
X511432Y17279D01*
X511609Y18630D01*
D02*
G37*
G36*
X384609D02*
X375920D01*
Y9941D01*
X377271Y10118D01*
X379713Y11130D01*
X381811Y12739D01*
X383420Y14837D01*
X384432Y17279D01*
X384609Y18630D01*
D02*
G37*
G36*
X257609D02*
X248920D01*
Y9941D01*
X250271Y10118D01*
X252713Y11130D01*
X254811Y12739D01*
X256420Y14837D01*
X257432Y17279D01*
X257609Y18630D01*
D02*
G37*
G36*
X130609D02*
X121920D01*
Y9941D01*
X123271Y10118D01*
X125713Y11130D01*
X127811Y12739D01*
X129420Y14837D01*
X130432Y17279D01*
X130609Y18630D01*
D02*
G37*
G36*
X855980D02*
X847291D01*
X847468Y17279D01*
X848480Y14837D01*
X850089Y12739D01*
X852187Y11130D01*
X854629Y10118D01*
X855980Y9941D01*
Y18630D01*
D02*
G37*
G36*
X830580D02*
X821891D01*
X822068Y17279D01*
X823080Y14837D01*
X824689Y12739D01*
X826787Y11130D01*
X829229Y10118D01*
X830580Y9941D01*
Y18630D01*
D02*
G37*
G36*
X805180D02*
X796491D01*
X796668Y17279D01*
X797680Y14837D01*
X799289Y12739D01*
X801387Y11130D01*
X803829Y10118D01*
X805180Y9941D01*
Y18630D01*
D02*
G37*
G36*
X779780D02*
X771091D01*
X771268Y17279D01*
X772280Y14837D01*
X773889Y12739D01*
X775987Y11130D01*
X778429Y10118D01*
X779780Y9941D01*
Y18630D01*
D02*
G37*
G36*
X754380D02*
X745691D01*
X745868Y17279D01*
X746880Y14837D01*
X748489Y12739D01*
X750587Y11130D01*
X753029Y10118D01*
X754380Y9941D01*
Y18630D01*
D02*
G37*
G36*
X728980D02*
X720291D01*
X720468Y17279D01*
X721480Y14837D01*
X723089Y12739D01*
X725187Y11130D01*
X727629Y10118D01*
X728980Y9941D01*
Y18630D01*
D02*
G37*
G36*
X703580D02*
X694891D01*
X695068Y17279D01*
X696080Y14837D01*
X697689Y12739D01*
X699787Y11130D01*
X702229Y10118D01*
X703580Y9941D01*
Y18630D01*
D02*
G37*
G36*
X678180D02*
X669491D01*
X669668Y17279D01*
X670680Y14837D01*
X672289Y12739D01*
X674387Y11130D01*
X676829Y10118D01*
X678180Y9941D01*
Y18630D01*
D02*
G37*
G36*
X652780D02*
X644091D01*
X644268Y17279D01*
X645280Y14837D01*
X646889Y12739D01*
X648987Y11130D01*
X651429Y10118D01*
X652780Y9941D01*
Y18630D01*
D02*
G37*
G36*
X627380D02*
X618691D01*
X618868Y17279D01*
X619880Y14837D01*
X621489Y12739D01*
X623587Y11130D01*
X626029Y10118D01*
X627380Y9941D01*
Y18630D01*
D02*
G37*
G36*
X601980D02*
X593291D01*
X593468Y17279D01*
X594480Y14837D01*
X596089Y12739D01*
X598187Y11130D01*
X600629Y10118D01*
X601980Y9941D01*
Y18630D01*
D02*
G37*
G36*
X576580D02*
X567891D01*
X568068Y17279D01*
X569080Y14837D01*
X570689Y12739D01*
X572787Y11130D01*
X575229Y10118D01*
X576580Y9941D01*
Y18630D01*
D02*
G37*
G36*
X551180D02*
X542491D01*
X542668Y17279D01*
X543680Y14837D01*
X545289Y12739D01*
X547387Y11130D01*
X549829Y10118D01*
X551180Y9941D01*
Y18630D01*
D02*
G37*
G36*
X500380D02*
X491691D01*
X491868Y17279D01*
X492880Y14837D01*
X494489Y12739D01*
X496587Y11130D01*
X499029Y10118D01*
X500380Y9941D01*
Y18630D01*
D02*
G37*
G36*
X474980D02*
X466291D01*
X466468Y17279D01*
X467480Y14837D01*
X469089Y12739D01*
X471187Y11130D01*
X473629Y10118D01*
X474980Y9941D01*
Y18630D01*
D02*
G37*
G36*
X449580D02*
X440891D01*
X441068Y17279D01*
X442080Y14837D01*
X443689Y12739D01*
X445787Y11130D01*
X448229Y10118D01*
X449580Y9941D01*
Y18630D01*
D02*
G37*
G36*
X424180D02*
X415491D01*
X415668Y17279D01*
X416680Y14837D01*
X418289Y12739D01*
X420387Y11130D01*
X422829Y10118D01*
X424180Y9941D01*
Y18630D01*
D02*
G37*
G36*
X373380D02*
X364691D01*
X364868Y17279D01*
X365880Y14837D01*
X367489Y12739D01*
X369587Y11130D01*
X372029Y10118D01*
X373380Y9941D01*
Y18630D01*
D02*
G37*
G36*
X347980D02*
X339291D01*
X339468Y17279D01*
X340480Y14837D01*
X342089Y12739D01*
X344187Y11130D01*
X346629Y10118D01*
X347980Y9941D01*
Y18630D01*
D02*
G37*
G36*
X322580D02*
X313891D01*
X314068Y17279D01*
X315080Y14837D01*
X316689Y12739D01*
X318787Y11130D01*
X321229Y10118D01*
X322580Y9941D01*
Y18630D01*
D02*
G37*
G36*
X297180D02*
X288491D01*
X288668Y17279D01*
X289680Y14837D01*
X291289Y12739D01*
X293387Y11130D01*
X295829Y10118D01*
X297180Y9941D01*
Y18630D01*
D02*
G37*
G36*
X271780D02*
X263091D01*
X263268Y17279D01*
X264280Y14837D01*
X265889Y12739D01*
X267987Y11130D01*
X270429Y10118D01*
X271780Y9941D01*
Y18630D01*
D02*
G37*
G36*
X246380D02*
X237691D01*
X237868Y17279D01*
X238880Y14837D01*
X240489Y12739D01*
X242587Y11130D01*
X245029Y10118D01*
X246380Y9941D01*
Y18630D01*
D02*
G37*
G36*
X220980D02*
X212291D01*
X212468Y17279D01*
X213480Y14837D01*
X215089Y12739D01*
X217187Y11130D01*
X219629Y10118D01*
X220980Y9941D01*
Y18630D01*
D02*
G37*
G36*
X195580D02*
X186891D01*
X187068Y17279D01*
X188080Y14837D01*
X189689Y12739D01*
X191787Y11130D01*
X194229Y10118D01*
X195580Y9941D01*
Y18630D01*
D02*
G37*
G36*
X170180D02*
X161491D01*
X161668Y17279D01*
X162680Y14837D01*
X164289Y12739D01*
X166387Y11130D01*
X168829Y10118D01*
X170180Y9941D01*
Y18630D01*
D02*
G37*
G36*
X144780D02*
X136091D01*
X136268Y17279D01*
X137280Y14837D01*
X138889Y12739D01*
X140987Y11130D01*
X143429Y10118D01*
X144780Y9941D01*
Y18630D01*
D02*
G37*
G36*
X119380D02*
X110691D01*
X110868Y17279D01*
X111880Y14837D01*
X113489Y12739D01*
X115587Y11130D01*
X118029Y10118D01*
X119380Y9941D01*
Y18630D01*
D02*
G37*
G36*
X93980D02*
X85291D01*
X85468Y17279D01*
X86480Y14837D01*
X88089Y12739D01*
X90187Y11130D01*
X92629Y10118D01*
X93980Y9941D01*
Y18630D01*
D02*
G37*
G36*
X68580D02*
X59891D01*
X60068Y17279D01*
X61080Y14837D01*
X62689Y12739D01*
X64787Y11130D01*
X67229Y10118D01*
X68580Y9941D01*
Y18630D01*
D02*
G37*
G36*
X43180D02*
X34491D01*
X34668Y17279D01*
X35680Y14837D01*
X37289Y12739D01*
X39387Y11130D01*
X41829Y10118D01*
X43180Y9941D01*
Y18630D01*
D02*
G37*
G36*
X525780D02*
X517091D01*
X517268Y17279D01*
X518280Y14837D01*
X519889Y12739D01*
X521987Y11130D01*
X524429Y10118D01*
X525780Y9941D01*
Y18630D01*
D02*
G37*
G36*
X398780D02*
X390091D01*
X390268Y17279D01*
X391280Y14837D01*
X392889Y12739D01*
X394987Y11130D01*
X397429Y10118D01*
X398780Y9941D01*
Y18630D01*
D02*
G37*
G36*
X29090D02*
X20320D01*
Y9860D01*
X29090D01*
Y18630D01*
D02*
G37*
G36*
X17780D02*
X9010D01*
Y9860D01*
X17780D01*
Y18630D01*
D02*
G37*
%LPD*%
G36*
X712371Y571650D02*
X712446Y571033D01*
X712576Y570426D01*
X712761Y569827D01*
X713000Y569238D01*
X713294Y568658D01*
X713642Y568087D01*
X714045Y567525D01*
X714502Y566973D01*
X715014Y566429D01*
X710771Y562186D01*
X710228Y562698D01*
X709675Y563155D01*
X709113Y563558D01*
X708542Y563906D01*
X707962Y564200D01*
X707373Y564439D01*
X706774Y564624D01*
X706167Y564754D01*
X705551Y564829D01*
X704925Y564850D01*
X712350Y572275D01*
X712371Y571650D01*
D02*
G37*
G36*
X724902Y518906D02*
X724639Y519085D01*
X724338Y519245D01*
X724001Y519387D01*
X723628Y519510D01*
X723218Y519613D01*
X722772Y519698D01*
X721770Y519811D01*
X721214Y519840D01*
X720622Y519849D01*
Y523151D01*
X721214Y523160D01*
X722289Y523236D01*
X722772Y523302D01*
X723628Y523490D01*
X724001Y523613D01*
X724338Y523754D01*
X724639Y523915D01*
X724902Y524094D01*
Y518906D01*
D02*
G37*
G36*
X716080Y523974D02*
X716310Y523801D01*
X716559Y523649D01*
X716829Y523517D01*
X717119Y523405D01*
X717429Y523313D01*
X717759Y523242D01*
X718109Y523192D01*
X718479Y523161D01*
X718870Y523151D01*
X718870Y519849D01*
X718479Y519839D01*
X718109Y519808D01*
X717759Y519757D01*
X717429Y519686D01*
X717119Y519595D01*
X716829Y519483D01*
X716559Y519351D01*
X716310Y519199D01*
X716080Y519026D01*
X715871Y518833D01*
X715871Y524167D01*
X716080Y523974D01*
D02*
G37*
G36*
X718080Y513974D02*
X718310Y513801D01*
X718559Y513649D01*
X718829Y513517D01*
X719119Y513405D01*
X719428Y513313D01*
X719759Y513242D01*
X720109Y513192D01*
X720479Y513161D01*
X720776Y513153D01*
X721214Y513160D01*
X722289Y513236D01*
X722772Y513302D01*
X723628Y513490D01*
X724001Y513613D01*
X724338Y513754D01*
X724639Y513915D01*
X724902Y514094D01*
Y508906D01*
X724639Y509085D01*
X724338Y509245D01*
X724001Y509387D01*
X723628Y509510D01*
X723218Y509613D01*
X722772Y509698D01*
X721770Y509811D01*
X721214Y509840D01*
X720776Y509846D01*
X720479Y509839D01*
X720109Y509808D01*
X719759Y509757D01*
X719428Y509686D01*
X719118Y509595D01*
X718829Y509483D01*
X718559Y509351D01*
X718309Y509199D01*
X718080Y509026D01*
X717871Y508833D01*
X717871Y514167D01*
X718080Y513974D01*
D02*
G37*
G36*
X718330Y493974D02*
X718559Y493801D01*
X718809Y493649D01*
X719079Y493517D01*
X719369Y493405D01*
X719678Y493313D01*
X720009Y493242D01*
X720359Y493192D01*
X720729Y493161D01*
X720931Y493156D01*
X721214Y493160D01*
X722289Y493236D01*
X722772Y493302D01*
X723628Y493490D01*
X724001Y493613D01*
X724338Y493754D01*
X724639Y493915D01*
X724902Y494094D01*
Y488906D01*
X724639Y489085D01*
X724338Y489245D01*
X724001Y489387D01*
X723628Y489510D01*
X723218Y489613D01*
X722772Y489698D01*
X721770Y489811D01*
X721214Y489840D01*
X720931Y489844D01*
X720729Y489839D01*
X720359Y489808D01*
X720008Y489757D01*
X719678Y489686D01*
X719369Y489595D01*
X719079Y489483D01*
X718809Y489351D01*
X718559Y489199D01*
X718330Y489026D01*
X718121Y488833D01*
X718121Y494167D01*
X718330Y493974D01*
D02*
G37*
G36*
Y483974D02*
X718559Y483801D01*
X718809Y483649D01*
X719079Y483517D01*
X719369Y483405D01*
X719678Y483313D01*
X720009Y483242D01*
X720359Y483192D01*
X720729Y483161D01*
X720931Y483156D01*
X721214Y483160D01*
X722289Y483236D01*
X722772Y483302D01*
X723628Y483490D01*
X724001Y483613D01*
X724338Y483754D01*
X724639Y483915D01*
X724902Y484094D01*
Y478906D01*
X724639Y479085D01*
X724338Y479245D01*
X724001Y479387D01*
X723628Y479510D01*
X723218Y479613D01*
X722772Y479698D01*
X721770Y479811D01*
X721214Y479840D01*
X720931Y479844D01*
X720729Y479839D01*
X720359Y479808D01*
X720008Y479757D01*
X719678Y479686D01*
X719369Y479595D01*
X719079Y479483D01*
X718809Y479351D01*
X718559Y479199D01*
X718330Y479026D01*
X718121Y478833D01*
X718121Y484167D01*
X718330Y483974D01*
D02*
G37*
G36*
X724902Y458906D02*
X724639Y459085D01*
X724338Y459245D01*
X724001Y459387D01*
X723628Y459510D01*
X723218Y459613D01*
X722772Y459698D01*
X721770Y459811D01*
X721214Y459840D01*
X720622Y459849D01*
Y463151D01*
X721214Y463160D01*
X722289Y463236D01*
X722772Y463302D01*
X723628Y463490D01*
X724001Y463613D01*
X724338Y463754D01*
X724639Y463915D01*
X724902Y464094D01*
Y458906D01*
D02*
G37*
G36*
X716580Y463974D02*
X716810Y463801D01*
X717059Y463649D01*
X717329Y463517D01*
X717619Y463405D01*
X717928Y463313D01*
X718259Y463242D01*
X718609Y463192D01*
X718979Y463161D01*
X719370Y463151D01*
X719370Y459849D01*
X718979Y459839D01*
X718609Y459808D01*
X718259Y459757D01*
X717928Y459686D01*
X717618Y459595D01*
X717329Y459483D01*
X717059Y459351D01*
X716809Y459199D01*
X716580Y459026D01*
X716371Y458833D01*
X716371Y464167D01*
X716580Y463974D01*
D02*
G37*
G36*
X724902Y448906D02*
X724639Y449085D01*
X724338Y449245D01*
X724001Y449387D01*
X723628Y449510D01*
X723218Y449613D01*
X722772Y449698D01*
X721770Y449811D01*
X721214Y449840D01*
X720622Y449849D01*
Y453151D01*
X721214Y453160D01*
X722289Y453236D01*
X722772Y453302D01*
X723628Y453490D01*
X724001Y453613D01*
X724338Y453754D01*
X724639Y453915D01*
X724902Y454094D01*
Y448906D01*
D02*
G37*
G36*
X716830Y453974D02*
X717060Y453801D01*
X717309Y453649D01*
X717579Y453517D01*
X717869Y453405D01*
X718178Y453313D01*
X718509Y453242D01*
X718859Y453192D01*
X719229Y453161D01*
X719620Y453151D01*
X719620Y449849D01*
X719229Y449839D01*
X718859Y449808D01*
X718509Y449757D01*
X718178Y449686D01*
X717868Y449595D01*
X717579Y449483D01*
X717309Y449351D01*
X717059Y449199D01*
X716830Y449026D01*
X716621Y448833D01*
X716621Y454167D01*
X716830Y453974D01*
D02*
G37*
G36*
X724902Y438906D02*
X724639Y439085D01*
X724338Y439245D01*
X724001Y439387D01*
X723628Y439510D01*
X723218Y439613D01*
X722772Y439698D01*
X721770Y439811D01*
X721214Y439840D01*
X720622Y439849D01*
Y443151D01*
X721214Y443160D01*
X722289Y443236D01*
X722772Y443302D01*
X723628Y443490D01*
X724001Y443613D01*
X724338Y443754D01*
X724639Y443915D01*
X724902Y444094D01*
Y438906D01*
D02*
G37*
G36*
X716909Y443911D02*
X717148Y443752D01*
X717405Y443611D01*
X717682Y443489D01*
X717977Y443386D01*
X718291Y443301D01*
X718624Y443235D01*
X718977Y443189D01*
X719348Y443160D01*
X719738Y443151D01*
X719979Y439849D01*
X719588Y439838D01*
X719218Y439806D01*
X718870Y439752D01*
X718544Y439676D01*
X718239Y439579D01*
X717956Y439459D01*
X717695Y439319D01*
X717455Y439157D01*
X717237Y438973D01*
X717040Y438767D01*
X716690Y444090D01*
X716909Y443911D01*
D02*
G37*
G36*
X724902Y428906D02*
X724639Y429085D01*
X724338Y429245D01*
X724001Y429387D01*
X723628Y429510D01*
X723218Y429613D01*
X722772Y429698D01*
X721770Y429811D01*
X721214Y429840D01*
X720622Y429849D01*
Y433151D01*
X721214Y433160D01*
X722289Y433236D01*
X722772Y433302D01*
X723628Y433490D01*
X724001Y433613D01*
X724338Y433754D01*
X724639Y433915D01*
X724902Y434094D01*
Y428906D01*
D02*
G37*
G36*
X717160Y433911D02*
X717398Y433752D01*
X717655Y433611D01*
X717932Y433489D01*
X718227Y433386D01*
X718541Y433301D01*
X718874Y433235D01*
X719227Y433189D01*
X719598Y433160D01*
X719988Y433151D01*
X720229Y429849D01*
X719838Y429838D01*
X719468Y429806D01*
X719120Y429752D01*
X718794Y429676D01*
X718489Y429579D01*
X718206Y429459D01*
X717945Y429319D01*
X717705Y429157D01*
X717487Y428973D01*
X717290Y428767D01*
X716940Y434090D01*
X717160Y433911D01*
D02*
G37*
G36*
X782161Y523915D02*
X782462Y523754D01*
X782799Y523613D01*
X783172Y523490D01*
X783582Y523387D01*
X784028Y523302D01*
X785030Y523189D01*
X785586Y523160D01*
X786178Y523151D01*
Y519849D01*
X785586Y519840D01*
X784511Y519764D01*
X784028Y519698D01*
X783172Y519510D01*
X782799Y519387D01*
X782462Y519245D01*
X782161Y519085D01*
X781898Y518906D01*
Y524094D01*
X782161Y523915D01*
D02*
G37*
G36*
X801330Y523974D02*
X801560Y523801D01*
X801809Y523649D01*
X802079Y523517D01*
X802368Y523405D01*
X802679Y523314D01*
X803009Y523242D01*
X803359Y523192D01*
X803729Y523161D01*
X804120Y523151D01*
Y519849D01*
X803729Y519839D01*
X803359Y519808D01*
X803009Y519758D01*
X802679Y519686D01*
X802368Y519595D01*
X802079Y519483D01*
X801809Y519351D01*
X801560Y519199D01*
X801330Y519026D01*
X801121Y518833D01*
Y524167D01*
X801330Y523974D01*
D02*
G37*
G36*
X795679Y518833D02*
X795470Y519026D01*
X795240Y519199D01*
X794991Y519351D01*
X794721Y519483D01*
X794432Y519595D01*
X794121Y519686D01*
X793792Y519757D01*
X793441Y519808D01*
X793071Y519839D01*
X792680Y519849D01*
X792680Y523151D01*
X793071Y523161D01*
X793441Y523192D01*
X793791Y523242D01*
X794121Y523313D01*
X794432Y523405D01*
X794721Y523517D01*
X794991Y523649D01*
X795240Y523801D01*
X795470Y523974D01*
X795679Y524167D01*
X795679Y518833D01*
D02*
G37*
G36*
X787929Y508833D02*
X787720Y509026D01*
X787490Y509199D01*
X787241Y509351D01*
X786971Y509483D01*
X786682Y509595D01*
X786372Y509686D01*
X786041Y509757D01*
X785691Y509808D01*
X785438Y509829D01*
X784511Y509764D01*
X784028Y509698D01*
X783172Y509510D01*
X782799Y509387D01*
X782462Y509245D01*
X782161Y509085D01*
X781898Y508906D01*
Y514094D01*
X782161Y513915D01*
X782462Y513754D01*
X782799Y513613D01*
X783172Y513490D01*
X783582Y513387D01*
X784028Y513302D01*
X785030Y513189D01*
X785417Y513169D01*
X785691Y513192D01*
X786041Y513242D01*
X786372Y513313D01*
X786682Y513405D01*
X786971Y513517D01*
X787241Y513649D01*
X787490Y513801D01*
X787720Y513974D01*
X787929Y514167D01*
X787929Y508833D01*
D02*
G37*
G36*
X793580Y513974D02*
X793810Y513801D01*
X794059Y513649D01*
X794329Y513517D01*
X794619Y513405D01*
X794929Y513314D01*
X795259Y513242D01*
X795609Y513192D01*
X795979Y513161D01*
X796370Y513151D01*
Y509849D01*
X795979Y509839D01*
X795609Y509808D01*
X795259Y509758D01*
X794929Y509687D01*
X794619Y509595D01*
X794329Y509483D01*
X794059Y509351D01*
X793810Y509199D01*
X793580Y509026D01*
X793371Y508833D01*
Y514167D01*
X793580Y513974D01*
D02*
G37*
G36*
X782161Y493915D02*
X782462Y493754D01*
X782799Y493613D01*
X783172Y493490D01*
X783582Y493387D01*
X784028Y493302D01*
X785030Y493189D01*
X785586Y493160D01*
X786178Y493151D01*
Y489849D01*
X785586Y489840D01*
X784511Y489764D01*
X784028Y489698D01*
X783172Y489510D01*
X782799Y489387D01*
X782462Y489245D01*
X782161Y489085D01*
X781898Y488906D01*
Y494094D01*
X782161Y493915D01*
D02*
G37*
G36*
X801330Y493974D02*
X801560Y493801D01*
X801809Y493649D01*
X802079Y493517D01*
X802368Y493405D01*
X802679Y493314D01*
X803009Y493242D01*
X803359Y493192D01*
X803729Y493161D01*
X804120Y493151D01*
Y489849D01*
X803729Y489839D01*
X803359Y489808D01*
X803009Y489758D01*
X802679Y489686D01*
X802368Y489595D01*
X802079Y489483D01*
X801809Y489351D01*
X801560Y489199D01*
X801330Y489026D01*
X801121Y488833D01*
Y494167D01*
X801330Y493974D01*
D02*
G37*
G36*
X795679Y488833D02*
X795470Y489026D01*
X795240Y489199D01*
X794991Y489351D01*
X794721Y489483D01*
X794432Y489595D01*
X794122Y489686D01*
X793792Y489757D01*
X793441Y489808D01*
X793071Y489839D01*
X792680Y489849D01*
X792680Y493151D01*
X793071Y493161D01*
X793441Y493192D01*
X793791Y493242D01*
X794121Y493313D01*
X794432Y493405D01*
X794721Y493517D01*
X794991Y493649D01*
X795240Y493801D01*
X795470Y493974D01*
X795679Y494167D01*
X795679Y488833D01*
D02*
G37*
G36*
X788179Y478833D02*
X787970Y479026D01*
X787740Y479199D01*
X787491Y479351D01*
X787221Y479483D01*
X786932Y479595D01*
X786621Y479686D01*
X786291Y479757D01*
X785941Y479808D01*
X785573Y479839D01*
X784511Y479764D01*
X784028Y479698D01*
X783172Y479510D01*
X782799Y479387D01*
X782462Y479245D01*
X782161Y479085D01*
X781898Y478906D01*
Y484094D01*
X782161Y483915D01*
X782462Y483754D01*
X782799Y483613D01*
X783172Y483490D01*
X783582Y483387D01*
X784028Y483302D01*
X785030Y483189D01*
X785571Y483161D01*
X785941Y483192D01*
X786291Y483242D01*
X786621Y483313D01*
X786931Y483405D01*
X787221Y483517D01*
X787491Y483649D01*
X787740Y483801D01*
X787970Y483974D01*
X788179Y484167D01*
X788179Y478833D01*
D02*
G37*
G36*
X793830Y483974D02*
X794060Y483801D01*
X794309Y483649D01*
X794579Y483517D01*
X794868Y483405D01*
X795179Y483314D01*
X795509Y483242D01*
X795859Y483192D01*
X796229Y483161D01*
X796620Y483151D01*
Y479849D01*
X796229Y479839D01*
X795859Y479808D01*
X795509Y479758D01*
X795179Y479686D01*
X794868Y479595D01*
X794579Y479483D01*
X794309Y479351D01*
X794060Y479199D01*
X793830Y479026D01*
X793621Y478833D01*
Y484167D01*
X793830Y483974D01*
D02*
G37*
G36*
X782161Y463915D02*
X782462Y463754D01*
X782799Y463613D01*
X783172Y463490D01*
X783582Y463387D01*
X784028Y463302D01*
X785030Y463189D01*
X785586Y463160D01*
X786178Y463151D01*
Y459849D01*
X785586Y459840D01*
X784511Y459764D01*
X784028Y459698D01*
X783172Y459510D01*
X782799Y459387D01*
X782462Y459245D01*
X782161Y459085D01*
X781898Y458906D01*
Y464094D01*
X782161Y463915D01*
D02*
G37*
G36*
X800330Y463974D02*
X800559Y463801D01*
X800809Y463649D01*
X801079Y463517D01*
X801368Y463405D01*
X801678Y463314D01*
X802009Y463242D01*
X802359Y463192D01*
X802729Y463161D01*
X803120Y463151D01*
Y459849D01*
X802729Y459839D01*
X802359Y459808D01*
X802009Y459758D01*
X801678Y459687D01*
X801368Y459595D01*
X801079Y459483D01*
X800809Y459351D01*
X800559Y459199D01*
X800330Y459026D01*
X800121Y458833D01*
Y464167D01*
X800330Y463974D01*
D02*
G37*
G36*
X794679Y458833D02*
X794470Y459026D01*
X794240Y459199D01*
X793991Y459351D01*
X793721Y459483D01*
X793431Y459595D01*
X793122Y459686D01*
X792792Y459757D01*
X792441Y459808D01*
X792071Y459839D01*
X791680Y459849D01*
X791680Y463151D01*
X792071Y463161D01*
X792441Y463192D01*
X792791Y463242D01*
X793121Y463313D01*
X793431Y463405D01*
X793721Y463517D01*
X793991Y463649D01*
X794240Y463801D01*
X794470Y463974D01*
X794679Y464167D01*
X794679Y458833D01*
D02*
G37*
G36*
X788179Y448833D02*
X787970Y449026D01*
X787740Y449199D01*
X787491Y449351D01*
X787221Y449483D01*
X786932Y449595D01*
X786621Y449686D01*
X786292Y449757D01*
X785941Y449808D01*
X785573Y449839D01*
X784511Y449764D01*
X784028Y449698D01*
X783172Y449510D01*
X782799Y449387D01*
X782462Y449245D01*
X782161Y449085D01*
X781898Y448906D01*
Y454094D01*
X782161Y453915D01*
X782462Y453754D01*
X782799Y453613D01*
X783172Y453490D01*
X783582Y453387D01*
X784028Y453302D01*
X785030Y453189D01*
X785571Y453161D01*
X785941Y453192D01*
X786291Y453242D01*
X786621Y453313D01*
X786931Y453405D01*
X787221Y453517D01*
X787491Y453649D01*
X787740Y453801D01*
X787970Y453974D01*
X788179Y454167D01*
X788179Y448833D01*
D02*
G37*
G36*
X793830Y453974D02*
X794060Y453801D01*
X794309Y453649D01*
X794579Y453517D01*
X794868Y453405D01*
X795179Y453314D01*
X795509Y453242D01*
X795859Y453192D01*
X796229Y453161D01*
X796620Y453151D01*
Y449849D01*
X796229Y449839D01*
X795859Y449808D01*
X795509Y449758D01*
X795179Y449687D01*
X794868Y449595D01*
X794579Y449483D01*
X794309Y449351D01*
X794060Y449199D01*
X793830Y449026D01*
X793621Y448833D01*
Y454167D01*
X793830Y453974D01*
D02*
G37*
G36*
X782161Y443915D02*
X782462Y443754D01*
X782799Y443613D01*
X783172Y443490D01*
X783582Y443387D01*
X784028Y443302D01*
X785030Y443189D01*
X785586Y443160D01*
X786178Y443151D01*
Y439849D01*
X785586Y439840D01*
X784511Y439764D01*
X784028Y439698D01*
X783172Y439510D01*
X782799Y439387D01*
X782462Y439245D01*
X782161Y439085D01*
X781898Y438906D01*
Y444094D01*
X782161Y443915D01*
D02*
G37*
G36*
X795179Y438833D02*
X794970Y439026D01*
X794741Y439199D01*
X794491Y439351D01*
X794221Y439483D01*
X793932Y439595D01*
X793622Y439686D01*
X793291Y439757D01*
X792941Y439808D01*
X792571Y439839D01*
X792180Y439849D01*
X792180Y443151D01*
X792571Y443161D01*
X792941Y443192D01*
X793291Y443242D01*
X793622Y443313D01*
X793931Y443405D01*
X794221Y443517D01*
X794491Y443649D01*
X794740Y443801D01*
X794970Y443974D01*
X795179Y444167D01*
X795179Y438833D01*
D02*
G37*
G36*
X801721Y441177D02*
X801761Y440893D01*
X801830Y440609D01*
X801927Y440325D01*
X802053Y440041D01*
X802208Y439757D01*
X802391Y439473D01*
X802603Y439190D01*
X802843Y438906D01*
X803112Y438623D01*
X800777Y436288D01*
X800494Y436557D01*
X800210Y436797D01*
X799927Y437009D01*
X799643Y437192D01*
X799359Y437347D01*
X799075Y437473D01*
X798791Y437570D01*
X798507Y437639D01*
X798223Y437679D01*
X797938Y437690D01*
X801710Y441462D01*
X801721Y441177D01*
D02*
G37*
G36*
X788429Y428833D02*
X788220Y429026D01*
X787990Y429199D01*
X787741Y429351D01*
X787471Y429483D01*
X787181Y429595D01*
X786872Y429686D01*
X786542Y429757D01*
X786191Y429808D01*
X785821Y429839D01*
X785714Y429841D01*
X785586Y429840D01*
X784511Y429764D01*
X784028Y429698D01*
X783172Y429510D01*
X782799Y429387D01*
X782462Y429245D01*
X782161Y429085D01*
X781898Y428906D01*
Y434094D01*
X782161Y433915D01*
X782462Y433754D01*
X782799Y433613D01*
X783172Y433490D01*
X783582Y433387D01*
X784028Y433302D01*
X785030Y433189D01*
X785586Y433160D01*
X785714Y433158D01*
X785821Y433161D01*
X786191Y433192D01*
X786541Y433242D01*
X786871Y433313D01*
X787181Y433405D01*
X787471Y433517D01*
X787741Y433649D01*
X787990Y433801D01*
X788220Y433974D01*
X788429Y434167D01*
X788429Y428833D01*
D02*
G37*
G36*
X794971Y431177D02*
X795011Y430893D01*
X795080Y430609D01*
X795177Y430325D01*
X795303Y430041D01*
X795458Y429757D01*
X795641Y429473D01*
X795853Y429190D01*
X796093Y428906D01*
X796362Y428623D01*
X794027Y426288D01*
X793744Y426557D01*
X793460Y426797D01*
X793177Y427009D01*
X792893Y427192D01*
X792609Y427347D01*
X792325Y427473D01*
X792041Y427570D01*
X791757Y427639D01*
X791473Y427679D01*
X791188Y427690D01*
X794960Y431462D01*
X794971Y431177D01*
D02*
G37*
G36*
X782161Y413915D02*
X782462Y413754D01*
X782799Y413613D01*
X783172Y413490D01*
X783582Y413387D01*
X784028Y413302D01*
X785030Y413189D01*
X785586Y413160D01*
X786178Y413151D01*
Y409849D01*
X785586Y409840D01*
X784511Y409764D01*
X784028Y409698D01*
X783172Y409510D01*
X782799Y409387D01*
X782462Y409245D01*
X782161Y409085D01*
X781898Y408906D01*
Y414094D01*
X782161Y413915D01*
D02*
G37*
G36*
X794179Y408833D02*
X793970Y409026D01*
X793741Y409199D01*
X793491Y409351D01*
X793221Y409483D01*
X792932Y409595D01*
X792622Y409686D01*
X792291Y409757D01*
X791941Y409808D01*
X791571Y409839D01*
X791180Y409849D01*
X791180Y413151D01*
X791571Y413161D01*
X791941Y413192D01*
X792291Y413242D01*
X792622Y413313D01*
X792931Y413405D01*
X793221Y413517D01*
X793491Y413649D01*
X793740Y413801D01*
X793970Y413974D01*
X794179Y414167D01*
X794179Y408833D01*
D02*
G37*
G36*
X800721Y411177D02*
X800761Y410893D01*
X800830Y410609D01*
X800927Y410325D01*
X801053Y410041D01*
X801208Y409757D01*
X801391Y409473D01*
X801603Y409190D01*
X801843Y408906D01*
X802112Y408623D01*
X799777Y406288D01*
X799494Y406557D01*
X799210Y406797D01*
X798927Y407009D01*
X798643Y407192D01*
X798359Y407347D01*
X798075Y407473D01*
X797791Y407570D01*
X797507Y407639D01*
X797223Y407679D01*
X796938Y407690D01*
X800710Y411462D01*
X800721Y411177D01*
D02*
G37*
G36*
X787679Y398833D02*
X787470Y399026D01*
X787241Y399199D01*
X786991Y399351D01*
X786721Y399483D01*
X786432Y399595D01*
X786122Y399686D01*
X785791Y399757D01*
X785441Y399808D01*
X785303Y399820D01*
X784511Y399764D01*
X784028Y399698D01*
X783172Y399510D01*
X782799Y399387D01*
X782462Y399245D01*
X782161Y399085D01*
X781898Y398906D01*
Y404094D01*
X782161Y403915D01*
X782462Y403754D01*
X782799Y403613D01*
X783172Y403490D01*
X783582Y403387D01*
X784028Y403302D01*
X785030Y403189D01*
X785262Y403177D01*
X785441Y403191D01*
X785791Y403242D01*
X786122Y403313D01*
X786431Y403405D01*
X786721Y403517D01*
X786991Y403649D01*
X787240Y403801D01*
X787470Y403974D01*
X787679Y404167D01*
X787679Y398833D01*
D02*
G37*
G36*
X782161Y393915D02*
X782462Y393754D01*
X782799Y393613D01*
X783172Y393490D01*
X783582Y393387D01*
X784028Y393302D01*
X785030Y393189D01*
X785586Y393160D01*
X786178Y393151D01*
Y389849D01*
X785586Y389840D01*
X784511Y389764D01*
X784028Y389698D01*
X783172Y389510D01*
X782799Y389387D01*
X782462Y389245D01*
X782161Y389085D01*
X781898Y388906D01*
Y394094D01*
X782161Y393915D01*
D02*
G37*
G36*
X791010Y388767D02*
X790813Y388973D01*
X790595Y389157D01*
X790355Y389319D01*
X790094Y389459D01*
X789811Y389579D01*
X789506Y389676D01*
X789180Y389752D01*
X788832Y389806D01*
X788462Y389838D01*
X788071Y389849D01*
X788312Y393151D01*
X788702Y393160D01*
X789426Y393235D01*
X789759Y393301D01*
X790073Y393386D01*
X790368Y393489D01*
X790645Y393611D01*
X790902Y393752D01*
X791141Y393911D01*
X791360Y394090D01*
X791010Y388767D01*
D02*
G37*
G36*
X788679Y378833D02*
X788470Y379026D01*
X788241Y379199D01*
X787991Y379351D01*
X787721Y379483D01*
X787431Y379595D01*
X787122Y379686D01*
X786792Y379757D01*
X786441Y379808D01*
X786071Y379839D01*
X785869Y379844D01*
X785586Y379840D01*
X784511Y379764D01*
X784028Y379698D01*
X783172Y379510D01*
X782799Y379387D01*
X782462Y379245D01*
X782161Y379085D01*
X781898Y378906D01*
Y384094D01*
X782161Y383915D01*
X782462Y383754D01*
X782799Y383613D01*
X783172Y383490D01*
X783582Y383387D01*
X784028Y383302D01*
X785030Y383189D01*
X785586Y383160D01*
X785869Y383156D01*
X786071Y383161D01*
X786441Y383191D01*
X786791Y383242D01*
X787122Y383313D01*
X787431Y383405D01*
X787721Y383517D01*
X787991Y383649D01*
X788240Y383801D01*
X788470Y383974D01*
X788679Y384167D01*
X788679Y378833D01*
D02*
G37*
G36*
X865817Y121383D02*
X865438Y120977D01*
X865111Y120574D01*
X864837Y120173D01*
X864617Y119773D01*
X864449Y119374D01*
X864333Y118978D01*
X864271Y118583D01*
X864262Y118190D01*
X864305Y117799D01*
X864402Y117409D01*
X859509Y122302D01*
X859899Y122205D01*
X860290Y122162D01*
X860683Y122171D01*
X861078Y122233D01*
X861474Y122349D01*
X861872Y122517D01*
X862272Y122738D01*
X862674Y123011D01*
X863077Y123338D01*
X863483Y123717D01*
X865817Y121383D01*
D02*
G37*
G36*
X662192Y123957D02*
X661770Y123479D01*
X661420Y122959D01*
X661142Y122400D01*
X660937Y121799D01*
X660804Y121158D01*
X660743Y120476D01*
X660754Y119754D01*
X660838Y118991D01*
X660994Y118187D01*
X661222Y117343D01*
X652001Y122365D01*
X653060Y122677D01*
X656532Y123949D01*
X657208Y124271D01*
X658331Y124923D01*
X658778Y125252D01*
X659148Y125583D01*
X662192Y123957D01*
D02*
G37*
G36*
X724902Y408906D02*
X724639Y409085D01*
X724338Y409245D01*
X724001Y409387D01*
X723628Y409510D01*
X723218Y409613D01*
X722772Y409698D01*
X721770Y409811D01*
X721214Y409840D01*
X720622Y409849D01*
Y413151D01*
X721214Y413160D01*
X722289Y413236D01*
X722772Y413302D01*
X723628Y413490D01*
X724001Y413613D01*
X724338Y413754D01*
X724639Y413915D01*
X724902Y414094D01*
Y408906D01*
D02*
G37*
G36*
X717830Y413974D02*
X718060Y413801D01*
X718309Y413649D01*
X718579Y413517D01*
X718869Y413405D01*
X719178Y413313D01*
X719509Y413242D01*
X719859Y413192D01*
X720229Y413161D01*
X720620Y413151D01*
X720620Y409849D01*
X720229Y409839D01*
X719859Y409808D01*
X719509Y409757D01*
X719178Y409686D01*
X718868Y409595D01*
X718579Y409483D01*
X718309Y409351D01*
X718059Y409199D01*
X717830Y409026D01*
X717621Y408833D01*
X717621Y414167D01*
X717830Y413974D01*
D02*
G37*
G36*
X724902Y398906D02*
X724639Y399085D01*
X724338Y399245D01*
X724001Y399387D01*
X723628Y399510D01*
X723218Y399613D01*
X722772Y399698D01*
X721770Y399811D01*
X721214Y399840D01*
X720622Y399849D01*
Y403151D01*
X721214Y403160D01*
X722289Y403236D01*
X722772Y403302D01*
X723628Y403490D01*
X724001Y403613D01*
X724338Y403754D01*
X724639Y403915D01*
X724902Y404094D01*
Y398906D01*
D02*
G37*
G36*
X711080Y403974D02*
X711310Y403801D01*
X711559Y403649D01*
X711829Y403517D01*
X712119Y403405D01*
X712429Y403313D01*
X712759Y403242D01*
X713109Y403191D01*
X713479Y403161D01*
X713870Y403151D01*
X713870Y399849D01*
X713479Y399839D01*
X713109Y399808D01*
X712758Y399757D01*
X712428Y399686D01*
X712119Y399595D01*
X711829Y399483D01*
X711559Y399351D01*
X711309Y399199D01*
X711080Y399026D01*
X710871Y398833D01*
X710871Y404167D01*
X711080Y403974D01*
D02*
G37*
G36*
X718580Y393974D02*
X718810Y393801D01*
X719059Y393649D01*
X719329Y393517D01*
X719619Y393405D01*
X719929Y393313D01*
X720259Y393242D01*
X720609Y393191D01*
X720979Y393161D01*
X721086Y393158D01*
X721214Y393160D01*
X722289Y393236D01*
X722772Y393302D01*
X723628Y393490D01*
X724001Y393613D01*
X724338Y393754D01*
X724639Y393915D01*
X724902Y394094D01*
Y388906D01*
X724639Y389085D01*
X724338Y389245D01*
X724001Y389387D01*
X723628Y389510D01*
X723218Y389613D01*
X722772Y389698D01*
X721770Y389811D01*
X721214Y389840D01*
X721086Y389841D01*
X720979Y389839D01*
X720609Y389808D01*
X720258Y389757D01*
X719928Y389686D01*
X719619Y389595D01*
X719329Y389483D01*
X719059Y389351D01*
X718810Y389199D01*
X718580Y389026D01*
X718371Y388833D01*
X718371Y394167D01*
X718580Y393974D01*
D02*
G37*
G36*
X724902Y378906D02*
X724639Y379085D01*
X724338Y379245D01*
X724001Y379387D01*
X723628Y379510D01*
X723218Y379613D01*
X722772Y379698D01*
X721770Y379811D01*
X721214Y379840D01*
X720622Y379849D01*
Y383151D01*
X721214Y383160D01*
X722289Y383236D01*
X722772Y383302D01*
X723628Y383490D01*
X724001Y383613D01*
X724338Y383754D01*
X724639Y383915D01*
X724902Y384094D01*
Y378906D01*
D02*
G37*
G36*
X710330Y383974D02*
X710560Y383801D01*
X710809Y383649D01*
X711079Y383517D01*
X711369Y383405D01*
X711678Y383313D01*
X712009Y383242D01*
X712359Y383191D01*
X712729Y383161D01*
X713120Y383151D01*
X713120Y379849D01*
X712729Y379839D01*
X712359Y379808D01*
X712009Y379757D01*
X711678Y379686D01*
X711368Y379595D01*
X711079Y379483D01*
X710809Y379351D01*
X710559Y379199D01*
X710330Y379026D01*
X710121Y378833D01*
X710121Y384167D01*
X710330Y383974D01*
D02*
G37*
G36*
X788929Y358833D02*
X788720Y359026D01*
X788491Y359199D01*
X788241Y359351D01*
X787971Y359483D01*
X787682Y359595D01*
X787372Y359686D01*
X787041Y359757D01*
X786691Y359808D01*
X786321Y359839D01*
X786024Y359846D01*
X785586Y359840D01*
X784511Y359764D01*
X784028Y359698D01*
X783172Y359509D01*
X782799Y359387D01*
X782462Y359245D01*
X782161Y359085D01*
X781898Y358906D01*
Y364094D01*
X782161Y363915D01*
X782462Y363754D01*
X782799Y363613D01*
X783172Y363490D01*
X783582Y363387D01*
X784028Y363302D01*
X785030Y363189D01*
X785586Y363160D01*
X786024Y363153D01*
X786321Y363161D01*
X786691Y363191D01*
X787041Y363242D01*
X787372Y363313D01*
X787681Y363405D01*
X787971Y363517D01*
X788241Y363649D01*
X788490Y363801D01*
X788720Y363974D01*
X788929Y364167D01*
X788929Y358833D01*
D02*
G37*
G36*
X718580Y363974D02*
X718810Y363801D01*
X719059Y363649D01*
X719329Y363517D01*
X719619Y363405D01*
X719929Y363313D01*
X720259Y363242D01*
X720609Y363191D01*
X720979Y363161D01*
X721086Y363158D01*
X721214Y363160D01*
X722289Y363236D01*
X722772Y363302D01*
X723628Y363490D01*
X724001Y363613D01*
X724338Y363754D01*
X724639Y363915D01*
X724902Y364094D01*
Y358906D01*
X724639Y359085D01*
X724338Y359245D01*
X724001Y359387D01*
X723628Y359509D01*
X723218Y359613D01*
X722772Y359698D01*
X721770Y359811D01*
X721214Y359840D01*
X721086Y359841D01*
X720979Y359839D01*
X720609Y359808D01*
X720258Y359757D01*
X719928Y359686D01*
X719619Y359595D01*
X719329Y359483D01*
X719059Y359351D01*
X718809Y359199D01*
X718580Y359026D01*
X718371Y358833D01*
X718371Y364167D01*
X718580Y363974D01*
D02*
G37*
G36*
X788929Y348833D02*
X788720Y349026D01*
X788491Y349199D01*
X788241Y349351D01*
X787971Y349483D01*
X787682Y349595D01*
X787372Y349686D01*
X787041Y349757D01*
X786691Y349808D01*
X786321Y349839D01*
X786024Y349846D01*
X785586Y349840D01*
X784511Y349764D01*
X784028Y349698D01*
X783172Y349509D01*
X782799Y349387D01*
X782462Y349245D01*
X782161Y349085D01*
X781898Y348906D01*
Y354094D01*
X782161Y353915D01*
X782462Y353754D01*
X782799Y353613D01*
X783172Y353490D01*
X783582Y353387D01*
X784028Y353302D01*
X785030Y353189D01*
X785586Y353160D01*
X786024Y353153D01*
X786321Y353161D01*
X786691Y353191D01*
X787041Y353242D01*
X787372Y353313D01*
X787681Y353405D01*
X787971Y353517D01*
X788241Y353649D01*
X788490Y353801D01*
X788720Y353974D01*
X788929Y354167D01*
X788929Y348833D01*
D02*
G37*
G36*
X724902Y348906D02*
X724639Y349085D01*
X724338Y349245D01*
X724001Y349387D01*
X723628Y349509D01*
X723218Y349613D01*
X722772Y349698D01*
X721770Y349811D01*
X721214Y349840D01*
X720622Y349849D01*
Y353151D01*
X721214Y353160D01*
X722289Y353236D01*
X722772Y353302D01*
X723628Y353490D01*
X724001Y353613D01*
X724338Y353754D01*
X724639Y353915D01*
X724902Y354094D01*
Y348906D01*
D02*
G37*
G36*
X711330Y353974D02*
X711560Y353801D01*
X711809Y353649D01*
X712079Y353517D01*
X712369Y353405D01*
X712679Y353313D01*
X713009Y353242D01*
X713359Y353191D01*
X713729Y353161D01*
X714120Y353151D01*
X714120Y349849D01*
X713729Y349839D01*
X713359Y349808D01*
X713008Y349757D01*
X712678Y349686D01*
X712368Y349595D01*
X712079Y349483D01*
X711809Y349351D01*
X711559Y349199D01*
X711330Y349026D01*
X711121Y348833D01*
X711121Y354167D01*
X711330Y353974D01*
D02*
G37*
G36*
X724902Y338906D02*
X724639Y339085D01*
X724338Y339245D01*
X724001Y339387D01*
X723628Y339509D01*
X723218Y339613D01*
X722772Y339698D01*
X721770Y339811D01*
X721214Y339840D01*
X720849Y339845D01*
X720588Y339838D01*
X720218Y339806D01*
X719870Y339752D01*
X719544Y339676D01*
X719239Y339579D01*
X718956Y339459D01*
X718695Y339319D01*
X718455Y339157D01*
X718237Y338973D01*
X718040Y338767D01*
X717690Y344090D01*
X717909Y343911D01*
X718148Y343752D01*
X718405Y343611D01*
X718682Y343489D01*
X718977Y343386D01*
X719291Y343301D01*
X719624Y343235D01*
X719977Y343188D01*
X720348Y343160D01*
X720692Y343152D01*
X721214Y343160D01*
X722289Y343236D01*
X722772Y343302D01*
X723628Y343490D01*
X724001Y343613D01*
X724338Y343754D01*
X724639Y343915D01*
X724902Y344094D01*
Y338906D01*
D02*
G37*
G36*
X782161Y343915D02*
X782462Y343754D01*
X782799Y343613D01*
X783172Y343490D01*
X783582Y343387D01*
X784028Y343302D01*
X785030Y343189D01*
X785586Y343160D01*
X786178Y343151D01*
Y339849D01*
X785586Y339840D01*
X784511Y339764D01*
X784028Y339698D01*
X783172Y339509D01*
X782799Y339387D01*
X782462Y339245D01*
X782161Y339085D01*
X781898Y338906D01*
Y344094D01*
X782161Y343915D01*
D02*
G37*
G36*
X724902Y328906D02*
X724639Y329085D01*
X724338Y329245D01*
X724001Y329387D01*
X723628Y329509D01*
X723218Y329613D01*
X722772Y329698D01*
X721770Y329811D01*
X721214Y329839D01*
X720622Y329849D01*
Y333151D01*
X721214Y333160D01*
X722289Y333236D01*
X722772Y333302D01*
X723628Y333490D01*
X724001Y333613D01*
X724338Y333754D01*
X724639Y333915D01*
X724902Y334094D01*
Y328906D01*
D02*
G37*
G36*
X711410Y333911D02*
X711648Y333752D01*
X711905Y333611D01*
X712182Y333489D01*
X712477Y333386D01*
X712791Y333301D01*
X713124Y333235D01*
X713477Y333188D01*
X713848Y333160D01*
X714238Y333151D01*
X714479Y329849D01*
X714088Y329838D01*
X713718Y329806D01*
X713370Y329752D01*
X713044Y329676D01*
X712739Y329579D01*
X712456Y329459D01*
X712195Y329319D01*
X711955Y329157D01*
X711737Y328973D01*
X711540Y328767D01*
X711190Y334090D01*
X711410Y333911D01*
D02*
G37*
G36*
X787056Y331693D02*
X787340Y331453D01*
X787623Y331241D01*
X787907Y331058D01*
X788191Y330903D01*
X788475Y330777D01*
X788759Y330680D01*
X789043Y330611D01*
X789327Y330571D01*
X789612Y330560D01*
X785840Y326788D01*
X785829Y327073D01*
X785789Y327357D01*
X785720Y327641D01*
X785623Y327925D01*
X785497Y328209D01*
X785342Y328493D01*
X785159Y328777D01*
X784947Y329060D01*
X784707Y329344D01*
X784438Y329627D01*
X786773Y331962D01*
X787056Y331693D01*
D02*
G37*
G36*
X724902Y308906D02*
X724639Y309085D01*
X724338Y309245D01*
X724001Y309387D01*
X723628Y309509D01*
X723218Y309613D01*
X722772Y309698D01*
X721770Y309811D01*
X721214Y309839D01*
X720622Y309849D01*
Y313151D01*
X721214Y313160D01*
X722289Y313236D01*
X722772Y313302D01*
X723628Y313490D01*
X724001Y313613D01*
X724338Y313754D01*
X724639Y313915D01*
X724902Y314094D01*
Y308906D01*
D02*
G37*
G36*
X715662Y313974D02*
X715891Y313801D01*
X716141Y313649D01*
X716411Y313517D01*
X716700Y313405D01*
X717010Y313313D01*
X717340Y313242D01*
X717691Y313192D01*
X718061Y313161D01*
X718452Y313151D01*
X718452Y309849D01*
X718061Y309839D01*
X717691Y309808D01*
X717340Y309757D01*
X717010Y309686D01*
X716700Y309595D01*
X716411Y309483D01*
X716141Y309351D01*
X715891Y309199D01*
X715662Y309026D01*
X715453Y308833D01*
X715453Y314167D01*
X715662Y313974D01*
D02*
G37*
G36*
X661571Y317649D02*
X661646Y317033D01*
X661776Y316426D01*
X661961Y315827D01*
X662200Y315238D01*
X662494Y314658D01*
X662842Y314087D01*
X663245Y313525D01*
X663702Y312973D01*
X664214Y312429D01*
X659971Y308186D01*
X659427Y308698D01*
X658875Y309155D01*
X658313Y309558D01*
X657742Y309906D01*
X657162Y310200D01*
X656573Y310439D01*
X655974Y310624D01*
X655367Y310754D01*
X654751Y310829D01*
X654125Y310850D01*
X661550Y318275D01*
X661571Y317649D01*
D02*
G37*
G36*
X787056Y311193D02*
X787340Y310953D01*
X787623Y310741D01*
X787907Y310558D01*
X788191Y310403D01*
X788475Y310277D01*
X788759Y310180D01*
X789043Y310111D01*
X789327Y310071D01*
X789612Y310060D01*
X785840Y306288D01*
X785829Y306573D01*
X785789Y306857D01*
X785720Y307141D01*
X785623Y307425D01*
X785497Y307709D01*
X785342Y307993D01*
X785159Y308277D01*
X784947Y308560D01*
X784707Y308844D01*
X784438Y309127D01*
X786773Y311462D01*
X787056Y311193D01*
D02*
G37*
G36*
X735728Y298501D02*
X735659Y298398D01*
X735598Y298226D01*
X735546Y297986D01*
X735501Y297676D01*
X735436Y296852D01*
X735400Y295100D01*
X729400D01*
X729396Y295753D01*
X729254Y297986D01*
X729202Y298226D01*
X729141Y298398D01*
X729072Y298501D01*
X728995Y298535D01*
X735805D01*
X735728Y298501D01*
D02*
G37*
G36*
X715014Y273471D02*
X714502Y272927D01*
X714045Y272375D01*
X713642Y271813D01*
X713294Y271242D01*
X713000Y270662D01*
X712761Y270073D01*
X712576Y269474D01*
X712446Y268867D01*
X712371Y268251D01*
X712350Y267625D01*
X704925Y275050D01*
X705551Y275071D01*
X706167Y275146D01*
X706774Y275276D01*
X707373Y275461D01*
X707962Y275700D01*
X708542Y275994D01*
X709113Y276342D01*
X709675Y276745D01*
X710228Y277202D01*
X710771Y277714D01*
X715014Y273471D01*
D02*
G37*
D24*
X704850Y572350D02*
X732400Y544800D01*
Y541500D02*
Y544800D01*
Y541500D02*
X774400D01*
X713900Y531500D02*
X793150D01*
X709900Y501500D02*
X794400D01*
X713650Y471500D02*
X791650D01*
X714400Y421500D02*
X790400D01*
X714900Y371500D02*
X792650D01*
X732400Y321500D02*
X774400D01*
X691642Y305650D02*
X707492Y321500D01*
X666750Y305650D02*
X691642D01*
X654050Y318350D02*
X666750Y305650D01*
X707492Y321500D02*
X732400D01*
X704850Y267550D02*
X732400Y295100D01*
Y301500D01*
X774400D01*
D25*
X713150Y521500D02*
X713150Y521500D01*
X732400D01*
X798400D02*
X798400Y521500D01*
X774400Y521500D02*
X798400D01*
X790650Y511500D02*
X790650Y511500D01*
X774400Y511500D02*
X790650D01*
X715150Y511500D02*
X715150Y511500D01*
X732400D01*
X798400Y491500D02*
X798400Y491500D01*
X774400Y491500D02*
X798400D01*
X715400Y491500D02*
X715400Y491500D01*
X732400D01*
X790900Y481500D02*
X790900Y481500D01*
X774400Y481500D02*
X790900D01*
X715400Y481500D02*
X715400Y481500D01*
X732400D01*
X713650Y461500D02*
X713650Y461500D01*
X732400D01*
X797400D02*
X797400Y461500D01*
X774400Y461500D02*
X797400D01*
X790900Y451500D02*
X790900Y451500D01*
X774400Y451500D02*
X790900D01*
X713900Y451500D02*
X713900Y451500D01*
X732400D01*
X797900Y441500D02*
X797900Y441500D01*
X774400Y441500D02*
X797900D01*
X714150Y441250D02*
X714400Y441500D01*
X732400D01*
X714400Y431250D02*
X714650Y431500D01*
X732400D01*
X791150D02*
X791150Y431500D01*
X774400Y431500D02*
X791150D01*
X714900Y411500D02*
X714900Y411500D01*
X732400D01*
X796900D02*
X796900Y411500D01*
X774400Y411500D02*
X796900D01*
X790400Y401500D02*
X790400Y401500D01*
X774400Y401500D02*
X790400D01*
X708150Y401500D02*
X708150Y401500D01*
X732400D01*
X715650Y391500D02*
X715650Y391500D01*
X732400D01*
X793650D02*
X793900Y391250D01*
X774400Y391500D02*
X793650D01*
X791400Y381500D02*
X791400Y381500D01*
X774400Y381500D02*
X791400D01*
X707400Y381500D02*
X707400Y381500D01*
X732400D01*
X714900Y371500D02*
X714900Y371500D01*
X715650Y361500D02*
X715650Y361500D01*
X732400D01*
X791650D02*
X791650Y361500D01*
X774400Y361500D02*
X791650D01*
Y351500D02*
X791650Y351500D01*
X774400Y351500D02*
X791650D01*
X708400Y351500D02*
X708400Y351500D01*
X732400D01*
X715150Y341250D02*
X715400Y341500D01*
X732400D01*
X788900D02*
X792400Y338000D01*
X774400Y341500D02*
X788900D01*
X708650Y331250D02*
X708900Y331500D01*
X732400D01*
X784900D02*
X789650Y326750D01*
X774400Y331500D02*
X784900D01*
X784400Y311500D02*
X789650Y306250D01*
X774400Y311500D02*
X784400D01*
X712732Y311500D02*
X712732Y311500D01*
X732400D01*
X864650Y122550D02*
Y478750D01*
X821900Y521500D02*
X864650Y478750D01*
X798400Y521500D02*
X821900D01*
X857150Y140450D02*
Y463750D01*
X809400Y511500D02*
X857150Y463750D01*
X790650Y511500D02*
X809400D01*
X849650Y158350D02*
Y448750D01*
X806900Y491500D02*
X849650Y448750D01*
X798400Y491500D02*
X806900D01*
X842150Y176250D02*
Y441250D01*
X801900Y481500D02*
X842150Y441250D01*
X790900Y481500D02*
X801900D01*
X834650Y194150D02*
Y433750D01*
X806900Y461500D02*
X834650Y433750D01*
X797400Y461500D02*
X806900D01*
X827150Y212050D02*
Y426250D01*
X801900Y451500D02*
X827150Y426250D01*
X790900Y451500D02*
X801900D01*
X819650Y229950D02*
Y419750D01*
X797900Y441500D02*
X819650Y419750D01*
X812150Y247850D02*
Y410500D01*
X791150Y431500D02*
X812150Y410500D01*
X804650Y268750D02*
Y403750D01*
X796900Y411500D02*
X804650Y403750D01*
X654050Y118150D02*
X804650Y268750D01*
X654050Y115150D02*
Y118150D01*
X857250Y115150D02*
X864650Y122550D01*
X831850Y115150D02*
X857150Y140450D01*
X806450Y115150D02*
X849650Y158350D01*
X781050Y115150D02*
X842150Y176250D01*
X755650Y115150D02*
X834650Y194150D01*
X730250Y115150D02*
X827150Y212050D01*
X704850Y115150D02*
X819650Y229950D01*
X679450Y115150D02*
X812150Y247850D01*
D26*
X704850Y267550D02*
D03*
Y292950D02*
D03*
X654050Y318350D02*
D03*
X679450D02*
D03*
X704850Y572350D02*
D03*
Y546950D02*
D03*
X857250Y19900D02*
D03*
X831850D02*
D03*
X806450D02*
D03*
X781050D02*
D03*
X755650D02*
D03*
X730250D02*
D03*
X704850D02*
D03*
X679450D02*
D03*
X654050D02*
D03*
X628650D02*
D03*
X603250D02*
D03*
X577850D02*
D03*
X552450D02*
D03*
X527050D02*
D03*
X501650D02*
D03*
X476250D02*
D03*
X450850D02*
D03*
X425450D02*
D03*
X400050D02*
D03*
X374650D02*
D03*
X349250D02*
D03*
X323850D02*
D03*
X298450D02*
D03*
X273050D02*
D03*
X247650D02*
D03*
X222250D02*
D03*
X196850D02*
D03*
X171450D02*
D03*
X146050D02*
D03*
X120650D02*
D03*
X95250D02*
D03*
X69850D02*
D03*
X44450D02*
D03*
X857250Y115150D02*
D03*
X831850D02*
D03*
X806450D02*
D03*
X781050D02*
D03*
X755650D02*
D03*
X730250D02*
D03*
X704850D02*
D03*
X679450D02*
D03*
X654050D02*
D03*
X628650D02*
D03*
X603250D02*
D03*
X577850D02*
D03*
X552450D02*
D03*
X527050D02*
D03*
X501650D02*
D03*
X476250D02*
D03*
X450850D02*
D03*
X425450D02*
D03*
X400050D02*
D03*
X374650D02*
D03*
X349250D02*
D03*
X323850D02*
D03*
X298450D02*
D03*
X273050D02*
D03*
X247650D02*
D03*
X222250D02*
D03*
X196850D02*
D03*
X171450D02*
D03*
X146050D02*
D03*
X120650D02*
D03*
X95250D02*
D03*
X69850D02*
D03*
X44450D02*
D03*
D27*
X19050Y19900D02*
D03*
Y115150D02*
D03*
D28*
X753400Y279000D02*
D03*
Y564000D02*
D03*
Y588500D02*
D03*
Y254500D02*
D03*
D29*
X654050Y470750D02*
D03*
X603250Y267550D02*
D03*
X69850Y216750D02*
D03*
X552450Y64350D02*
D03*
X95250Y369150D02*
D03*
X654050Y267550D02*
D03*
X95250Y64350D02*
D03*
X501650D02*
D03*
X755650D02*
D03*
X146050Y470750D02*
D03*
X44450Y369150D02*
D03*
X196850Y64350D02*
D03*
X273050Y419950D02*
D03*
X603250Y470750D02*
D03*
X552450D02*
D03*
X806450Y572350D02*
D03*
X857250Y64350D02*
D03*
X69850Y419950D02*
D03*
X654050Y64350D02*
D03*
X349250Y572350D02*
D03*
X501650Y470750D02*
D03*
X247650Y64350D02*
D03*
X450850D02*
D03*
X196850Y470750D02*
D03*
X171450Y521550D02*
D03*
X69850D02*
D03*
X247650Y369150D02*
D03*
X120650Y521550D02*
D03*
X501650Y572350D02*
D03*
X349250Y470750D02*
D03*
X298450D02*
D03*
X222250Y521550D02*
D03*
X298450Y64350D02*
D03*
X69850Y318350D02*
D03*
X95250Y470750D02*
D03*
Y267550D02*
D03*
X19050Y318350D02*
D03*
X44450Y64350D02*
D03*
X120650Y318350D02*
D03*
X44450Y572350D02*
D03*
X654050D02*
D03*
X298450D02*
D03*
X171450Y318350D02*
D03*
X19050Y521550D02*
D03*
X44450Y267550D02*
D03*
X400050Y572350D02*
D03*
Y64350D02*
D03*
X349250D02*
D03*
X146050Y267550D02*
D03*
X196850Y572350D02*
D03*
X146050D02*
D03*
X628650Y318350D02*
D03*
X603250Y572350D02*
D03*
X120650Y419950D02*
D03*
X374650Y521550D02*
D03*
X44450Y470750D02*
D03*
Y165950D02*
D03*
X196850Y369150D02*
D03*
X552450Y572350D02*
D03*
X704850Y64350D02*
D03*
X857250Y572350D02*
D03*
X19050Y419950D02*
D03*
X146050Y64350D02*
D03*
X171450Y419950D02*
D03*
X247650Y470750D02*
D03*
X806450Y64350D02*
D03*
X95250Y572350D02*
D03*
X450850D02*
D03*
X273050Y521550D02*
D03*
X247650Y572350D02*
D03*
X19050Y216750D02*
D03*
X146050Y369150D02*
D03*
X222250Y419950D02*
D03*
X603250Y64350D02*
D03*
X323850Y521550D02*
D03*
X342900Y426300D02*
D03*
X355600Y413600D02*
D03*
X368300Y400900D02*
D03*
X381000Y388200D02*
D03*
X393700Y375500D02*
D03*
X406400Y362800D02*
D03*
X419100Y350100D02*
D03*
X431800Y337400D02*
D03*
X444500Y324700D02*
D03*
X457200Y312000D02*
D03*
X469900Y299300D02*
D03*
X482600Y286600D02*
D03*
X495300Y273900D02*
D03*
X508000Y261200D02*
D03*
X520700Y248500D02*
D03*
X533400Y235800D02*
D03*
X546100Y223100D02*
D03*
X654050Y369150D02*
D03*
X603250D02*
D03*
X654050Y419950D02*
D03*
X603250D02*
D03*
X552450D02*
D03*
X654050Y502500D02*
D03*
X603250D02*
D03*
X552450D02*
D03*
X501650D02*
D03*
X406400Y521550D02*
D03*
X419100Y502500D02*
D03*
X431800Y489800D02*
D03*
X444500Y477100D02*
D03*
X457200Y464400D02*
D03*
X469900Y451700D02*
D03*
X482600Y439000D02*
D03*
X495300Y426300D02*
D03*
X508000Y413600D02*
D03*
X520700Y400900D02*
D03*
X533400Y388200D02*
D03*
X546100Y375500D02*
D03*
X558800Y362800D02*
D03*
X596900Y324700D02*
D03*
X584200Y337400D02*
D03*
X571500Y350100D02*
D03*
X603250Y305650D02*
D03*
X565150Y242150D02*
D03*
X704850Y223100D02*
D03*
X666750D02*
D03*
X628650D02*
D03*
X584200D02*
D03*
X558800Y210400D02*
D03*
X571500Y197700D02*
D03*
X584200Y185000D02*
D03*
X596900Y172300D02*
D03*
X609600Y159600D02*
D03*
X622300Y146900D02*
D03*
X50800Y134200D02*
D03*
X76200D02*
D03*
X101600D02*
D03*
X127000D02*
D03*
X152400D02*
D03*
X177800D02*
D03*
X203200D02*
D03*
X228600D02*
D03*
X254000D02*
D03*
X279400D02*
D03*
X304800D02*
D03*
X330200D02*
D03*
X355600D02*
D03*
X381000D02*
D03*
X406400D02*
D03*
X431800D02*
D03*
X457200D02*
D03*
X635000D02*
D03*
X609600D02*
D03*
X584200D02*
D03*
X558800D02*
D03*
X533400D02*
D03*
X508000D02*
D03*
X482600D02*
D03*
X831150Y152500D02*
D03*
X819150Y166000D02*
D03*
X805650Y178250D02*
D03*
X791900Y190000D02*
D03*
X849400Y146250D02*
D03*
X841650Y163000D02*
D03*
X834150Y181750D02*
D03*
X817400Y214750D02*
D03*
X826150Y198250D02*
D03*
X777650Y200750D02*
D03*
X751400Y201000D02*
D03*
X847650Y461750D02*
D03*
X753872Y531500D02*
D03*
X753618Y501500D02*
D03*
Y471500D02*
D03*
X753364Y421474D02*
D03*
X754126Y371500D02*
D03*
X714900Y371500D02*
D03*
X792650D02*
D03*
X712732Y311500D02*
D03*
X790400Y421500D02*
D03*
X714400D02*
D03*
X791650Y471500D02*
D03*
X713650D02*
D03*
X794400Y501500D02*
D03*
X709900D02*
D03*
X713900Y531500D02*
D03*
X793150D02*
D03*
X798400Y521500D02*
D03*
X790650Y511500D02*
D03*
X798400Y491500D02*
D03*
X790900Y481500D02*
D03*
X797400Y461500D02*
D03*
X790900Y451500D02*
D03*
X797900Y441500D02*
D03*
X791150Y431500D02*
D03*
X796900Y411500D02*
D03*
X790400Y401500D02*
D03*
X793900Y391250D02*
D03*
X791400Y381500D02*
D03*
X791650Y361500D02*
D03*
Y351500D02*
D03*
X792400Y338000D02*
D03*
X789650Y326750D02*
D03*
Y306250D02*
D03*
X708650Y331250D02*
D03*
X715150Y341250D02*
D03*
X708400Y351500D02*
D03*
X715650Y361500D02*
D03*
X707400Y381500D02*
D03*
X715650Y391500D02*
D03*
X708150Y401500D02*
D03*
X714900Y411500D02*
D03*
X714400Y431250D02*
D03*
X714150Y441250D02*
D03*
X713900Y451500D02*
D03*
X713650Y461500D02*
D03*
X715400Y481500D02*
D03*
Y491500D02*
D03*
X715150Y511500D02*
D03*
X713150Y521500D02*
D03*
D30*
X732400Y541500D02*
D03*
D31*
Y531500D02*
D03*
Y521500D02*
D03*
Y511500D02*
D03*
Y501500D02*
D03*
Y491500D02*
D03*
Y481500D02*
D03*
Y471500D02*
D03*
Y461500D02*
D03*
Y451500D02*
D03*
Y441500D02*
D03*
Y431500D02*
D03*
Y421500D02*
D03*
Y411500D02*
D03*
Y401500D02*
D03*
Y391500D02*
D03*
Y381500D02*
D03*
Y371500D02*
D03*
Y361500D02*
D03*
Y351500D02*
D03*
Y341500D02*
D03*
Y331500D02*
D03*
Y321500D02*
D03*
Y311500D02*
D03*
Y301500D02*
D03*
X774400Y541500D02*
D03*
Y531500D02*
D03*
Y521500D02*
D03*
Y511500D02*
D03*
Y501500D02*
D03*
Y491500D02*
D03*
Y481500D02*
D03*
Y471500D02*
D03*
Y461500D02*
D03*
Y451500D02*
D03*
Y441500D02*
D03*
Y431500D02*
D03*
Y421500D02*
D03*
Y411500D02*
D03*
Y401500D02*
D03*
Y391500D02*
D03*
Y381500D02*
D03*
Y371500D02*
D03*
Y361500D02*
D03*
Y351500D02*
D03*
Y341500D02*
D03*
Y331500D02*
D03*
Y321500D02*
D03*
Y311500D02*
D03*
Y301500D02*
D03*
M02*
