M48
;Layer_Color=9474304
;FILE_FORMAT=4:4
METRIC,TZ
;TYPE=PLATED
T1F00S00C0.3810
T2F00S00C0.9000
T3F00S00C2.0000
;TYPE=NON_PLATED
T4F00S00C2.0000
%
T01
X44450Y64350
X95250
X146050
X196850
X203200Y134200
X177800
X152400
X127000
X101600
X76200
X50800
X44450Y165950
X69850Y216750
X19050
X44450Y267550
X95250
X146050
X120650Y318350
X69850
X19050
X44450Y369150
X95250
X146050
X196850
X171450Y318350
Y419950
X120650
X69850
X19050
X222250
X273050
X247650Y369150
X355600Y413600
X368300Y400900
X381000Y388200
X393700Y375500
X406400Y362800
X419100Y350100
X431800Y337400
X444500Y324700
X457200Y312000
X469900Y299300
X482600Y286600
X495300Y273900
X508000Y261200
X520700Y248500
X533400Y235800
X546100Y223100
X558800Y210400
X571500Y197700
X584200Y185000
X596900Y172300
X609600Y159600
Y134200
X584200
X558800
X533400
X508000
X482600
X457200
X431800
X406400
X381000
X355600
X330200
X304800
X279400
X254000
X228600
X247650Y64350
X298450
X349250
X400050
X450850
X501650
X552450
X603250
X584200Y223100
X565150Y242150
X603250Y267550
Y305650
X596900Y324700
X584200Y337400
X571500Y350100
X558800Y362800
X546100Y375500
X533400Y388200
X520700Y400900
X508000Y413600
X552450Y419950
X603250
Y369150
X654050
Y419950
X714400Y421500
X714900Y411500
X708150Y401500
X715650Y391500
X707400Y381500
X714900Y371500
X715650Y361500
X708400Y351500
X715150Y341250
X708650Y331250
X712732Y311500
X789650Y306250
Y326750
X792400Y338000
X791650Y351500
Y361500
X792650Y371500
X791400Y381500
X793900Y391250
X790400Y401500
X796900Y411500
X790400Y421500
X753364Y421474
X754126Y371500
X751400Y201000
X777650Y200750
X791900Y190000
X805650Y178250
X819150Y166000
X831150Y152500
X841650Y163000
X849400Y146250
X834150Y181750
X826150Y198250
X817400Y214750
X704850Y223100
X666750
X628650
X654050Y267550
X628650Y318350
X622300Y146900
X635000Y134200
X654050Y64350
X704850
X755650
X806450
X857250
X847650Y461750
X797400Y461500
X791650Y471500
X790900Y481500
X798400Y491500
X794400Y501500
X790650Y511500
X798400Y521500
X793150Y531500
X753872
X753618Y501500
Y471500
X713650
Y461500
X713900Y451500
X714150Y441250
X714400Y431250
X715400Y481500
Y491500
X709900Y501500
X715150Y511500
X713150Y521500
X713900Y531500
X654050Y502500
Y470750
Y572350
X806450
X857250
X790900Y451500
X797900Y441500
X791150Y431500
X603250Y470750
Y502500
X552450
Y470750
X501650
Y502500
Y572350
X552450
X603250
X450850
X400050
X349250
X298450
X247650
X222250Y521550
X273050
X323850
X374650
X406400
X419100Y502500
X431800Y489800
X444500Y477100
X457200Y464400
X469900Y451700
X482600Y439000
X495300Y426300
X342900
X349250Y470750
X298450
X247650
X196850
X146050
X95250
X44450
X69850Y521550
X120650
X171450
X196850Y572350
X146050
X95250
X44450
X19050Y521550
T02
X628650Y19900
X654050
X679450
X704850
X730250
X755650
X781050
X806450
X831850
X857250
X603250
X577850
X552450
X527050
X501650
X476250
X450850
X425450
X400050
X374650
X349250
X323850
X298450
X273050
X247650
X222250
X196850
X171450
X146050
X120650
X95250
X69850
X44450
X19050
Y115150
X44450
X69850
X95250
X120650
X146050
X171450
X196850
X222250
X247650
X273050
X298450
X323850
X349250
X374650
X400050
X425450
X450850
X476250
X501650
X527050
X552450
X577850
X603250
X628650
X654050
X679450
X704850
X730250
X755650
X781050
X806450
X831850
X857250
X704850Y267550
Y292950
X679450Y318350
X654050
X704850Y546950
Y572350
T03
X753400Y254500
Y588500
T04
X753400Y279000
Y564000
M30
